%TF.GenerationSoftware,KiCad,Pcbnew,8.0.0*%
%TF.CreationDate,2024-03-16T12:32:22-04:00*%
%TF.ProjectId,AMP_PCBv3,414d505f-5043-4427-9633-2e6b69636164,A*%
%TF.SameCoordinates,Original*%
%TF.FileFunction,Legend,Bot*%
%TF.FilePolarity,Positive*%
%FSLAX46Y46*%
G04 Gerber Fmt 4.6, Leading zero omitted, Abs format (unit mm)*
G04 Created by KiCad (PCBNEW 8.0.0) date 2024-03-16 12:32:22*
%MOMM*%
%LPD*%
G01*
G04 APERTURE LIST*
G04 Aperture macros list*
%AMRoundRect*
0 Rectangle with rounded corners*
0 $1 Rounding radius*
0 $2 $3 $4 $5 $6 $7 $8 $9 X,Y pos of 4 corners*
0 Add a 4 corners polygon primitive as box body*
4,1,4,$2,$3,$4,$5,$6,$7,$8,$9,$2,$3,0*
0 Add four circle primitives for the rounded corners*
1,1,$1+$1,$2,$3*
1,1,$1+$1,$4,$5*
1,1,$1+$1,$6,$7*
1,1,$1+$1,$8,$9*
0 Add four rect primitives between the rounded corners*
20,1,$1+$1,$2,$3,$4,$5,0*
20,1,$1+$1,$4,$5,$6,$7,0*
20,1,$1+$1,$6,$7,$8,$9,0*
20,1,$1+$1,$8,$9,$2,$3,0*%
G04 Aperture macros list end*
%ADD10C,0.150000*%
%ADD11C,0.120000*%
%ADD12R,1.050000X1.050000*%
%ADD13C,1.050000*%
%ADD14C,2.500000*%
%ADD15RoundRect,0.250001X1.099999X1.399999X-1.099999X1.399999X-1.099999X-1.399999X1.099999X-1.399999X0*%
%ADD16O,2.700000X3.300000*%
%ADD17RoundRect,0.250000X-0.350000X-0.625000X0.350000X-0.625000X0.350000X0.625000X-0.350000X0.625000X0*%
%ADD18O,1.200000X1.750000*%
%ADD19R,1.700000X1.700000*%
%ADD20O,1.700000X1.700000*%
%ADD21RoundRect,0.250000X0.845000X-0.620000X0.845000X0.620000X-0.845000X0.620000X-0.845000X-0.620000X0*%
%ADD22O,2.190000X1.740000*%
%ADD23C,2.050000*%
%ADD24C,2.250000*%
%ADD25RoundRect,0.250000X0.625000X-0.350000X0.625000X0.350000X-0.625000X0.350000X-0.625000X-0.350000X0*%
%ADD26O,1.750000X1.200000*%
%ADD27RoundRect,0.250000X0.620000X0.845000X-0.620000X0.845000X-0.620000X-0.845000X0.620000X-0.845000X0*%
%ADD28O,1.740000X2.190000*%
%ADD29RoundRect,0.250001X1.399999X-1.099999X1.399999X1.099999X-1.399999X1.099999X-1.399999X-1.099999X0*%
%ADD30O,3.300000X2.700000*%
%ADD31RoundRect,0.250000X0.475000X-0.337500X0.475000X0.337500X-0.475000X0.337500X-0.475000X-0.337500X0*%
%ADD32RoundRect,0.250000X-0.337500X-0.475000X0.337500X-0.475000X0.337500X0.475000X-0.337500X0.475000X0*%
%ADD33RoundRect,0.250000X0.450000X-0.350000X0.450000X0.350000X-0.450000X0.350000X-0.450000X-0.350000X0*%
%ADD34RoundRect,0.250000X-0.450000X0.350000X-0.450000X-0.350000X0.450000X-0.350000X0.450000X0.350000X0*%
%ADD35RoundRect,0.250000X-0.475000X0.337500X-0.475000X-0.337500X0.475000X-0.337500X0.475000X0.337500X0*%
G04 APERTURE END LIST*
D10*
X127359580Y-107607142D02*
X127407200Y-107559523D01*
X127407200Y-107559523D02*
X127454819Y-107416666D01*
X127454819Y-107416666D02*
X127454819Y-107321428D01*
X127454819Y-107321428D02*
X127407200Y-107178571D01*
X127407200Y-107178571D02*
X127311961Y-107083333D01*
X127311961Y-107083333D02*
X127216723Y-107035714D01*
X127216723Y-107035714D02*
X127026247Y-106988095D01*
X127026247Y-106988095D02*
X126883390Y-106988095D01*
X126883390Y-106988095D02*
X126692914Y-107035714D01*
X126692914Y-107035714D02*
X126597676Y-107083333D01*
X126597676Y-107083333D02*
X126502438Y-107178571D01*
X126502438Y-107178571D02*
X126454819Y-107321428D01*
X126454819Y-107321428D02*
X126454819Y-107416666D01*
X126454819Y-107416666D02*
X126502438Y-107559523D01*
X126502438Y-107559523D02*
X126550057Y-107607142D01*
X126550057Y-107988095D02*
X126502438Y-108035714D01*
X126502438Y-108035714D02*
X126454819Y-108130952D01*
X126454819Y-108130952D02*
X126454819Y-108369047D01*
X126454819Y-108369047D02*
X126502438Y-108464285D01*
X126502438Y-108464285D02*
X126550057Y-108511904D01*
X126550057Y-108511904D02*
X126645295Y-108559523D01*
X126645295Y-108559523D02*
X126740533Y-108559523D01*
X126740533Y-108559523D02*
X126883390Y-108511904D01*
X126883390Y-108511904D02*
X127454819Y-107940476D01*
X127454819Y-107940476D02*
X127454819Y-108559523D01*
X127454819Y-109511904D02*
X127454819Y-108940476D01*
X127454819Y-109226190D02*
X126454819Y-109226190D01*
X126454819Y-109226190D02*
X126597676Y-109130952D01*
X126597676Y-109130952D02*
X126692914Y-109035714D01*
X126692914Y-109035714D02*
X126740533Y-108940476D01*
X131642857Y-112039580D02*
X131690476Y-112087200D01*
X131690476Y-112087200D02*
X131833333Y-112134819D01*
X131833333Y-112134819D02*
X131928571Y-112134819D01*
X131928571Y-112134819D02*
X132071428Y-112087200D01*
X132071428Y-112087200D02*
X132166666Y-111991961D01*
X132166666Y-111991961D02*
X132214285Y-111896723D01*
X132214285Y-111896723D02*
X132261904Y-111706247D01*
X132261904Y-111706247D02*
X132261904Y-111563390D01*
X132261904Y-111563390D02*
X132214285Y-111372914D01*
X132214285Y-111372914D02*
X132166666Y-111277676D01*
X132166666Y-111277676D02*
X132071428Y-111182438D01*
X132071428Y-111182438D02*
X131928571Y-111134819D01*
X131928571Y-111134819D02*
X131833333Y-111134819D01*
X131833333Y-111134819D02*
X131690476Y-111182438D01*
X131690476Y-111182438D02*
X131642857Y-111230057D01*
X131261904Y-111230057D02*
X131214285Y-111182438D01*
X131214285Y-111182438D02*
X131119047Y-111134819D01*
X131119047Y-111134819D02*
X130880952Y-111134819D01*
X130880952Y-111134819D02*
X130785714Y-111182438D01*
X130785714Y-111182438D02*
X130738095Y-111230057D01*
X130738095Y-111230057D02*
X130690476Y-111325295D01*
X130690476Y-111325295D02*
X130690476Y-111420533D01*
X130690476Y-111420533D02*
X130738095Y-111563390D01*
X130738095Y-111563390D02*
X131309523Y-112134819D01*
X131309523Y-112134819D02*
X130690476Y-112134819D01*
X130309523Y-111230057D02*
X130261904Y-111182438D01*
X130261904Y-111182438D02*
X130166666Y-111134819D01*
X130166666Y-111134819D02*
X129928571Y-111134819D01*
X129928571Y-111134819D02*
X129833333Y-111182438D01*
X129833333Y-111182438D02*
X129785714Y-111230057D01*
X129785714Y-111230057D02*
X129738095Y-111325295D01*
X129738095Y-111325295D02*
X129738095Y-111420533D01*
X129738095Y-111420533D02*
X129785714Y-111563390D01*
X129785714Y-111563390D02*
X130357142Y-112134819D01*
X130357142Y-112134819D02*
X129738095Y-112134819D01*
X164204819Y-79583333D02*
X163728628Y-79250000D01*
X164204819Y-79011905D02*
X163204819Y-79011905D01*
X163204819Y-79011905D02*
X163204819Y-79392857D01*
X163204819Y-79392857D02*
X163252438Y-79488095D01*
X163252438Y-79488095D02*
X163300057Y-79535714D01*
X163300057Y-79535714D02*
X163395295Y-79583333D01*
X163395295Y-79583333D02*
X163538152Y-79583333D01*
X163538152Y-79583333D02*
X163633390Y-79535714D01*
X163633390Y-79535714D02*
X163681009Y-79488095D01*
X163681009Y-79488095D02*
X163728628Y-79392857D01*
X163728628Y-79392857D02*
X163728628Y-79011905D01*
X164204819Y-80059524D02*
X164204819Y-80250000D01*
X164204819Y-80250000D02*
X164157200Y-80345238D01*
X164157200Y-80345238D02*
X164109580Y-80392857D01*
X164109580Y-80392857D02*
X163966723Y-80488095D01*
X163966723Y-80488095D02*
X163776247Y-80535714D01*
X163776247Y-80535714D02*
X163395295Y-80535714D01*
X163395295Y-80535714D02*
X163300057Y-80488095D01*
X163300057Y-80488095D02*
X163252438Y-80440476D01*
X163252438Y-80440476D02*
X163204819Y-80345238D01*
X163204819Y-80345238D02*
X163204819Y-80154762D01*
X163204819Y-80154762D02*
X163252438Y-80059524D01*
X163252438Y-80059524D02*
X163300057Y-80011905D01*
X163300057Y-80011905D02*
X163395295Y-79964286D01*
X163395295Y-79964286D02*
X163633390Y-79964286D01*
X163633390Y-79964286D02*
X163728628Y-80011905D01*
X163728628Y-80011905D02*
X163776247Y-80059524D01*
X163776247Y-80059524D02*
X163823866Y-80154762D01*
X163823866Y-80154762D02*
X163823866Y-80345238D01*
X163823866Y-80345238D02*
X163776247Y-80440476D01*
X163776247Y-80440476D02*
X163728628Y-80488095D01*
X163728628Y-80488095D02*
X163633390Y-80535714D01*
X172454819Y-73333333D02*
X171978628Y-73000000D01*
X172454819Y-72761905D02*
X171454819Y-72761905D01*
X171454819Y-72761905D02*
X171454819Y-73142857D01*
X171454819Y-73142857D02*
X171502438Y-73238095D01*
X171502438Y-73238095D02*
X171550057Y-73285714D01*
X171550057Y-73285714D02*
X171645295Y-73333333D01*
X171645295Y-73333333D02*
X171788152Y-73333333D01*
X171788152Y-73333333D02*
X171883390Y-73285714D01*
X171883390Y-73285714D02*
X171931009Y-73238095D01*
X171931009Y-73238095D02*
X171978628Y-73142857D01*
X171978628Y-73142857D02*
X171978628Y-72761905D01*
X171550057Y-73714286D02*
X171502438Y-73761905D01*
X171502438Y-73761905D02*
X171454819Y-73857143D01*
X171454819Y-73857143D02*
X171454819Y-74095238D01*
X171454819Y-74095238D02*
X171502438Y-74190476D01*
X171502438Y-74190476D02*
X171550057Y-74238095D01*
X171550057Y-74238095D02*
X171645295Y-74285714D01*
X171645295Y-74285714D02*
X171740533Y-74285714D01*
X171740533Y-74285714D02*
X171883390Y-74238095D01*
X171883390Y-74238095D02*
X172454819Y-73666667D01*
X172454819Y-73666667D02*
X172454819Y-74285714D01*
X166954819Y-78607142D02*
X166478628Y-78273809D01*
X166954819Y-78035714D02*
X165954819Y-78035714D01*
X165954819Y-78035714D02*
X165954819Y-78416666D01*
X165954819Y-78416666D02*
X166002438Y-78511904D01*
X166002438Y-78511904D02*
X166050057Y-78559523D01*
X166050057Y-78559523D02*
X166145295Y-78607142D01*
X166145295Y-78607142D02*
X166288152Y-78607142D01*
X166288152Y-78607142D02*
X166383390Y-78559523D01*
X166383390Y-78559523D02*
X166431009Y-78511904D01*
X166431009Y-78511904D02*
X166478628Y-78416666D01*
X166478628Y-78416666D02*
X166478628Y-78035714D01*
X166954819Y-79559523D02*
X166954819Y-78988095D01*
X166954819Y-79273809D02*
X165954819Y-79273809D01*
X165954819Y-79273809D02*
X166097676Y-79178571D01*
X166097676Y-79178571D02*
X166192914Y-79083333D01*
X166192914Y-79083333D02*
X166240533Y-78988095D01*
X165954819Y-80178571D02*
X165954819Y-80273809D01*
X165954819Y-80273809D02*
X166002438Y-80369047D01*
X166002438Y-80369047D02*
X166050057Y-80416666D01*
X166050057Y-80416666D02*
X166145295Y-80464285D01*
X166145295Y-80464285D02*
X166335771Y-80511904D01*
X166335771Y-80511904D02*
X166573866Y-80511904D01*
X166573866Y-80511904D02*
X166764342Y-80464285D01*
X166764342Y-80464285D02*
X166859580Y-80416666D01*
X166859580Y-80416666D02*
X166907200Y-80369047D01*
X166907200Y-80369047D02*
X166954819Y-80273809D01*
X166954819Y-80273809D02*
X166954819Y-80178571D01*
X166954819Y-80178571D02*
X166907200Y-80083333D01*
X166907200Y-80083333D02*
X166859580Y-80035714D01*
X166859580Y-80035714D02*
X166764342Y-79988095D01*
X166764342Y-79988095D02*
X166573866Y-79940476D01*
X166573866Y-79940476D02*
X166335771Y-79940476D01*
X166335771Y-79940476D02*
X166145295Y-79988095D01*
X166145295Y-79988095D02*
X166050057Y-80035714D01*
X166050057Y-80035714D02*
X166002438Y-80083333D01*
X166002438Y-80083333D02*
X165954819Y-80178571D01*
X169704819Y-78607142D02*
X169228628Y-78273809D01*
X169704819Y-78035714D02*
X168704819Y-78035714D01*
X168704819Y-78035714D02*
X168704819Y-78416666D01*
X168704819Y-78416666D02*
X168752438Y-78511904D01*
X168752438Y-78511904D02*
X168800057Y-78559523D01*
X168800057Y-78559523D02*
X168895295Y-78607142D01*
X168895295Y-78607142D02*
X169038152Y-78607142D01*
X169038152Y-78607142D02*
X169133390Y-78559523D01*
X169133390Y-78559523D02*
X169181009Y-78511904D01*
X169181009Y-78511904D02*
X169228628Y-78416666D01*
X169228628Y-78416666D02*
X169228628Y-78035714D01*
X169704819Y-79559523D02*
X169704819Y-78988095D01*
X169704819Y-79273809D02*
X168704819Y-79273809D01*
X168704819Y-79273809D02*
X168847676Y-79178571D01*
X168847676Y-79178571D02*
X168942914Y-79083333D01*
X168942914Y-79083333D02*
X168990533Y-78988095D01*
X169704819Y-80511904D02*
X169704819Y-79940476D01*
X169704819Y-80226190D02*
X168704819Y-80226190D01*
X168704819Y-80226190D02*
X168847676Y-80130952D01*
X168847676Y-80130952D02*
X168942914Y-80035714D01*
X168942914Y-80035714D02*
X168990533Y-79940476D01*
X168454819Y-73333333D02*
X167978628Y-73000000D01*
X168454819Y-72761905D02*
X167454819Y-72761905D01*
X167454819Y-72761905D02*
X167454819Y-73142857D01*
X167454819Y-73142857D02*
X167502438Y-73238095D01*
X167502438Y-73238095D02*
X167550057Y-73285714D01*
X167550057Y-73285714D02*
X167645295Y-73333333D01*
X167645295Y-73333333D02*
X167788152Y-73333333D01*
X167788152Y-73333333D02*
X167883390Y-73285714D01*
X167883390Y-73285714D02*
X167931009Y-73238095D01*
X167931009Y-73238095D02*
X167978628Y-73142857D01*
X167978628Y-73142857D02*
X167978628Y-72761905D01*
X168454819Y-74285714D02*
X168454819Y-73714286D01*
X168454819Y-74000000D02*
X167454819Y-74000000D01*
X167454819Y-74000000D02*
X167597676Y-73904762D01*
X167597676Y-73904762D02*
X167692914Y-73809524D01*
X167692914Y-73809524D02*
X167740533Y-73714286D01*
X131642857Y-106359580D02*
X131690476Y-106407200D01*
X131690476Y-106407200D02*
X131833333Y-106454819D01*
X131833333Y-106454819D02*
X131928571Y-106454819D01*
X131928571Y-106454819D02*
X132071428Y-106407200D01*
X132071428Y-106407200D02*
X132166666Y-106311961D01*
X132166666Y-106311961D02*
X132214285Y-106216723D01*
X132214285Y-106216723D02*
X132261904Y-106026247D01*
X132261904Y-106026247D02*
X132261904Y-105883390D01*
X132261904Y-105883390D02*
X132214285Y-105692914D01*
X132214285Y-105692914D02*
X132166666Y-105597676D01*
X132166666Y-105597676D02*
X132071428Y-105502438D01*
X132071428Y-105502438D02*
X131928571Y-105454819D01*
X131928571Y-105454819D02*
X131833333Y-105454819D01*
X131833333Y-105454819D02*
X131690476Y-105502438D01*
X131690476Y-105502438D02*
X131642857Y-105550057D01*
X131261904Y-105550057D02*
X131214285Y-105502438D01*
X131214285Y-105502438D02*
X131119047Y-105454819D01*
X131119047Y-105454819D02*
X130880952Y-105454819D01*
X130880952Y-105454819D02*
X130785714Y-105502438D01*
X130785714Y-105502438D02*
X130738095Y-105550057D01*
X130738095Y-105550057D02*
X130690476Y-105645295D01*
X130690476Y-105645295D02*
X130690476Y-105740533D01*
X130690476Y-105740533D02*
X130738095Y-105883390D01*
X130738095Y-105883390D02*
X131309523Y-106454819D01*
X131309523Y-106454819D02*
X130690476Y-106454819D01*
X129833333Y-105788152D02*
X129833333Y-106454819D01*
X130071428Y-105407200D02*
X130309523Y-106121485D01*
X130309523Y-106121485D02*
X129690476Y-106121485D01*
X161454819Y-79583333D02*
X160978628Y-79250000D01*
X161454819Y-79011905D02*
X160454819Y-79011905D01*
X160454819Y-79011905D02*
X160454819Y-79392857D01*
X160454819Y-79392857D02*
X160502438Y-79488095D01*
X160502438Y-79488095D02*
X160550057Y-79535714D01*
X160550057Y-79535714D02*
X160645295Y-79583333D01*
X160645295Y-79583333D02*
X160788152Y-79583333D01*
X160788152Y-79583333D02*
X160883390Y-79535714D01*
X160883390Y-79535714D02*
X160931009Y-79488095D01*
X160931009Y-79488095D02*
X160978628Y-79392857D01*
X160978628Y-79392857D02*
X160978628Y-79011905D01*
X160883390Y-80154762D02*
X160835771Y-80059524D01*
X160835771Y-80059524D02*
X160788152Y-80011905D01*
X160788152Y-80011905D02*
X160692914Y-79964286D01*
X160692914Y-79964286D02*
X160645295Y-79964286D01*
X160645295Y-79964286D02*
X160550057Y-80011905D01*
X160550057Y-80011905D02*
X160502438Y-80059524D01*
X160502438Y-80059524D02*
X160454819Y-80154762D01*
X160454819Y-80154762D02*
X160454819Y-80345238D01*
X160454819Y-80345238D02*
X160502438Y-80440476D01*
X160502438Y-80440476D02*
X160550057Y-80488095D01*
X160550057Y-80488095D02*
X160645295Y-80535714D01*
X160645295Y-80535714D02*
X160692914Y-80535714D01*
X160692914Y-80535714D02*
X160788152Y-80488095D01*
X160788152Y-80488095D02*
X160835771Y-80440476D01*
X160835771Y-80440476D02*
X160883390Y-80345238D01*
X160883390Y-80345238D02*
X160883390Y-80154762D01*
X160883390Y-80154762D02*
X160931009Y-80059524D01*
X160931009Y-80059524D02*
X160978628Y-80011905D01*
X160978628Y-80011905D02*
X161073866Y-79964286D01*
X161073866Y-79964286D02*
X161264342Y-79964286D01*
X161264342Y-79964286D02*
X161359580Y-80011905D01*
X161359580Y-80011905D02*
X161407200Y-80059524D01*
X161407200Y-80059524D02*
X161454819Y-80154762D01*
X161454819Y-80154762D02*
X161454819Y-80345238D01*
X161454819Y-80345238D02*
X161407200Y-80440476D01*
X161407200Y-80440476D02*
X161359580Y-80488095D01*
X161359580Y-80488095D02*
X161264342Y-80535714D01*
X161264342Y-80535714D02*
X161073866Y-80535714D01*
X161073866Y-80535714D02*
X160978628Y-80488095D01*
X160978628Y-80488095D02*
X160931009Y-80440476D01*
X160931009Y-80440476D02*
X160883390Y-80345238D01*
X121679580Y-107607142D02*
X121727200Y-107559523D01*
X121727200Y-107559523D02*
X121774819Y-107416666D01*
X121774819Y-107416666D02*
X121774819Y-107321428D01*
X121774819Y-107321428D02*
X121727200Y-107178571D01*
X121727200Y-107178571D02*
X121631961Y-107083333D01*
X121631961Y-107083333D02*
X121536723Y-107035714D01*
X121536723Y-107035714D02*
X121346247Y-106988095D01*
X121346247Y-106988095D02*
X121203390Y-106988095D01*
X121203390Y-106988095D02*
X121012914Y-107035714D01*
X121012914Y-107035714D02*
X120917676Y-107083333D01*
X120917676Y-107083333D02*
X120822438Y-107178571D01*
X120822438Y-107178571D02*
X120774819Y-107321428D01*
X120774819Y-107321428D02*
X120774819Y-107416666D01*
X120774819Y-107416666D02*
X120822438Y-107559523D01*
X120822438Y-107559523D02*
X120870057Y-107607142D01*
X120870057Y-107988095D02*
X120822438Y-108035714D01*
X120822438Y-108035714D02*
X120774819Y-108130952D01*
X120774819Y-108130952D02*
X120774819Y-108369047D01*
X120774819Y-108369047D02*
X120822438Y-108464285D01*
X120822438Y-108464285D02*
X120870057Y-108511904D01*
X120870057Y-108511904D02*
X120965295Y-108559523D01*
X120965295Y-108559523D02*
X121060533Y-108559523D01*
X121060533Y-108559523D02*
X121203390Y-108511904D01*
X121203390Y-108511904D02*
X121774819Y-107940476D01*
X121774819Y-107940476D02*
X121774819Y-108559523D01*
X120774819Y-108892857D02*
X120774819Y-109511904D01*
X120774819Y-109511904D02*
X121155771Y-109178571D01*
X121155771Y-109178571D02*
X121155771Y-109321428D01*
X121155771Y-109321428D02*
X121203390Y-109416666D01*
X121203390Y-109416666D02*
X121251009Y-109464285D01*
X121251009Y-109464285D02*
X121346247Y-109511904D01*
X121346247Y-109511904D02*
X121584342Y-109511904D01*
X121584342Y-109511904D02*
X121679580Y-109464285D01*
X121679580Y-109464285D02*
X121727200Y-109416666D01*
X121727200Y-109416666D02*
X121774819Y-109321428D01*
X121774819Y-109321428D02*
X121774819Y-109035714D01*
X121774819Y-109035714D02*
X121727200Y-108940476D01*
X121727200Y-108940476D02*
X121679580Y-108892857D01*
X176454819Y-73344333D02*
X175978628Y-73011000D01*
X176454819Y-72772905D02*
X175454819Y-72772905D01*
X175454819Y-72772905D02*
X175454819Y-73153857D01*
X175454819Y-73153857D02*
X175502438Y-73249095D01*
X175502438Y-73249095D02*
X175550057Y-73296714D01*
X175550057Y-73296714D02*
X175645295Y-73344333D01*
X175645295Y-73344333D02*
X175788152Y-73344333D01*
X175788152Y-73344333D02*
X175883390Y-73296714D01*
X175883390Y-73296714D02*
X175931009Y-73249095D01*
X175931009Y-73249095D02*
X175978628Y-73153857D01*
X175978628Y-73153857D02*
X175978628Y-72772905D01*
X175454819Y-73677667D02*
X175454819Y-74296714D01*
X175454819Y-74296714D02*
X175835771Y-73963381D01*
X175835771Y-73963381D02*
X175835771Y-74106238D01*
X175835771Y-74106238D02*
X175883390Y-74201476D01*
X175883390Y-74201476D02*
X175931009Y-74249095D01*
X175931009Y-74249095D02*
X176026247Y-74296714D01*
X176026247Y-74296714D02*
X176264342Y-74296714D01*
X176264342Y-74296714D02*
X176359580Y-74249095D01*
X176359580Y-74249095D02*
X176407200Y-74201476D01*
X176407200Y-74201476D02*
X176454819Y-74106238D01*
X176454819Y-74106238D02*
X176454819Y-73820524D01*
X176454819Y-73820524D02*
X176407200Y-73725286D01*
X176407200Y-73725286D02*
X176359580Y-73677667D01*
D11*
%TO.C,C21*%
X124515000Y-108511252D02*
X124515000Y-107988748D01*
X125985000Y-108511252D02*
X125985000Y-107988748D01*
%TO.C,C22*%
X130738748Y-109265000D02*
X131261252Y-109265000D01*
X130738748Y-110735000D02*
X131261252Y-110735000D01*
%TO.C,R9*%
X163015000Y-82727064D02*
X163015000Y-82272936D01*
X164485000Y-82727064D02*
X164485000Y-82272936D01*
%TO.C,R2*%
X172735000Y-70522936D02*
X172735000Y-70977064D01*
X171265000Y-70522936D02*
X171265000Y-70977064D01*
%TO.C,R10*%
X165765000Y-82727064D02*
X165765000Y-82272936D01*
X167235000Y-82727064D02*
X167235000Y-82272936D01*
%TO.C,R11*%
X168515000Y-82727064D02*
X168515000Y-82272936D01*
X169985000Y-82727064D02*
X169985000Y-82272936D01*
%TO.C,R1*%
X168735000Y-70522936D02*
X168735000Y-70977064D01*
X167265000Y-70522936D02*
X167265000Y-70977064D01*
%TO.C,C24*%
X130738748Y-107015000D02*
X131261252Y-107015000D01*
X130738748Y-108485000D02*
X131261252Y-108485000D01*
%TO.C,R8*%
X160265000Y-82727064D02*
X160265000Y-82272936D01*
X161735000Y-82727064D02*
X161735000Y-82272936D01*
%TO.C,C23*%
X123735000Y-107988748D02*
X123735000Y-108511252D01*
X122265000Y-107988748D02*
X122265000Y-108511252D01*
%TO.C,R3*%
X176735000Y-70522936D02*
X176735000Y-70977064D01*
X175265000Y-70522936D02*
X175265000Y-70977064D01*
%TD*%
%LPC*%
D12*
%TO.C,J2*%
X126700000Y-118500000D03*
D13*
X125900000Y-120400000D03*
X125100000Y-118500000D03*
X124300000Y-120400000D03*
X123500000Y-118500000D03*
D14*
X129350000Y-119440000D03*
X120850000Y-119440000D03*
%TD*%
D15*
%TO.C,J1*%
X140250000Y-91000000D03*
D16*
X140250000Y-85500000D03*
%TD*%
D17*
%TO.C,J5*%
X112250000Y-70750000D03*
D18*
X114250000Y-70750000D03*
X116250000Y-70750000D03*
X118250000Y-70750000D03*
X120250000Y-70750000D03*
X122250000Y-70750000D03*
X124250000Y-70750000D03*
X126250000Y-70750000D03*
%TD*%
D15*
%TO.C,M1*%
X160750000Y-95250000D03*
D16*
X160750000Y-89750000D03*
%TD*%
D19*
%TO.C,CN10*%
X172960000Y-76280000D03*
D20*
X175500000Y-76280000D03*
X172960000Y-78820000D03*
X175500000Y-78820000D03*
X172960000Y-81360000D03*
X175500000Y-81360000D03*
X172960000Y-83900000D03*
X175500000Y-83900000D03*
X172960000Y-86440000D03*
X175500000Y-86440000D03*
X172960000Y-88980000D03*
X175500000Y-88980000D03*
X172960000Y-91520000D03*
X175500000Y-91520000D03*
X172960000Y-94060000D03*
X175500000Y-94060000D03*
X172960000Y-96600000D03*
X175500000Y-96600000D03*
X172960000Y-99140000D03*
X175500000Y-99140000D03*
X172960000Y-101680000D03*
X175500000Y-101680000D03*
X172960000Y-104220000D03*
X175500000Y-104220000D03*
X172960000Y-106760000D03*
X175500000Y-106760000D03*
X172960000Y-109300000D03*
X175500000Y-109300000D03*
X172960000Y-111840000D03*
X175500000Y-111840000D03*
X172960000Y-114380000D03*
X175500000Y-114380000D03*
X172960000Y-116920000D03*
X175500000Y-116920000D03*
X172960000Y-119460000D03*
X175500000Y-119460000D03*
X172960000Y-122000000D03*
X175500000Y-122000000D03*
%TD*%
D21*
%TO.C,M2*%
X114520000Y-136290000D03*
D22*
X114520000Y-133750000D03*
X114520000Y-131210000D03*
%TD*%
D23*
%TO.C,AE1*%
X168000000Y-133500000D03*
D24*
X170540000Y-130960000D03*
X165460000Y-130960000D03*
X170540000Y-136040000D03*
X165460000Y-136040000D03*
%TD*%
D19*
%TO.C,CN7*%
X112000000Y-76280000D03*
D20*
X114540000Y-76280000D03*
X112000000Y-78820000D03*
X114540000Y-78820000D03*
X112000000Y-81360000D03*
X114540000Y-81360000D03*
X112000000Y-83900000D03*
X114540000Y-83900000D03*
X112000000Y-86440000D03*
X114540000Y-86440000D03*
X112000000Y-88980000D03*
X114540000Y-88980000D03*
X112000000Y-91520000D03*
X114540000Y-91520000D03*
X112000000Y-94060000D03*
X114540000Y-94060000D03*
X112000000Y-96600000D03*
X114540000Y-96600000D03*
X112000000Y-99140000D03*
X114540000Y-99140000D03*
X112000000Y-101680000D03*
X114540000Y-101680000D03*
X112000000Y-104220000D03*
X114540000Y-104220000D03*
X112000000Y-106760000D03*
X114540000Y-106760000D03*
X112000000Y-109300000D03*
X114540000Y-109300000D03*
X112000000Y-111840000D03*
X114540000Y-111840000D03*
X112000000Y-114380000D03*
X114540000Y-114380000D03*
X112000000Y-116920000D03*
X114540000Y-116920000D03*
X112000000Y-119460000D03*
X114540000Y-119460000D03*
X112000000Y-122000000D03*
X114540000Y-122000000D03*
%TD*%
D21*
%TO.C,M4*%
X131520000Y-136290000D03*
D22*
X131520000Y-133750000D03*
X131520000Y-131210000D03*
%TD*%
D25*
%TO.C,J4*%
X161750000Y-75250000D03*
D26*
X161750000Y-73250000D03*
X161750000Y-71250000D03*
%TD*%
D21*
%TO.C,M5*%
X140040000Y-136290000D03*
D22*
X140040000Y-133750000D03*
X140040000Y-131210000D03*
%TD*%
D21*
%TO.C,M3*%
X123040000Y-136290000D03*
D22*
X123040000Y-133750000D03*
X123040000Y-131210000D03*
%TD*%
D27*
%TO.C,J3*%
X156790000Y-133500000D03*
D28*
X154250000Y-133500000D03*
X151710000Y-133500000D03*
%TD*%
D29*
%TO.C,J6*%
X140250000Y-120050000D03*
D30*
X140250000Y-115850000D03*
X140250000Y-111650000D03*
X140250000Y-107450000D03*
X145750000Y-120050000D03*
X145750000Y-115850000D03*
X145750000Y-111650000D03*
X145750000Y-107450000D03*
%TD*%
D31*
%TO.C,C21*%
X125250000Y-109287500D03*
X125250000Y-107212500D03*
%TD*%
D32*
%TO.C,C22*%
X129962500Y-110000000D03*
X132037500Y-110000000D03*
%TD*%
D33*
%TO.C,R9*%
X163750000Y-83500000D03*
X163750000Y-81500000D03*
%TD*%
D34*
%TO.C,R2*%
X172000000Y-69750000D03*
X172000000Y-71750000D03*
%TD*%
D33*
%TO.C,R10*%
X166500000Y-83500000D03*
X166500000Y-81500000D03*
%TD*%
%TO.C,R11*%
X169250000Y-83500000D03*
X169250000Y-81500000D03*
%TD*%
D34*
%TO.C,R1*%
X168000000Y-69750000D03*
X168000000Y-71750000D03*
%TD*%
D32*
%TO.C,C24*%
X129962500Y-107750000D03*
X132037500Y-107750000D03*
%TD*%
D33*
%TO.C,R8*%
X161000000Y-83500000D03*
X161000000Y-81500000D03*
%TD*%
D35*
%TO.C,C23*%
X123000000Y-107212500D03*
X123000000Y-109287500D03*
%TD*%
D34*
%TO.C,R3*%
X176000000Y-69750000D03*
X176000000Y-71750000D03*
%TD*%
%LPD*%
M02*
