M48
; DRILL file {KiCad 8.0.0} date 2024-03-16T12:32:33-0400
; FORMAT={-:-/ absolute / metric / decimal}
; #@! TF.CreationDate,2024-03-16T12:32:33-04:00
; #@! TF.GenerationSoftware,Kicad,Pcbnew,8.0.0
; #@! TF.FileFunction,Plated,1,4,PTH
FMAT,2
METRIC
; #@! TA.AperFunction,Plated,PTH,ViaDrill
T1C0.400
; #@! TA.AperFunction,Plated,PTH,ViaDrill
T2C0.600
; #@! TA.AperFunction,Plated,PTH,ComponentDrill
T3C0.650
; #@! TA.AperFunction,Plated,PTH,ComponentDrill
T4C0.750
; #@! TA.AperFunction,Plated,PTH,ComponentDrill
T5C1.000
; #@! TA.AperFunction,Plated,PTH,ComponentDrill
T6C1.190
; #@! TA.AperFunction,Plated,PTH,ComponentDrill
T7C1.400
; #@! TA.AperFunction,Plated,PTH,ComponentDrill
T8C1.500
; #@! TA.AperFunction,Plated,PTH,ComponentDrill
T9C1.700
; #@! TA.AperFunction,Plated,PTH,ComponentDrill
T10C2.100
%
G90
G05
T1
X114.6Y-127.9
X116.4Y-107.55
X116.4Y-109.0
X116.9Y-123.0
X116.9Y-124.0
X116.9Y-125.0
X119.0Y-113.3
X119.1Y-123.0
X119.1Y-124.0
X119.1Y-125.0
X121.0Y-107.3
X123.1Y-81.8
X123.1Y-127.9
X123.103Y-90.703
X123.9Y-110.6
X124.5Y-91.2
X125.0Y-116.0
X125.2Y-105.9
X126.5Y-109.2
X128.6Y-89.1
X128.6Y-90.725
X128.9Y-97.7
X131.0Y-106.7
X131.6Y-127.9
X135.22Y-124.6
X135.9Y-94.3
X137.42Y-124.6
X139.7Y-94.3
X140.1Y-127.9
X142.5Y-99.6
X143.4Y-88.9
X144.3Y-93.4
X148.3Y-99.1
X148.4Y-88.7
X150.1Y-110.2
X150.5Y-127.3
X151.2Y-102.1
X152.2Y-102.1
X152.75Y-93.0
X153.0Y-111.4
X153.2Y-85.3
X156.455Y-107.287
X156.475Y-115.974
X156.5Y-114.525
X156.9Y-102.8
X157.2Y-91.9
X157.2Y-95.7
X157.225Y-110.006
X157.455Y-107.287
X157.5Y-115.975
X157.5Y-108.688
X157.5Y-114.525
X158.3Y-110.2
X158.5Y-108.7
X158.5Y-114.5
X158.5Y-115.975
X158.5Y-120.525
X158.5Y-121.975
X159.6Y-81.5
X159.8Y-83.5
X162.5Y-83.5
X163.7Y-108.1
X164.3Y-91.9
X164.5Y-95.6
X165.3Y-83.5
X165.5Y-106.6
X165.625Y-73.125
X166.207Y-105.893
X166.5Y-71.4
X166.6Y-69.7
X166.65Y-74.15
X168.0Y-83.5
X170.168Y-105.531
X170.4Y-125.3
X170.5Y-119.8
X170.6Y-69.7
X170.625Y-107.125
X174.6Y-69.7
X177.1Y-73.1
T2
X117.5Y-106.2
X117.5Y-116.8
X152.75Y-87.75
X155.2Y-81.5
X157.1Y-89.0
X157.5Y-98.8
T3
X123.5Y-118.5
X124.3Y-120.4
X125.1Y-118.5
X125.9Y-120.4
X126.7Y-118.5
T4
X112.25Y-70.75
X114.25Y-70.75
X116.25Y-70.75
X118.25Y-70.75
X120.25Y-70.75
X122.25Y-70.75
X124.25Y-70.75
X126.25Y-70.75
X161.75Y-71.25
X161.75Y-73.25
X161.75Y-75.25
T5
X112.0Y-76.28
X112.0Y-78.82
X112.0Y-81.36
X112.0Y-83.9
X112.0Y-86.44
X112.0Y-88.98
X112.0Y-91.52
X112.0Y-94.06
X112.0Y-96.6
X112.0Y-99.14
X112.0Y-101.68
X112.0Y-104.22
X112.0Y-106.76
X112.0Y-109.3
X112.0Y-111.84
X112.0Y-114.38
X112.0Y-116.92
X112.0Y-119.46
X112.0Y-122.0
X114.54Y-76.28
X114.54Y-78.82
X114.54Y-81.36
X114.54Y-83.9
X114.54Y-86.44
X114.54Y-88.98
X114.54Y-91.52
X114.54Y-94.06
X114.54Y-96.6
X114.54Y-99.14
X114.54Y-101.68
X114.54Y-104.22
X114.54Y-106.76
X114.54Y-109.3
X114.54Y-111.84
X114.54Y-114.38
X114.54Y-116.92
X114.54Y-119.46
X114.54Y-122.0
X172.96Y-76.28
X172.96Y-78.82
X172.96Y-81.36
X172.96Y-83.9
X172.96Y-86.44
X172.96Y-88.98
X172.96Y-91.52
X172.96Y-94.06
X172.96Y-96.6
X172.96Y-99.14
X172.96Y-101.68
X172.96Y-104.22
X172.96Y-106.76
X172.96Y-109.3
X172.96Y-111.84
X172.96Y-114.38
X172.96Y-116.92
X172.96Y-119.46
X172.96Y-122.0
X175.5Y-76.28
X175.5Y-78.82
X175.5Y-81.36
X175.5Y-83.9
X175.5Y-86.44
X175.5Y-88.98
X175.5Y-91.52
X175.5Y-94.06
X175.5Y-96.6
X175.5Y-99.14
X175.5Y-101.68
X175.5Y-104.22
X175.5Y-106.76
X175.5Y-109.3
X175.5Y-111.84
X175.5Y-114.38
X175.5Y-116.92
X175.5Y-119.46
X175.5Y-122.0
T6
X114.52Y-131.21
X114.52Y-133.75
X114.52Y-136.29
X123.04Y-131.21
X123.04Y-133.75
X123.04Y-136.29
X131.52Y-131.21
X131.52Y-133.75
X131.52Y-136.29
X140.04Y-131.21
X140.04Y-133.75
X140.04Y-136.29
X151.71Y-133.5
X154.25Y-133.5
X156.79Y-133.5
T7
X140.25Y-85.5
X140.25Y-91.0
X140.25Y-107.45
X140.25Y-111.65
X140.25Y-115.85
X140.25Y-120.05
X145.75Y-107.45
X145.75Y-111.65
X145.75Y-115.85
X145.75Y-120.05
X160.75Y-89.75
X160.75Y-95.25
T8
X168.0Y-133.5
T9
X165.46Y-130.96
X165.46Y-136.04
X170.54Y-130.96
X170.54Y-136.04
T10
X120.85Y-119.44
X129.35Y-119.44
M30
