%TF.GenerationSoftware,KiCad,Pcbnew,8.0.0*%
%TF.CreationDate,2024-03-16T12:32:21-04:00*%
%TF.ProjectId,AMP_PCBv3,414d505f-5043-4427-9633-2e6b69636164,A*%
%TF.SameCoordinates,Original*%
%TF.FileFunction,Copper,L4,Bot*%
%TF.FilePolarity,Positive*%
%FSLAX46Y46*%
G04 Gerber Fmt 4.6, Leading zero omitted, Abs format (unit mm)*
G04 Created by KiCad (PCBNEW 8.0.0) date 2024-03-16 12:32:21*
%MOMM*%
%LPD*%
G01*
G04 APERTURE LIST*
G04 Aperture macros list*
%AMRoundRect*
0 Rectangle with rounded corners*
0 $1 Rounding radius*
0 $2 $3 $4 $5 $6 $7 $8 $9 X,Y pos of 4 corners*
0 Add a 4 corners polygon primitive as box body*
4,1,4,$2,$3,$4,$5,$6,$7,$8,$9,$2,$3,0*
0 Add four circle primitives for the rounded corners*
1,1,$1+$1,$2,$3*
1,1,$1+$1,$4,$5*
1,1,$1+$1,$6,$7*
1,1,$1+$1,$8,$9*
0 Add four rect primitives between the rounded corners*
20,1,$1+$1,$2,$3,$4,$5,0*
20,1,$1+$1,$4,$5,$6,$7,0*
20,1,$1+$1,$6,$7,$8,$9,0*
20,1,$1+$1,$8,$9,$2,$3,0*%
G04 Aperture macros list end*
%TA.AperFunction,ComponentPad*%
%ADD10R,1.050000X1.050000*%
%TD*%
%TA.AperFunction,ComponentPad*%
%ADD11C,1.050000*%
%TD*%
%TA.AperFunction,ComponentPad*%
%ADD12C,2.500000*%
%TD*%
%TA.AperFunction,ComponentPad*%
%ADD13RoundRect,0.250001X1.099999X1.399999X-1.099999X1.399999X-1.099999X-1.399999X1.099999X-1.399999X0*%
%TD*%
%TA.AperFunction,ComponentPad*%
%ADD14O,2.700000X3.300000*%
%TD*%
%TA.AperFunction,ComponentPad*%
%ADD15RoundRect,0.250000X-0.350000X-0.625000X0.350000X-0.625000X0.350000X0.625000X-0.350000X0.625000X0*%
%TD*%
%TA.AperFunction,ComponentPad*%
%ADD16O,1.200000X1.750000*%
%TD*%
%TA.AperFunction,ComponentPad*%
%ADD17R,1.700000X1.700000*%
%TD*%
%TA.AperFunction,ComponentPad*%
%ADD18O,1.700000X1.700000*%
%TD*%
%TA.AperFunction,ComponentPad*%
%ADD19RoundRect,0.250000X0.845000X-0.620000X0.845000X0.620000X-0.845000X0.620000X-0.845000X-0.620000X0*%
%TD*%
%TA.AperFunction,ComponentPad*%
%ADD20O,2.190000X1.740000*%
%TD*%
%TA.AperFunction,ComponentPad*%
%ADD21C,2.050000*%
%TD*%
%TA.AperFunction,ComponentPad*%
%ADD22C,2.250000*%
%TD*%
%TA.AperFunction,ComponentPad*%
%ADD23RoundRect,0.250000X0.625000X-0.350000X0.625000X0.350000X-0.625000X0.350000X-0.625000X-0.350000X0*%
%TD*%
%TA.AperFunction,ComponentPad*%
%ADD24O,1.750000X1.200000*%
%TD*%
%TA.AperFunction,ComponentPad*%
%ADD25RoundRect,0.250000X0.620000X0.845000X-0.620000X0.845000X-0.620000X-0.845000X0.620000X-0.845000X0*%
%TD*%
%TA.AperFunction,ComponentPad*%
%ADD26O,1.740000X2.190000*%
%TD*%
%TA.AperFunction,ComponentPad*%
%ADD27RoundRect,0.250001X1.399999X-1.099999X1.399999X1.099999X-1.399999X1.099999X-1.399999X-1.099999X0*%
%TD*%
%TA.AperFunction,ComponentPad*%
%ADD28O,3.300000X2.700000*%
%TD*%
%TA.AperFunction,SMDPad,CuDef*%
%ADD29RoundRect,0.250000X0.475000X-0.337500X0.475000X0.337500X-0.475000X0.337500X-0.475000X-0.337500X0*%
%TD*%
%TA.AperFunction,SMDPad,CuDef*%
%ADD30RoundRect,0.250000X-0.337500X-0.475000X0.337500X-0.475000X0.337500X0.475000X-0.337500X0.475000X0*%
%TD*%
%TA.AperFunction,SMDPad,CuDef*%
%ADD31RoundRect,0.250000X0.450000X-0.350000X0.450000X0.350000X-0.450000X0.350000X-0.450000X-0.350000X0*%
%TD*%
%TA.AperFunction,SMDPad,CuDef*%
%ADD32RoundRect,0.250000X-0.450000X0.350000X-0.450000X-0.350000X0.450000X-0.350000X0.450000X0.350000X0*%
%TD*%
%TA.AperFunction,SMDPad,CuDef*%
%ADD33RoundRect,0.250000X-0.475000X0.337500X-0.475000X-0.337500X0.475000X-0.337500X0.475000X0.337500X0*%
%TD*%
%TA.AperFunction,ViaPad*%
%ADD34C,0.800000*%
%TD*%
%TA.AperFunction,ViaPad*%
%ADD35C,1.200000*%
%TD*%
%TA.AperFunction,Conductor*%
%ADD36C,0.250000*%
%TD*%
%TA.AperFunction,Conductor*%
%ADD37C,0.200000*%
%TD*%
%TA.AperFunction,Conductor*%
%ADD38C,1.000000*%
%TD*%
%TA.AperFunction,Conductor*%
%ADD39C,0.500000*%
%TD*%
G04 APERTURE END LIST*
D10*
%TO.P,J2,1,VBUS*%
%TO.N,/Jetson USB/VBUS*%
X126700000Y-118500000D03*
D11*
%TO.P,J2,2,D-*%
%TO.N,/Jetson USB/D+*%
X125900000Y-120400000D03*
%TO.P,J2,3,D+*%
%TO.N,/Jetson USB/D-*%
X125100000Y-118500000D03*
%TO.P,J2,4,ID*%
%TO.N,unconnected-(J2-ID-Pad4)*%
X124300000Y-120400000D03*
%TO.P,J2,5,GND*%
%TO.N,GND*%
X123500000Y-118500000D03*
D12*
%TO.P,J2,6,Shield*%
X129350000Y-119440000D03*
X120850000Y-119440000D03*
%TD*%
D13*
%TO.P,J1,1,Pin_1*%
%TO.N,GND*%
X140250000Y-91000000D03*
D14*
%TO.P,J1,2,Pin_2*%
%TO.N,+12V*%
X140250000Y-85500000D03*
%TD*%
D15*
%TO.P,J5,1,Pin_1*%
%TO.N,/VESC_5V*%
X112250000Y-70750000D03*
D16*
%TO.P,J5,2,Pin_2*%
%TO.N,/VESC_VCC*%
X114250000Y-70750000D03*
%TO.P,J5,3,Pin_3*%
%TO.N,GND*%
X116250000Y-70750000D03*
%TO.P,J5,4,Pin_4*%
%TO.N,/VESC_ADC1*%
X118250000Y-70750000D03*
%TO.P,J5,5,Pin_5*%
%TO.N,/PC12*%
X120250000Y-70750000D03*
%TO.P,J5,6,Pin_6*%
%TO.N,/PD2*%
X122250000Y-70750000D03*
%TO.P,J5,7,Pin_7*%
%TO.N,/VESC_ADC2*%
X124250000Y-70750000D03*
%TO.P,J5,8,Pin_8*%
%TO.N,/VESC_ADC3*%
X126250000Y-70750000D03*
%TD*%
D13*
%TO.P,M1,1,+*%
%TO.N,Net-(M1-+)*%
X160750000Y-95250000D03*
D14*
%TO.P,M1,2,-*%
%TO.N,Net-(M1--)*%
X160750000Y-89750000D03*
%TD*%
D17*
%TO.P,CN10,1,Pin_1*%
%TO.N,/PC9*%
X172960000Y-76280000D03*
D18*
%TO.P,CN10,2,Pin_2*%
%TO.N,/PC8*%
X175500000Y-76280000D03*
%TO.P,CN10,3,Pin_3*%
%TO.N,/PB8*%
X172960000Y-78820000D03*
%TO.P,CN10,4,Pin_4*%
%TO.N,/PC6*%
X175500000Y-78820000D03*
%TO.P,CN10,5,Pin_5*%
%TO.N,/PB9*%
X172960000Y-81360000D03*
%TO.P,CN10,6,Pin_6*%
%TO.N,/BRAKE_ENB*%
X175500000Y-81360000D03*
%TO.P,CN10,7,Pin_7*%
%TO.N,/AVDD*%
X172960000Y-83900000D03*
%TO.P,CN10,8,Pin_8*%
%TO.N,/U5V*%
X175500000Y-83900000D03*
%TO.P,CN10,9,Pin_9*%
%TO.N,GND*%
X172960000Y-86440000D03*
%TO.P,CN10,10,Pin_10*%
%TO.N,unconnected-(CN10-Pin_10-Pad10)*%
X175500000Y-86440000D03*
%TO.P,CN10,11,Pin_11*%
%TO.N,/PA5*%
X172960000Y-88980000D03*
%TO.P,CN10,12,Pin_12*%
%TO.N,/PA12*%
X175500000Y-88980000D03*
%TO.P,CN10,13,Pin_13*%
%TO.N,/BRAKE_INB*%
X172960000Y-91520000D03*
%TO.P,CN10,14,Pin_14*%
%TO.N,/PA11*%
X175500000Y-91520000D03*
%TO.P,CN10,15,Pin_15*%
%TO.N,/BRAKE_INA*%
X172960000Y-94060000D03*
%TO.P,CN10,16,Pin_16*%
%TO.N,/BRAKE_ENA*%
X175500000Y-94060000D03*
%TO.P,CN10,17,Pin_17*%
%TO.N,/PB6*%
X172960000Y-96600000D03*
%TO.P,CN10,18,Pin_18*%
%TO.N,unconnected-(CN10-Pin_18-Pad18)*%
X175500000Y-96600000D03*
%TO.P,CN10,19,Pin_19*%
%TO.N,/BRAKE_CS*%
X172960000Y-99140000D03*
%TO.P,CN10,20,Pin_20*%
%TO.N,GND*%
X175500000Y-99140000D03*
%TO.P,CN10,21,Pin_21*%
%TO.N,/PA9*%
X172960000Y-101680000D03*
%TO.P,CN10,22,Pin_22*%
%TO.N,/PB2*%
X175500000Y-101680000D03*
%TO.P,CN10,23,Pin_23*%
%TO.N,/PA8*%
X172960000Y-104220000D03*
%TO.P,CN10,24,Pin_24*%
%TO.N,/LED_SIG*%
X175500000Y-104220000D03*
%TO.P,CN10,25,Pin_25*%
%TO.N,/PB10*%
X172960000Y-106760000D03*
%TO.P,CN10,26,Pin_26*%
%TO.N,/PB15*%
X175500000Y-106760000D03*
%TO.P,CN10,27,Pin_27*%
%TO.N,/PB4*%
X172960000Y-109300000D03*
%TO.P,CN10,28,Pin_28*%
%TO.N,/PB14*%
X175500000Y-109300000D03*
%TO.P,CN10,29,Pin_29*%
%TO.N,/PB5*%
X172960000Y-111840000D03*
%TO.P,CN10,30,Pin_30*%
%TO.N,/PB13*%
X175500000Y-111840000D03*
%TO.P,CN10,31,Pin_31*%
%TO.N,/PB3*%
X172960000Y-114380000D03*
%TO.P,CN10,32,Pin_32*%
%TO.N,/AGND*%
X175500000Y-114380000D03*
%TO.P,CN10,33,Pin_33*%
%TO.N,/IMU_CS*%
X172960000Y-116920000D03*
%TO.P,CN10,34,Pin_34*%
%TO.N,/IMU_INT1*%
X175500000Y-116920000D03*
%TO.P,CN10,35,Pin_35*%
%TO.N,/PA2*%
X172960000Y-119460000D03*
%TO.P,CN10,36,Pin_36*%
%TO.N,unconnected-(CN10-Pin_36-Pad36)*%
X175500000Y-119460000D03*
%TO.P,CN10,37,Pin_37*%
%TO.N,/PA3*%
X172960000Y-122000000D03*
%TO.P,CN10,38,Pin_38*%
%TO.N,unconnected-(CN10-Pin_38-Pad38)*%
X175500000Y-122000000D03*
%TD*%
D19*
%TO.P,M2,1,-*%
%TO.N,Net-(D10-A)*%
X114520000Y-136290000D03*
D20*
%TO.P,M2,2,+*%
%TO.N,+12V*%
X114520000Y-133750000D03*
%TO.P,M2,3,Tach*%
%TO.N,unconnected-(M2-Tach-Pad3)*%
X114520000Y-131210000D03*
%TD*%
D21*
%TO.P,AE1,1,A*%
%TO.N,Net-(AE1-A)*%
X168000000Y-133500000D03*
D22*
%TO.P,AE1,2,Shield*%
%TO.N,GND*%
X170540000Y-130960000D03*
X165460000Y-130960000D03*
X170540000Y-136040000D03*
X165460000Y-136040000D03*
%TD*%
D17*
%TO.P,CN7,1,Pin_1*%
%TO.N,/PC10*%
X112000000Y-76280000D03*
D18*
%TO.P,CN7,2,Pin_2*%
%TO.N,/PC11*%
X114540000Y-76280000D03*
%TO.P,CN7,3,Pin_3*%
%TO.N,/PC12*%
X112000000Y-78820000D03*
%TO.P,CN7,4,Pin_4*%
%TO.N,/PD2*%
X114540000Y-78820000D03*
%TO.P,CN7,5,Pin_5*%
%TO.N,/VDD*%
X112000000Y-81360000D03*
%TO.P,CN7,6,Pin_6*%
%TO.N,/E5V*%
X114540000Y-81360000D03*
%TO.P,CN7,7,Pin_7*%
%TO.N,/BOOT0*%
X112000000Y-83900000D03*
%TO.P,CN7,8,Pin_8*%
%TO.N,GND*%
X114540000Y-83900000D03*
%TO.P,CN7,9,Pin_9*%
%TO.N,unconnected-(CN7-Pin_9-Pad9)*%
X112000000Y-86440000D03*
%TO.P,CN7,10,Pin_10*%
%TO.N,unconnected-(CN7-Pin_10-Pad10)*%
X114540000Y-86440000D03*
%TO.P,CN7,11,Pin_11*%
%TO.N,unconnected-(CN7-Pin_11-Pad11)*%
X112000000Y-88980000D03*
%TO.P,CN7,12,Pin_12*%
%TO.N,/IOREF*%
X114540000Y-88980000D03*
%TO.P,CN7,13,Pin_13*%
%TO.N,/PA13*%
X112000000Y-91520000D03*
%TO.P,CN7,14,Pin_14*%
%TO.N,/RST*%
X114540000Y-91520000D03*
%TO.P,CN7,15,Pin_15*%
%TO.N,/PA14*%
X112000000Y-94060000D03*
%TO.P,CN7,16,Pin_16*%
%TO.N,+3V3*%
X114540000Y-94060000D03*
%TO.P,CN7,17,Pin_17*%
%TO.N,/PA15*%
X112000000Y-96600000D03*
%TO.P,CN7,18,Pin_18*%
%TO.N,+5V*%
X114540000Y-96600000D03*
%TO.P,CN7,19,Pin_19*%
%TO.N,GND*%
X112000000Y-99140000D03*
%TO.P,CN7,20,Pin_20*%
X114540000Y-99140000D03*
%TO.P,CN7,21,Pin_21*%
%TO.N,/PB7*%
X112000000Y-101680000D03*
%TO.P,CN7,22,Pin_22*%
%TO.N,GND*%
X114540000Y-101680000D03*
%TO.P,CN7,23,Pin_23*%
%TO.N,/PC13*%
X112000000Y-104220000D03*
%TO.P,CN7,24,Pin_24*%
%TO.N,/VIN*%
X114540000Y-104220000D03*
%TO.P,CN7,25,Pin_25*%
%TO.N,/PC14*%
X112000000Y-106760000D03*
%TO.P,CN7,26,Pin_26*%
%TO.N,unconnected-(CN7-Pin_26-Pad26)*%
X114540000Y-106760000D03*
%TO.P,CN7,27,Pin_27*%
%TO.N,/PC15*%
X112000000Y-109300000D03*
%TO.P,CN7,28,Pin_28*%
%TO.N,/PA0*%
X114540000Y-109300000D03*
%TO.P,CN7,29,Pin_29*%
%TO.N,/PH0*%
X112000000Y-111840000D03*
%TO.P,CN7,30,Pin_30*%
%TO.N,/PA1*%
X114540000Y-111840000D03*
%TO.P,CN7,31,Pin_31*%
%TO.N,/PH1*%
X112000000Y-114380000D03*
%TO.P,CN7,32,Pin_32*%
%TO.N,/PA4*%
X114540000Y-114380000D03*
%TO.P,CN7,33,Pin_33*%
%TO.N,/VBAT*%
X112000000Y-116920000D03*
%TO.P,CN7,34,Pin_34*%
%TO.N,/PB0*%
X114540000Y-116920000D03*
%TO.P,CN7,35,Pin_35*%
%TO.N,/PC2*%
X112000000Y-119460000D03*
%TO.P,CN7,36,Pin_36*%
%TO.N,/PC1*%
X114540000Y-119460000D03*
%TO.P,CN7,37,Pin_37*%
%TO.N,/PC3*%
X112000000Y-122000000D03*
%TO.P,CN7,38,Pin_38*%
%TO.N,/PC0*%
X114540000Y-122000000D03*
%TD*%
D19*
%TO.P,M4,1,-*%
%TO.N,Net-(D12-A)*%
X131520000Y-136290000D03*
D20*
%TO.P,M4,2,+*%
%TO.N,+12V*%
X131520000Y-133750000D03*
%TO.P,M4,3,Tach*%
%TO.N,unconnected-(M4-Tach-Pad3)*%
X131520000Y-131210000D03*
%TD*%
D23*
%TO.P,J4,1,Pin_1*%
%TO.N,GND*%
X161750000Y-75250000D03*
D24*
%TO.P,J4,2,Pin_2*%
%TO.N,/VESC_5V*%
X161750000Y-73250000D03*
%TO.P,J4,3,Pin_3*%
%TO.N,/PC9*%
X161750000Y-71250000D03*
%TD*%
D19*
%TO.P,M5,1,-*%
%TO.N,Net-(D13-A)*%
X140040000Y-136290000D03*
D20*
%TO.P,M5,2,+*%
%TO.N,+12V*%
X140040000Y-133750000D03*
%TO.P,M5,3,Tach*%
%TO.N,unconnected-(M5-Tach-Pad3)*%
X140040000Y-131210000D03*
%TD*%
D19*
%TO.P,M3,1,-*%
%TO.N,Net-(D11-A)*%
X123040000Y-136290000D03*
D20*
%TO.P,M3,2,+*%
%TO.N,+12V*%
X123040000Y-133750000D03*
%TO.P,M3,3,Tach*%
%TO.N,unconnected-(M3-Tach-Pad3)*%
X123040000Y-131210000D03*
%TD*%
D25*
%TO.P,J3,1,Pin_1*%
%TO.N,GND*%
X156790000Y-133500000D03*
D26*
%TO.P,J3,2,Pin_2*%
%TO.N,+5V*%
X154250000Y-133500000D03*
%TO.P,J3,3,Pin_3*%
%TO.N,/LED_SIG*%
X151710000Y-133500000D03*
%TD*%
D27*
%TO.P,J6,1,Pin_1*%
%TO.N,GND*%
X140250000Y-120050000D03*
D28*
%TO.P,J6,2,Pin_2*%
%TO.N,/PA9*%
X140250000Y-115850000D03*
%TO.P,J6,3,Pin_3*%
%TO.N,/PB2*%
X140250000Y-111650000D03*
%TO.P,J6,4,Pin_4*%
%TO.N,+12V*%
X140250000Y-107450000D03*
%TO.P,J6,5,Pin_5*%
%TO.N,GND*%
X145750000Y-120050000D03*
%TO.P,J6,6,Pin_6*%
X145750000Y-115850000D03*
%TO.P,J6,7,Pin_7*%
X145750000Y-111650000D03*
%TO.P,J6,8,Pin_8*%
X145750000Y-107450000D03*
%TD*%
D29*
%TO.P,C21,1*%
%TO.N,+3V3*%
X125250000Y-109287500D03*
%TO.P,C21,2*%
%TO.N,GND*%
X125250000Y-107212500D03*
%TD*%
D30*
%TO.P,C22,1*%
%TO.N,+3V3*%
X129962500Y-110000000D03*
%TO.P,C22,2*%
%TO.N,GND*%
X132037500Y-110000000D03*
%TD*%
D31*
%TO.P,R9,1*%
%TO.N,Net-(D2-K)*%
X163750000Y-83500000D03*
%TO.P,R9,2*%
%TO.N,GND*%
X163750000Y-81500000D03*
%TD*%
D32*
%TO.P,R2,1*%
%TO.N,Net-(D6-K)*%
X172000000Y-69750000D03*
%TO.P,R2,2*%
%TO.N,GND*%
X172000000Y-71750000D03*
%TD*%
D31*
%TO.P,R10,1*%
%TO.N,Net-(D3-K)*%
X166500000Y-83500000D03*
%TO.P,R10,2*%
%TO.N,GND*%
X166500000Y-81500000D03*
%TD*%
%TO.P,R11,1*%
%TO.N,Net-(D4-K)*%
X169250000Y-83500000D03*
%TO.P,R11,2*%
%TO.N,GND*%
X169250000Y-81500000D03*
%TD*%
D32*
%TO.P,R1,1*%
%TO.N,Net-(D5-K)*%
X168000000Y-69750000D03*
%TO.P,R1,2*%
%TO.N,GND*%
X168000000Y-71750000D03*
%TD*%
D30*
%TO.P,C24,1*%
%TO.N,+3V3*%
X129962500Y-107750000D03*
%TO.P,C24,2*%
%TO.N,GND*%
X132037500Y-107750000D03*
%TD*%
D31*
%TO.P,R8,1*%
%TO.N,Net-(D1-K)*%
X161000000Y-83500000D03*
%TO.P,R8,2*%
%TO.N,GND*%
X161000000Y-81500000D03*
%TD*%
D33*
%TO.P,C23,1*%
%TO.N,+3V3*%
X123000000Y-107212500D03*
%TO.P,C23,2*%
%TO.N,GND*%
X123000000Y-109287500D03*
%TD*%
D32*
%TO.P,R3,1*%
%TO.N,Net-(D7-K)*%
X176000000Y-69750000D03*
%TO.P,R3,2*%
%TO.N,GND*%
X176000000Y-71750000D03*
%TD*%
D34*
%TO.N,GND*%
X125000000Y-116000000D03*
X163700000Y-108100000D03*
X131000000Y-106700000D03*
X128600000Y-89100000D03*
X152200000Y-102100000D03*
X131600000Y-127900000D03*
X123102603Y-90702603D03*
X139700000Y-94300000D03*
X140100000Y-127900000D03*
X170400000Y-125300000D03*
X144300000Y-93400000D03*
D35*
X155200000Y-81500000D03*
D34*
X123100000Y-81800000D03*
X142500000Y-99600000D03*
X125200000Y-105900000D03*
X150100000Y-110200000D03*
X114600000Y-127900000D03*
X158500000Y-108700000D03*
X156900000Y-102800000D03*
X135900000Y-94300000D03*
X123900000Y-110600000D03*
X153000000Y-111400000D03*
D35*
X157500000Y-98800000D03*
D34*
X128900000Y-97700000D03*
X166500000Y-71400000D03*
D35*
X157100000Y-89000000D03*
D34*
X123100000Y-127900000D03*
X159600000Y-81500000D03*
X150500000Y-127300000D03*
%TO.N,+3V3*%
X170500000Y-119800000D03*
X177100000Y-73100000D03*
X126500000Y-109200000D03*
X148400000Y-88700000D03*
X119000000Y-113300000D03*
X151200000Y-102100000D03*
X121000000Y-107300000D03*
X148300000Y-99100000D03*
D35*
%TO.N,+5V*%
X117500000Y-106200000D03*
X117500000Y-116800000D03*
D34*
%TO.N,/PA1*%
X116400000Y-109000000D03*
X116400000Y-107550000D03*
%TO.N,/PC1*%
X137420000Y-124600000D03*
X135220000Y-124600000D03*
X116900000Y-122999994D03*
X119100000Y-123000000D03*
%TO.N,/PC3*%
X116900000Y-125000000D03*
X119100000Y-125000000D03*
%TO.N,/PC0*%
X119100000Y-123999997D03*
X116900000Y-123999997D03*
%TO.N,/PC9*%
X166650153Y-74150153D03*
X165624847Y-73124847D03*
%TO.N,/PB10*%
X166207109Y-105892891D03*
X170625153Y-107125153D03*
X157500383Y-114525000D03*
X157499997Y-115975000D03*
%TO.N,/PB15*%
X157500000Y-108687500D03*
X156475482Y-115974209D03*
X157454690Y-107287500D03*
X156500380Y-114525000D03*
%TO.N,/PB4*%
X158500000Y-115975000D03*
X158500000Y-120525000D03*
X158500000Y-114500000D03*
X158500000Y-121975000D03*
%TO.N,/PB14*%
X170168281Y-105531413D03*
D35*
%TO.N,+12V*%
X152750000Y-87750000D03*
D34*
X152750000Y-93000000D03*
%TO.N,Net-(U1-FB)*%
X128600000Y-90725000D03*
X124500000Y-91200000D03*
%TO.N,Net-(D1-K)*%
X159800000Y-83500000D03*
%TO.N,Net-(D2-K)*%
X162500000Y-83500000D03*
%TO.N,Net-(D3-K)*%
X165300000Y-83500000D03*
%TO.N,Net-(D4-K)*%
X168000000Y-83500000D03*
%TO.N,Net-(D5-K)*%
X166600000Y-69700000D03*
%TO.N,Net-(D6-K)*%
X170600000Y-69700000D03*
%TO.N,Net-(D7-K)*%
X174600000Y-69700000D03*
%TO.N,Net-(U4-INA)*%
X157200000Y-95700000D03*
X164500000Y-95600000D03*
%TO.N,Net-(U4-INB)*%
X164300000Y-91900000D03*
X157200000Y-91900000D03*
%TO.N,+1V8*%
X156454687Y-107287500D03*
X157225380Y-110006403D03*
%TO.N,/BRAKE_ENB*%
X143400000Y-88900000D03*
X153200000Y-85300000D03*
%TO.N,/IMU_CS*%
X165500000Y-106600000D03*
%TO.N,/IMU_INT1*%
X158300000Y-110200000D03*
%TD*%
D36*
%TO.N,GND*%
X125200000Y-105900000D02*
X125200000Y-107162500D01*
X123000000Y-109700000D02*
X123900000Y-110600000D01*
X176000000Y-71750000D02*
X168000000Y-71750000D01*
X132037500Y-107737500D02*
X131000000Y-106700000D01*
X125200000Y-107162500D02*
X125250000Y-107212500D01*
X161000000Y-81500000D02*
X159600000Y-81500000D01*
X168000000Y-71750000D02*
X166850000Y-71750000D01*
X132037500Y-107750000D02*
X132037500Y-107737500D01*
X169250000Y-81500000D02*
X161000000Y-81500000D01*
X123000000Y-109287500D02*
X123000000Y-109700000D01*
X166850000Y-71750000D02*
X166500000Y-71400000D01*
X132037500Y-107750000D02*
X132037500Y-110000000D01*
%TO.N,+3V3*%
X122912500Y-107300000D02*
X123000000Y-107212500D01*
X126412500Y-109287500D02*
X126500000Y-109200000D01*
X129962500Y-110000000D02*
X127300000Y-110000000D01*
X127300000Y-110000000D02*
X126500000Y-109200000D01*
X121000000Y-107300000D02*
X122912500Y-107300000D01*
X129962500Y-107750000D02*
X129962500Y-110000000D01*
X125250000Y-109287500D02*
X126412500Y-109287500D01*
%TO.N,/PA1*%
X116400000Y-109000000D02*
X116400000Y-107550000D01*
%TO.N,/PC1*%
X116900000Y-122999994D02*
X119099994Y-122999994D01*
X135220000Y-124600000D02*
X137420000Y-124600000D01*
X119099994Y-122999994D02*
X119100000Y-123000000D01*
%TO.N,/PC3*%
X116900000Y-125000000D02*
X119100000Y-125000000D01*
%TO.N,/PC0*%
X116900000Y-123999997D02*
X119100000Y-123999997D01*
%TO.N,/PC9*%
X165624847Y-73124847D02*
X166650153Y-74150153D01*
%TO.N,/PB10*%
X170625153Y-107125153D02*
X169392891Y-105892891D01*
X157499997Y-114525386D02*
X157500383Y-114525000D01*
X157499997Y-115975000D02*
X157499997Y-114525386D01*
X169392891Y-105892891D02*
X166207109Y-105892891D01*
D37*
%TO.N,/PB15*%
X157454690Y-108642190D02*
X157500000Y-108687500D01*
D36*
X156475482Y-114549898D02*
X156500380Y-114525000D01*
X156475482Y-115974209D02*
X156475482Y-114549898D01*
D37*
X157454690Y-107287500D02*
X157454690Y-108642190D01*
D36*
%TO.N,/PB4*%
X158500000Y-120525000D02*
X158500000Y-121975000D01*
X158500000Y-114500000D02*
X158500000Y-115975000D01*
D37*
%TO.N,/PB14*%
X174350000Y-108150000D02*
X175500000Y-109300000D01*
X170168281Y-105531413D02*
X170168281Y-105594627D01*
X172723654Y-108150000D02*
X174350000Y-108150000D01*
X170168281Y-105594627D02*
X172723654Y-108150000D01*
D38*
%TO.N,+12V*%
X131520000Y-133750000D02*
X140040000Y-133750000D01*
X152750000Y-87750000D02*
X152750000Y-93000000D01*
X123040000Y-133750000D02*
X114520000Y-133750000D01*
X131520000Y-133750000D02*
X123040000Y-133750000D01*
D36*
%TO.N,Net-(U1-FB)*%
X128600000Y-90725000D02*
X124975000Y-90725000D01*
X124975000Y-90725000D02*
X124500000Y-91200000D01*
%TO.N,Net-(D1-K)*%
X159800000Y-83500000D02*
X161000000Y-83500000D01*
%TO.N,Net-(D2-K)*%
X162500000Y-83500000D02*
X163750000Y-83500000D01*
%TO.N,Net-(D3-K)*%
X165300000Y-83500000D02*
X166500000Y-83500000D01*
%TO.N,Net-(D4-K)*%
X168000000Y-83500000D02*
X169250000Y-83500000D01*
%TO.N,Net-(D5-K)*%
X167950000Y-69700000D02*
X168000000Y-69750000D01*
X166600000Y-69700000D02*
X167950000Y-69700000D01*
%TO.N,Net-(D6-K)*%
X170600000Y-69700000D02*
X171950000Y-69700000D01*
X171950000Y-69700000D02*
X172000000Y-69750000D01*
%TO.N,Net-(D7-K)*%
X175950000Y-69700000D02*
X176000000Y-69750000D01*
X174600000Y-69700000D02*
X175950000Y-69700000D01*
%TO.N,Net-(U4-INA)*%
X162875000Y-97225000D02*
X164500000Y-95600000D01*
X157200000Y-95700000D02*
X158725000Y-97225000D01*
X158725000Y-97225000D02*
X162875000Y-97225000D01*
%TO.N,Net-(U4-INB)*%
X157200000Y-91900000D02*
X164300000Y-91900000D01*
D37*
%TO.N,+1V8*%
X156454687Y-109235710D02*
X156454687Y-107287500D01*
X157225380Y-110006403D02*
X156454687Y-109235710D01*
D39*
%TO.N,/LED_SIG*%
X178000000Y-106720000D02*
X175500000Y-104220000D01*
X156110000Y-137900000D02*
X176900000Y-137900000D01*
X176900000Y-137900000D02*
X178000000Y-136800000D01*
X151710000Y-133500000D02*
X156110000Y-137900000D01*
X178000000Y-136800000D02*
X178000000Y-106720000D01*
D36*
%TO.N,/BRAKE_ENB*%
X147000000Y-85300000D02*
X153200000Y-85300000D01*
X143400000Y-88900000D02*
X147000000Y-85300000D01*
%TO.N,/IMU_CS*%
X171785000Y-112885000D02*
X165500000Y-106600000D01*
X171785000Y-115745000D02*
X171785000Y-112885000D01*
X172960000Y-116920000D02*
X171785000Y-115745000D01*
%TO.N,/IMU_INT1*%
X175500000Y-116920000D02*
X174325000Y-118095000D01*
X174325000Y-118095000D02*
X166195000Y-118095000D01*
X166195000Y-118095000D02*
X158300000Y-110200000D01*
%TD*%
M02*
