%TF.GenerationSoftware,KiCad,Pcbnew,8.0.0*%
%TF.CreationDate,2024-03-16T12:32:21-04:00*%
%TF.ProjectId,AMP_PCBv3,414d505f-5043-4427-9633-2e6b69636164,A*%
%TF.SameCoordinates,Original*%
%TF.FileFunction,Paste,Top*%
%TF.FilePolarity,Positive*%
%FSLAX46Y46*%
G04 Gerber Fmt 4.6, Leading zero omitted, Abs format (unit mm)*
G04 Created by KiCad (PCBNEW 8.0.0) date 2024-03-16 12:32:21*
%MOMM*%
%LPD*%
G01*
G04 APERTURE LIST*
G04 Aperture macros list*
%AMRoundRect*
0 Rectangle with rounded corners*
0 $1 Rounding radius*
0 $2 $3 $4 $5 $6 $7 $8 $9 X,Y pos of 4 corners*
0 Add a 4 corners polygon primitive as box body*
4,1,4,$2,$3,$4,$5,$6,$7,$8,$9,$2,$3,0*
0 Add four circle primitives for the rounded corners*
1,1,$1+$1,$2,$3*
1,1,$1+$1,$4,$5*
1,1,$1+$1,$6,$7*
1,1,$1+$1,$8,$9*
0 Add four rect primitives between the rounded corners*
20,1,$1+$1,$2,$3,$4,$5,0*
20,1,$1+$1,$4,$5,$6,$7,0*
20,1,$1+$1,$6,$7,$8,$9,0*
20,1,$1+$1,$8,$9,$2,$3,0*%
G04 Aperture macros list end*
%ADD10R,0.700000X0.340000*%
%ADD11RoundRect,0.250000X-0.450000X0.325000X-0.450000X-0.325000X0.450000X-0.325000X0.450000X0.325000X0*%
%ADD12RoundRect,0.250000X0.450000X-0.325000X0.450000X0.325000X-0.450000X0.325000X-0.450000X-0.325000X0*%
%ADD13RoundRect,0.250000X-0.337500X-0.475000X0.337500X-0.475000X0.337500X0.475000X-0.337500X0.475000X0*%
%ADD14RoundRect,0.250000X-0.475000X0.337500X-0.475000X-0.337500X0.475000X-0.337500X0.475000X0.337500X0*%
%ADD15RoundRect,0.250000X0.450000X-0.350000X0.450000X0.350000X-0.450000X0.350000X-0.450000X-0.350000X0*%
%ADD16RoundRect,0.125000X0.125000X-0.125000X0.125000X0.125000X-0.125000X0.125000X-0.125000X-0.125000X0*%
%ADD17RoundRect,0.250000X0.325000X0.450000X-0.325000X0.450000X-0.325000X-0.450000X0.325000X-0.450000X0*%
%ADD18RoundRect,0.150000X0.150000X-0.512500X0.150000X0.512500X-0.150000X0.512500X-0.150000X-0.512500X0*%
%ADD19RoundRect,0.250000X-0.350000X-0.450000X0.350000X-0.450000X0.350000X0.450000X-0.350000X0.450000X0*%
%ADD20RoundRect,0.250000X0.337500X0.475000X-0.337500X0.475000X-0.337500X-0.475000X0.337500X-0.475000X0*%
%ADD21RoundRect,0.250000X-0.450000X0.350000X-0.450000X-0.350000X0.450000X-0.350000X0.450000X0.350000X0*%
%ADD22RoundRect,0.250000X0.350000X0.450000X-0.350000X0.450000X-0.350000X-0.450000X0.350000X-0.450000X0*%
%ADD23RoundRect,0.050000X-0.050000X0.225000X-0.050000X-0.225000X0.050000X-0.225000X0.050000X0.225000X0*%
%ADD24RoundRect,0.050000X-0.225000X-0.050000X0.225000X-0.050000X0.225000X0.050000X-0.225000X0.050000X0*%
%ADD25RoundRect,0.317500X-1.157500X-0.317500X1.157500X-0.317500X1.157500X0.317500X-1.157500X0.317500X0*%
%ADD26RoundRect,0.150000X0.150000X-0.587500X0.150000X0.587500X-0.150000X0.587500X-0.150000X-0.587500X0*%
%ADD27RoundRect,0.250000X0.475000X-0.337500X0.475000X0.337500X-0.475000X0.337500X-0.475000X-0.337500X0*%
%ADD28R,0.650000X1.560000*%
%ADD29RoundRect,0.150000X0.850000X0.150000X-0.850000X0.150000X-0.850000X-0.150000X0.850000X-0.150000X0*%
%ADD30R,1.200000X0.400000*%
%ADD31RoundRect,0.250001X-1.999999X-0.799999X1.999999X-0.799999X1.999999X0.799999X-1.999999X0.799999X0*%
%ADD32R,3.429000X2.413000*%
G04 APERTURE END LIST*
D10*
%TO.C,U1*%
X131250000Y-90500000D03*
X131250000Y-90000000D03*
X131250000Y-89500000D03*
X129750000Y-89500000D03*
X129750000Y-90000000D03*
X129750000Y-90500000D03*
%TD*%
D11*
%TO.C,D7*%
X176000000Y-69725000D03*
X176000000Y-71775000D03*
%TD*%
D12*
%TO.C,D1*%
X161000000Y-83525000D03*
X161000000Y-81475000D03*
%TD*%
D13*
%TO.C,C4*%
X121462500Y-92250000D03*
X123537500Y-92250000D03*
%TD*%
D11*
%TO.C,D6*%
X172000000Y-69725000D03*
X172000000Y-71775000D03*
%TD*%
D14*
%TO.C,C2*%
X131950000Y-92212500D03*
X131950000Y-94287500D03*
%TD*%
D15*
%TO.C,R24*%
X122000000Y-114250000D03*
X122000000Y-112250000D03*
%TD*%
D16*
%TO.C,D13*%
X141270000Y-128350000D03*
X141270000Y-126150000D03*
%TD*%
D17*
%TO.C,D9*%
X120025000Y-112000000D03*
X117975000Y-112000000D03*
%TD*%
D18*
%TO.C,U6*%
X124050000Y-114637500D03*
X125000000Y-114637500D03*
X125950000Y-114637500D03*
X125950000Y-112362500D03*
X125000000Y-112362500D03*
X124050000Y-112362500D03*
%TD*%
D19*
%TO.C,R7*%
X125500000Y-96750000D03*
X127500000Y-96750000D03*
%TD*%
%TO.C,R27*%
X130000000Y-110000000D03*
X132000000Y-110000000D03*
%TD*%
D20*
%TO.C,C7*%
X126737500Y-85250000D03*
X124662500Y-85250000D03*
%TD*%
D21*
%TO.C,R19*%
X146750000Y-88845000D03*
X146750000Y-90845000D03*
%TD*%
D22*
%TO.C,R5*%
X127500000Y-94500000D03*
X125500000Y-94500000D03*
%TD*%
D23*
%TO.C,U5*%
X162000000Y-105200000D03*
X161600000Y-105200000D03*
X161200000Y-105200000D03*
X160800000Y-105200000D03*
X160400000Y-105200000D03*
X160000000Y-105200000D03*
D24*
X159500000Y-105700000D03*
X159500000Y-106100000D03*
X159500000Y-106500000D03*
X159500000Y-106900000D03*
X159500000Y-107300000D03*
X159500000Y-107700000D03*
D23*
X160000000Y-108200000D03*
X160400000Y-108200000D03*
X160800000Y-108200000D03*
X161200000Y-108200000D03*
X161600000Y-108200000D03*
X162000000Y-108200000D03*
D24*
X162500000Y-107700000D03*
X162500000Y-107300000D03*
X162500000Y-106900000D03*
X162500000Y-106500000D03*
X162500000Y-106100000D03*
X162500000Y-105700000D03*
%TD*%
D25*
%TO.C,U2*%
X152975000Y-113250000D03*
X152975000Y-115250000D03*
X152975000Y-117250000D03*
X152975000Y-119250000D03*
X152975000Y-121250000D03*
X152975000Y-123250000D03*
X152975000Y-125250000D03*
X152975000Y-127250000D03*
X168025000Y-127250000D03*
X168025000Y-125250000D03*
X168025000Y-123250000D03*
X168025000Y-121250000D03*
X168025000Y-119250000D03*
X168025000Y-117250000D03*
X168025000Y-115250000D03*
X168025000Y-113250000D03*
%TD*%
D16*
%TO.C,D11*%
X124270000Y-128350000D03*
X124270000Y-126150000D03*
%TD*%
D20*
%TO.C,C8*%
X126737500Y-83000000D03*
X124662500Y-83000000D03*
%TD*%
D26*
%TO.C,Q2*%
X120320000Y-127937500D03*
X122220000Y-127937500D03*
X121270000Y-126062500D03*
%TD*%
D27*
%TO.C,C15*%
X155300000Y-104875000D03*
X155300000Y-102800000D03*
%TD*%
D20*
%TO.C,C5*%
X126737500Y-89750000D03*
X124662500Y-89750000D03*
%TD*%
D21*
%TO.C,R12*%
X143250000Y-95845000D03*
X143250000Y-97845000D03*
%TD*%
D22*
%TO.C,R14*%
X167750000Y-95595000D03*
X165750000Y-95595000D03*
%TD*%
%TO.C,R4*%
X127500000Y-92250000D03*
X125500000Y-92250000D03*
%TD*%
D19*
%TO.C,R6*%
X121500000Y-96750000D03*
X123500000Y-96750000D03*
%TD*%
D28*
%TO.C,U7*%
X153150000Y-103687500D03*
X152200000Y-103687500D03*
X151250000Y-103687500D03*
X151250000Y-106387500D03*
X153150000Y-106387500D03*
%TD*%
D19*
%TO.C,R15*%
X165750000Y-92095000D03*
X167750000Y-92095000D03*
%TD*%
D15*
%TO.C,R16*%
X145250000Y-97845000D03*
X145250000Y-95845000D03*
%TD*%
D14*
%TO.C,C1*%
X134200000Y-92212500D03*
X134200000Y-94287500D03*
%TD*%
D19*
%TO.C,R26*%
X130000000Y-107750000D03*
X132000000Y-107750000D03*
%TD*%
D26*
%TO.C,Q4*%
X137320000Y-127937500D03*
X139220000Y-127937500D03*
X138270000Y-126062500D03*
%TD*%
D27*
%TO.C,C10*%
X139000000Y-97882500D03*
X139000000Y-95807500D03*
%TD*%
D15*
%TO.C,R18*%
X147250000Y-97845000D03*
X147250000Y-95845000D03*
%TD*%
D11*
%TO.C,D5*%
X168000000Y-69725000D03*
X168000000Y-71775000D03*
%TD*%
D14*
%TO.C,C3*%
X129700000Y-92212500D03*
X129700000Y-94287500D03*
%TD*%
D13*
%TO.C,C14*%
X160012500Y-110300000D03*
X162087500Y-110300000D03*
%TD*%
D29*
%TO.C,U4*%
X155250000Y-98290000D03*
X155250000Y-97020000D03*
X155250000Y-95750000D03*
X155250000Y-94480000D03*
X155250000Y-93210000D03*
X155250000Y-91940000D03*
X155250000Y-90670000D03*
X155250000Y-89400000D03*
X150250000Y-89400000D03*
X150250000Y-90670000D03*
X150250000Y-91940000D03*
X150250000Y-93210000D03*
X150250000Y-94480000D03*
X150250000Y-95750000D03*
X150250000Y-97020000D03*
X150250000Y-98290000D03*
%TD*%
D15*
%TO.C,R23*%
X128000000Y-114500000D03*
X128000000Y-112500000D03*
%TD*%
D26*
%TO.C,Q1*%
X111800000Y-127937500D03*
X113700000Y-127937500D03*
X112750000Y-126062500D03*
%TD*%
D12*
%TO.C,D3*%
X166500000Y-83525000D03*
X166500000Y-81475000D03*
%TD*%
D30*
%TO.C,U3*%
X122400000Y-106027500D03*
X122400000Y-106662500D03*
X122400000Y-107297500D03*
X122400000Y-107932500D03*
X122400000Y-108567500D03*
X122400000Y-109202500D03*
X122400000Y-109837500D03*
X122400000Y-110472500D03*
X127600000Y-110472500D03*
X127600000Y-109837500D03*
X127600000Y-109202500D03*
X127600000Y-108567500D03*
X127600000Y-107932500D03*
X127600000Y-107297500D03*
X127600000Y-106662500D03*
X127600000Y-106027500D03*
%TD*%
D20*
%TO.C,C16*%
X153137500Y-108637500D03*
X151062500Y-108637500D03*
%TD*%
D16*
%TO.C,D10*%
X115750000Y-128350000D03*
X115750000Y-126150000D03*
%TD*%
D15*
%TO.C,R13*%
X141250000Y-97845000D03*
X141250000Y-95845000D03*
%TD*%
D12*
%TO.C,D4*%
X169250000Y-83525000D03*
X169250000Y-81475000D03*
%TD*%
D13*
%TO.C,C12*%
X145712500Y-93095000D03*
X147787500Y-93095000D03*
%TD*%
D20*
%TO.C,C9*%
X126737500Y-80750000D03*
X124662500Y-80750000D03*
%TD*%
D12*
%TO.C,D2*%
X163750000Y-83525000D03*
X163750000Y-81475000D03*
%TD*%
D31*
%TO.C,C11*%
X148900000Y-83595000D03*
X156100000Y-83595000D03*
%TD*%
D32*
%TO.C,L1*%
X131250000Y-86921000D03*
X131250000Y-81079000D03*
%TD*%
D15*
%TO.C,R17*%
X144750000Y-90845000D03*
X144750000Y-88845000D03*
%TD*%
D17*
%TO.C,D8*%
X132025000Y-112250000D03*
X129975000Y-112250000D03*
%TD*%
D19*
%TO.C,R28*%
X118000000Y-109750000D03*
X120000000Y-109750000D03*
%TD*%
D22*
%TO.C,R25*%
X132000000Y-105500000D03*
X130000000Y-105500000D03*
%TD*%
D20*
%TO.C,C6*%
X126737500Y-87500000D03*
X124662500Y-87500000D03*
%TD*%
D16*
%TO.C,D12*%
X132750000Y-128350000D03*
X132750000Y-126150000D03*
%TD*%
D26*
%TO.C,Q3*%
X128800000Y-127937500D03*
X130700000Y-127937500D03*
X129750000Y-126062500D03*
%TD*%
D14*
%TO.C,C13*%
X155300000Y-106800000D03*
X155300000Y-108875000D03*
%TD*%
M02*
