%TF.GenerationSoftware,KiCad,Pcbnew,8.0.0*%
%TF.CreationDate,2024-03-16T12:32:21-04:00*%
%TF.ProjectId,AMP_PCBv3,414d505f-5043-4427-9633-2e6b69636164,A*%
%TF.SameCoordinates,Original*%
%TF.FileFunction,Copper,L3,Inr*%
%TF.FilePolarity,Positive*%
%FSLAX46Y46*%
G04 Gerber Fmt 4.6, Leading zero omitted, Abs format (unit mm)*
G04 Created by KiCad (PCBNEW 8.0.0) date 2024-03-16 12:32:21*
%MOMM*%
%LPD*%
G01*
G04 APERTURE LIST*
G04 Aperture macros list*
%AMRoundRect*
0 Rectangle with rounded corners*
0 $1 Rounding radius*
0 $2 $3 $4 $5 $6 $7 $8 $9 X,Y pos of 4 corners*
0 Add a 4 corners polygon primitive as box body*
4,1,4,$2,$3,$4,$5,$6,$7,$8,$9,$2,$3,0*
0 Add four circle primitives for the rounded corners*
1,1,$1+$1,$2,$3*
1,1,$1+$1,$4,$5*
1,1,$1+$1,$6,$7*
1,1,$1+$1,$8,$9*
0 Add four rect primitives between the rounded corners*
20,1,$1+$1,$2,$3,$4,$5,0*
20,1,$1+$1,$4,$5,$6,$7,0*
20,1,$1+$1,$6,$7,$8,$9,0*
20,1,$1+$1,$8,$9,$2,$3,0*%
G04 Aperture macros list end*
%TA.AperFunction,ComponentPad*%
%ADD10R,1.050000X1.050000*%
%TD*%
%TA.AperFunction,ComponentPad*%
%ADD11C,1.050000*%
%TD*%
%TA.AperFunction,ComponentPad*%
%ADD12C,2.500000*%
%TD*%
%TA.AperFunction,ComponentPad*%
%ADD13RoundRect,0.250001X1.099999X1.399999X-1.099999X1.399999X-1.099999X-1.399999X1.099999X-1.399999X0*%
%TD*%
%TA.AperFunction,ComponentPad*%
%ADD14O,2.700000X3.300000*%
%TD*%
%TA.AperFunction,ComponentPad*%
%ADD15RoundRect,0.250000X-0.350000X-0.625000X0.350000X-0.625000X0.350000X0.625000X-0.350000X0.625000X0*%
%TD*%
%TA.AperFunction,ComponentPad*%
%ADD16O,1.200000X1.750000*%
%TD*%
%TA.AperFunction,ComponentPad*%
%ADD17R,1.700000X1.700000*%
%TD*%
%TA.AperFunction,ComponentPad*%
%ADD18O,1.700000X1.700000*%
%TD*%
%TA.AperFunction,ComponentPad*%
%ADD19RoundRect,0.250000X0.845000X-0.620000X0.845000X0.620000X-0.845000X0.620000X-0.845000X-0.620000X0*%
%TD*%
%TA.AperFunction,ComponentPad*%
%ADD20O,2.190000X1.740000*%
%TD*%
%TA.AperFunction,ComponentPad*%
%ADD21C,2.050000*%
%TD*%
%TA.AperFunction,ComponentPad*%
%ADD22C,2.250000*%
%TD*%
%TA.AperFunction,ComponentPad*%
%ADD23RoundRect,0.250000X0.625000X-0.350000X0.625000X0.350000X-0.625000X0.350000X-0.625000X-0.350000X0*%
%TD*%
%TA.AperFunction,ComponentPad*%
%ADD24O,1.750000X1.200000*%
%TD*%
%TA.AperFunction,ComponentPad*%
%ADD25RoundRect,0.250000X0.620000X0.845000X-0.620000X0.845000X-0.620000X-0.845000X0.620000X-0.845000X0*%
%TD*%
%TA.AperFunction,ComponentPad*%
%ADD26O,1.740000X2.190000*%
%TD*%
%TA.AperFunction,ComponentPad*%
%ADD27RoundRect,0.250001X1.399999X-1.099999X1.399999X1.099999X-1.399999X1.099999X-1.399999X-1.099999X0*%
%TD*%
%TA.AperFunction,ComponentPad*%
%ADD28O,3.300000X2.700000*%
%TD*%
%TA.AperFunction,ViaPad*%
%ADD29C,0.800000*%
%TD*%
%TA.AperFunction,ViaPad*%
%ADD30C,1.200000*%
%TD*%
G04 APERTURE END LIST*
D10*
%TO.N,/Jetson USB/VBUS*%
%TO.C,J2*%
X126700000Y-118500000D03*
D11*
%TO.N,/Jetson USB/D+*%
X125900000Y-120400000D03*
%TO.N,/Jetson USB/D-*%
X125100000Y-118500000D03*
%TO.N,unconnected-(J2-ID-Pad4)*%
X124300000Y-120400000D03*
%TO.N,GND*%
X123500000Y-118500000D03*
D12*
X129350000Y-119440000D03*
X120850000Y-119440000D03*
%TD*%
D13*
%TO.N,GND*%
%TO.C,J1*%
X140250000Y-91000000D03*
D14*
%TO.N,+12V*%
X140250000Y-85500000D03*
%TD*%
D15*
%TO.N,/VESC_5V*%
%TO.C,J5*%
X112250000Y-70750000D03*
D16*
%TO.N,/VESC_VCC*%
X114250000Y-70750000D03*
%TO.N,GND*%
X116250000Y-70750000D03*
%TO.N,/VESC_ADC1*%
X118250000Y-70750000D03*
%TO.N,/PC12*%
X120250000Y-70750000D03*
%TO.N,/PD2*%
X122250000Y-70750000D03*
%TO.N,/VESC_ADC2*%
X124250000Y-70750000D03*
%TO.N,/VESC_ADC3*%
X126250000Y-70750000D03*
%TD*%
D13*
%TO.N,Net-(M1-+)*%
%TO.C,M1*%
X160750000Y-95250000D03*
D14*
%TO.N,Net-(M1--)*%
X160750000Y-89750000D03*
%TD*%
D17*
%TO.N,/PC9*%
%TO.C,CN10*%
X172960000Y-76280000D03*
D18*
%TO.N,/PC8*%
X175500000Y-76280000D03*
%TO.N,/PB8*%
X172960000Y-78820000D03*
%TO.N,/PC6*%
X175500000Y-78820000D03*
%TO.N,/PB9*%
X172960000Y-81360000D03*
%TO.N,/BRAKE_ENB*%
X175500000Y-81360000D03*
%TO.N,/AVDD*%
X172960000Y-83900000D03*
%TO.N,/U5V*%
X175500000Y-83900000D03*
%TO.N,GND*%
X172960000Y-86440000D03*
%TO.N,unconnected-(CN10-Pin_10-Pad10)*%
X175500000Y-86440000D03*
%TO.N,/PA5*%
X172960000Y-88980000D03*
%TO.N,/PA12*%
X175500000Y-88980000D03*
%TO.N,/BRAKE_INB*%
X172960000Y-91520000D03*
%TO.N,/PA11*%
X175500000Y-91520000D03*
%TO.N,/BRAKE_INA*%
X172960000Y-94060000D03*
%TO.N,/BRAKE_ENA*%
X175500000Y-94060000D03*
%TO.N,/PB6*%
X172960000Y-96600000D03*
%TO.N,unconnected-(CN10-Pin_18-Pad18)*%
X175500000Y-96600000D03*
%TO.N,/BRAKE_CS*%
X172960000Y-99140000D03*
%TO.N,GND*%
X175500000Y-99140000D03*
%TO.N,/PA9*%
X172960000Y-101680000D03*
%TO.N,/PB2*%
X175500000Y-101680000D03*
%TO.N,/PA8*%
X172960000Y-104220000D03*
%TO.N,/LED_SIG*%
X175500000Y-104220000D03*
%TO.N,/PB10*%
X172960000Y-106760000D03*
%TO.N,/PB15*%
X175500000Y-106760000D03*
%TO.N,/PB4*%
X172960000Y-109300000D03*
%TO.N,/PB14*%
X175500000Y-109300000D03*
%TO.N,/PB5*%
X172960000Y-111840000D03*
%TO.N,/PB13*%
X175500000Y-111840000D03*
%TO.N,/PB3*%
X172960000Y-114380000D03*
%TO.N,/AGND*%
X175500000Y-114380000D03*
%TO.N,/IMU_CS*%
X172960000Y-116920000D03*
%TO.N,/IMU_INT1*%
X175500000Y-116920000D03*
%TO.N,/PA2*%
X172960000Y-119460000D03*
%TO.N,unconnected-(CN10-Pin_36-Pad36)*%
X175500000Y-119460000D03*
%TO.N,/PA3*%
X172960000Y-122000000D03*
%TO.N,unconnected-(CN10-Pin_38-Pad38)*%
X175500000Y-122000000D03*
%TD*%
D19*
%TO.N,Net-(D10-A)*%
%TO.C,M2*%
X114520000Y-136290000D03*
D20*
%TO.N,+12V*%
X114520000Y-133750000D03*
%TO.N,unconnected-(M2-Tach-Pad3)*%
X114520000Y-131210000D03*
%TD*%
D21*
%TO.N,Net-(AE1-A)*%
%TO.C,AE1*%
X168000000Y-133500000D03*
D22*
%TO.N,GND*%
X170540000Y-130960000D03*
X165460000Y-130960000D03*
X170540000Y-136040000D03*
X165460000Y-136040000D03*
%TD*%
D17*
%TO.N,/PC10*%
%TO.C,CN7*%
X112000000Y-76280000D03*
D18*
%TO.N,/PC11*%
X114540000Y-76280000D03*
%TO.N,/PC12*%
X112000000Y-78820000D03*
%TO.N,/PD2*%
X114540000Y-78820000D03*
%TO.N,/VDD*%
X112000000Y-81360000D03*
%TO.N,/E5V*%
X114540000Y-81360000D03*
%TO.N,/BOOT0*%
X112000000Y-83900000D03*
%TO.N,GND*%
X114540000Y-83900000D03*
%TO.N,unconnected-(CN7-Pin_9-Pad9)*%
X112000000Y-86440000D03*
%TO.N,unconnected-(CN7-Pin_10-Pad10)*%
X114540000Y-86440000D03*
%TO.N,unconnected-(CN7-Pin_11-Pad11)*%
X112000000Y-88980000D03*
%TO.N,/IOREF*%
X114540000Y-88980000D03*
%TO.N,/PA13*%
X112000000Y-91520000D03*
%TO.N,/RST*%
X114540000Y-91520000D03*
%TO.N,/PA14*%
X112000000Y-94060000D03*
%TO.N,+3V3*%
X114540000Y-94060000D03*
%TO.N,/PA15*%
X112000000Y-96600000D03*
%TO.N,+5V*%
X114540000Y-96600000D03*
%TO.N,GND*%
X112000000Y-99140000D03*
X114540000Y-99140000D03*
%TO.N,/PB7*%
X112000000Y-101680000D03*
%TO.N,GND*%
X114540000Y-101680000D03*
%TO.N,/PC13*%
X112000000Y-104220000D03*
%TO.N,/VIN*%
X114540000Y-104220000D03*
%TO.N,/PC14*%
X112000000Y-106760000D03*
%TO.N,unconnected-(CN7-Pin_26-Pad26)*%
X114540000Y-106760000D03*
%TO.N,/PC15*%
X112000000Y-109300000D03*
%TO.N,/PA0*%
X114540000Y-109300000D03*
%TO.N,/PH0*%
X112000000Y-111840000D03*
%TO.N,/PA1*%
X114540000Y-111840000D03*
%TO.N,/PH1*%
X112000000Y-114380000D03*
%TO.N,/PA4*%
X114540000Y-114380000D03*
%TO.N,/VBAT*%
X112000000Y-116920000D03*
%TO.N,/PB0*%
X114540000Y-116920000D03*
%TO.N,/PC2*%
X112000000Y-119460000D03*
%TO.N,/PC1*%
X114540000Y-119460000D03*
%TO.N,/PC3*%
X112000000Y-122000000D03*
%TO.N,/PC0*%
X114540000Y-122000000D03*
%TD*%
D19*
%TO.N,Net-(D12-A)*%
%TO.C,M4*%
X131520000Y-136290000D03*
D20*
%TO.N,+12V*%
X131520000Y-133750000D03*
%TO.N,unconnected-(M4-Tach-Pad3)*%
X131520000Y-131210000D03*
%TD*%
D23*
%TO.N,GND*%
%TO.C,J4*%
X161750000Y-75250000D03*
D24*
%TO.N,/VESC_5V*%
X161750000Y-73250000D03*
%TO.N,/PC9*%
X161750000Y-71250000D03*
%TD*%
D19*
%TO.N,Net-(D13-A)*%
%TO.C,M5*%
X140040000Y-136290000D03*
D20*
%TO.N,+12V*%
X140040000Y-133750000D03*
%TO.N,unconnected-(M5-Tach-Pad3)*%
X140040000Y-131210000D03*
%TD*%
D19*
%TO.N,Net-(D11-A)*%
%TO.C,M3*%
X123040000Y-136290000D03*
D20*
%TO.N,+12V*%
X123040000Y-133750000D03*
%TO.N,unconnected-(M3-Tach-Pad3)*%
X123040000Y-131210000D03*
%TD*%
D25*
%TO.N,GND*%
%TO.C,J3*%
X156790000Y-133500000D03*
D26*
%TO.N,+5V*%
X154250000Y-133500000D03*
%TO.N,/LED_SIG*%
X151710000Y-133500000D03*
%TD*%
D27*
%TO.N,GND*%
%TO.C,J6*%
X140250000Y-120050000D03*
D28*
%TO.N,/PA9*%
X140250000Y-115850000D03*
%TO.N,/PB2*%
X140250000Y-111650000D03*
%TO.N,+12V*%
X140250000Y-107450000D03*
%TO.N,GND*%
X145750000Y-120050000D03*
X145750000Y-115850000D03*
X145750000Y-111650000D03*
X145750000Y-107450000D03*
%TD*%
D29*
%TO.N,GND*%
X125000000Y-116000000D03*
X163700000Y-108100000D03*
X131000000Y-106700000D03*
X128600000Y-89100000D03*
X152200000Y-102100000D03*
X131600000Y-127900000D03*
X123102603Y-90702603D03*
X139700000Y-94300000D03*
X140100000Y-127900000D03*
X170400000Y-125300000D03*
X144300000Y-93400000D03*
D30*
X155200000Y-81500000D03*
D29*
X123100000Y-81800000D03*
X142500000Y-99600000D03*
X125200000Y-105900000D03*
X150100000Y-110200000D03*
X114600000Y-127900000D03*
X158500000Y-108700000D03*
X156900000Y-102800000D03*
X135900000Y-94300000D03*
X123900000Y-110600000D03*
X153000000Y-111400000D03*
D30*
X157500000Y-98800000D03*
D29*
X128900000Y-97700000D03*
X166500000Y-71400000D03*
D30*
X157100000Y-89000000D03*
D29*
X123100000Y-127900000D03*
X159600000Y-81500000D03*
X150500000Y-127300000D03*
%TO.N,+3V3*%
X170500000Y-119800000D03*
X177100000Y-73100000D03*
X126500000Y-109200000D03*
X148400000Y-88700000D03*
X119000000Y-113300000D03*
X151200000Y-102100000D03*
X121000000Y-107300000D03*
X148300000Y-99100000D03*
D30*
%TO.N,+5V*%
X117500000Y-106200000D03*
X117500000Y-116800000D03*
D29*
%TO.N,/PA1*%
X116400000Y-109000000D03*
X116400000Y-107550000D03*
%TO.N,/PC1*%
X137420000Y-124600000D03*
X135220000Y-124600000D03*
X116900000Y-122999994D03*
X119100000Y-123000000D03*
%TO.N,/PC3*%
X116900000Y-125000000D03*
X119100000Y-125000000D03*
%TO.N,/PC0*%
X119100000Y-123999997D03*
X116900000Y-123999997D03*
%TO.N,/PC9*%
X166650153Y-74150153D03*
X165624847Y-73124847D03*
%TO.N,/PB10*%
X166207109Y-105892891D03*
X170625153Y-107125153D03*
X157500383Y-114525000D03*
X157499997Y-115975000D03*
%TO.N,/PB15*%
X157500000Y-108687500D03*
X156475482Y-115974209D03*
X157454690Y-107287500D03*
X156500380Y-114525000D03*
%TO.N,/PB4*%
X158500000Y-115975000D03*
X158500000Y-120525000D03*
X158500000Y-114500000D03*
X158500000Y-121975000D03*
%TO.N,/PB14*%
X170168281Y-105531413D03*
D30*
%TO.N,+12V*%
X152750000Y-87750000D03*
D29*
X152750000Y-93000000D03*
%TO.N,Net-(U1-FB)*%
X128600000Y-90725000D03*
X124500000Y-91200000D03*
%TO.N,Net-(D1-K)*%
X159800000Y-83500000D03*
%TO.N,Net-(D2-K)*%
X162500000Y-83500000D03*
%TO.N,Net-(D3-K)*%
X165300000Y-83500000D03*
%TO.N,Net-(D4-K)*%
X168000000Y-83500000D03*
%TO.N,Net-(D5-K)*%
X166600000Y-69700000D03*
%TO.N,Net-(D6-K)*%
X170600000Y-69700000D03*
%TO.N,Net-(D7-K)*%
X174600000Y-69700000D03*
%TO.N,Net-(U4-INA)*%
X157200000Y-95700000D03*
X164500000Y-95600000D03*
%TO.N,Net-(U4-INB)*%
X164300000Y-91900000D03*
X157200000Y-91900000D03*
%TO.N,+1V8*%
X156454687Y-107287500D03*
X157225380Y-110006403D03*
%TO.N,/BRAKE_ENB*%
X143400000Y-88900000D03*
X153200000Y-85300000D03*
%TO.N,/IMU_CS*%
X165500000Y-106600000D03*
%TO.N,/IMU_INT1*%
X158300000Y-110200000D03*
%TD*%
%TA.AperFunction,Conductor*%
%TO.N,GND*%
G36*
X114790000Y-101246988D02*
G01*
X114732993Y-101214075D01*
X114605826Y-101180000D01*
X114474174Y-101180000D01*
X114347007Y-101214075D01*
X114290000Y-101246988D01*
X114290000Y-99573012D01*
X114347007Y-99605925D01*
X114474174Y-99640000D01*
X114605826Y-99640000D01*
X114732993Y-99605925D01*
X114790000Y-99573012D01*
X114790000Y-101246988D01*
G37*
%TD.AperFunction*%
%TA.AperFunction,Conductor*%
G36*
X114074075Y-98947007D02*
G01*
X114040000Y-99074174D01*
X114040000Y-99205826D01*
X114074075Y-99332993D01*
X114106988Y-99390000D01*
X112433012Y-99390000D01*
X112465925Y-99332993D01*
X112500000Y-99205826D01*
X112500000Y-99074174D01*
X112465925Y-98947007D01*
X112433012Y-98890000D01*
X114106988Y-98890000D01*
X114074075Y-98947007D01*
G37*
%TD.AperFunction*%
%TA.AperFunction,Conductor*%
G36*
X111248586Y-69519685D02*
G01*
X111294341Y-69572489D01*
X111304285Y-69641647D01*
X111287086Y-69689096D01*
X111215189Y-69805659D01*
X111215186Y-69805666D01*
X111160001Y-69972203D01*
X111160001Y-69972204D01*
X111160000Y-69972204D01*
X111149500Y-70074983D01*
X111149500Y-71425001D01*
X111149501Y-71425018D01*
X111160000Y-71527796D01*
X111160001Y-71527799D01*
X111215185Y-71694331D01*
X111215187Y-71694336D01*
X111238870Y-71732732D01*
X111307288Y-71843656D01*
X111431344Y-71967712D01*
X111580666Y-72059814D01*
X111747203Y-72114999D01*
X111849991Y-72125500D01*
X112650008Y-72125499D01*
X112650016Y-72125498D01*
X112650019Y-72125498D01*
X112706302Y-72119748D01*
X112752797Y-72114999D01*
X112919334Y-72059814D01*
X113068656Y-71967712D01*
X113192712Y-71843656D01*
X113232310Y-71779456D01*
X113284258Y-71732732D01*
X113353220Y-71721509D01*
X113417303Y-71749352D01*
X113425530Y-71756872D01*
X113533072Y-71864414D01*
X113673212Y-71966232D01*
X113827555Y-72044873D01*
X113992299Y-72098402D01*
X114163389Y-72125500D01*
X114163390Y-72125500D01*
X114336610Y-72125500D01*
X114336611Y-72125500D01*
X114507701Y-72098402D01*
X114672445Y-72044873D01*
X114826788Y-71966232D01*
X114966928Y-71864414D01*
X115089414Y-71741928D01*
X115149991Y-71658550D01*
X115205321Y-71615885D01*
X115274934Y-71609906D01*
X115336729Y-71642512D01*
X115350628Y-71658551D01*
X115410967Y-71741602D01*
X115533397Y-71864032D01*
X115673475Y-71965804D01*
X115827744Y-72044408D01*
X115992415Y-72097914D01*
X115992414Y-72097914D01*
X115999999Y-72099115D01*
X116000000Y-72099114D01*
X116000000Y-71030330D01*
X116019745Y-71050075D01*
X116105255Y-71099444D01*
X116200630Y-71125000D01*
X116299370Y-71125000D01*
X116394745Y-71099444D01*
X116480255Y-71050075D01*
X116500000Y-71030330D01*
X116500000Y-72099115D01*
X116507584Y-72097914D01*
X116672255Y-72044408D01*
X116826524Y-71965804D01*
X116966602Y-71864032D01*
X117089036Y-71741598D01*
X117149371Y-71658552D01*
X117204700Y-71615886D01*
X117274313Y-71609905D01*
X117336109Y-71642510D01*
X117350008Y-71658550D01*
X117350318Y-71658976D01*
X117410586Y-71741928D01*
X117533072Y-71864414D01*
X117673212Y-71966232D01*
X117827555Y-72044873D01*
X117992299Y-72098402D01*
X118163389Y-72125500D01*
X118163390Y-72125500D01*
X118336610Y-72125500D01*
X118336611Y-72125500D01*
X118507701Y-72098402D01*
X118672445Y-72044873D01*
X118826788Y-71966232D01*
X118966928Y-71864414D01*
X119089414Y-71741928D01*
X119149682Y-71658975D01*
X119205012Y-71616311D01*
X119274626Y-71610332D01*
X119336421Y-71642938D01*
X119350315Y-71658973D01*
X119410586Y-71741928D01*
X119533072Y-71864414D01*
X119673212Y-71966232D01*
X119827555Y-72044873D01*
X119992299Y-72098402D01*
X120163389Y-72125500D01*
X120163390Y-72125500D01*
X120336610Y-72125500D01*
X120336611Y-72125500D01*
X120507701Y-72098402D01*
X120672445Y-72044873D01*
X120826788Y-71966232D01*
X120966928Y-71864414D01*
X121089414Y-71741928D01*
X121149682Y-71658975D01*
X121205012Y-71616311D01*
X121274626Y-71610332D01*
X121336421Y-71642938D01*
X121350315Y-71658973D01*
X121410586Y-71741928D01*
X121533072Y-71864414D01*
X121673212Y-71966232D01*
X121827555Y-72044873D01*
X121992299Y-72098402D01*
X122163389Y-72125500D01*
X122163390Y-72125500D01*
X122336610Y-72125500D01*
X122336611Y-72125500D01*
X122507701Y-72098402D01*
X122672445Y-72044873D01*
X122826788Y-71966232D01*
X122966928Y-71864414D01*
X123089414Y-71741928D01*
X123149682Y-71658975D01*
X123205012Y-71616311D01*
X123274626Y-71610332D01*
X123336421Y-71642938D01*
X123350315Y-71658973D01*
X123410586Y-71741928D01*
X123533072Y-71864414D01*
X123673212Y-71966232D01*
X123827555Y-72044873D01*
X123992299Y-72098402D01*
X124163389Y-72125500D01*
X124163390Y-72125500D01*
X124336610Y-72125500D01*
X124336611Y-72125500D01*
X124507701Y-72098402D01*
X124672445Y-72044873D01*
X124826788Y-71966232D01*
X124966928Y-71864414D01*
X125089414Y-71741928D01*
X125149682Y-71658975D01*
X125205012Y-71616311D01*
X125274626Y-71610332D01*
X125336421Y-71642938D01*
X125350315Y-71658973D01*
X125410586Y-71741928D01*
X125533072Y-71864414D01*
X125673212Y-71966232D01*
X125827555Y-72044873D01*
X125992299Y-72098402D01*
X126163389Y-72125500D01*
X126163390Y-72125500D01*
X126336610Y-72125500D01*
X126336611Y-72125500D01*
X126507701Y-72098402D01*
X126672445Y-72044873D01*
X126826788Y-71966232D01*
X126966928Y-71864414D01*
X127089414Y-71741928D01*
X127191232Y-71601788D01*
X127269873Y-71447445D01*
X127323402Y-71282701D01*
X127350500Y-71111611D01*
X127350500Y-70388389D01*
X127323402Y-70217299D01*
X127269873Y-70052555D01*
X127191232Y-69898212D01*
X127089414Y-69758072D01*
X127043023Y-69711681D01*
X127009538Y-69650358D01*
X127014522Y-69580666D01*
X127056394Y-69524733D01*
X127121858Y-69500316D01*
X127130704Y-69500000D01*
X128626000Y-69500000D01*
X128693039Y-69519685D01*
X128738794Y-69572489D01*
X128750000Y-69624000D01*
X128750000Y-79500000D01*
X158750000Y-79500000D01*
X158750000Y-73336611D01*
X160374500Y-73336611D01*
X160401598Y-73507701D01*
X160455127Y-73672445D01*
X160533768Y-73826788D01*
X160635586Y-73966928D01*
X160635588Y-73966930D01*
X160743491Y-74074833D01*
X160776976Y-74136156D01*
X160771992Y-74205848D01*
X160730120Y-74261781D01*
X160720907Y-74268053D01*
X160656654Y-74307684D01*
X160532684Y-74431654D01*
X160440643Y-74580875D01*
X160440641Y-74580880D01*
X160385494Y-74747302D01*
X160385493Y-74747309D01*
X160375000Y-74850013D01*
X160375000Y-75000000D01*
X161469670Y-75000000D01*
X161449925Y-75019745D01*
X161400556Y-75105255D01*
X161375000Y-75200630D01*
X161375000Y-75299370D01*
X161400556Y-75394745D01*
X161449925Y-75480255D01*
X161469670Y-75500000D01*
X160375001Y-75500000D01*
X160375001Y-75649986D01*
X160385494Y-75752697D01*
X160440641Y-75919119D01*
X160440643Y-75919124D01*
X160532684Y-76068345D01*
X160656654Y-76192315D01*
X160805875Y-76284356D01*
X160805880Y-76284358D01*
X160972302Y-76339505D01*
X160972309Y-76339506D01*
X161075019Y-76349999D01*
X161499999Y-76349999D01*
X161500000Y-76349998D01*
X161500000Y-75530330D01*
X161519745Y-75550075D01*
X161605255Y-75599444D01*
X161700630Y-75625000D01*
X161799370Y-75625000D01*
X161894745Y-75599444D01*
X161980255Y-75550075D01*
X162000000Y-75530330D01*
X162000000Y-76349999D01*
X162424972Y-76349999D01*
X162424986Y-76349998D01*
X162527697Y-76339505D01*
X162694119Y-76284358D01*
X162694124Y-76284356D01*
X162843345Y-76192315D01*
X162967315Y-76068345D01*
X163059356Y-75919124D01*
X163059358Y-75919119D01*
X163114505Y-75752697D01*
X163114506Y-75752690D01*
X163124999Y-75649986D01*
X163125000Y-75649973D01*
X163125000Y-75500000D01*
X162030330Y-75500000D01*
X162050075Y-75480255D01*
X162099444Y-75394745D01*
X162125000Y-75299370D01*
X162125000Y-75200630D01*
X162099444Y-75105255D01*
X162050075Y-75019745D01*
X162030330Y-75000000D01*
X163124999Y-75000000D01*
X163124999Y-74850028D01*
X163124998Y-74850013D01*
X163114505Y-74747302D01*
X163059358Y-74580880D01*
X163059356Y-74580875D01*
X162967315Y-74431654D01*
X162843343Y-74307682D01*
X162779093Y-74268053D01*
X162732368Y-74216105D01*
X162721145Y-74147143D01*
X162748988Y-74083061D01*
X162756486Y-74074855D01*
X162864414Y-73966928D01*
X162966232Y-73826788D01*
X163044873Y-73672445D01*
X163098402Y-73507701D01*
X163125500Y-73336611D01*
X163125500Y-73163389D01*
X163119396Y-73124847D01*
X164719387Y-73124847D01*
X164739173Y-73313103D01*
X164739174Y-73313106D01*
X164797665Y-73493124D01*
X164797668Y-73493131D01*
X164892314Y-73657063D01*
X164996604Y-73772888D01*
X165018976Y-73797735D01*
X165172112Y-73908995D01*
X165172117Y-73908998D01*
X165345039Y-73985989D01*
X165345044Y-73985991D01*
X165530201Y-74025347D01*
X165530202Y-74025347D01*
X165620693Y-74025347D01*
X165687732Y-74045032D01*
X165733487Y-74097836D01*
X165743474Y-74143746D01*
X165744014Y-74143690D01*
X165744529Y-74148596D01*
X165744693Y-74149347D01*
X165744693Y-74150150D01*
X165744693Y-74150153D01*
X165764479Y-74338409D01*
X165764480Y-74338412D01*
X165822971Y-74518430D01*
X165822974Y-74518437D01*
X165917620Y-74682369D01*
X166044282Y-74823041D01*
X166197418Y-74934301D01*
X166197423Y-74934304D01*
X166370345Y-75011295D01*
X166370350Y-75011297D01*
X166555507Y-75050653D01*
X166555508Y-75050653D01*
X166744797Y-75050653D01*
X166744799Y-75050653D01*
X166929956Y-75011297D01*
X167102883Y-74934304D01*
X167256024Y-74823041D01*
X167382686Y-74682369D01*
X167477332Y-74518437D01*
X167535827Y-74338409D01*
X167555613Y-74150153D01*
X167535827Y-73961897D01*
X167477332Y-73781869D01*
X167382686Y-73617937D01*
X167256024Y-73477265D01*
X167243653Y-73468277D01*
X167102887Y-73366004D01*
X167102882Y-73366001D01*
X166929960Y-73289010D01*
X166929955Y-73289008D01*
X166783989Y-73257983D01*
X166744799Y-73249653D01*
X166654307Y-73249653D01*
X166587268Y-73229968D01*
X166541513Y-73177164D01*
X166531525Y-73131253D01*
X166530986Y-73131310D01*
X166530470Y-73126403D01*
X166530307Y-73125653D01*
X166530307Y-73124849D01*
X166530307Y-73124847D01*
X166510521Y-72936591D01*
X166452026Y-72756563D01*
X166357380Y-72592631D01*
X166230718Y-72451959D01*
X166196518Y-72427111D01*
X166077581Y-72340698D01*
X166077576Y-72340695D01*
X165904654Y-72263704D01*
X165904649Y-72263702D01*
X165758848Y-72232712D01*
X165719493Y-72224347D01*
X165530201Y-72224347D01*
X165497744Y-72231245D01*
X165345044Y-72263702D01*
X165345039Y-72263704D01*
X165172117Y-72340695D01*
X165172112Y-72340698D01*
X165018976Y-72451958D01*
X164892313Y-72592632D01*
X164797668Y-72756562D01*
X164797665Y-72756569D01*
X164747246Y-72911744D01*
X164739173Y-72936591D01*
X164719387Y-73124847D01*
X163119396Y-73124847D01*
X163098402Y-72992299D01*
X163044873Y-72827555D01*
X162966232Y-72673212D01*
X162864414Y-72533072D01*
X162741928Y-72410586D01*
X162658975Y-72350317D01*
X162616311Y-72294988D01*
X162610332Y-72225374D01*
X162642938Y-72163579D01*
X162658976Y-72149682D01*
X162741928Y-72089414D01*
X162864414Y-71966928D01*
X162966232Y-71826788D01*
X163044873Y-71672445D01*
X163098402Y-71507701D01*
X163125500Y-71336611D01*
X163125500Y-71163389D01*
X163098402Y-70992299D01*
X163044873Y-70827555D01*
X162966232Y-70673212D01*
X162864414Y-70533072D01*
X162741928Y-70410586D01*
X162601788Y-70308768D01*
X162447445Y-70230127D01*
X162282701Y-70176598D01*
X162282699Y-70176597D01*
X162282698Y-70176597D01*
X162151271Y-70155781D01*
X162111611Y-70149500D01*
X161388389Y-70149500D01*
X161348728Y-70155781D01*
X161217302Y-70176597D01*
X161052552Y-70230128D01*
X160898211Y-70308768D01*
X160818256Y-70366859D01*
X160758072Y-70410586D01*
X160758070Y-70410588D01*
X160758069Y-70410588D01*
X160635588Y-70533069D01*
X160635588Y-70533070D01*
X160635586Y-70533072D01*
X160606948Y-70572489D01*
X160533768Y-70673211D01*
X160455128Y-70827552D01*
X160401597Y-70992302D01*
X160374500Y-71163389D01*
X160374500Y-71336610D01*
X160388499Y-71425001D01*
X160401598Y-71507701D01*
X160455127Y-71672445D01*
X160533768Y-71826788D01*
X160635586Y-71966928D01*
X160758072Y-72089414D01*
X160758078Y-72089418D01*
X160841023Y-72149683D01*
X160883689Y-72205013D01*
X160889667Y-72274626D01*
X160857061Y-72336421D01*
X160841023Y-72350317D01*
X160758078Y-72410581D01*
X160758069Y-72410588D01*
X160635588Y-72533069D01*
X160635588Y-72533070D01*
X160635586Y-72533072D01*
X160592314Y-72592631D01*
X160533768Y-72673211D01*
X160455128Y-72827552D01*
X160401597Y-72992302D01*
X160384540Y-73100000D01*
X160374500Y-73163389D01*
X160374500Y-73336611D01*
X158750000Y-73336611D01*
X158750000Y-69624000D01*
X158769685Y-69556961D01*
X158822489Y-69511206D01*
X158874000Y-69500000D01*
X165577845Y-69500000D01*
X165644884Y-69519685D01*
X165690639Y-69572489D01*
X165701165Y-69636959D01*
X165694540Y-69700000D01*
X165714326Y-69888256D01*
X165714327Y-69888259D01*
X165772818Y-70068277D01*
X165772821Y-70068284D01*
X165867467Y-70232216D01*
X165936395Y-70308768D01*
X165994129Y-70372888D01*
X166147265Y-70484148D01*
X166147270Y-70484151D01*
X166320192Y-70561142D01*
X166320197Y-70561144D01*
X166505354Y-70600500D01*
X166505355Y-70600500D01*
X166694644Y-70600500D01*
X166694646Y-70600500D01*
X166879803Y-70561144D01*
X167052730Y-70484151D01*
X167205871Y-70372888D01*
X167332533Y-70232216D01*
X167427179Y-70068284D01*
X167485674Y-69888256D01*
X167505460Y-69700000D01*
X167498834Y-69636959D01*
X167511403Y-69568232D01*
X167559135Y-69517208D01*
X167622155Y-69500000D01*
X169577845Y-69500000D01*
X169644884Y-69519685D01*
X169690639Y-69572489D01*
X169701165Y-69636959D01*
X169694540Y-69700000D01*
X169714326Y-69888256D01*
X169714327Y-69888259D01*
X169772818Y-70068277D01*
X169772821Y-70068284D01*
X169867467Y-70232216D01*
X169936395Y-70308768D01*
X169994129Y-70372888D01*
X170147265Y-70484148D01*
X170147270Y-70484151D01*
X170320192Y-70561142D01*
X170320197Y-70561144D01*
X170505354Y-70600500D01*
X170505355Y-70600500D01*
X170694644Y-70600500D01*
X170694646Y-70600500D01*
X170879803Y-70561144D01*
X171052730Y-70484151D01*
X171205871Y-70372888D01*
X171332533Y-70232216D01*
X171427179Y-70068284D01*
X171485674Y-69888256D01*
X171505460Y-69700000D01*
X171498834Y-69636959D01*
X171511403Y-69568232D01*
X171559135Y-69517208D01*
X171622155Y-69500000D01*
X173577845Y-69500000D01*
X173644884Y-69519685D01*
X173690639Y-69572489D01*
X173701165Y-69636959D01*
X173694540Y-69700000D01*
X173714326Y-69888256D01*
X173714327Y-69888259D01*
X173772818Y-70068277D01*
X173772821Y-70068284D01*
X173867467Y-70232216D01*
X173936395Y-70308768D01*
X173994129Y-70372888D01*
X174147265Y-70484148D01*
X174147270Y-70484151D01*
X174320192Y-70561142D01*
X174320197Y-70561144D01*
X174505354Y-70600500D01*
X174505355Y-70600500D01*
X174694644Y-70600500D01*
X174694646Y-70600500D01*
X174879803Y-70561144D01*
X175052730Y-70484151D01*
X175205871Y-70372888D01*
X175332533Y-70232216D01*
X175427179Y-70068284D01*
X175485674Y-69888256D01*
X175505460Y-69700000D01*
X175498834Y-69636959D01*
X175511403Y-69568232D01*
X175559135Y-69517208D01*
X175622155Y-69500000D01*
X177626000Y-69500000D01*
X177693039Y-69519685D01*
X177738794Y-69572489D01*
X177750000Y-69624000D01*
X177750000Y-72215810D01*
X177730315Y-72282849D01*
X177677511Y-72328604D01*
X177608353Y-72338548D01*
X177558756Y-72318418D01*
X177558363Y-72319101D01*
X177553448Y-72316264D01*
X177553116Y-72316129D01*
X177552733Y-72315851D01*
X177552729Y-72315848D01*
X177379807Y-72238857D01*
X177379802Y-72238855D01*
X177220583Y-72205013D01*
X177194646Y-72199500D01*
X177005354Y-72199500D01*
X176979417Y-72205013D01*
X176820197Y-72238855D01*
X176820192Y-72238857D01*
X176647270Y-72315848D01*
X176647265Y-72315851D01*
X176494129Y-72427111D01*
X176367466Y-72567785D01*
X176272821Y-72731715D01*
X176272818Y-72731722D01*
X176214327Y-72911740D01*
X176214326Y-72911744D01*
X176194540Y-73100000D01*
X176214326Y-73288256D01*
X176214327Y-73288259D01*
X176272818Y-73468277D01*
X176272821Y-73468284D01*
X176367467Y-73632216D01*
X176494129Y-73772888D01*
X176647265Y-73884148D01*
X176647270Y-73884151D01*
X176820192Y-73961142D01*
X176820197Y-73961144D01*
X177005354Y-74000500D01*
X177005355Y-74000500D01*
X177194644Y-74000500D01*
X177194646Y-74000500D01*
X177379803Y-73961144D01*
X177552730Y-73884151D01*
X177553106Y-73883877D01*
X177553360Y-73883786D01*
X177558363Y-73880899D01*
X177558890Y-73881813D01*
X177618909Y-73860392D01*
X177686964Y-73876210D01*
X177735664Y-73926311D01*
X177750000Y-73984189D01*
X177750000Y-137376000D01*
X177730315Y-137443039D01*
X177677511Y-137488794D01*
X177626000Y-137500000D01*
X171625201Y-137500000D01*
X171558162Y-137480315D01*
X171512407Y-137427511D01*
X171501296Y-137371135D01*
X171501911Y-137355464D01*
X170940562Y-136794114D01*
X170942626Y-136793260D01*
X171081844Y-136700238D01*
X171200238Y-136581844D01*
X171293260Y-136442626D01*
X171294114Y-136440561D01*
X171855464Y-137001911D01*
X171855466Y-137001911D01*
X171858713Y-136998110D01*
X171858724Y-136998095D01*
X171992363Y-136780015D01*
X171992365Y-136780012D01*
X172090247Y-136543702D01*
X172149957Y-136294989D01*
X172170024Y-136040000D01*
X172149957Y-135785010D01*
X172090247Y-135536297D01*
X171992365Y-135299987D01*
X171992363Y-135299984D01*
X171858719Y-135081897D01*
X171855465Y-135078087D01*
X171294114Y-135639437D01*
X171293260Y-135637374D01*
X171200238Y-135498156D01*
X171081844Y-135379762D01*
X170942626Y-135286740D01*
X170940561Y-135285884D01*
X171501912Y-134724533D01*
X171498107Y-134721284D01*
X171498098Y-134721277D01*
X171280015Y-134587636D01*
X171280012Y-134587634D01*
X171043702Y-134489752D01*
X170794988Y-134430042D01*
X170794989Y-134430042D01*
X170540000Y-134409975D01*
X170285010Y-134430042D01*
X170036297Y-134489752D01*
X169799987Y-134587634D01*
X169799984Y-134587636D01*
X169581893Y-134721282D01*
X169578086Y-134724532D01*
X170139438Y-135285884D01*
X170137374Y-135286740D01*
X169998156Y-135379762D01*
X169879762Y-135498156D01*
X169786740Y-135637374D01*
X169785884Y-135639438D01*
X169224532Y-135078086D01*
X169221282Y-135081893D01*
X169087636Y-135299984D01*
X169087634Y-135299987D01*
X168989752Y-135536297D01*
X168930042Y-135785010D01*
X168909975Y-136040000D01*
X168930042Y-136294989D01*
X168989752Y-136543702D01*
X169087634Y-136780012D01*
X169087636Y-136780015D01*
X169221277Y-136998098D01*
X169221284Y-136998107D01*
X169224533Y-137001912D01*
X169785884Y-136440560D01*
X169786740Y-136442626D01*
X169879762Y-136581844D01*
X169998156Y-136700238D01*
X170137374Y-136793260D01*
X170139437Y-136794114D01*
X169578087Y-137355465D01*
X169578703Y-137371128D01*
X169561668Y-137438889D01*
X169510702Y-137486683D01*
X169454799Y-137500000D01*
X166545201Y-137500000D01*
X166478162Y-137480315D01*
X166432407Y-137427511D01*
X166421296Y-137371135D01*
X166421911Y-137355464D01*
X165860562Y-136794114D01*
X165862626Y-136793260D01*
X166001844Y-136700238D01*
X166120238Y-136581844D01*
X166213260Y-136442626D01*
X166214114Y-136440562D01*
X166775464Y-137001911D01*
X166775466Y-137001911D01*
X166778713Y-136998110D01*
X166778724Y-136998095D01*
X166912363Y-136780015D01*
X166912365Y-136780012D01*
X167010247Y-136543702D01*
X167069957Y-136294989D01*
X167090024Y-136040000D01*
X167069957Y-135785010D01*
X167010247Y-135536297D01*
X166912365Y-135299987D01*
X166912363Y-135299984D01*
X166778719Y-135081897D01*
X166775465Y-135078087D01*
X166214114Y-135639437D01*
X166213260Y-135637374D01*
X166120238Y-135498156D01*
X166001844Y-135379762D01*
X165862626Y-135286740D01*
X165860561Y-135285884D01*
X166421912Y-134724533D01*
X166418107Y-134721284D01*
X166418098Y-134721277D01*
X166200015Y-134587636D01*
X166200012Y-134587634D01*
X165963702Y-134489752D01*
X165714988Y-134430042D01*
X165714989Y-134430042D01*
X165460000Y-134409975D01*
X165205010Y-134430042D01*
X164956297Y-134489752D01*
X164719987Y-134587634D01*
X164719984Y-134587636D01*
X164501893Y-134721282D01*
X164498086Y-134724532D01*
X165059438Y-135285884D01*
X165057374Y-135286740D01*
X164918156Y-135379762D01*
X164799762Y-135498156D01*
X164706740Y-135637374D01*
X164705884Y-135639438D01*
X164144532Y-135078086D01*
X164141282Y-135081893D01*
X164007636Y-135299984D01*
X164007634Y-135299987D01*
X163909752Y-135536297D01*
X163850042Y-135785010D01*
X163829975Y-136040000D01*
X163850042Y-136294989D01*
X163909752Y-136543702D01*
X164007634Y-136780012D01*
X164007636Y-136780015D01*
X164141277Y-136998098D01*
X164141284Y-136998107D01*
X164144533Y-137001912D01*
X164705884Y-136440560D01*
X164706740Y-136442626D01*
X164799762Y-136581844D01*
X164918156Y-136700238D01*
X165057374Y-136793260D01*
X165059437Y-136794114D01*
X164498087Y-137355465D01*
X164498703Y-137371128D01*
X164481668Y-137438889D01*
X164430702Y-137486683D01*
X164374799Y-137500000D01*
X141625041Y-137500000D01*
X141558002Y-137480315D01*
X141512247Y-137427511D01*
X141502303Y-137358353D01*
X141519502Y-137310904D01*
X141569810Y-137229340D01*
X141569814Y-137229334D01*
X141624999Y-137062797D01*
X141635500Y-136960009D01*
X141635499Y-135619992D01*
X141624999Y-135517203D01*
X141569814Y-135350666D01*
X141477712Y-135201344D01*
X141353656Y-135077288D01*
X141204334Y-134985186D01*
X141204326Y-134985181D01*
X141203645Y-134984864D01*
X141203256Y-134984521D01*
X141198187Y-134981395D01*
X141198721Y-134980528D01*
X141151208Y-134938688D01*
X141132060Y-134871494D01*
X141152280Y-134804614D01*
X141168366Y-134784813D01*
X141310359Y-134642821D01*
X141437157Y-134468299D01*
X141535092Y-134276089D01*
X141601754Y-134070926D01*
X141617287Y-133972853D01*
X141635500Y-133857866D01*
X141635500Y-133832866D01*
X150339500Y-133832866D01*
X150373245Y-134045922D01*
X150373246Y-134045926D01*
X150439908Y-134251089D01*
X150537843Y-134443299D01*
X150664641Y-134617821D01*
X150817179Y-134770359D01*
X150991701Y-134897157D01*
X151183911Y-134995092D01*
X151389074Y-135061754D01*
X151468973Y-135074408D01*
X151602134Y-135095500D01*
X151602139Y-135095500D01*
X151817866Y-135095500D01*
X151936230Y-135076752D01*
X152030926Y-135061754D01*
X152236089Y-134995092D01*
X152428299Y-134897157D01*
X152602821Y-134770359D01*
X152755359Y-134617821D01*
X152879682Y-134446704D01*
X152935012Y-134404040D01*
X153004626Y-134398061D01*
X153066420Y-134430667D01*
X153080315Y-134446702D01*
X153204641Y-134617821D01*
X153357179Y-134770359D01*
X153531701Y-134897157D01*
X153723911Y-134995092D01*
X153929074Y-135061754D01*
X154008973Y-135074408D01*
X154142134Y-135095500D01*
X154142139Y-135095500D01*
X154357866Y-135095500D01*
X154476230Y-135076752D01*
X154570926Y-135061754D01*
X154776089Y-134995092D01*
X154968299Y-134897157D01*
X155142821Y-134770359D01*
X155285186Y-134627993D01*
X155346505Y-134594511D01*
X155416197Y-134599495D01*
X155472131Y-134641366D01*
X155485248Y-134663277D01*
X155485640Y-134664118D01*
X155577684Y-134813345D01*
X155701654Y-134937315D01*
X155850875Y-135029356D01*
X155850880Y-135029358D01*
X156017302Y-135084505D01*
X156017309Y-135084506D01*
X156120019Y-135094999D01*
X156539999Y-135094999D01*
X156540000Y-135094998D01*
X156540000Y-134042709D01*
X156560339Y-134054452D01*
X156711667Y-134095000D01*
X156868333Y-134095000D01*
X157019661Y-134054452D01*
X157040000Y-134042709D01*
X157040000Y-135094999D01*
X157459972Y-135094999D01*
X157459986Y-135094998D01*
X157562697Y-135084505D01*
X157729119Y-135029358D01*
X157729124Y-135029356D01*
X157878345Y-134937315D01*
X158002315Y-134813345D01*
X158094356Y-134664124D01*
X158094358Y-134664119D01*
X158149505Y-134497697D01*
X158149506Y-134497690D01*
X158159999Y-134394986D01*
X158160000Y-134394973D01*
X158160000Y-133750000D01*
X157332709Y-133750000D01*
X157344452Y-133729661D01*
X157385000Y-133578333D01*
X157385000Y-133500000D01*
X166469783Y-133500000D01*
X166488623Y-133739382D01*
X166544674Y-133972853D01*
X166544678Y-133972865D01*
X166636565Y-134194702D01*
X166762026Y-134399436D01*
X166762028Y-134399439D01*
X166917973Y-134582027D01*
X167100561Y-134737972D01*
X167100563Y-134737973D01*
X167305297Y-134863434D01*
X167402047Y-134903508D01*
X167527137Y-134955323D01*
X167760621Y-135011377D01*
X168000000Y-135030217D01*
X168239379Y-135011377D01*
X168472863Y-134955323D01*
X168694704Y-134863433D01*
X168899439Y-134737972D01*
X169082027Y-134582027D01*
X169237972Y-134399439D01*
X169363433Y-134194704D01*
X169455323Y-133972863D01*
X169511377Y-133739379D01*
X169530217Y-133500000D01*
X169511377Y-133260621D01*
X169455323Y-133027137D01*
X169384923Y-132857176D01*
X169363434Y-132805297D01*
X169237973Y-132600563D01*
X169237972Y-132600561D01*
X169082027Y-132417973D01*
X168899439Y-132262028D01*
X168888556Y-132255359D01*
X168694702Y-132136565D01*
X168472865Y-132044678D01*
X168472867Y-132044678D01*
X168472863Y-132044677D01*
X168472859Y-132044676D01*
X168472853Y-132044674D01*
X168239382Y-131988623D01*
X168000000Y-131969783D01*
X167760617Y-131988623D01*
X167527146Y-132044674D01*
X167527134Y-132044678D01*
X167305297Y-132136565D01*
X167100563Y-132262026D01*
X166917973Y-132417973D01*
X166762026Y-132600563D01*
X166636565Y-132805297D01*
X166544678Y-133027134D01*
X166544674Y-133027146D01*
X166488623Y-133260617D01*
X166469783Y-133500000D01*
X157385000Y-133500000D01*
X157385000Y-133421667D01*
X157344452Y-133270339D01*
X157332709Y-133250000D01*
X158159999Y-133250000D01*
X158159999Y-132605028D01*
X158159998Y-132605013D01*
X158149505Y-132502302D01*
X158094358Y-132335880D01*
X158094356Y-132335875D01*
X158002315Y-132186654D01*
X157878345Y-132062684D01*
X157729124Y-131970643D01*
X157729119Y-131970641D01*
X157562697Y-131915494D01*
X157562690Y-131915493D01*
X157459986Y-131905000D01*
X157040000Y-131905000D01*
X157040000Y-132957290D01*
X157019661Y-132945548D01*
X156868333Y-132905000D01*
X156711667Y-132905000D01*
X156560339Y-132945548D01*
X156540000Y-132957290D01*
X156540000Y-131905000D01*
X156120028Y-131905000D01*
X156120012Y-131905001D01*
X156017302Y-131915494D01*
X155850880Y-131970641D01*
X155850875Y-131970643D01*
X155701654Y-132062684D01*
X155577684Y-132186654D01*
X155485637Y-132335885D01*
X155485245Y-132336728D01*
X155484821Y-132337208D01*
X155481851Y-132342025D01*
X155481027Y-132341517D01*
X155439072Y-132389167D01*
X155371879Y-132408318D01*
X155304998Y-132388101D01*
X155285183Y-132372003D01*
X155142823Y-132229643D01*
X155142821Y-132229641D01*
X154968299Y-132102843D01*
X154776089Y-132004908D01*
X154570926Y-131938246D01*
X154570924Y-131938245D01*
X154570922Y-131938245D01*
X154357866Y-131904500D01*
X154357861Y-131904500D01*
X154142139Y-131904500D01*
X154142134Y-131904500D01*
X153929077Y-131938245D01*
X153723908Y-132004909D01*
X153531700Y-132102843D01*
X153432129Y-132175186D01*
X153357179Y-132229641D01*
X153357177Y-132229643D01*
X153357176Y-132229643D01*
X153204643Y-132382176D01*
X153204643Y-132382177D01*
X153204641Y-132382179D01*
X153151462Y-132455374D01*
X153080318Y-132553294D01*
X153024988Y-132595959D01*
X152955374Y-132601938D01*
X152893579Y-132569332D01*
X152879682Y-132553294D01*
X152844322Y-132504626D01*
X152755359Y-132382179D01*
X152602821Y-132229641D01*
X152428299Y-132102843D01*
X152236089Y-132004908D01*
X152030926Y-131938246D01*
X152030924Y-131938245D01*
X152030922Y-131938245D01*
X151817866Y-131904500D01*
X151817861Y-131904500D01*
X151602139Y-131904500D01*
X151602134Y-131904500D01*
X151389077Y-131938245D01*
X151183908Y-132004909D01*
X150991700Y-132102843D01*
X150892129Y-132175186D01*
X150817179Y-132229641D01*
X150817177Y-132229643D01*
X150817176Y-132229643D01*
X150664643Y-132382176D01*
X150664643Y-132382177D01*
X150664641Y-132382179D01*
X150611462Y-132455374D01*
X150537843Y-132556700D01*
X150439909Y-132748908D01*
X150373245Y-132954077D01*
X150339500Y-133167133D01*
X150339500Y-133832866D01*
X141635500Y-133832866D01*
X141635500Y-133642133D01*
X141601754Y-133429077D01*
X141601754Y-133429074D01*
X141535092Y-133223911D01*
X141437157Y-133031701D01*
X141310359Y-132857179D01*
X141157821Y-132704641D01*
X140986704Y-132580317D01*
X140944040Y-132524988D01*
X140938061Y-132455374D01*
X140970667Y-132393580D01*
X140986702Y-132379684D01*
X141157821Y-132255359D01*
X141310359Y-132102821D01*
X141437157Y-131928299D01*
X141535092Y-131736089D01*
X141601754Y-131530926D01*
X141628410Y-131362626D01*
X141635500Y-131317866D01*
X141635500Y-131102133D01*
X141612988Y-130960000D01*
X163829975Y-130960000D01*
X163850042Y-131214989D01*
X163909752Y-131463702D01*
X164007634Y-131700012D01*
X164007636Y-131700015D01*
X164141277Y-131918098D01*
X164141284Y-131918107D01*
X164144533Y-131921912D01*
X164705884Y-131360560D01*
X164706740Y-131362626D01*
X164799762Y-131501844D01*
X164918156Y-131620238D01*
X165057374Y-131713260D01*
X165059437Y-131714114D01*
X164498087Y-132275465D01*
X164501897Y-132278719D01*
X164719984Y-132412363D01*
X164719987Y-132412365D01*
X164956297Y-132510247D01*
X165205011Y-132569957D01*
X165205010Y-132569957D01*
X165460000Y-132590024D01*
X165714989Y-132569957D01*
X165963702Y-132510247D01*
X166200012Y-132412365D01*
X166200015Y-132412363D01*
X166418095Y-132278724D01*
X166418110Y-132278713D01*
X166421911Y-132275466D01*
X166421911Y-132275464D01*
X165860562Y-131714114D01*
X165862626Y-131713260D01*
X166001844Y-131620238D01*
X166120238Y-131501844D01*
X166213260Y-131362626D01*
X166214114Y-131360562D01*
X166775464Y-131921911D01*
X166775466Y-131921911D01*
X166778713Y-131918110D01*
X166778724Y-131918095D01*
X166912363Y-131700015D01*
X166912365Y-131700012D01*
X167010247Y-131463702D01*
X167069957Y-131214989D01*
X167090024Y-130960000D01*
X168909975Y-130960000D01*
X168930042Y-131214989D01*
X168989752Y-131463702D01*
X169087634Y-131700012D01*
X169087636Y-131700015D01*
X169221277Y-131918098D01*
X169221284Y-131918107D01*
X169224533Y-131921912D01*
X169785884Y-131360560D01*
X169786740Y-131362626D01*
X169879762Y-131501844D01*
X169998156Y-131620238D01*
X170137374Y-131713260D01*
X170139437Y-131714114D01*
X169578087Y-132275465D01*
X169581897Y-132278719D01*
X169799984Y-132412363D01*
X169799987Y-132412365D01*
X170036297Y-132510247D01*
X170285011Y-132569957D01*
X170285010Y-132569957D01*
X170540000Y-132590024D01*
X170794989Y-132569957D01*
X171043702Y-132510247D01*
X171280012Y-132412365D01*
X171280015Y-132412363D01*
X171498095Y-132278724D01*
X171498110Y-132278713D01*
X171501911Y-132275466D01*
X171501911Y-132275464D01*
X170940562Y-131714114D01*
X170942626Y-131713260D01*
X171081844Y-131620238D01*
X171200238Y-131501844D01*
X171293260Y-131362626D01*
X171294114Y-131360561D01*
X171855464Y-131921911D01*
X171855466Y-131921911D01*
X171858713Y-131918110D01*
X171858724Y-131918095D01*
X171992363Y-131700015D01*
X171992365Y-131700012D01*
X172090247Y-131463702D01*
X172149957Y-131214989D01*
X172170024Y-130960000D01*
X172149957Y-130705010D01*
X172090247Y-130456297D01*
X171992365Y-130219987D01*
X171992363Y-130219984D01*
X171858719Y-130001897D01*
X171855465Y-129998087D01*
X171294114Y-130559437D01*
X171293260Y-130557374D01*
X171200238Y-130418156D01*
X171081844Y-130299762D01*
X170942626Y-130206740D01*
X170940561Y-130205884D01*
X171501912Y-129644533D01*
X171498107Y-129641284D01*
X171498098Y-129641277D01*
X171280015Y-129507636D01*
X171280012Y-129507634D01*
X171043702Y-129409752D01*
X170794988Y-129350042D01*
X170794989Y-129350042D01*
X170540000Y-129329975D01*
X170285010Y-129350042D01*
X170036297Y-129409752D01*
X169799987Y-129507634D01*
X169799984Y-129507636D01*
X169581893Y-129641282D01*
X169578086Y-129644532D01*
X170139438Y-130205884D01*
X170137374Y-130206740D01*
X169998156Y-130299762D01*
X169879762Y-130418156D01*
X169786740Y-130557374D01*
X169785884Y-130559438D01*
X169224532Y-129998086D01*
X169221282Y-130001893D01*
X169087636Y-130219984D01*
X169087634Y-130219987D01*
X168989752Y-130456297D01*
X168930042Y-130705010D01*
X168909975Y-130960000D01*
X167090024Y-130960000D01*
X167069957Y-130705010D01*
X167010247Y-130456297D01*
X166912365Y-130219987D01*
X166912363Y-130219984D01*
X166778719Y-130001897D01*
X166775465Y-129998087D01*
X166214114Y-130559437D01*
X166213260Y-130557374D01*
X166120238Y-130418156D01*
X166001844Y-130299762D01*
X165862626Y-130206740D01*
X165860561Y-130205884D01*
X166421912Y-129644533D01*
X166418107Y-129641284D01*
X166418098Y-129641277D01*
X166200015Y-129507636D01*
X166200012Y-129507634D01*
X165963702Y-129409752D01*
X165714988Y-129350042D01*
X165714989Y-129350042D01*
X165460000Y-129329975D01*
X165205010Y-129350042D01*
X164956297Y-129409752D01*
X164719987Y-129507634D01*
X164719984Y-129507636D01*
X164501893Y-129641282D01*
X164498086Y-129644532D01*
X165059438Y-130205884D01*
X165057374Y-130206740D01*
X164918156Y-130299762D01*
X164799762Y-130418156D01*
X164706740Y-130557374D01*
X164705884Y-130559438D01*
X164144532Y-129998086D01*
X164141282Y-130001893D01*
X164007636Y-130219984D01*
X164007634Y-130219987D01*
X163909752Y-130456297D01*
X163850042Y-130705010D01*
X163829975Y-130960000D01*
X141612988Y-130960000D01*
X141601754Y-130889077D01*
X141601754Y-130889074D01*
X141535092Y-130683911D01*
X141437157Y-130491701D01*
X141310359Y-130317179D01*
X141157821Y-130164641D01*
X140983299Y-130037843D01*
X140791089Y-129939908D01*
X140585926Y-129873246D01*
X140585924Y-129873245D01*
X140585922Y-129873245D01*
X140372866Y-129839500D01*
X140372861Y-129839500D01*
X139707139Y-129839500D01*
X139707134Y-129839500D01*
X139494077Y-129873245D01*
X139288908Y-129939909D01*
X139096700Y-130037843D01*
X138997386Y-130110000D01*
X138922179Y-130164641D01*
X138922177Y-130164643D01*
X138922176Y-130164643D01*
X138769643Y-130317176D01*
X138769643Y-130317177D01*
X138769641Y-130317179D01*
X138715186Y-130392129D01*
X138642843Y-130491700D01*
X138544909Y-130683908D01*
X138478245Y-130889077D01*
X138444500Y-131102133D01*
X138444500Y-131317866D01*
X138478245Y-131530922D01*
X138478246Y-131530926D01*
X138544908Y-131736089D01*
X138642843Y-131928299D01*
X138769641Y-132102821D01*
X138922179Y-132255359D01*
X139033006Y-132335880D01*
X139093294Y-132379682D01*
X139135959Y-132435012D01*
X139141938Y-132504626D01*
X139109332Y-132566421D01*
X139093294Y-132580318D01*
X139063537Y-132601938D01*
X138922179Y-132704641D01*
X138922177Y-132704643D01*
X138922176Y-132704643D01*
X138769643Y-132857176D01*
X138769643Y-132857177D01*
X138769641Y-132857179D01*
X138734897Y-132905000D01*
X138642843Y-133031700D01*
X138544909Y-133223908D01*
X138478245Y-133429077D01*
X138444500Y-133642133D01*
X138444500Y-133857866D01*
X138478245Y-134070922D01*
X138478246Y-134070926D01*
X138544908Y-134276089D01*
X138642843Y-134468299D01*
X138769641Y-134642821D01*
X138769643Y-134642823D01*
X138911624Y-134784804D01*
X138945109Y-134846127D01*
X138940125Y-134915819D01*
X138898253Y-134971752D01*
X138876360Y-134984861D01*
X138875677Y-134985179D01*
X138726342Y-135077289D01*
X138602289Y-135201342D01*
X138510187Y-135350663D01*
X138510185Y-135350668D01*
X138482349Y-135434670D01*
X138455001Y-135517203D01*
X138455001Y-135517204D01*
X138455000Y-135517204D01*
X138444500Y-135619983D01*
X138444500Y-136960001D01*
X138444501Y-136960018D01*
X138455000Y-137062796D01*
X138455001Y-137062799D01*
X138510185Y-137229331D01*
X138510189Y-137229340D01*
X138560498Y-137310904D01*
X138578938Y-137378296D01*
X138558015Y-137444960D01*
X138504373Y-137489729D01*
X138454959Y-137500000D01*
X133105041Y-137500000D01*
X133038002Y-137480315D01*
X132992247Y-137427511D01*
X132982303Y-137358353D01*
X132999502Y-137310904D01*
X133049810Y-137229340D01*
X133049814Y-137229334D01*
X133104999Y-137062797D01*
X133115500Y-136960009D01*
X133115499Y-135619992D01*
X133104999Y-135517203D01*
X133049814Y-135350666D01*
X132957712Y-135201344D01*
X132833656Y-135077288D01*
X132684334Y-134985186D01*
X132684326Y-134985181D01*
X132683645Y-134984864D01*
X132683256Y-134984521D01*
X132678187Y-134981395D01*
X132678721Y-134980528D01*
X132631208Y-134938688D01*
X132612060Y-134871494D01*
X132632280Y-134804614D01*
X132648366Y-134784813D01*
X132790359Y-134642821D01*
X132917157Y-134468299D01*
X133015092Y-134276089D01*
X133081754Y-134070926D01*
X133097287Y-133972853D01*
X133115500Y-133857866D01*
X133115500Y-133642133D01*
X133081754Y-133429077D01*
X133081754Y-133429074D01*
X133015092Y-133223911D01*
X132917157Y-133031701D01*
X132790359Y-132857179D01*
X132637821Y-132704641D01*
X132466704Y-132580317D01*
X132424040Y-132524988D01*
X132418061Y-132455374D01*
X132450667Y-132393580D01*
X132466702Y-132379684D01*
X132637821Y-132255359D01*
X132790359Y-132102821D01*
X132917157Y-131928299D01*
X133015092Y-131736089D01*
X133081754Y-131530926D01*
X133108410Y-131362626D01*
X133115500Y-131317866D01*
X133115500Y-131102133D01*
X133081754Y-130889077D01*
X133081754Y-130889074D01*
X133015092Y-130683911D01*
X132917157Y-130491701D01*
X132790359Y-130317179D01*
X132637821Y-130164641D01*
X132463299Y-130037843D01*
X132271089Y-129939908D01*
X132065926Y-129873246D01*
X132065924Y-129873245D01*
X132065922Y-129873245D01*
X131852866Y-129839500D01*
X131852861Y-129839500D01*
X131187139Y-129839500D01*
X131187134Y-129839500D01*
X130974077Y-129873245D01*
X130768908Y-129939909D01*
X130576700Y-130037843D01*
X130477386Y-130110000D01*
X130402179Y-130164641D01*
X130402177Y-130164643D01*
X130402176Y-130164643D01*
X130249643Y-130317176D01*
X130249643Y-130317177D01*
X130249641Y-130317179D01*
X130195186Y-130392129D01*
X130122843Y-130491700D01*
X130024909Y-130683908D01*
X129958245Y-130889077D01*
X129924500Y-131102133D01*
X129924500Y-131317866D01*
X129958245Y-131530922D01*
X129958246Y-131530926D01*
X130024908Y-131736089D01*
X130122843Y-131928299D01*
X130249641Y-132102821D01*
X130402179Y-132255359D01*
X130513006Y-132335880D01*
X130573294Y-132379682D01*
X130615959Y-132435012D01*
X130621938Y-132504626D01*
X130589332Y-132566421D01*
X130573294Y-132580318D01*
X130543537Y-132601938D01*
X130402179Y-132704641D01*
X130402177Y-132704643D01*
X130402176Y-132704643D01*
X130249643Y-132857176D01*
X130249643Y-132857177D01*
X130249641Y-132857179D01*
X130214897Y-132905000D01*
X130122843Y-133031700D01*
X130024909Y-133223908D01*
X129958245Y-133429077D01*
X129924500Y-133642133D01*
X129924500Y-133857866D01*
X129958245Y-134070922D01*
X129958246Y-134070926D01*
X130024908Y-134276089D01*
X130122843Y-134468299D01*
X130249641Y-134642821D01*
X130249643Y-134642823D01*
X130391624Y-134784804D01*
X130425109Y-134846127D01*
X130420125Y-134915819D01*
X130378253Y-134971752D01*
X130356360Y-134984861D01*
X130355677Y-134985179D01*
X130206342Y-135077289D01*
X130082289Y-135201342D01*
X129990187Y-135350663D01*
X129990185Y-135350668D01*
X129962349Y-135434670D01*
X129935001Y-135517203D01*
X129935001Y-135517204D01*
X129935000Y-135517204D01*
X129924500Y-135619983D01*
X129924500Y-136960001D01*
X129924501Y-136960018D01*
X129935000Y-137062796D01*
X129935001Y-137062799D01*
X129990185Y-137229331D01*
X129990189Y-137229340D01*
X130040498Y-137310904D01*
X130058938Y-137378296D01*
X130038015Y-137444960D01*
X129984373Y-137489729D01*
X129934959Y-137500000D01*
X124625041Y-137500000D01*
X124558002Y-137480315D01*
X124512247Y-137427511D01*
X124502303Y-137358353D01*
X124519502Y-137310904D01*
X124569810Y-137229340D01*
X124569814Y-137229334D01*
X124624999Y-137062797D01*
X124635500Y-136960009D01*
X124635499Y-135619992D01*
X124624999Y-135517203D01*
X124569814Y-135350666D01*
X124477712Y-135201344D01*
X124353656Y-135077288D01*
X124204334Y-134985186D01*
X124204326Y-134985181D01*
X124203645Y-134984864D01*
X124203256Y-134984521D01*
X124198187Y-134981395D01*
X124198721Y-134980528D01*
X124151208Y-134938688D01*
X124132060Y-134871494D01*
X124152280Y-134804614D01*
X124168366Y-134784813D01*
X124310359Y-134642821D01*
X124437157Y-134468299D01*
X124535092Y-134276089D01*
X124601754Y-134070926D01*
X124617287Y-133972853D01*
X124635500Y-133857866D01*
X124635500Y-133642133D01*
X124601754Y-133429077D01*
X124601754Y-133429074D01*
X124535092Y-133223911D01*
X124437157Y-133031701D01*
X124310359Y-132857179D01*
X124157821Y-132704641D01*
X123986704Y-132580317D01*
X123944040Y-132524988D01*
X123938061Y-132455374D01*
X123970667Y-132393580D01*
X123986702Y-132379684D01*
X124157821Y-132255359D01*
X124310359Y-132102821D01*
X124437157Y-131928299D01*
X124535092Y-131736089D01*
X124601754Y-131530926D01*
X124628410Y-131362626D01*
X124635500Y-131317866D01*
X124635500Y-131102133D01*
X124601754Y-130889077D01*
X124601754Y-130889074D01*
X124535092Y-130683911D01*
X124437157Y-130491701D01*
X124310359Y-130317179D01*
X124157821Y-130164641D01*
X123983299Y-130037843D01*
X123791089Y-129939908D01*
X123585926Y-129873246D01*
X123585924Y-129873245D01*
X123585922Y-129873245D01*
X123372866Y-129839500D01*
X123372861Y-129839500D01*
X122707139Y-129839500D01*
X122707134Y-129839500D01*
X122494077Y-129873245D01*
X122288908Y-129939909D01*
X122096700Y-130037843D01*
X121997386Y-130110000D01*
X121922179Y-130164641D01*
X121922177Y-130164643D01*
X121922176Y-130164643D01*
X121769643Y-130317176D01*
X121769643Y-130317177D01*
X121769641Y-130317179D01*
X121715186Y-130392129D01*
X121642843Y-130491700D01*
X121544909Y-130683908D01*
X121478245Y-130889077D01*
X121444500Y-131102133D01*
X121444500Y-131317866D01*
X121478245Y-131530922D01*
X121478246Y-131530926D01*
X121544908Y-131736089D01*
X121642843Y-131928299D01*
X121769641Y-132102821D01*
X121922179Y-132255359D01*
X122033006Y-132335880D01*
X122093294Y-132379682D01*
X122135959Y-132435012D01*
X122141938Y-132504626D01*
X122109332Y-132566421D01*
X122093294Y-132580318D01*
X122063537Y-132601938D01*
X121922179Y-132704641D01*
X121922177Y-132704643D01*
X121922176Y-132704643D01*
X121769643Y-132857176D01*
X121769643Y-132857177D01*
X121769641Y-132857179D01*
X121734897Y-132905000D01*
X121642843Y-133031700D01*
X121544909Y-133223908D01*
X121478245Y-133429077D01*
X121444500Y-133642133D01*
X121444500Y-133857866D01*
X121478245Y-134070922D01*
X121478246Y-134070926D01*
X121544908Y-134276089D01*
X121642843Y-134468299D01*
X121769641Y-134642821D01*
X121769643Y-134642823D01*
X121911624Y-134784804D01*
X121945109Y-134846127D01*
X121940125Y-134915819D01*
X121898253Y-134971752D01*
X121876360Y-134984861D01*
X121875677Y-134985179D01*
X121726342Y-135077289D01*
X121602289Y-135201342D01*
X121510187Y-135350663D01*
X121510185Y-135350668D01*
X121482349Y-135434670D01*
X121455001Y-135517203D01*
X121455001Y-135517204D01*
X121455000Y-135517204D01*
X121444500Y-135619983D01*
X121444500Y-136960001D01*
X121444501Y-136960018D01*
X121455000Y-137062796D01*
X121455001Y-137062799D01*
X121510185Y-137229331D01*
X121510189Y-137229340D01*
X121560498Y-137310904D01*
X121578938Y-137378296D01*
X121558015Y-137444960D01*
X121504373Y-137489729D01*
X121454959Y-137500000D01*
X116105041Y-137500000D01*
X116038002Y-137480315D01*
X115992247Y-137427511D01*
X115982303Y-137358353D01*
X115999502Y-137310904D01*
X116049810Y-137229340D01*
X116049814Y-137229334D01*
X116104999Y-137062797D01*
X116115500Y-136960009D01*
X116115499Y-135619992D01*
X116104999Y-135517203D01*
X116049814Y-135350666D01*
X115957712Y-135201344D01*
X115833656Y-135077288D01*
X115684334Y-134985186D01*
X115684326Y-134985181D01*
X115683645Y-134984864D01*
X115683256Y-134984521D01*
X115678187Y-134981395D01*
X115678721Y-134980528D01*
X115631208Y-134938688D01*
X115612060Y-134871494D01*
X115632280Y-134804614D01*
X115648366Y-134784813D01*
X115790359Y-134642821D01*
X115917157Y-134468299D01*
X116015092Y-134276089D01*
X116081754Y-134070926D01*
X116097287Y-133972853D01*
X116115500Y-133857866D01*
X116115500Y-133642133D01*
X116081754Y-133429077D01*
X116081754Y-133429074D01*
X116015092Y-133223911D01*
X115917157Y-133031701D01*
X115790359Y-132857179D01*
X115637821Y-132704641D01*
X115466704Y-132580317D01*
X115424040Y-132524988D01*
X115418061Y-132455374D01*
X115450667Y-132393580D01*
X115466702Y-132379684D01*
X115637821Y-132255359D01*
X115790359Y-132102821D01*
X115917157Y-131928299D01*
X116015092Y-131736089D01*
X116081754Y-131530926D01*
X116108410Y-131362626D01*
X116115500Y-131317866D01*
X116115500Y-131102133D01*
X116081754Y-130889077D01*
X116081754Y-130889074D01*
X116015092Y-130683911D01*
X115917157Y-130491701D01*
X115790359Y-130317179D01*
X115637821Y-130164641D01*
X115463299Y-130037843D01*
X115271089Y-129939908D01*
X115065926Y-129873246D01*
X115065924Y-129873245D01*
X115065922Y-129873245D01*
X114852866Y-129839500D01*
X114852861Y-129839500D01*
X114187139Y-129839500D01*
X114187134Y-129839500D01*
X113974077Y-129873245D01*
X113768908Y-129939909D01*
X113576700Y-130037843D01*
X113477386Y-130110000D01*
X113402179Y-130164641D01*
X113402177Y-130164643D01*
X113402176Y-130164643D01*
X113249643Y-130317176D01*
X113249643Y-130317177D01*
X113249641Y-130317179D01*
X113195186Y-130392129D01*
X113122843Y-130491700D01*
X113024909Y-130683908D01*
X112958245Y-130889077D01*
X112924500Y-131102133D01*
X112924500Y-131317866D01*
X112958245Y-131530922D01*
X112958246Y-131530926D01*
X113024908Y-131736089D01*
X113122843Y-131928299D01*
X113249641Y-132102821D01*
X113402179Y-132255359D01*
X113513006Y-132335880D01*
X113573294Y-132379682D01*
X113615959Y-132435012D01*
X113621938Y-132504626D01*
X113589332Y-132566421D01*
X113573294Y-132580318D01*
X113543537Y-132601938D01*
X113402179Y-132704641D01*
X113402177Y-132704643D01*
X113402176Y-132704643D01*
X113249643Y-132857176D01*
X113249643Y-132857177D01*
X113249641Y-132857179D01*
X113214897Y-132905000D01*
X113122843Y-133031700D01*
X113024909Y-133223908D01*
X112958245Y-133429077D01*
X112924500Y-133642133D01*
X112924500Y-133857866D01*
X112958245Y-134070922D01*
X112958246Y-134070926D01*
X113024908Y-134276089D01*
X113122843Y-134468299D01*
X113249641Y-134642821D01*
X113249643Y-134642823D01*
X113391624Y-134784804D01*
X113425109Y-134846127D01*
X113420125Y-134915819D01*
X113378253Y-134971752D01*
X113356360Y-134984861D01*
X113355677Y-134985179D01*
X113206342Y-135077289D01*
X113082289Y-135201342D01*
X112990187Y-135350663D01*
X112990185Y-135350668D01*
X112962349Y-135434670D01*
X112935001Y-135517203D01*
X112935001Y-135517204D01*
X112935000Y-135517204D01*
X112924500Y-135619983D01*
X112924500Y-136960001D01*
X112924501Y-136960018D01*
X112935000Y-137062796D01*
X112935001Y-137062799D01*
X112990185Y-137229331D01*
X112990189Y-137229340D01*
X113040498Y-137310904D01*
X113058938Y-137378296D01*
X113038015Y-137444960D01*
X112984373Y-137489729D01*
X112934959Y-137500000D01*
X109874000Y-137500000D01*
X109806961Y-137480315D01*
X109761206Y-137427511D01*
X109750000Y-137376000D01*
X109750000Y-125000000D01*
X115994540Y-125000000D01*
X116014326Y-125188256D01*
X116014327Y-125188259D01*
X116072818Y-125368277D01*
X116072821Y-125368284D01*
X116167467Y-125532216D01*
X116294129Y-125672888D01*
X116447265Y-125784148D01*
X116447270Y-125784151D01*
X116620192Y-125861142D01*
X116620197Y-125861144D01*
X116805354Y-125900500D01*
X116805355Y-125900500D01*
X116994644Y-125900500D01*
X116994646Y-125900500D01*
X117179803Y-125861144D01*
X117352730Y-125784151D01*
X117505871Y-125672888D01*
X117632533Y-125532216D01*
X117727179Y-125368284D01*
X117785674Y-125188256D01*
X117805460Y-125000000D01*
X118194540Y-125000000D01*
X118214326Y-125188256D01*
X118214327Y-125188259D01*
X118272818Y-125368277D01*
X118272821Y-125368284D01*
X118367467Y-125532216D01*
X118494129Y-125672888D01*
X118647265Y-125784148D01*
X118647270Y-125784151D01*
X118820192Y-125861142D01*
X118820197Y-125861144D01*
X119005354Y-125900500D01*
X119005355Y-125900500D01*
X119194644Y-125900500D01*
X119194646Y-125900500D01*
X119379803Y-125861144D01*
X119552730Y-125784151D01*
X119705871Y-125672888D01*
X119832533Y-125532216D01*
X119927179Y-125368284D01*
X119985674Y-125188256D01*
X120005460Y-125000000D01*
X119985674Y-124811744D01*
X119927179Y-124631716D01*
X119908868Y-124600000D01*
X134314540Y-124600000D01*
X134334326Y-124788256D01*
X134334327Y-124788259D01*
X134392818Y-124968277D01*
X134392821Y-124968284D01*
X134487467Y-125132216D01*
X134614129Y-125272888D01*
X134767265Y-125384148D01*
X134767270Y-125384151D01*
X134940192Y-125461142D01*
X134940197Y-125461144D01*
X135125354Y-125500500D01*
X135125355Y-125500500D01*
X135314644Y-125500500D01*
X135314646Y-125500500D01*
X135499803Y-125461144D01*
X135672730Y-125384151D01*
X135825871Y-125272888D01*
X135952533Y-125132216D01*
X136047179Y-124968284D01*
X136105674Y-124788256D01*
X136125460Y-124600000D01*
X136514540Y-124600000D01*
X136534326Y-124788256D01*
X136534327Y-124788259D01*
X136592818Y-124968277D01*
X136592821Y-124968284D01*
X136687467Y-125132216D01*
X136814129Y-125272888D01*
X136967265Y-125384148D01*
X136967270Y-125384151D01*
X137140192Y-125461142D01*
X137140197Y-125461144D01*
X137325354Y-125500500D01*
X137325355Y-125500500D01*
X137514644Y-125500500D01*
X137514646Y-125500500D01*
X137699803Y-125461144D01*
X137872730Y-125384151D01*
X138025871Y-125272888D01*
X138152533Y-125132216D01*
X138247179Y-124968284D01*
X138305674Y-124788256D01*
X138325460Y-124600000D01*
X138305674Y-124411744D01*
X138247179Y-124231716D01*
X138152533Y-124067784D01*
X138025871Y-123927112D01*
X138025870Y-123927111D01*
X137872734Y-123815851D01*
X137872729Y-123815848D01*
X137699807Y-123738857D01*
X137699802Y-123738855D01*
X137554001Y-123707865D01*
X137514646Y-123699500D01*
X137325354Y-123699500D01*
X137292897Y-123706398D01*
X137140197Y-123738855D01*
X137140192Y-123738857D01*
X136967270Y-123815848D01*
X136967265Y-123815851D01*
X136814129Y-123927111D01*
X136687466Y-124067785D01*
X136592821Y-124231715D01*
X136592818Y-124231722D01*
X136548447Y-124368284D01*
X136534326Y-124411744D01*
X136514540Y-124600000D01*
X136125460Y-124600000D01*
X136105674Y-124411744D01*
X136047179Y-124231716D01*
X135952533Y-124067784D01*
X135825871Y-123927112D01*
X135825870Y-123927111D01*
X135672734Y-123815851D01*
X135672729Y-123815848D01*
X135499807Y-123738857D01*
X135499802Y-123738855D01*
X135354001Y-123707865D01*
X135314646Y-123699500D01*
X135125354Y-123699500D01*
X135092897Y-123706398D01*
X134940197Y-123738855D01*
X134940192Y-123738857D01*
X134767270Y-123815848D01*
X134767265Y-123815851D01*
X134614129Y-123927111D01*
X134487466Y-124067785D01*
X134392821Y-124231715D01*
X134392818Y-124231722D01*
X134348447Y-124368284D01*
X134334326Y-124411744D01*
X134314540Y-124600000D01*
X119908868Y-124600000D01*
X119886927Y-124561997D01*
X119870454Y-124494097D01*
X119886928Y-124437997D01*
X119927179Y-124368281D01*
X119985674Y-124188253D01*
X120005460Y-123999997D01*
X119985674Y-123811741D01*
X119927179Y-123631713D01*
X119886929Y-123561998D01*
X119870456Y-123494097D01*
X119886928Y-123437999D01*
X119927179Y-123368284D01*
X119985674Y-123188256D01*
X120005460Y-123000000D01*
X119985674Y-122811744D01*
X119927179Y-122631716D01*
X119832533Y-122467784D01*
X119705871Y-122327112D01*
X119705863Y-122327106D01*
X119552734Y-122215851D01*
X119552729Y-122215848D01*
X119379807Y-122138857D01*
X119379802Y-122138855D01*
X119234001Y-122107865D01*
X119194646Y-122099500D01*
X119005354Y-122099500D01*
X118972897Y-122106398D01*
X118820197Y-122138855D01*
X118820192Y-122138857D01*
X118647270Y-122215848D01*
X118647265Y-122215851D01*
X118494129Y-122327111D01*
X118367466Y-122467785D01*
X118272821Y-122631715D01*
X118272818Y-122631722D01*
X118214329Y-122811734D01*
X118214326Y-122811744D01*
X118194540Y-123000000D01*
X118214326Y-123188256D01*
X118214327Y-123188259D01*
X118272818Y-123368277D01*
X118272819Y-123368279D01*
X118272821Y-123368284D01*
X118313067Y-123437993D01*
X118313070Y-123437997D01*
X118329543Y-123505897D01*
X118313071Y-123561996D01*
X118272820Y-123631713D01*
X118214327Y-123811737D01*
X118214326Y-123811741D01*
X118194540Y-123999997D01*
X118214326Y-124188253D01*
X118214327Y-124188256D01*
X118272821Y-124368282D01*
X118313071Y-124437997D01*
X118329544Y-124505897D01*
X118313073Y-124561995D01*
X118272819Y-124631719D01*
X118214327Y-124811740D01*
X118214326Y-124811744D01*
X118194540Y-125000000D01*
X117805460Y-125000000D01*
X117785674Y-124811744D01*
X117727179Y-124631716D01*
X117686927Y-124561997D01*
X117670454Y-124494097D01*
X117686928Y-124437997D01*
X117727179Y-124368281D01*
X117785674Y-124188253D01*
X117805460Y-123999997D01*
X117785674Y-123811741D01*
X117727179Y-123631713D01*
X117686927Y-123561994D01*
X117670454Y-123494094D01*
X117686928Y-123437994D01*
X117727179Y-123368278D01*
X117785674Y-123188250D01*
X117805460Y-122999994D01*
X117785674Y-122811738D01*
X117730593Y-122642217D01*
X117727181Y-122631716D01*
X117727180Y-122631715D01*
X117727179Y-122631710D01*
X117632533Y-122467778D01*
X117505871Y-122327106D01*
X117505870Y-122327105D01*
X117352734Y-122215845D01*
X117352729Y-122215842D01*
X117179807Y-122138851D01*
X117179802Y-122138849D01*
X117034001Y-122107859D01*
X116994646Y-122099494D01*
X116805354Y-122099494D01*
X116772897Y-122106392D01*
X116620197Y-122138849D01*
X116620192Y-122138851D01*
X116447270Y-122215842D01*
X116447265Y-122215845D01*
X116294129Y-122327105D01*
X116167466Y-122467779D01*
X116072821Y-122631709D01*
X116072818Y-122631716D01*
X116014327Y-122811734D01*
X116014326Y-122811738D01*
X115994540Y-122999994D01*
X116014326Y-123188250D01*
X116014327Y-123188253D01*
X116072821Y-123368279D01*
X116113071Y-123437994D01*
X116129544Y-123505894D01*
X116113073Y-123561992D01*
X116072819Y-123631716D01*
X116014327Y-123811737D01*
X116014326Y-123811741D01*
X115994540Y-123999997D01*
X116014326Y-124188253D01*
X116014327Y-124188256D01*
X116072821Y-124368282D01*
X116113071Y-124437997D01*
X116129544Y-124505897D01*
X116113073Y-124561995D01*
X116072819Y-124631719D01*
X116014327Y-124811740D01*
X116014326Y-124811744D01*
X115994540Y-125000000D01*
X109750000Y-125000000D01*
X109750000Y-122000000D01*
X110644341Y-122000000D01*
X110664936Y-122235403D01*
X110664938Y-122235413D01*
X110726094Y-122463655D01*
X110726096Y-122463659D01*
X110726097Y-122463663D01*
X110806004Y-122635023D01*
X110825965Y-122677830D01*
X110825967Y-122677834D01*
X110919726Y-122811734D01*
X110961505Y-122871401D01*
X111128599Y-123038495D01*
X111225384Y-123106265D01*
X111322165Y-123174032D01*
X111322167Y-123174033D01*
X111322170Y-123174035D01*
X111536337Y-123273903D01*
X111764592Y-123335063D01*
X111952918Y-123351539D01*
X111999999Y-123355659D01*
X112000000Y-123355659D01*
X112000001Y-123355659D01*
X112039234Y-123352226D01*
X112235408Y-123335063D01*
X112463663Y-123273903D01*
X112677830Y-123174035D01*
X112871401Y-123038495D01*
X113038495Y-122871401D01*
X113168425Y-122685842D01*
X113223002Y-122642217D01*
X113292500Y-122635023D01*
X113354855Y-122666546D01*
X113371575Y-122685842D01*
X113501500Y-122871395D01*
X113501505Y-122871401D01*
X113668599Y-123038495D01*
X113765384Y-123106265D01*
X113862165Y-123174032D01*
X113862167Y-123174033D01*
X113862170Y-123174035D01*
X114076337Y-123273903D01*
X114304592Y-123335063D01*
X114492918Y-123351539D01*
X114539999Y-123355659D01*
X114540000Y-123355659D01*
X114540001Y-123355659D01*
X114579234Y-123352226D01*
X114775408Y-123335063D01*
X115003663Y-123273903D01*
X115217830Y-123174035D01*
X115411401Y-123038495D01*
X115578495Y-122871401D01*
X115714035Y-122677830D01*
X115813903Y-122463663D01*
X115875063Y-122235408D01*
X115895659Y-122000000D01*
X115893472Y-121975000D01*
X157594540Y-121975000D01*
X157614326Y-122163256D01*
X157614327Y-122163259D01*
X157672818Y-122343277D01*
X157672821Y-122343284D01*
X157767467Y-122507216D01*
X157879561Y-122631709D01*
X157894129Y-122647888D01*
X158047265Y-122759148D01*
X158047270Y-122759151D01*
X158220192Y-122836142D01*
X158220197Y-122836144D01*
X158405354Y-122875500D01*
X158405355Y-122875500D01*
X158594644Y-122875500D01*
X158594646Y-122875500D01*
X158779803Y-122836144D01*
X158952730Y-122759151D01*
X159105871Y-122647888D01*
X159232533Y-122507216D01*
X159327179Y-122343284D01*
X159385674Y-122163256D01*
X159405460Y-121975000D01*
X159385674Y-121786744D01*
X159327179Y-121606716D01*
X159232533Y-121442784D01*
X159133655Y-121332969D01*
X159103427Y-121269981D01*
X159112052Y-121200646D01*
X159133653Y-121167032D01*
X159232533Y-121057216D01*
X159327179Y-120893284D01*
X159385674Y-120713256D01*
X159405460Y-120525000D01*
X159385674Y-120336744D01*
X159327179Y-120156716D01*
X159232533Y-119992784D01*
X159105871Y-119852112D01*
X159097208Y-119845818D01*
X158952734Y-119740851D01*
X158952729Y-119740848D01*
X158779807Y-119663857D01*
X158779802Y-119663855D01*
X158634001Y-119632865D01*
X158594646Y-119624500D01*
X158405354Y-119624500D01*
X158372897Y-119631398D01*
X158220197Y-119663855D01*
X158220192Y-119663857D01*
X158047270Y-119740848D01*
X158047265Y-119740851D01*
X157894129Y-119852111D01*
X157767466Y-119992785D01*
X157672821Y-120156715D01*
X157672818Y-120156722D01*
X157615798Y-120332214D01*
X157614326Y-120336744D01*
X157594540Y-120525000D01*
X157614326Y-120713256D01*
X157614327Y-120713259D01*
X157672818Y-120893277D01*
X157672821Y-120893284D01*
X157767467Y-121057216D01*
X157823211Y-121119126D01*
X157866342Y-121167028D01*
X157896572Y-121230020D01*
X157887947Y-121299355D01*
X157866342Y-121332972D01*
X157767466Y-121442785D01*
X157672821Y-121606715D01*
X157672818Y-121606722D01*
X157621522Y-121764596D01*
X157614326Y-121786744D01*
X157594540Y-121975000D01*
X115893472Y-121975000D01*
X115875063Y-121764592D01*
X115813903Y-121536337D01*
X115714035Y-121322171D01*
X115708425Y-121314158D01*
X115578494Y-121128597D01*
X115411402Y-120961506D01*
X115411396Y-120961501D01*
X115225842Y-120831575D01*
X115182217Y-120776998D01*
X115175023Y-120707500D01*
X115206546Y-120645145D01*
X115225842Y-120628425D01*
X115264962Y-120601033D01*
X115411401Y-120498495D01*
X115578495Y-120331401D01*
X115714035Y-120137830D01*
X115813903Y-119923663D01*
X115875063Y-119695408D01*
X115895659Y-119460000D01*
X115893910Y-119440004D01*
X119095093Y-119440004D01*
X119114692Y-119701545D01*
X119114693Y-119701550D01*
X119173058Y-119957270D01*
X119268883Y-120201426D01*
X119268882Y-120201426D01*
X119400027Y-120428573D01*
X119447874Y-120488571D01*
X119951378Y-119985067D01*
X120034411Y-120109336D01*
X120180664Y-120255589D01*
X120304930Y-120338620D01*
X119800830Y-120842720D01*
X119972546Y-120959793D01*
X119972550Y-120959795D01*
X120208854Y-121073594D01*
X120208858Y-121073595D01*
X120459494Y-121150907D01*
X120459500Y-121150909D01*
X120718848Y-121189999D01*
X120718857Y-121190000D01*
X120981143Y-121190000D01*
X120981151Y-121189999D01*
X121240499Y-121150909D01*
X121240505Y-121150907D01*
X121491143Y-121073595D01*
X121727445Y-120959798D01*
X121727447Y-120959797D01*
X121899168Y-120842720D01*
X121395068Y-120338621D01*
X121519336Y-120255589D01*
X121665589Y-120109336D01*
X121748621Y-119985068D01*
X122252125Y-120488572D01*
X122299971Y-120428573D01*
X122431116Y-120201426D01*
X122526941Y-119957270D01*
X122585306Y-119701550D01*
X122585307Y-119701545D01*
X122604907Y-119440004D01*
X122604907Y-119439995D01*
X122600452Y-119380550D01*
X122973002Y-119380550D01*
X123105845Y-119451556D01*
X123299067Y-119510170D01*
X123442506Y-119524297D01*
X123507293Y-119550457D01*
X123547652Y-119607492D01*
X123550769Y-119677292D01*
X123526206Y-119726364D01*
X123443202Y-119827505D01*
X123443198Y-119827511D01*
X123347978Y-120005654D01*
X123289337Y-120198968D01*
X123269538Y-120400000D01*
X123289337Y-120601031D01*
X123347978Y-120794345D01*
X123443198Y-120972488D01*
X123443203Y-120972495D01*
X123571352Y-121128647D01*
X123658263Y-121199972D01*
X123727506Y-121256798D01*
X123727509Y-121256799D01*
X123727511Y-121256801D01*
X123905654Y-121352021D01*
X123905656Y-121352021D01*
X123905659Y-121352023D01*
X124098967Y-121410662D01*
X124300000Y-121430462D01*
X124501033Y-121410662D01*
X124694341Y-121352023D01*
X124872494Y-121256798D01*
X125021335Y-121134648D01*
X125085645Y-121107335D01*
X125154513Y-121119126D01*
X125178665Y-121134648D01*
X125234932Y-121180825D01*
X125327506Y-121256798D01*
X125327509Y-121256799D01*
X125327511Y-121256801D01*
X125505654Y-121352021D01*
X125505656Y-121352021D01*
X125505659Y-121352023D01*
X125698967Y-121410662D01*
X125900000Y-121430462D01*
X126101033Y-121410662D01*
X126294341Y-121352023D01*
X126472494Y-121256798D01*
X126541721Y-121199985D01*
X138100000Y-121199985D01*
X138110493Y-121302689D01*
X138110494Y-121302696D01*
X138165641Y-121469118D01*
X138165643Y-121469123D01*
X138257684Y-121618344D01*
X138381655Y-121742315D01*
X138530876Y-121834356D01*
X138530881Y-121834358D01*
X138697303Y-121889505D01*
X138697310Y-121889506D01*
X138800014Y-121899999D01*
X138800027Y-121900000D01*
X140000000Y-121900000D01*
X140000000Y-120704120D01*
X140045818Y-120723099D01*
X140181056Y-120750000D01*
X140318944Y-120750000D01*
X140454182Y-120723099D01*
X140500000Y-120704120D01*
X140500000Y-121900000D01*
X141699973Y-121900000D01*
X141699985Y-121899999D01*
X141802689Y-121889506D01*
X141802696Y-121889505D01*
X141969118Y-121834358D01*
X141969123Y-121834356D01*
X142118344Y-121742315D01*
X142242315Y-121618344D01*
X142334356Y-121469123D01*
X142334358Y-121469118D01*
X142389505Y-121302696D01*
X142389506Y-121302689D01*
X142399999Y-121199985D01*
X142400000Y-121199972D01*
X142400000Y-120300000D01*
X143616950Y-120300000D01*
X143631653Y-120411687D01*
X143694421Y-120645939D01*
X143787220Y-120869978D01*
X143787227Y-120869993D01*
X143908480Y-121080009D01*
X144056110Y-121272405D01*
X144056116Y-121272412D01*
X144227587Y-121443883D01*
X144227594Y-121443889D01*
X144419990Y-121591519D01*
X144630006Y-121712772D01*
X144630021Y-121712779D01*
X144854060Y-121805578D01*
X145088312Y-121868346D01*
X145328735Y-121899998D01*
X145328752Y-121900000D01*
X145500000Y-121900000D01*
X145500000Y-120704120D01*
X145545818Y-120723099D01*
X145681056Y-120750000D01*
X145818944Y-120750000D01*
X145954182Y-120723099D01*
X146000000Y-120704120D01*
X146000000Y-121900000D01*
X146171248Y-121900000D01*
X146171264Y-121899998D01*
X146411687Y-121868346D01*
X146645939Y-121805578D01*
X146869978Y-121712779D01*
X146869993Y-121712772D01*
X147080009Y-121591519D01*
X147272405Y-121443889D01*
X147272412Y-121443883D01*
X147443883Y-121272412D01*
X147443889Y-121272405D01*
X147591519Y-121080009D01*
X147712772Y-120869993D01*
X147712779Y-120869978D01*
X147805578Y-120645939D01*
X147868346Y-120411687D01*
X147883050Y-120300000D01*
X146404121Y-120300000D01*
X146423099Y-120254182D01*
X146450000Y-120118944D01*
X146450000Y-119981056D01*
X146423099Y-119845818D01*
X146404121Y-119800000D01*
X147883049Y-119800000D01*
X147868346Y-119688312D01*
X147805578Y-119454060D01*
X147712779Y-119230021D01*
X147712772Y-119230006D01*
X147591519Y-119019990D01*
X147443889Y-118827594D01*
X147443883Y-118827587D01*
X147272412Y-118656116D01*
X147272405Y-118656110D01*
X147080009Y-118508480D01*
X146869993Y-118387227D01*
X146869978Y-118387220D01*
X146645939Y-118294421D01*
X146411687Y-118231653D01*
X146171264Y-118200001D01*
X146171248Y-118200000D01*
X146000000Y-118200000D01*
X146000000Y-119395879D01*
X145954182Y-119376901D01*
X145818944Y-119350000D01*
X145681056Y-119350000D01*
X145545818Y-119376901D01*
X145500000Y-119395879D01*
X145500000Y-118200000D01*
X145328752Y-118200000D01*
X145328735Y-118200001D01*
X145088312Y-118231653D01*
X144854060Y-118294421D01*
X144630021Y-118387220D01*
X144630006Y-118387227D01*
X144419990Y-118508480D01*
X144227594Y-118656110D01*
X144227587Y-118656116D01*
X144056116Y-118827587D01*
X144056110Y-118827594D01*
X143908480Y-119019990D01*
X143787227Y-119230006D01*
X143787220Y-119230021D01*
X143694421Y-119454060D01*
X143631653Y-119688312D01*
X143616950Y-119800000D01*
X145095879Y-119800000D01*
X145076901Y-119845818D01*
X145050000Y-119981056D01*
X145050000Y-120118944D01*
X145076901Y-120254182D01*
X145095879Y-120300000D01*
X143616950Y-120300000D01*
X142400000Y-120300000D01*
X140904121Y-120300000D01*
X140923099Y-120254182D01*
X140950000Y-120118944D01*
X140950000Y-119981056D01*
X140923099Y-119845818D01*
X140904121Y-119800000D01*
X142400000Y-119800000D01*
X142400000Y-118900027D01*
X142399999Y-118900014D01*
X142389506Y-118797310D01*
X142389505Y-118797303D01*
X142334358Y-118630881D01*
X142334356Y-118630876D01*
X142242315Y-118481655D01*
X142118344Y-118357684D01*
X141969123Y-118265643D01*
X141969118Y-118265641D01*
X141802696Y-118210494D01*
X141802689Y-118210493D01*
X141699985Y-118200000D01*
X140500000Y-118200000D01*
X140500000Y-119395879D01*
X140454182Y-119376901D01*
X140318944Y-119350000D01*
X140181056Y-119350000D01*
X140045818Y-119376901D01*
X140000000Y-119395879D01*
X140000000Y-118200000D01*
X138800014Y-118200000D01*
X138697310Y-118210493D01*
X138697303Y-118210494D01*
X138530881Y-118265641D01*
X138530876Y-118265643D01*
X138381655Y-118357684D01*
X138257684Y-118481655D01*
X138165643Y-118630876D01*
X138165641Y-118630881D01*
X138110494Y-118797303D01*
X138110493Y-118797310D01*
X138100000Y-118900014D01*
X138100000Y-119800000D01*
X139595879Y-119800000D01*
X139576901Y-119845818D01*
X139550000Y-119981056D01*
X139550000Y-120118944D01*
X139576901Y-120254182D01*
X139595879Y-120300000D01*
X138100000Y-120300000D01*
X138100000Y-121199985D01*
X126541721Y-121199985D01*
X126628647Y-121128647D01*
X126756798Y-120972494D01*
X126852023Y-120794341D01*
X126910662Y-120601033D01*
X126930462Y-120400000D01*
X126910662Y-120198967D01*
X126852023Y-120005659D01*
X126852021Y-120005656D01*
X126852021Y-120005654D01*
X126756801Y-119827511D01*
X126756799Y-119827509D01*
X126756798Y-119827506D01*
X126690133Y-119746274D01*
X126675271Y-119728164D01*
X126647958Y-119663853D01*
X126659749Y-119594986D01*
X126706902Y-119543426D01*
X126771124Y-119525499D01*
X127272871Y-119525499D01*
X127272872Y-119525499D01*
X127332483Y-119519091D01*
X127439066Y-119479337D01*
X127508757Y-119474354D01*
X127570080Y-119507839D01*
X127603565Y-119569162D01*
X127606052Y-119586253D01*
X127614692Y-119701546D01*
X127614693Y-119701550D01*
X127673058Y-119957270D01*
X127768883Y-120201426D01*
X127768882Y-120201426D01*
X127900027Y-120428573D01*
X127947874Y-120488571D01*
X128451378Y-119985067D01*
X128534411Y-120109336D01*
X128680664Y-120255589D01*
X128804930Y-120338620D01*
X128300830Y-120842720D01*
X128472546Y-120959793D01*
X128472550Y-120959795D01*
X128708854Y-121073594D01*
X128708858Y-121073595D01*
X128959494Y-121150907D01*
X128959500Y-121150909D01*
X129218848Y-121189999D01*
X129218857Y-121190000D01*
X129481143Y-121190000D01*
X129481151Y-121189999D01*
X129740499Y-121150909D01*
X129740505Y-121150907D01*
X129991143Y-121073595D01*
X130227445Y-120959798D01*
X130227447Y-120959797D01*
X130399168Y-120842720D01*
X129895068Y-120338621D01*
X130019336Y-120255589D01*
X130165589Y-120109336D01*
X130248621Y-119985068D01*
X130752125Y-120488572D01*
X130799971Y-120428573D01*
X130931116Y-120201426D01*
X131026941Y-119957270D01*
X131085306Y-119701550D01*
X131085307Y-119701545D01*
X131104907Y-119440004D01*
X131104907Y-119439995D01*
X131085307Y-119178454D01*
X131085306Y-119178449D01*
X131026941Y-118922729D01*
X130931116Y-118678573D01*
X130931117Y-118678573D01*
X130799972Y-118451426D01*
X130752124Y-118391427D01*
X130248620Y-118894930D01*
X130165589Y-118770664D01*
X130019336Y-118624411D01*
X129895068Y-118541378D01*
X130399168Y-118037278D01*
X130227454Y-117920206D01*
X130227445Y-117920201D01*
X129991142Y-117806404D01*
X129991144Y-117806404D01*
X129740505Y-117729092D01*
X129740499Y-117729090D01*
X129481151Y-117690000D01*
X129218848Y-117690000D01*
X128959500Y-117729090D01*
X128959494Y-117729092D01*
X128708858Y-117806404D01*
X128708854Y-117806405D01*
X128472547Y-117920205D01*
X128472539Y-117920210D01*
X128300830Y-118037277D01*
X128804931Y-118541378D01*
X128680664Y-118624411D01*
X128534411Y-118770664D01*
X128451378Y-118894930D01*
X127947875Y-118391427D01*
X127947874Y-118391427D01*
X127946447Y-118393217D01*
X127889259Y-118433358D01*
X127819447Y-118436208D01*
X127759177Y-118400863D01*
X127727583Y-118338545D01*
X127725499Y-118315905D01*
X127725499Y-117927129D01*
X127725498Y-117927123D01*
X127724754Y-117920205D01*
X127719091Y-117867517D01*
X127717415Y-117863024D01*
X127668797Y-117732671D01*
X127668793Y-117732664D01*
X127582547Y-117617455D01*
X127582544Y-117617452D01*
X127467335Y-117531206D01*
X127467328Y-117531202D01*
X127332482Y-117480908D01*
X127332483Y-117480908D01*
X127272883Y-117474501D01*
X127272881Y-117474500D01*
X127272873Y-117474500D01*
X127272864Y-117474500D01*
X126127129Y-117474500D01*
X126127123Y-117474501D01*
X126067516Y-117480908D01*
X125932671Y-117531202D01*
X125932664Y-117531206D01*
X125817452Y-117617454D01*
X125815205Y-117619702D01*
X125812417Y-117621223D01*
X125810355Y-117622768D01*
X125810132Y-117622471D01*
X125753880Y-117653184D01*
X125684189Y-117648195D01*
X125669076Y-117641374D01*
X125494345Y-117547978D01*
X125301031Y-117489337D01*
X125100000Y-117469538D01*
X124898968Y-117489337D01*
X124705654Y-117547978D01*
X124527511Y-117643198D01*
X124527504Y-117643203D01*
X124371352Y-117771352D01*
X124243203Y-117927504D01*
X124243198Y-117927511D01*
X124147977Y-118105657D01*
X124113485Y-118219360D01*
X124082506Y-118271045D01*
X123825000Y-118528551D01*
X123825000Y-118457213D01*
X123802851Y-118374555D01*
X123760064Y-118300446D01*
X123699554Y-118239936D01*
X123625445Y-118197149D01*
X123542787Y-118175000D01*
X123457213Y-118175000D01*
X123374555Y-118197149D01*
X123300446Y-118239936D01*
X123239936Y-118300446D01*
X123197149Y-118374555D01*
X123175000Y-118457213D01*
X123175000Y-118542787D01*
X123197149Y-118625445D01*
X123239936Y-118699554D01*
X123300446Y-118760064D01*
X123374555Y-118802851D01*
X123457213Y-118825000D01*
X123528553Y-118825000D01*
X123500000Y-118853553D01*
X122973002Y-119380550D01*
X122600452Y-119380550D01*
X122585307Y-119178455D01*
X122578756Y-119149753D01*
X122583029Y-119080014D01*
X122611966Y-119034478D01*
X123146446Y-118500000D01*
X122619449Y-117973003D01*
X122548441Y-118105851D01*
X122489829Y-118299067D01*
X122485537Y-118342649D01*
X122459376Y-118407436D01*
X122402341Y-118447795D01*
X122332541Y-118450911D01*
X122272136Y-118415796D01*
X122265186Y-118407806D01*
X122252124Y-118391427D01*
X121748620Y-118894930D01*
X121665589Y-118770664D01*
X121519336Y-118624411D01*
X121395068Y-118541378D01*
X121899168Y-118037278D01*
X121727454Y-117920206D01*
X121727445Y-117920201D01*
X121491142Y-117806404D01*
X121491144Y-117806404D01*
X121240505Y-117729092D01*
X121240499Y-117729090D01*
X120981151Y-117690000D01*
X120718848Y-117690000D01*
X120459500Y-117729090D01*
X120459494Y-117729092D01*
X120208858Y-117806404D01*
X120208854Y-117806405D01*
X119972547Y-117920205D01*
X119972539Y-117920210D01*
X119800830Y-118037277D01*
X120304931Y-118541378D01*
X120180664Y-118624411D01*
X120034411Y-118770664D01*
X119951378Y-118894930D01*
X119447875Y-118391427D01*
X119447874Y-118391427D01*
X119400028Y-118451425D01*
X119268883Y-118678573D01*
X119173058Y-118922729D01*
X119114693Y-119178449D01*
X119114692Y-119178454D01*
X119095093Y-119439995D01*
X119095093Y-119440004D01*
X115893910Y-119440004D01*
X115875063Y-119224592D01*
X115813903Y-118996337D01*
X115714035Y-118782171D01*
X115708425Y-118774158D01*
X115578494Y-118588597D01*
X115411402Y-118421506D01*
X115411396Y-118421501D01*
X115225842Y-118291575D01*
X115182217Y-118236998D01*
X115175023Y-118167500D01*
X115206546Y-118105145D01*
X115225842Y-118088425D01*
X115390681Y-117973003D01*
X115411401Y-117958495D01*
X115578495Y-117791401D01*
X115714035Y-117597830D01*
X115813903Y-117383663D01*
X115875063Y-117155408D01*
X115895659Y-116920000D01*
X115885160Y-116800000D01*
X116394785Y-116800000D01*
X116413602Y-117003082D01*
X116469417Y-117199247D01*
X116469422Y-117199260D01*
X116560327Y-117381821D01*
X116683237Y-117544581D01*
X116833958Y-117681980D01*
X116833960Y-117681982D01*
X116910043Y-117729090D01*
X117007363Y-117789348D01*
X117197544Y-117863024D01*
X117398024Y-117900500D01*
X117398026Y-117900500D01*
X117601974Y-117900500D01*
X117601976Y-117900500D01*
X117802456Y-117863024D01*
X117992637Y-117789348D01*
X118166041Y-117681981D01*
X118234635Y-117619449D01*
X122973003Y-117619449D01*
X123500000Y-118146446D01*
X123500001Y-118146446D01*
X124026995Y-117619449D01*
X124026995Y-117619448D01*
X123894155Y-117548443D01*
X123700932Y-117489829D01*
X123500000Y-117470040D01*
X123299067Y-117489829D01*
X123105851Y-117548441D01*
X122973003Y-117619449D01*
X118234635Y-117619449D01*
X118297416Y-117562217D01*
X118316762Y-117544581D01*
X118316764Y-117544579D01*
X118439673Y-117381821D01*
X118530582Y-117199250D01*
X118586397Y-117003083D01*
X118605215Y-116800000D01*
X118601560Y-116760560D01*
X118586397Y-116596917D01*
X118573048Y-116550000D01*
X118530582Y-116400750D01*
X118527084Y-116393726D01*
X118486272Y-116311764D01*
X118439673Y-116218179D01*
X118380704Y-116140091D01*
X118316762Y-116055418D01*
X118224475Y-115971288D01*
X138099500Y-115971288D01*
X138131148Y-116211687D01*
X138131162Y-116211789D01*
X138162554Y-116328944D01*
X138193947Y-116446104D01*
X138256416Y-116596917D01*
X138286776Y-116670212D01*
X138408064Y-116880289D01*
X138408066Y-116880292D01*
X138408067Y-116880293D01*
X138555733Y-117072736D01*
X138555739Y-117072743D01*
X138727256Y-117244260D01*
X138727262Y-117244265D01*
X138919711Y-117391936D01*
X139129788Y-117513224D01*
X139353900Y-117606054D01*
X139588211Y-117668838D01*
X139768586Y-117692584D01*
X139828711Y-117700500D01*
X139828712Y-117700500D01*
X140671289Y-117700500D01*
X140719388Y-117694167D01*
X140911789Y-117668838D01*
X141146100Y-117606054D01*
X141370212Y-117513224D01*
X141580289Y-117391936D01*
X141772738Y-117244265D01*
X141944265Y-117072738D01*
X142091936Y-116880289D01*
X142213224Y-116670212D01*
X142306054Y-116446100D01*
X142368838Y-116211789D01*
X142383555Y-116100000D01*
X143616950Y-116100000D01*
X143631653Y-116211687D01*
X143694421Y-116445939D01*
X143787220Y-116669978D01*
X143787227Y-116669993D01*
X143908480Y-116880009D01*
X144056110Y-117072405D01*
X144056116Y-117072412D01*
X144227587Y-117243883D01*
X144227594Y-117243889D01*
X144419990Y-117391519D01*
X144630006Y-117512772D01*
X144630021Y-117512779D01*
X144854060Y-117605578D01*
X145088312Y-117668346D01*
X145328735Y-117699998D01*
X145328752Y-117700000D01*
X145500000Y-117700000D01*
X145500000Y-116504120D01*
X145545818Y-116523099D01*
X145681056Y-116550000D01*
X145818944Y-116550000D01*
X145954182Y-116523099D01*
X146000000Y-116504120D01*
X146000000Y-117700000D01*
X146171248Y-117700000D01*
X146171264Y-117699998D01*
X146411687Y-117668346D01*
X146645939Y-117605578D01*
X146869978Y-117512779D01*
X146869993Y-117512772D01*
X147080009Y-117391519D01*
X147272405Y-117243889D01*
X147272412Y-117243883D01*
X147443883Y-117072412D01*
X147443889Y-117072405D01*
X147591519Y-116880009D01*
X147712772Y-116669993D01*
X147712779Y-116669978D01*
X147805578Y-116445939D01*
X147868346Y-116211687D01*
X147883050Y-116100000D01*
X146404121Y-116100000D01*
X146423099Y-116054182D01*
X146439007Y-115974209D01*
X155570022Y-115974209D01*
X155589808Y-116162465D01*
X155589809Y-116162468D01*
X155648300Y-116342486D01*
X155648303Y-116342493D01*
X155742949Y-116506425D01*
X155824429Y-116596917D01*
X155869611Y-116647097D01*
X156022747Y-116758357D01*
X156022752Y-116758360D01*
X156195674Y-116835351D01*
X156195679Y-116835353D01*
X156380836Y-116874709D01*
X156380837Y-116874709D01*
X156570126Y-116874709D01*
X156570128Y-116874709D01*
X156755285Y-116835353D01*
X156923271Y-116760560D01*
X156934149Y-116755717D01*
X156935058Y-116757760D01*
X156992935Y-116743710D01*
X157040777Y-116757750D01*
X157041331Y-116756508D01*
X157220189Y-116836142D01*
X157220194Y-116836144D01*
X157405351Y-116875500D01*
X157405352Y-116875500D01*
X157594641Y-116875500D01*
X157594643Y-116875500D01*
X157779800Y-116836144D01*
X157949562Y-116760559D01*
X158018812Y-116751275D01*
X158050434Y-116760560D01*
X158220192Y-116836142D01*
X158220197Y-116836144D01*
X158405354Y-116875500D01*
X158405355Y-116875500D01*
X158594644Y-116875500D01*
X158594646Y-116875500D01*
X158779803Y-116836144D01*
X158952730Y-116759151D01*
X159105871Y-116647888D01*
X159232533Y-116507216D01*
X159327179Y-116343284D01*
X159385674Y-116163256D01*
X159405460Y-115975000D01*
X159385674Y-115786744D01*
X159327179Y-115606716D01*
X159232533Y-115442784D01*
X159122401Y-115320470D01*
X159092172Y-115257481D01*
X159100797Y-115188146D01*
X159122402Y-115154528D01*
X159232533Y-115032216D01*
X159327179Y-114868284D01*
X159385674Y-114688256D01*
X159405460Y-114500000D01*
X159385674Y-114311744D01*
X159327179Y-114131716D01*
X159232533Y-113967784D01*
X159105871Y-113827112D01*
X159105870Y-113827111D01*
X158952734Y-113715851D01*
X158952729Y-113715848D01*
X158779807Y-113638857D01*
X158779802Y-113638855D01*
X158634001Y-113607865D01*
X158594646Y-113599500D01*
X158405354Y-113599500D01*
X158372897Y-113606398D01*
X158220197Y-113638855D01*
X158220192Y-113638857D01*
X158047267Y-113715850D01*
X158041642Y-113719098D01*
X158040906Y-113717824D01*
X157982256Y-113738743D01*
X157924756Y-113728223D01*
X157780190Y-113663857D01*
X157780185Y-113663855D01*
X157634384Y-113632865D01*
X157595029Y-113624500D01*
X157405737Y-113624500D01*
X157373280Y-113631398D01*
X157220580Y-113663855D01*
X157220575Y-113663857D01*
X157050817Y-113739440D01*
X156981567Y-113748725D01*
X156949945Y-113739440D01*
X156946223Y-113737783D01*
X156866239Y-113702171D01*
X156780186Y-113663857D01*
X156780182Y-113663855D01*
X156634381Y-113632865D01*
X156595026Y-113624500D01*
X156405734Y-113624500D01*
X156373277Y-113631398D01*
X156220577Y-113663855D01*
X156220572Y-113663857D01*
X156047650Y-113740848D01*
X156047645Y-113740851D01*
X155894509Y-113852111D01*
X155767846Y-113992785D01*
X155673201Y-114156715D01*
X155673198Y-114156722D01*
X155622830Y-114311740D01*
X155614706Y-114336744D01*
X155594920Y-114525000D01*
X155614706Y-114713256D01*
X155614707Y-114713259D01*
X155673198Y-114893277D01*
X155673201Y-114893284D01*
X155767847Y-115057216D01*
X155851390Y-115150000D01*
X155853917Y-115152806D01*
X155884147Y-115215797D01*
X155875522Y-115285132D01*
X155853917Y-115318750D01*
X155742948Y-115441994D01*
X155648303Y-115605924D01*
X155648300Y-115605931D01*
X155605721Y-115736977D01*
X155589808Y-115785953D01*
X155570022Y-115974209D01*
X146439007Y-115974209D01*
X146450000Y-115918944D01*
X146450000Y-115781056D01*
X146423099Y-115645818D01*
X146404121Y-115600000D01*
X147883049Y-115600000D01*
X147868346Y-115488312D01*
X147805578Y-115254060D01*
X147712779Y-115030021D01*
X147712772Y-115030006D01*
X147591519Y-114819990D01*
X147443889Y-114627594D01*
X147443883Y-114627587D01*
X147272412Y-114456116D01*
X147272405Y-114456110D01*
X147080009Y-114308480D01*
X146869993Y-114187227D01*
X146869978Y-114187220D01*
X146645939Y-114094421D01*
X146411687Y-114031653D01*
X146171264Y-114000001D01*
X146171248Y-114000000D01*
X146000000Y-114000000D01*
X146000000Y-115195879D01*
X145954182Y-115176901D01*
X145818944Y-115150000D01*
X145681056Y-115150000D01*
X145545818Y-115176901D01*
X145500000Y-115195879D01*
X145500000Y-114000000D01*
X145328752Y-114000000D01*
X145328735Y-114000001D01*
X145088312Y-114031653D01*
X144854060Y-114094421D01*
X144630021Y-114187220D01*
X144630006Y-114187227D01*
X144419990Y-114308480D01*
X144227594Y-114456110D01*
X144227587Y-114456116D01*
X144056116Y-114627587D01*
X144056110Y-114627594D01*
X143908480Y-114819990D01*
X143787227Y-115030006D01*
X143787220Y-115030021D01*
X143694421Y-115254060D01*
X143631653Y-115488312D01*
X143616950Y-115600000D01*
X145095879Y-115600000D01*
X145076901Y-115645818D01*
X145050000Y-115781056D01*
X145050000Y-115918944D01*
X145076901Y-116054182D01*
X145095879Y-116100000D01*
X143616950Y-116100000D01*
X142383555Y-116100000D01*
X142400500Y-115971288D01*
X142400500Y-115728712D01*
X142368838Y-115488211D01*
X142306054Y-115253900D01*
X142213224Y-115029788D01*
X142091936Y-114819711D01*
X141944520Y-114627594D01*
X141944266Y-114627263D01*
X141944260Y-114627256D01*
X141772743Y-114455739D01*
X141772736Y-114455733D01*
X141580293Y-114308067D01*
X141580292Y-114308066D01*
X141580289Y-114308064D01*
X141370212Y-114186776D01*
X141308331Y-114161144D01*
X141146104Y-114093947D01*
X140911785Y-114031161D01*
X140671289Y-113999500D01*
X140671288Y-113999500D01*
X139828712Y-113999500D01*
X139828711Y-113999500D01*
X139588214Y-114031161D01*
X139353895Y-114093947D01*
X139129794Y-114186773D01*
X139129785Y-114186777D01*
X138919706Y-114308067D01*
X138727263Y-114455733D01*
X138727256Y-114455739D01*
X138555739Y-114627256D01*
X138555733Y-114627263D01*
X138408067Y-114819706D01*
X138286777Y-115029785D01*
X138286773Y-115029794D01*
X138193947Y-115253895D01*
X138131161Y-115488214D01*
X138099500Y-115728711D01*
X138099500Y-115971288D01*
X118224475Y-115971288D01*
X118166041Y-115918019D01*
X118166039Y-115918017D01*
X117992642Y-115810655D01*
X117992635Y-115810651D01*
X117897546Y-115773814D01*
X117802456Y-115736976D01*
X117601976Y-115699500D01*
X117398024Y-115699500D01*
X117197544Y-115736976D01*
X117197541Y-115736976D01*
X117197541Y-115736977D01*
X117007364Y-115810651D01*
X117007357Y-115810655D01*
X116833960Y-115918017D01*
X116833958Y-115918019D01*
X116683237Y-116055418D01*
X116560327Y-116218178D01*
X116469422Y-116400739D01*
X116469417Y-116400752D01*
X116413602Y-116596917D01*
X116394785Y-116799999D01*
X116394785Y-116800000D01*
X115885160Y-116800000D01*
X115875063Y-116684592D01*
X115813903Y-116456337D01*
X115714035Y-116242171D01*
X115708425Y-116234158D01*
X115578494Y-116048597D01*
X115411402Y-115881506D01*
X115411396Y-115881501D01*
X115225842Y-115751575D01*
X115182217Y-115696998D01*
X115175023Y-115627500D01*
X115206546Y-115565145D01*
X115225842Y-115548425D01*
X115376711Y-115442785D01*
X115411401Y-115418495D01*
X115578495Y-115251401D01*
X115714035Y-115057830D01*
X115813903Y-114843663D01*
X115875063Y-114615408D01*
X115895659Y-114380000D01*
X115875063Y-114144592D01*
X115813903Y-113916337D01*
X115714035Y-113702171D01*
X115708425Y-113694158D01*
X115578494Y-113508597D01*
X115411402Y-113341506D01*
X115411396Y-113341501D01*
X115352126Y-113300000D01*
X118094540Y-113300000D01*
X118114326Y-113488256D01*
X118114327Y-113488259D01*
X118172818Y-113668277D01*
X118172821Y-113668284D01*
X118267467Y-113832216D01*
X118389533Y-113967784D01*
X118394129Y-113972888D01*
X118547265Y-114084148D01*
X118547270Y-114084151D01*
X118720192Y-114161142D01*
X118720197Y-114161144D01*
X118905354Y-114200500D01*
X118905355Y-114200500D01*
X119094644Y-114200500D01*
X119094646Y-114200500D01*
X119279803Y-114161144D01*
X119452730Y-114084151D01*
X119605871Y-113972888D01*
X119732533Y-113832216D01*
X119827179Y-113668284D01*
X119885674Y-113488256D01*
X119905460Y-113300000D01*
X119885674Y-113111744D01*
X119827179Y-112931716D01*
X119732533Y-112767784D01*
X119605871Y-112627112D01*
X119605870Y-112627111D01*
X119452734Y-112515851D01*
X119452729Y-112515848D01*
X119279807Y-112438857D01*
X119279802Y-112438855D01*
X119134001Y-112407865D01*
X119094646Y-112399500D01*
X118905354Y-112399500D01*
X118872897Y-112406398D01*
X118720197Y-112438855D01*
X118720192Y-112438857D01*
X118547270Y-112515848D01*
X118547265Y-112515851D01*
X118394129Y-112627111D01*
X118267466Y-112767785D01*
X118172821Y-112931715D01*
X118172818Y-112931722D01*
X118114327Y-113111740D01*
X118114326Y-113111744D01*
X118094540Y-113300000D01*
X115352126Y-113300000D01*
X115225842Y-113211575D01*
X115182217Y-113156998D01*
X115175023Y-113087500D01*
X115206546Y-113025145D01*
X115225842Y-113008425D01*
X115335385Y-112931722D01*
X115411401Y-112878495D01*
X115578495Y-112711401D01*
X115714035Y-112517830D01*
X115813903Y-112303663D01*
X115875063Y-112075408D01*
X115895659Y-111840000D01*
X115889647Y-111771288D01*
X138099500Y-111771288D01*
X138131148Y-112011687D01*
X138131162Y-112011789D01*
X138162554Y-112128944D01*
X138193947Y-112246104D01*
X138286773Y-112470205D01*
X138286777Y-112470214D01*
X138293707Y-112482217D01*
X138408064Y-112680289D01*
X138408066Y-112680292D01*
X138408067Y-112680293D01*
X138555733Y-112872736D01*
X138555739Y-112872743D01*
X138727256Y-113044260D01*
X138727263Y-113044266D01*
X138840321Y-113131018D01*
X138919711Y-113191936D01*
X139129788Y-113313224D01*
X139353900Y-113406054D01*
X139588211Y-113468838D01*
X139735708Y-113488256D01*
X139828711Y-113500500D01*
X139828712Y-113500500D01*
X140671289Y-113500500D01*
X140719388Y-113494167D01*
X140911789Y-113468838D01*
X141146100Y-113406054D01*
X141370212Y-113313224D01*
X141580289Y-113191936D01*
X141772738Y-113044265D01*
X141944265Y-112872738D01*
X142091936Y-112680289D01*
X142213224Y-112470212D01*
X142306054Y-112246100D01*
X142368838Y-112011789D01*
X142383555Y-111900000D01*
X143616950Y-111900000D01*
X143631653Y-112011687D01*
X143694421Y-112245939D01*
X143787220Y-112469978D01*
X143787227Y-112469993D01*
X143908480Y-112680009D01*
X144056110Y-112872405D01*
X144056116Y-112872412D01*
X144227587Y-113043883D01*
X144227594Y-113043889D01*
X144419990Y-113191519D01*
X144630006Y-113312772D01*
X144630021Y-113312779D01*
X144854060Y-113405578D01*
X145088312Y-113468346D01*
X145328735Y-113499998D01*
X145328752Y-113500000D01*
X145500000Y-113500000D01*
X145500000Y-112304120D01*
X145545818Y-112323099D01*
X145681056Y-112350000D01*
X145818944Y-112350000D01*
X145954182Y-112323099D01*
X146000000Y-112304120D01*
X146000000Y-113500000D01*
X146171248Y-113500000D01*
X146171264Y-113499998D01*
X146411687Y-113468346D01*
X146645939Y-113405578D01*
X146869978Y-113312779D01*
X146869993Y-113312772D01*
X147080009Y-113191519D01*
X147272405Y-113043889D01*
X147272412Y-113043883D01*
X147443883Y-112872412D01*
X147443889Y-112872405D01*
X147591519Y-112680009D01*
X147712772Y-112469993D01*
X147712779Y-112469978D01*
X147805578Y-112245939D01*
X147868346Y-112011687D01*
X147883050Y-111900000D01*
X146404121Y-111900000D01*
X146423099Y-111854182D01*
X146450000Y-111718944D01*
X146450000Y-111581056D01*
X146423099Y-111445818D01*
X146404121Y-111400000D01*
X147883049Y-111400000D01*
X147868346Y-111288312D01*
X147805578Y-111054060D01*
X147712779Y-110830021D01*
X147712772Y-110830006D01*
X147591519Y-110619990D01*
X147443889Y-110427594D01*
X147443883Y-110427587D01*
X147272412Y-110256116D01*
X147272405Y-110256110D01*
X147080009Y-110108480D01*
X146869993Y-109987227D01*
X146869978Y-109987220D01*
X146645939Y-109894421D01*
X146411687Y-109831653D01*
X146171264Y-109800001D01*
X146171248Y-109800000D01*
X146000000Y-109800000D01*
X146000000Y-110995879D01*
X145954182Y-110976901D01*
X145818944Y-110950000D01*
X145681056Y-110950000D01*
X145545818Y-110976901D01*
X145500000Y-110995879D01*
X145500000Y-109800000D01*
X145328752Y-109800000D01*
X145328735Y-109800001D01*
X145088312Y-109831653D01*
X144854060Y-109894421D01*
X144630021Y-109987220D01*
X144630006Y-109987227D01*
X144419990Y-110108480D01*
X144227594Y-110256110D01*
X144227587Y-110256116D01*
X144056116Y-110427587D01*
X144056110Y-110427594D01*
X143908480Y-110619990D01*
X143787227Y-110830006D01*
X143787220Y-110830021D01*
X143694421Y-111054060D01*
X143631653Y-111288312D01*
X143616950Y-111400000D01*
X145095879Y-111400000D01*
X145076901Y-111445818D01*
X145050000Y-111581056D01*
X145050000Y-111718944D01*
X145076901Y-111854182D01*
X145095879Y-111900000D01*
X143616950Y-111900000D01*
X142383555Y-111900000D01*
X142400500Y-111771288D01*
X142400500Y-111528712D01*
X142368838Y-111288211D01*
X142306054Y-111053900D01*
X142213224Y-110829788D01*
X142091936Y-110619711D01*
X141980155Y-110474035D01*
X141944266Y-110427263D01*
X141944260Y-110427256D01*
X141772743Y-110255739D01*
X141772736Y-110255733D01*
X141580293Y-110108067D01*
X141580292Y-110108066D01*
X141580289Y-110108064D01*
X141370212Y-109986776D01*
X141363875Y-109984151D01*
X141146104Y-109893947D01*
X140913879Y-109831722D01*
X140911789Y-109831162D01*
X140911788Y-109831161D01*
X140911785Y-109831161D01*
X140671289Y-109799500D01*
X140671288Y-109799500D01*
X139828712Y-109799500D01*
X139828711Y-109799500D01*
X139588214Y-109831161D01*
X139353895Y-109893947D01*
X139129794Y-109986773D01*
X139129785Y-109986777D01*
X138919706Y-110108067D01*
X138727263Y-110255733D01*
X138727256Y-110255739D01*
X138555739Y-110427256D01*
X138555733Y-110427263D01*
X138408067Y-110619706D01*
X138286777Y-110829785D01*
X138286773Y-110829794D01*
X138193947Y-111053895D01*
X138131161Y-111288214D01*
X138099500Y-111528711D01*
X138099500Y-111771288D01*
X115889647Y-111771288D01*
X115875063Y-111604592D01*
X115813903Y-111376337D01*
X115714035Y-111162171D01*
X115708425Y-111154158D01*
X115578494Y-110968597D01*
X115411402Y-110801506D01*
X115411396Y-110801501D01*
X115225842Y-110671575D01*
X115182217Y-110616998D01*
X115175023Y-110547500D01*
X115206546Y-110485145D01*
X115225842Y-110468425D01*
X115248026Y-110452891D01*
X115411401Y-110338495D01*
X115578495Y-110171401D01*
X115714035Y-109977830D01*
X115777475Y-109841781D01*
X115823647Y-109789342D01*
X115890840Y-109770190D01*
X115940370Y-109783671D01*
X115941334Y-109781508D01*
X116120192Y-109861142D01*
X116120197Y-109861144D01*
X116305354Y-109900500D01*
X116305355Y-109900500D01*
X116494644Y-109900500D01*
X116494646Y-109900500D01*
X116679803Y-109861144D01*
X116852730Y-109784151D01*
X117005871Y-109672888D01*
X117132533Y-109532216D01*
X117227179Y-109368284D01*
X117281858Y-109200000D01*
X125594540Y-109200000D01*
X125614326Y-109388256D01*
X125614327Y-109388259D01*
X125672818Y-109568277D01*
X125672821Y-109568284D01*
X125767467Y-109732216D01*
X125857063Y-109831722D01*
X125894129Y-109872888D01*
X126047265Y-109984148D01*
X126047270Y-109984151D01*
X126220192Y-110061142D01*
X126220197Y-110061144D01*
X126405354Y-110100500D01*
X126405355Y-110100500D01*
X126594644Y-110100500D01*
X126594646Y-110100500D01*
X126779803Y-110061144D01*
X126952730Y-109984151D01*
X127105871Y-109872888D01*
X127232533Y-109732216D01*
X127327179Y-109568284D01*
X127385674Y-109388256D01*
X127405460Y-109200000D01*
X127385674Y-109011744D01*
X127327179Y-108831716D01*
X127232533Y-108667784D01*
X127105871Y-108527112D01*
X127105870Y-108527111D01*
X126952734Y-108415851D01*
X126952729Y-108415848D01*
X126779807Y-108338857D01*
X126779802Y-108338855D01*
X126634001Y-108307865D01*
X126594646Y-108299500D01*
X126405354Y-108299500D01*
X126372897Y-108306398D01*
X126220197Y-108338855D01*
X126220192Y-108338857D01*
X126047270Y-108415848D01*
X126047265Y-108415851D01*
X125894129Y-108527111D01*
X125767466Y-108667785D01*
X125672821Y-108831715D01*
X125672818Y-108831722D01*
X125620763Y-108991932D01*
X125614326Y-109011744D01*
X125594540Y-109200000D01*
X117281858Y-109200000D01*
X117285674Y-109188256D01*
X117305460Y-109000000D01*
X117285674Y-108811744D01*
X117227179Y-108631716D01*
X117160341Y-108515949D01*
X117132535Y-108467787D01*
X117132534Y-108467786D01*
X117132533Y-108467784D01*
X117033655Y-108357969D01*
X117003427Y-108294981D01*
X117012052Y-108225646D01*
X117033653Y-108192032D01*
X117132533Y-108082216D01*
X117227179Y-107918284D01*
X117285674Y-107738256D01*
X117305460Y-107550000D01*
X117293631Y-107437458D01*
X117306200Y-107368732D01*
X117353932Y-107317708D01*
X117416952Y-107300500D01*
X117601974Y-107300500D01*
X117601976Y-107300500D01*
X117604651Y-107300000D01*
X120094540Y-107300000D01*
X120114326Y-107488256D01*
X120114327Y-107488259D01*
X120172818Y-107668277D01*
X120172821Y-107668284D01*
X120267467Y-107832216D01*
X120354094Y-107928425D01*
X120394129Y-107972888D01*
X120547265Y-108084148D01*
X120547270Y-108084151D01*
X120720192Y-108161142D01*
X120720197Y-108161144D01*
X120905354Y-108200500D01*
X120905355Y-108200500D01*
X121094644Y-108200500D01*
X121094646Y-108200500D01*
X121279803Y-108161144D01*
X121452730Y-108084151D01*
X121605871Y-107972888D01*
X121732533Y-107832216D01*
X121827179Y-107668284D01*
X121858695Y-107571288D01*
X138099500Y-107571288D01*
X138131148Y-107811687D01*
X138131162Y-107811789D01*
X138157291Y-107909304D01*
X138193947Y-108046104D01*
X138283168Y-108261501D01*
X138286776Y-108270212D01*
X138408064Y-108480289D01*
X138408066Y-108480292D01*
X138408067Y-108480293D01*
X138555733Y-108672736D01*
X138555739Y-108672743D01*
X138727256Y-108844260D01*
X138727262Y-108844265D01*
X138919711Y-108991936D01*
X139129788Y-109113224D01*
X139353900Y-109206054D01*
X139588211Y-109268838D01*
X139747292Y-109289781D01*
X139828711Y-109300500D01*
X139828712Y-109300500D01*
X140671289Y-109300500D01*
X140752708Y-109289781D01*
X140911789Y-109268838D01*
X141146100Y-109206054D01*
X141370212Y-109113224D01*
X141580289Y-108991936D01*
X141772738Y-108844265D01*
X141944265Y-108672738D01*
X142091936Y-108480289D01*
X142213224Y-108270212D01*
X142306054Y-108046100D01*
X142368838Y-107811789D01*
X142383555Y-107700000D01*
X143616950Y-107700000D01*
X143631653Y-107811687D01*
X143694421Y-108045939D01*
X143787220Y-108269978D01*
X143787227Y-108269993D01*
X143908480Y-108480009D01*
X144056110Y-108672405D01*
X144056116Y-108672412D01*
X144227587Y-108843883D01*
X144227594Y-108843889D01*
X144419990Y-108991519D01*
X144630006Y-109112772D01*
X144630021Y-109112779D01*
X144854060Y-109205578D01*
X145088312Y-109268346D01*
X145328735Y-109299998D01*
X145328752Y-109300000D01*
X145500000Y-109300000D01*
X145500000Y-108104120D01*
X145545818Y-108123099D01*
X145681056Y-108150000D01*
X145818944Y-108150000D01*
X145954182Y-108123099D01*
X146000000Y-108104120D01*
X146000000Y-109300000D01*
X146171248Y-109300000D01*
X146171264Y-109299998D01*
X146411687Y-109268346D01*
X146645939Y-109205578D01*
X146869978Y-109112779D01*
X146869993Y-109112772D01*
X147080009Y-108991519D01*
X147272405Y-108843889D01*
X147272412Y-108843883D01*
X147443883Y-108672412D01*
X147443889Y-108672405D01*
X147591519Y-108480009D01*
X147712772Y-108269993D01*
X147712779Y-108269978D01*
X147805578Y-108045939D01*
X147868346Y-107811687D01*
X147883050Y-107700000D01*
X146404121Y-107700000D01*
X146423099Y-107654182D01*
X146450000Y-107518944D01*
X146450000Y-107381056D01*
X146431390Y-107287500D01*
X155549227Y-107287500D01*
X155569013Y-107475756D01*
X155569014Y-107475759D01*
X155627505Y-107655777D01*
X155627508Y-107655784D01*
X155722154Y-107819716D01*
X155820036Y-107928425D01*
X155848816Y-107960388D01*
X156001952Y-108071648D01*
X156001957Y-108071651D01*
X156174879Y-108148642D01*
X156174884Y-108148644D01*
X156360041Y-108188000D01*
X156360042Y-108188000D01*
X156544784Y-108188000D01*
X156611823Y-108207685D01*
X156657578Y-108260489D01*
X156667522Y-108329647D01*
X156662715Y-108350318D01*
X156620484Y-108480293D01*
X156614326Y-108499244D01*
X156594540Y-108687500D01*
X156614326Y-108875756D01*
X156614327Y-108875759D01*
X156672818Y-109055777D01*
X156672821Y-109055784D01*
X156714205Y-109127463D01*
X156730678Y-109195363D01*
X156707825Y-109261390D01*
X156679705Y-109289779D01*
X156664950Y-109300500D01*
X156619507Y-109333516D01*
X156492846Y-109474188D01*
X156398201Y-109638118D01*
X156398198Y-109638125D01*
X156345602Y-109800000D01*
X156339706Y-109818147D01*
X156319920Y-110006403D01*
X156339706Y-110194659D01*
X156339707Y-110194662D01*
X156398198Y-110374680D01*
X156398201Y-110374687D01*
X156492847Y-110538619D01*
X156619509Y-110679291D01*
X156772645Y-110790551D01*
X156772650Y-110790554D01*
X156945572Y-110867545D01*
X156945577Y-110867547D01*
X157130734Y-110906903D01*
X157130735Y-110906903D01*
X157320024Y-110906903D01*
X157320026Y-110906903D01*
X157505183Y-110867547D01*
X157554321Y-110845668D01*
X157623570Y-110836382D01*
X157686847Y-110866009D01*
X157690426Y-110869553D01*
X157694135Y-110872893D01*
X157847265Y-110984148D01*
X157847270Y-110984151D01*
X158020192Y-111061142D01*
X158020197Y-111061144D01*
X158205354Y-111100500D01*
X158205355Y-111100500D01*
X158394644Y-111100500D01*
X158394646Y-111100500D01*
X158579803Y-111061144D01*
X158752730Y-110984151D01*
X158905871Y-110872888D01*
X159032533Y-110732216D01*
X159127179Y-110568284D01*
X159185674Y-110388256D01*
X159205460Y-110200000D01*
X159185674Y-110011744D01*
X159127179Y-109831716D01*
X159032533Y-109667784D01*
X158905871Y-109527112D01*
X158905870Y-109527111D01*
X158752734Y-109415851D01*
X158752729Y-109415848D01*
X158579807Y-109338857D01*
X158579802Y-109338855D01*
X158394647Y-109299500D01*
X158388264Y-109298829D01*
X158323652Y-109272238D01*
X158283672Y-109214937D01*
X158281019Y-109145118D01*
X158293848Y-109113514D01*
X158327179Y-109055784D01*
X158385674Y-108875756D01*
X158405460Y-108687500D01*
X158385674Y-108499244D01*
X158327179Y-108319216D01*
X158251422Y-108188000D01*
X158232535Y-108155287D01*
X158232534Y-108155286D01*
X158232533Y-108155284D01*
X158133510Y-108045308D01*
X158103282Y-107982320D01*
X158111907Y-107912985D01*
X158133511Y-107879368D01*
X158187223Y-107819716D01*
X158281869Y-107655784D01*
X158340364Y-107475756D01*
X158360150Y-107287500D01*
X158340364Y-107099244D01*
X158281869Y-106919216D01*
X158187223Y-106755284D01*
X158060561Y-106614612D01*
X158060498Y-106614566D01*
X158040450Y-106600000D01*
X164594540Y-106600000D01*
X164614326Y-106788256D01*
X164614327Y-106788259D01*
X164672818Y-106968277D01*
X164672821Y-106968284D01*
X164767467Y-107132216D01*
X164857342Y-107232032D01*
X164894129Y-107272888D01*
X165047265Y-107384148D01*
X165047270Y-107384151D01*
X165220192Y-107461142D01*
X165220197Y-107461144D01*
X165405354Y-107500500D01*
X165405355Y-107500500D01*
X165594644Y-107500500D01*
X165594646Y-107500500D01*
X165779803Y-107461144D01*
X165952730Y-107384151D01*
X166105871Y-107272888D01*
X166232533Y-107132216D01*
X166327179Y-106968284D01*
X166367985Y-106842696D01*
X166407421Y-106785023D01*
X166460133Y-106759726D01*
X166486912Y-106754035D01*
X166486916Y-106754033D01*
X166486917Y-106754033D01*
X166570005Y-106717039D01*
X166659839Y-106677042D01*
X166812980Y-106565779D01*
X166939642Y-106425107D01*
X167034288Y-106261175D01*
X167092783Y-106081147D01*
X167112569Y-105892891D01*
X167092783Y-105704635D01*
X167036499Y-105531413D01*
X169262821Y-105531413D01*
X169282607Y-105719669D01*
X169282608Y-105719672D01*
X169341099Y-105899690D01*
X169341102Y-105899697D01*
X169435748Y-106063629D01*
X169558536Y-106199999D01*
X169562410Y-106204301D01*
X169715546Y-106315561D01*
X169715547Y-106315561D01*
X169715551Y-106315564D01*
X169864311Y-106381797D01*
X169917548Y-106427047D01*
X169937869Y-106493896D01*
X169918824Y-106561120D01*
X169906028Y-106578045D01*
X169892619Y-106592938D01*
X169797974Y-106756868D01*
X169797971Y-106756875D01*
X169741162Y-106931716D01*
X169739479Y-106936897D01*
X169719693Y-107125153D01*
X169739479Y-107313409D01*
X169739480Y-107313412D01*
X169797971Y-107493430D01*
X169797974Y-107493437D01*
X169892620Y-107657369D01*
X169965454Y-107738259D01*
X170019282Y-107798041D01*
X170172418Y-107909301D01*
X170172423Y-107909304D01*
X170345345Y-107986295D01*
X170345350Y-107986297D01*
X170530507Y-108025653D01*
X170530508Y-108025653D01*
X170719797Y-108025653D01*
X170719799Y-108025653D01*
X170904956Y-107986297D01*
X171077883Y-107909304D01*
X171231024Y-107798041D01*
X171357686Y-107657369D01*
X171452332Y-107493437D01*
X171502712Y-107338382D01*
X171542148Y-107280710D01*
X171606507Y-107253511D01*
X171675353Y-107265425D01*
X171726829Y-107312669D01*
X171733024Y-107324298D01*
X171785965Y-107437830D01*
X171785967Y-107437834D01*
X171864507Y-107550000D01*
X171921501Y-107631396D01*
X171921506Y-107631402D01*
X172088597Y-107798493D01*
X172088603Y-107798498D01*
X172274158Y-107928425D01*
X172317783Y-107983002D01*
X172324977Y-108052500D01*
X172293454Y-108114855D01*
X172274158Y-108131575D01*
X172088597Y-108261505D01*
X171921505Y-108428597D01*
X171785965Y-108622169D01*
X171785964Y-108622171D01*
X171686098Y-108836335D01*
X171686094Y-108836344D01*
X171624938Y-109064586D01*
X171624936Y-109064596D01*
X171604341Y-109299999D01*
X171604341Y-109300000D01*
X171624936Y-109535403D01*
X171624938Y-109535413D01*
X171686094Y-109763655D01*
X171686096Y-109763659D01*
X171686097Y-109763663D01*
X171766004Y-109935023D01*
X171785965Y-109977830D01*
X171785967Y-109977834D01*
X171877156Y-110108064D01*
X171921501Y-110171396D01*
X171921506Y-110171402D01*
X172088597Y-110338493D01*
X172088603Y-110338498D01*
X172274158Y-110468425D01*
X172317783Y-110523002D01*
X172324977Y-110592500D01*
X172293454Y-110654855D01*
X172274158Y-110671575D01*
X172088597Y-110801505D01*
X171921505Y-110968597D01*
X171785965Y-111162169D01*
X171785964Y-111162171D01*
X171686098Y-111376335D01*
X171686094Y-111376344D01*
X171624938Y-111604586D01*
X171624936Y-111604596D01*
X171604341Y-111839999D01*
X171604341Y-111840000D01*
X171624936Y-112075403D01*
X171624938Y-112075413D01*
X171686094Y-112303655D01*
X171686096Y-112303659D01*
X171686097Y-112303663D01*
X171730787Y-112399500D01*
X171785965Y-112517830D01*
X171785967Y-112517834D01*
X171862484Y-112627111D01*
X171921501Y-112711396D01*
X171921506Y-112711402D01*
X172088597Y-112878493D01*
X172088603Y-112878498D01*
X172274158Y-113008425D01*
X172317783Y-113063002D01*
X172324977Y-113132500D01*
X172293454Y-113194855D01*
X172274158Y-113211575D01*
X172088597Y-113341505D01*
X171921505Y-113508597D01*
X171785965Y-113702169D01*
X171785964Y-113702171D01*
X171686098Y-113916335D01*
X171686094Y-113916344D01*
X171624938Y-114144586D01*
X171624936Y-114144596D01*
X171604341Y-114379999D01*
X171604341Y-114380000D01*
X171624936Y-114615403D01*
X171624938Y-114615413D01*
X171686094Y-114843655D01*
X171686096Y-114843659D01*
X171686097Y-114843663D01*
X171709236Y-114893284D01*
X171785965Y-115057830D01*
X171785967Y-115057834D01*
X171869339Y-115176901D01*
X171921501Y-115251396D01*
X171921506Y-115251402D01*
X172088597Y-115418493D01*
X172088603Y-115418498D01*
X172274158Y-115548425D01*
X172317783Y-115603002D01*
X172324977Y-115672500D01*
X172293454Y-115734855D01*
X172274158Y-115751575D01*
X172088597Y-115881505D01*
X171921505Y-116048597D01*
X171785965Y-116242169D01*
X171785964Y-116242171D01*
X171686098Y-116456335D01*
X171686094Y-116456344D01*
X171624938Y-116684586D01*
X171624936Y-116684596D01*
X171604341Y-116919999D01*
X171604341Y-116920000D01*
X171624936Y-117155403D01*
X171624938Y-117155413D01*
X171686094Y-117383655D01*
X171686096Y-117383659D01*
X171686097Y-117383663D01*
X171766004Y-117555023D01*
X171785965Y-117597830D01*
X171785967Y-117597834D01*
X171844888Y-117681981D01*
X171921501Y-117791396D01*
X171921506Y-117791402D01*
X172088597Y-117958493D01*
X172088603Y-117958498D01*
X172274158Y-118088425D01*
X172317783Y-118143002D01*
X172324977Y-118212500D01*
X172293454Y-118274855D01*
X172274158Y-118291575D01*
X172088597Y-118421505D01*
X171921505Y-118588597D01*
X171785965Y-118782169D01*
X171785964Y-118782171D01*
X171686098Y-118996335D01*
X171686094Y-118996344D01*
X171624938Y-119224586D01*
X171624936Y-119224596D01*
X171604341Y-119459999D01*
X171604341Y-119460003D01*
X171608228Y-119504438D01*
X171594461Y-119572938D01*
X171545845Y-119623120D01*
X171477816Y-119639053D01*
X171411973Y-119615677D01*
X171369220Y-119560414D01*
X171366769Y-119553562D01*
X171365760Y-119550457D01*
X171333777Y-119452023D01*
X171327181Y-119431721D01*
X171327178Y-119431715D01*
X171232533Y-119267784D01*
X171105871Y-119127112D01*
X171105870Y-119127111D01*
X170952734Y-119015851D01*
X170952729Y-119015848D01*
X170779807Y-118938857D01*
X170779802Y-118938855D01*
X170634001Y-118907865D01*
X170594646Y-118899500D01*
X170405354Y-118899500D01*
X170372897Y-118906398D01*
X170220197Y-118938855D01*
X170220192Y-118938857D01*
X170047270Y-119015848D01*
X170047265Y-119015851D01*
X169894129Y-119127111D01*
X169767466Y-119267785D01*
X169672821Y-119431715D01*
X169672818Y-119431722D01*
X169614327Y-119611740D01*
X169614326Y-119611744D01*
X169594540Y-119800000D01*
X169614326Y-119988256D01*
X169614327Y-119988259D01*
X169672818Y-120168277D01*
X169672821Y-120168284D01*
X169767467Y-120332216D01*
X169873205Y-120449650D01*
X169894129Y-120472888D01*
X170047265Y-120584148D01*
X170047270Y-120584151D01*
X170220192Y-120661142D01*
X170220197Y-120661144D01*
X170405354Y-120700500D01*
X170405355Y-120700500D01*
X170594644Y-120700500D01*
X170594646Y-120700500D01*
X170779803Y-120661144D01*
X170952730Y-120584151D01*
X171105871Y-120472888D01*
X171232533Y-120332216D01*
X171327179Y-120168284D01*
X171385674Y-119988256D01*
X171405257Y-119801926D01*
X171431840Y-119737315D01*
X171489137Y-119697330D01*
X171558956Y-119694670D01*
X171619130Y-119730179D01*
X171648352Y-119782797D01*
X171686095Y-119923658D01*
X171686096Y-119923660D01*
X171686097Y-119923663D01*
X171766004Y-120095023D01*
X171785965Y-120137830D01*
X171785967Y-120137834D01*
X171868421Y-120255589D01*
X171921501Y-120331396D01*
X171921506Y-120331402D01*
X172088597Y-120498493D01*
X172088603Y-120498498D01*
X172274158Y-120628425D01*
X172317783Y-120683002D01*
X172324977Y-120752500D01*
X172293454Y-120814855D01*
X172274158Y-120831575D01*
X172088597Y-120961505D01*
X171921505Y-121128597D01*
X171785965Y-121322169D01*
X171785964Y-121322171D01*
X171686098Y-121536335D01*
X171686094Y-121536344D01*
X171624938Y-121764586D01*
X171624936Y-121764596D01*
X171604341Y-121999999D01*
X171604341Y-122000000D01*
X171624936Y-122235403D01*
X171624938Y-122235413D01*
X171686094Y-122463655D01*
X171686096Y-122463659D01*
X171686097Y-122463663D01*
X171766004Y-122635023D01*
X171785965Y-122677830D01*
X171785967Y-122677834D01*
X171879726Y-122811734D01*
X171921505Y-122871401D01*
X172088599Y-123038495D01*
X172185384Y-123106265D01*
X172282165Y-123174032D01*
X172282167Y-123174033D01*
X172282170Y-123174035D01*
X172496337Y-123273903D01*
X172724592Y-123335063D01*
X172912918Y-123351539D01*
X172959999Y-123355659D01*
X172960000Y-123355659D01*
X172960001Y-123355659D01*
X172999234Y-123352226D01*
X173195408Y-123335063D01*
X173423663Y-123273903D01*
X173637830Y-123174035D01*
X173831401Y-123038495D01*
X173998495Y-122871401D01*
X174128425Y-122685842D01*
X174183002Y-122642217D01*
X174252500Y-122635023D01*
X174314855Y-122666546D01*
X174331575Y-122685842D01*
X174461500Y-122871395D01*
X174461505Y-122871401D01*
X174628599Y-123038495D01*
X174725384Y-123106265D01*
X174822165Y-123174032D01*
X174822167Y-123174033D01*
X174822170Y-123174035D01*
X175036337Y-123273903D01*
X175264592Y-123335063D01*
X175452918Y-123351539D01*
X175499999Y-123355659D01*
X175500000Y-123355659D01*
X175500001Y-123355659D01*
X175539234Y-123352226D01*
X175735408Y-123335063D01*
X175963663Y-123273903D01*
X176177830Y-123174035D01*
X176371401Y-123038495D01*
X176538495Y-122871401D01*
X176674035Y-122677830D01*
X176773903Y-122463663D01*
X176835063Y-122235408D01*
X176855659Y-122000000D01*
X176835063Y-121764592D01*
X176773903Y-121536337D01*
X176674035Y-121322171D01*
X176668425Y-121314158D01*
X176538494Y-121128597D01*
X176371402Y-120961506D01*
X176371396Y-120961501D01*
X176185842Y-120831575D01*
X176142217Y-120776998D01*
X176135023Y-120707500D01*
X176166546Y-120645145D01*
X176185842Y-120628425D01*
X176224962Y-120601033D01*
X176371401Y-120498495D01*
X176538495Y-120331401D01*
X176674035Y-120137830D01*
X176773903Y-119923663D01*
X176835063Y-119695408D01*
X176855659Y-119460000D01*
X176835063Y-119224592D01*
X176773903Y-118996337D01*
X176674035Y-118782171D01*
X176668425Y-118774158D01*
X176538494Y-118588597D01*
X176371402Y-118421506D01*
X176371396Y-118421501D01*
X176185842Y-118291575D01*
X176142217Y-118236998D01*
X176135023Y-118167500D01*
X176166546Y-118105145D01*
X176185842Y-118088425D01*
X176350681Y-117973003D01*
X176371401Y-117958495D01*
X176538495Y-117791401D01*
X176674035Y-117597830D01*
X176773903Y-117383663D01*
X176835063Y-117155408D01*
X176855659Y-116920000D01*
X176835063Y-116684592D01*
X176773903Y-116456337D01*
X176674035Y-116242171D01*
X176668425Y-116234158D01*
X176538494Y-116048597D01*
X176371402Y-115881506D01*
X176371396Y-115881501D01*
X176185842Y-115751575D01*
X176142217Y-115696998D01*
X176135023Y-115627500D01*
X176166546Y-115565145D01*
X176185842Y-115548425D01*
X176336711Y-115442785D01*
X176371401Y-115418495D01*
X176538495Y-115251401D01*
X176674035Y-115057830D01*
X176773903Y-114843663D01*
X176835063Y-114615408D01*
X176855659Y-114380000D01*
X176835063Y-114144592D01*
X176773903Y-113916337D01*
X176674035Y-113702171D01*
X176668425Y-113694158D01*
X176538494Y-113508597D01*
X176371402Y-113341506D01*
X176371396Y-113341501D01*
X176185842Y-113211575D01*
X176142217Y-113156998D01*
X176135023Y-113087500D01*
X176166546Y-113025145D01*
X176185842Y-113008425D01*
X176295385Y-112931722D01*
X176371401Y-112878495D01*
X176538495Y-112711401D01*
X176674035Y-112517830D01*
X176773903Y-112303663D01*
X176835063Y-112075408D01*
X176855659Y-111840000D01*
X176835063Y-111604592D01*
X176773903Y-111376337D01*
X176674035Y-111162171D01*
X176668425Y-111154158D01*
X176538494Y-110968597D01*
X176371402Y-110801506D01*
X176371396Y-110801501D01*
X176185842Y-110671575D01*
X176142217Y-110616998D01*
X176135023Y-110547500D01*
X176166546Y-110485145D01*
X176185842Y-110468425D01*
X176208026Y-110452891D01*
X176371401Y-110338495D01*
X176538495Y-110171401D01*
X176674035Y-109977830D01*
X176773903Y-109763663D01*
X176835063Y-109535408D01*
X176855659Y-109300000D01*
X176835063Y-109064592D01*
X176773903Y-108836337D01*
X176674035Y-108622171D01*
X176668425Y-108614158D01*
X176538494Y-108428597D01*
X176371402Y-108261506D01*
X176371396Y-108261501D01*
X176185842Y-108131575D01*
X176142217Y-108076998D01*
X176135023Y-108007500D01*
X176166546Y-107945145D01*
X176185842Y-107928425D01*
X176231830Y-107896224D01*
X176371401Y-107798495D01*
X176538495Y-107631401D01*
X176674035Y-107437830D01*
X176773903Y-107223663D01*
X176835063Y-106995408D01*
X176855659Y-106760000D01*
X176855246Y-106755285D01*
X176844266Y-106629785D01*
X176835063Y-106524592D01*
X176773903Y-106296337D01*
X176674035Y-106082171D01*
X176668425Y-106074158D01*
X176538494Y-105888597D01*
X176371402Y-105721506D01*
X176371396Y-105721501D01*
X176185842Y-105591575D01*
X176142217Y-105536998D01*
X176135023Y-105467500D01*
X176166546Y-105405145D01*
X176185842Y-105388425D01*
X176208026Y-105372891D01*
X176371401Y-105258495D01*
X176538495Y-105091401D01*
X176674035Y-104897830D01*
X176773903Y-104683663D01*
X176835063Y-104455408D01*
X176855659Y-104220000D01*
X176835063Y-103984592D01*
X176773903Y-103756337D01*
X176674035Y-103542171D01*
X176668425Y-103534158D01*
X176538494Y-103348597D01*
X176371402Y-103181506D01*
X176371396Y-103181501D01*
X176185842Y-103051575D01*
X176142217Y-102996998D01*
X176135023Y-102927500D01*
X176166546Y-102865145D01*
X176185842Y-102848425D01*
X176208026Y-102832891D01*
X176371401Y-102718495D01*
X176538495Y-102551401D01*
X176674035Y-102357830D01*
X176773903Y-102143663D01*
X176835063Y-101915408D01*
X176855659Y-101680000D01*
X176835063Y-101444592D01*
X176773903Y-101216337D01*
X176674035Y-101002171D01*
X176668731Y-100994595D01*
X176538494Y-100808597D01*
X176371402Y-100641506D01*
X176371401Y-100641505D01*
X176185405Y-100511269D01*
X176141781Y-100456692D01*
X176134588Y-100387193D01*
X176166110Y-100324839D01*
X176185405Y-100308119D01*
X176371082Y-100178105D01*
X176538105Y-100011082D01*
X176673600Y-99817578D01*
X176773429Y-99603492D01*
X176773432Y-99603486D01*
X176830636Y-99390000D01*
X175933012Y-99390000D01*
X175965925Y-99332993D01*
X176000000Y-99205826D01*
X176000000Y-99074174D01*
X175965925Y-98947007D01*
X175933012Y-98890000D01*
X176830636Y-98890000D01*
X176830635Y-98889999D01*
X176773432Y-98676513D01*
X176773429Y-98676507D01*
X176673600Y-98462422D01*
X176673599Y-98462420D01*
X176538113Y-98268926D01*
X176538108Y-98268920D01*
X176371078Y-98101890D01*
X176185405Y-97971879D01*
X176141780Y-97917302D01*
X176134588Y-97847804D01*
X176166110Y-97785449D01*
X176185406Y-97768730D01*
X176185842Y-97768425D01*
X176371401Y-97638495D01*
X176538495Y-97471401D01*
X176674035Y-97277830D01*
X176773903Y-97063663D01*
X176835063Y-96835408D01*
X176855659Y-96600000D01*
X176835063Y-96364592D01*
X176773903Y-96136337D01*
X176674035Y-95922171D01*
X176668425Y-95914158D01*
X176538494Y-95728597D01*
X176371402Y-95561506D01*
X176371396Y-95561501D01*
X176185842Y-95431575D01*
X176142217Y-95376998D01*
X176135023Y-95307500D01*
X176166546Y-95245145D01*
X176185842Y-95228425D01*
X176208026Y-95212891D01*
X176371401Y-95098495D01*
X176538495Y-94931401D01*
X176674035Y-94737830D01*
X176773903Y-94523663D01*
X176835063Y-94295408D01*
X176855659Y-94060000D01*
X176835063Y-93824592D01*
X176773903Y-93596337D01*
X176674035Y-93382171D01*
X176668425Y-93374158D01*
X176538494Y-93188597D01*
X176371402Y-93021506D01*
X176371396Y-93021501D01*
X176185842Y-92891575D01*
X176142217Y-92836998D01*
X176135023Y-92767500D01*
X176166546Y-92705145D01*
X176185842Y-92688425D01*
X176266822Y-92631722D01*
X176371401Y-92558495D01*
X176538495Y-92391401D01*
X176674035Y-92197830D01*
X176773903Y-91983663D01*
X176835063Y-91755408D01*
X176855659Y-91520000D01*
X176835063Y-91284592D01*
X176773903Y-91056337D01*
X176674035Y-90842171D01*
X176668425Y-90834158D01*
X176538494Y-90648597D01*
X176371402Y-90481506D01*
X176371396Y-90481501D01*
X176185842Y-90351575D01*
X176142217Y-90296998D01*
X176135023Y-90227500D01*
X176166546Y-90165145D01*
X176185842Y-90148425D01*
X176208026Y-90132891D01*
X176371401Y-90018495D01*
X176538495Y-89851401D01*
X176674035Y-89657830D01*
X176773903Y-89443663D01*
X176835063Y-89215408D01*
X176855659Y-88980000D01*
X176835063Y-88744592D01*
X176778024Y-88531716D01*
X176773905Y-88516344D01*
X176773904Y-88516343D01*
X176773903Y-88516337D01*
X176674035Y-88302171D01*
X176668425Y-88294158D01*
X176538494Y-88108597D01*
X176371402Y-87941506D01*
X176371396Y-87941501D01*
X176185842Y-87811575D01*
X176142217Y-87756998D01*
X176135023Y-87687500D01*
X176166546Y-87625145D01*
X176185842Y-87608425D01*
X176273684Y-87546917D01*
X176371401Y-87478495D01*
X176538495Y-87311401D01*
X176674035Y-87117830D01*
X176773903Y-86903663D01*
X176835063Y-86675408D01*
X176855659Y-86440000D01*
X176835063Y-86204592D01*
X176773903Y-85976337D01*
X176674035Y-85762171D01*
X176668731Y-85754595D01*
X176538494Y-85568597D01*
X176371402Y-85401506D01*
X176371396Y-85401501D01*
X176185842Y-85271575D01*
X176142217Y-85216998D01*
X176135023Y-85147500D01*
X176166546Y-85085145D01*
X176185842Y-85068425D01*
X176208026Y-85052891D01*
X176371401Y-84938495D01*
X176538495Y-84771401D01*
X176674035Y-84577830D01*
X176773903Y-84363663D01*
X176835063Y-84135408D01*
X176855659Y-83900000D01*
X176835063Y-83664592D01*
X176773903Y-83436337D01*
X176674035Y-83222171D01*
X176668731Y-83214595D01*
X176538494Y-83028597D01*
X176371402Y-82861506D01*
X176371396Y-82861501D01*
X176185842Y-82731575D01*
X176142217Y-82676998D01*
X176135023Y-82607500D01*
X176166546Y-82545145D01*
X176185842Y-82528425D01*
X176208026Y-82512891D01*
X176371401Y-82398495D01*
X176538495Y-82231401D01*
X176674035Y-82037830D01*
X176773903Y-81823663D01*
X176835063Y-81595408D01*
X176855659Y-81360000D01*
X176835063Y-81124592D01*
X176773903Y-80896337D01*
X176674035Y-80682171D01*
X176668425Y-80674158D01*
X176538494Y-80488597D01*
X176371402Y-80321506D01*
X176371396Y-80321501D01*
X176185842Y-80191575D01*
X176142217Y-80136998D01*
X176135023Y-80067500D01*
X176166546Y-80005145D01*
X176185842Y-79988425D01*
X176208026Y-79972891D01*
X176371401Y-79858495D01*
X176538495Y-79691401D01*
X176674035Y-79497830D01*
X176773903Y-79283663D01*
X176835063Y-79055408D01*
X176855659Y-78820000D01*
X176835063Y-78584592D01*
X176773903Y-78356337D01*
X176674035Y-78142171D01*
X176668425Y-78134158D01*
X176538494Y-77948597D01*
X176371402Y-77781506D01*
X176371396Y-77781501D01*
X176185842Y-77651575D01*
X176142217Y-77596998D01*
X176135023Y-77527500D01*
X176166546Y-77465145D01*
X176185842Y-77448425D01*
X176208026Y-77432891D01*
X176371401Y-77318495D01*
X176538495Y-77151401D01*
X176674035Y-76957830D01*
X176773903Y-76743663D01*
X176835063Y-76515408D01*
X176855659Y-76280000D01*
X176835063Y-76044592D01*
X176773903Y-75816337D01*
X176674035Y-75602171D01*
X176637558Y-75550075D01*
X176538494Y-75408597D01*
X176371402Y-75241506D01*
X176371395Y-75241501D01*
X176177834Y-75105967D01*
X176177830Y-75105965D01*
X176176307Y-75105255D01*
X175963663Y-75006097D01*
X175963659Y-75006096D01*
X175963655Y-75006094D01*
X175735413Y-74944938D01*
X175735403Y-74944936D01*
X175500001Y-74924341D01*
X175499999Y-74924341D01*
X175264596Y-74944936D01*
X175264586Y-74944938D01*
X175036344Y-75006094D01*
X175036335Y-75006098D01*
X174822171Y-75105964D01*
X174822169Y-75105965D01*
X174628600Y-75241503D01*
X174506673Y-75363430D01*
X174445350Y-75396914D01*
X174375658Y-75391930D01*
X174319725Y-75350058D01*
X174302810Y-75319081D01*
X174253797Y-75187671D01*
X174253793Y-75187664D01*
X174167547Y-75072455D01*
X174167544Y-75072452D01*
X174052335Y-74986206D01*
X174052328Y-74986202D01*
X173917482Y-74935908D01*
X173917483Y-74935908D01*
X173857883Y-74929501D01*
X173857881Y-74929500D01*
X173857873Y-74929500D01*
X173857864Y-74929500D01*
X172062129Y-74929500D01*
X172062123Y-74929501D01*
X172002516Y-74935908D01*
X171867671Y-74986202D01*
X171867664Y-74986206D01*
X171752455Y-75072452D01*
X171752452Y-75072455D01*
X171666206Y-75187664D01*
X171666202Y-75187671D01*
X171615908Y-75322517D01*
X171609501Y-75382116D01*
X171609500Y-75382135D01*
X171609500Y-77177870D01*
X171609501Y-77177876D01*
X171615908Y-77237483D01*
X171666202Y-77372328D01*
X171666206Y-77372335D01*
X171752452Y-77487544D01*
X171752455Y-77487547D01*
X171867664Y-77573793D01*
X171867671Y-77573797D01*
X171999081Y-77622810D01*
X172055015Y-77664681D01*
X172079432Y-77730145D01*
X172064580Y-77798418D01*
X172043430Y-77826673D01*
X171921503Y-77948600D01*
X171785965Y-78142169D01*
X171785964Y-78142171D01*
X171686098Y-78356335D01*
X171686094Y-78356344D01*
X171624938Y-78584586D01*
X171624936Y-78584596D01*
X171604341Y-78819999D01*
X171604341Y-78820000D01*
X171624936Y-79055403D01*
X171624938Y-79055413D01*
X171686094Y-79283655D01*
X171686096Y-79283659D01*
X171686097Y-79283663D01*
X171690000Y-79292032D01*
X171785965Y-79497830D01*
X171785967Y-79497834D01*
X171894281Y-79652521D01*
X171921501Y-79691396D01*
X171921506Y-79691402D01*
X172088597Y-79858493D01*
X172088603Y-79858498D01*
X172274158Y-79988425D01*
X172317783Y-80043002D01*
X172324977Y-80112500D01*
X172293454Y-80174855D01*
X172274158Y-80191575D01*
X172088597Y-80321505D01*
X171921505Y-80488597D01*
X171785965Y-80682169D01*
X171785964Y-80682171D01*
X171686098Y-80896335D01*
X171686094Y-80896344D01*
X171624938Y-81124586D01*
X171624936Y-81124596D01*
X171604341Y-81359999D01*
X171604341Y-81360000D01*
X171624936Y-81595403D01*
X171624938Y-81595413D01*
X171686094Y-81823655D01*
X171686096Y-81823659D01*
X171686097Y-81823663D01*
X171690000Y-81832032D01*
X171785965Y-82037830D01*
X171785967Y-82037834D01*
X171894281Y-82192521D01*
X171921501Y-82231396D01*
X171921506Y-82231402D01*
X172088597Y-82398493D01*
X172088603Y-82398498D01*
X172274158Y-82528425D01*
X172317783Y-82583002D01*
X172324977Y-82652500D01*
X172293454Y-82714855D01*
X172274158Y-82731575D01*
X172088597Y-82861505D01*
X171921505Y-83028597D01*
X171785965Y-83222169D01*
X171785964Y-83222171D01*
X171686098Y-83436335D01*
X171686094Y-83436344D01*
X171624938Y-83664586D01*
X171624936Y-83664596D01*
X171604341Y-83899999D01*
X171604341Y-83900000D01*
X171624936Y-84135403D01*
X171624938Y-84135413D01*
X171686094Y-84363655D01*
X171686096Y-84363659D01*
X171686097Y-84363663D01*
X171766004Y-84535023D01*
X171785965Y-84577830D01*
X171785967Y-84577834D01*
X171894281Y-84732521D01*
X171921501Y-84771396D01*
X171921506Y-84771402D01*
X172088597Y-84938493D01*
X172088603Y-84938498D01*
X172274594Y-85068730D01*
X172318219Y-85123307D01*
X172325413Y-85192805D01*
X172293890Y-85255160D01*
X172274595Y-85271880D01*
X172088922Y-85401890D01*
X172088920Y-85401891D01*
X171921891Y-85568920D01*
X171921886Y-85568926D01*
X171786400Y-85762420D01*
X171786399Y-85762422D01*
X171686570Y-85976507D01*
X171686567Y-85976513D01*
X171629364Y-86189999D01*
X171629364Y-86190000D01*
X172526988Y-86190000D01*
X172494075Y-86247007D01*
X172460000Y-86374174D01*
X172460000Y-86505826D01*
X172494075Y-86632993D01*
X172526988Y-86690000D01*
X171629364Y-86690000D01*
X171686567Y-86903486D01*
X171686570Y-86903492D01*
X171786399Y-87117578D01*
X171921894Y-87311082D01*
X172088917Y-87478105D01*
X172274595Y-87608119D01*
X172318219Y-87662696D01*
X172325412Y-87732195D01*
X172293890Y-87794549D01*
X172274595Y-87811269D01*
X172088594Y-87941508D01*
X171921505Y-88108597D01*
X171785965Y-88302169D01*
X171785964Y-88302171D01*
X171686098Y-88516335D01*
X171686094Y-88516344D01*
X171624938Y-88744586D01*
X171624936Y-88744596D01*
X171604341Y-88979999D01*
X171604341Y-88980000D01*
X171624936Y-89215403D01*
X171624938Y-89215413D01*
X171686094Y-89443655D01*
X171686096Y-89443659D01*
X171686097Y-89443663D01*
X171746356Y-89572888D01*
X171785965Y-89657830D01*
X171785967Y-89657834D01*
X171804395Y-89684151D01*
X171921501Y-89851396D01*
X171921506Y-89851402D01*
X172088597Y-90018493D01*
X172088603Y-90018498D01*
X172274158Y-90148425D01*
X172317783Y-90203002D01*
X172324977Y-90272500D01*
X172293454Y-90334855D01*
X172274158Y-90351575D01*
X172088597Y-90481505D01*
X171921505Y-90648597D01*
X171785965Y-90842169D01*
X171785964Y-90842171D01*
X171686098Y-91056335D01*
X171686094Y-91056344D01*
X171624938Y-91284586D01*
X171624936Y-91284596D01*
X171604341Y-91519999D01*
X171604341Y-91520000D01*
X171624936Y-91755403D01*
X171624938Y-91755413D01*
X171686094Y-91983655D01*
X171686096Y-91983659D01*
X171686097Y-91983663D01*
X171766004Y-92155023D01*
X171785965Y-92197830D01*
X171785967Y-92197834D01*
X171876489Y-92327112D01*
X171921501Y-92391396D01*
X171921506Y-92391402D01*
X172088597Y-92558493D01*
X172088603Y-92558498D01*
X172274158Y-92688425D01*
X172317783Y-92743002D01*
X172324977Y-92812500D01*
X172293454Y-92874855D01*
X172274158Y-92891575D01*
X172088597Y-93021505D01*
X171921505Y-93188597D01*
X171785965Y-93382169D01*
X171785964Y-93382171D01*
X171686098Y-93596335D01*
X171686094Y-93596344D01*
X171624938Y-93824586D01*
X171624936Y-93824596D01*
X171604341Y-94059999D01*
X171604341Y-94060000D01*
X171624936Y-94295403D01*
X171624938Y-94295413D01*
X171686094Y-94523655D01*
X171686096Y-94523659D01*
X171686097Y-94523663D01*
X171690000Y-94532032D01*
X171785965Y-94737830D01*
X171785967Y-94737834D01*
X171856704Y-94838856D01*
X171921501Y-94931396D01*
X171921506Y-94931402D01*
X172088597Y-95098493D01*
X172088603Y-95098498D01*
X172274158Y-95228425D01*
X172317783Y-95283002D01*
X172324977Y-95352500D01*
X172293454Y-95414855D01*
X172274158Y-95431575D01*
X172088597Y-95561505D01*
X171921505Y-95728597D01*
X171785965Y-95922169D01*
X171785964Y-95922171D01*
X171686098Y-96136335D01*
X171686094Y-96136344D01*
X171624938Y-96364586D01*
X171624936Y-96364596D01*
X171604341Y-96599999D01*
X171604341Y-96600000D01*
X171624936Y-96835403D01*
X171624938Y-96835413D01*
X171686094Y-97063655D01*
X171686096Y-97063659D01*
X171686097Y-97063663D01*
X171766004Y-97235023D01*
X171785965Y-97277830D01*
X171785967Y-97277834D01*
X171894281Y-97432521D01*
X171921501Y-97471396D01*
X171921506Y-97471402D01*
X172088597Y-97638493D01*
X172088603Y-97638498D01*
X172274158Y-97768425D01*
X172317783Y-97823002D01*
X172324977Y-97892500D01*
X172293454Y-97954855D01*
X172274158Y-97971575D01*
X172088597Y-98101505D01*
X171921505Y-98268597D01*
X171785965Y-98462169D01*
X171785964Y-98462171D01*
X171686098Y-98676335D01*
X171686094Y-98676344D01*
X171624938Y-98904586D01*
X171624936Y-98904596D01*
X171604341Y-99139999D01*
X171604341Y-99140000D01*
X171624936Y-99375403D01*
X171624938Y-99375413D01*
X171686094Y-99603655D01*
X171686096Y-99603659D01*
X171686097Y-99603663D01*
X171768951Y-99781344D01*
X171785965Y-99817830D01*
X171785967Y-99817834D01*
X171886313Y-99961142D01*
X171921501Y-100011396D01*
X171921506Y-100011402D01*
X172088597Y-100178493D01*
X172088603Y-100178498D01*
X172274158Y-100308425D01*
X172317783Y-100363002D01*
X172324977Y-100432500D01*
X172293454Y-100494855D01*
X172274158Y-100511575D01*
X172088597Y-100641505D01*
X171921505Y-100808597D01*
X171785965Y-101002169D01*
X171785964Y-101002171D01*
X171686098Y-101216335D01*
X171686094Y-101216344D01*
X171624938Y-101444586D01*
X171624936Y-101444596D01*
X171604341Y-101679999D01*
X171604341Y-101680000D01*
X171624936Y-101915403D01*
X171624938Y-101915413D01*
X171686094Y-102143655D01*
X171686096Y-102143659D01*
X171686097Y-102143663D01*
X171766004Y-102315023D01*
X171785965Y-102357830D01*
X171785967Y-102357834D01*
X171863301Y-102468277D01*
X171921501Y-102551396D01*
X171921506Y-102551402D01*
X172088597Y-102718493D01*
X172088603Y-102718498D01*
X172274158Y-102848425D01*
X172317783Y-102903002D01*
X172324977Y-102972500D01*
X172293454Y-103034855D01*
X172274158Y-103051575D01*
X172088597Y-103181505D01*
X171921505Y-103348597D01*
X171785965Y-103542169D01*
X171785964Y-103542171D01*
X171686098Y-103756335D01*
X171686094Y-103756344D01*
X171624938Y-103984586D01*
X171624936Y-103984596D01*
X171604341Y-104219999D01*
X171604341Y-104220000D01*
X171624936Y-104455403D01*
X171624938Y-104455413D01*
X171686094Y-104683655D01*
X171686096Y-104683659D01*
X171686097Y-104683663D01*
X171715754Y-104747262D01*
X171785965Y-104897830D01*
X171785967Y-104897834D01*
X171879734Y-105031746D01*
X171921501Y-105091396D01*
X171921506Y-105091402D01*
X172088597Y-105258493D01*
X172088603Y-105258498D01*
X172274158Y-105388425D01*
X172317783Y-105443002D01*
X172324977Y-105512500D01*
X172293454Y-105574855D01*
X172274158Y-105591575D01*
X172088597Y-105721505D01*
X171921505Y-105888597D01*
X171785965Y-106082169D01*
X171785964Y-106082171D01*
X171686098Y-106296335D01*
X171686094Y-106296344D01*
X171624938Y-106524586D01*
X171624936Y-106524596D01*
X171618852Y-106594141D01*
X171593399Y-106659210D01*
X171536808Y-106700188D01*
X171467046Y-106704066D01*
X171406262Y-106669612D01*
X171387937Y-106645333D01*
X171370173Y-106614566D01*
X171357686Y-106592937D01*
X171231024Y-106452265D01*
X171231023Y-106452264D01*
X171077887Y-106341004D01*
X171077882Y-106341001D01*
X170929122Y-106274768D01*
X170875885Y-106229518D01*
X170855564Y-106162668D01*
X170874610Y-106095445D01*
X170887407Y-106078518D01*
X170900814Y-106063629D01*
X170995460Y-105899697D01*
X171053955Y-105719669D01*
X171073741Y-105531413D01*
X171053955Y-105343157D01*
X170995460Y-105163129D01*
X170900814Y-104999197D01*
X170774152Y-104858525D01*
X170769332Y-104855023D01*
X170621015Y-104747264D01*
X170621010Y-104747261D01*
X170448088Y-104670270D01*
X170448083Y-104670268D01*
X170302282Y-104639278D01*
X170262927Y-104630913D01*
X170073635Y-104630913D01*
X170041178Y-104637811D01*
X169888478Y-104670268D01*
X169888473Y-104670270D01*
X169715551Y-104747261D01*
X169715546Y-104747264D01*
X169562410Y-104858524D01*
X169435747Y-104999198D01*
X169341102Y-105163128D01*
X169341099Y-105163135D01*
X169282608Y-105343153D01*
X169282607Y-105343157D01*
X169262821Y-105531413D01*
X167036499Y-105531413D01*
X167034288Y-105524607D01*
X166939642Y-105360675D01*
X166812980Y-105220003D01*
X166800114Y-105210655D01*
X166659843Y-105108742D01*
X166659838Y-105108739D01*
X166486916Y-105031748D01*
X166486911Y-105031746D01*
X166333775Y-104999197D01*
X166301755Y-104992391D01*
X166112463Y-104992391D01*
X166080443Y-104999197D01*
X165927306Y-105031746D01*
X165927301Y-105031748D01*
X165754379Y-105108739D01*
X165754374Y-105108742D01*
X165601238Y-105220002D01*
X165474575Y-105360676D01*
X165379930Y-105524606D01*
X165379928Y-105524610D01*
X165339124Y-105650192D01*
X165299686Y-105707867D01*
X165246978Y-105733162D01*
X165220201Y-105738854D01*
X165220192Y-105738857D01*
X165047270Y-105815848D01*
X165047265Y-105815851D01*
X164894129Y-105927111D01*
X164767466Y-106067785D01*
X164672821Y-106231715D01*
X164672818Y-106231722D01*
X164617140Y-106403082D01*
X164614326Y-106411744D01*
X164594540Y-106600000D01*
X158040450Y-106600000D01*
X157907424Y-106503351D01*
X157907419Y-106503348D01*
X157734497Y-106426357D01*
X157734492Y-106426355D01*
X157575480Y-106392557D01*
X157549336Y-106387000D01*
X157360044Y-106387000D01*
X157333900Y-106392557D01*
X157174887Y-106426355D01*
X157174882Y-106426357D01*
X157005124Y-106501940D01*
X156935874Y-106511225D01*
X156904252Y-106501940D01*
X156734493Y-106426357D01*
X156734489Y-106426355D01*
X156575477Y-106392557D01*
X156549333Y-106387000D01*
X156360041Y-106387000D01*
X156333897Y-106392557D01*
X156174884Y-106426355D01*
X156174879Y-106426357D01*
X156001957Y-106503348D01*
X156001952Y-106503351D01*
X155848816Y-106614611D01*
X155722153Y-106755285D01*
X155627508Y-106919215D01*
X155627505Y-106919222D01*
X155572598Y-107088211D01*
X155569013Y-107099244D01*
X155549227Y-107287500D01*
X146431390Y-107287500D01*
X146423099Y-107245818D01*
X146404121Y-107200000D01*
X147883049Y-107200000D01*
X147868346Y-107088312D01*
X147805578Y-106854060D01*
X147712779Y-106630021D01*
X147712772Y-106630006D01*
X147591519Y-106419990D01*
X147443889Y-106227594D01*
X147443883Y-106227587D01*
X147272412Y-106056116D01*
X147272405Y-106056110D01*
X147080009Y-105908480D01*
X146869993Y-105787227D01*
X146869978Y-105787220D01*
X146645939Y-105694421D01*
X146411687Y-105631653D01*
X146171264Y-105600001D01*
X146171248Y-105600000D01*
X146000000Y-105600000D01*
X146000000Y-106795879D01*
X145954182Y-106776901D01*
X145818944Y-106750000D01*
X145681056Y-106750000D01*
X145545818Y-106776901D01*
X145500000Y-106795879D01*
X145500000Y-105600000D01*
X145328752Y-105600000D01*
X145328735Y-105600001D01*
X145088312Y-105631653D01*
X144854060Y-105694421D01*
X144630021Y-105787220D01*
X144630006Y-105787227D01*
X144419990Y-105908480D01*
X144227594Y-106056110D01*
X144227587Y-106056116D01*
X144056116Y-106227587D01*
X144056110Y-106227594D01*
X143908480Y-106419990D01*
X143787227Y-106630006D01*
X143787220Y-106630021D01*
X143694421Y-106854060D01*
X143631653Y-107088312D01*
X143616950Y-107200000D01*
X145095879Y-107200000D01*
X145076901Y-107245818D01*
X145050000Y-107381056D01*
X145050000Y-107518944D01*
X145076901Y-107654182D01*
X145095879Y-107700000D01*
X143616950Y-107700000D01*
X142383555Y-107700000D01*
X142400500Y-107571288D01*
X142400500Y-107328712D01*
X142368838Y-107088211D01*
X142306054Y-106853900D01*
X142213224Y-106629788D01*
X142091936Y-106419711D01*
X141997268Y-106296337D01*
X141944266Y-106227263D01*
X141944260Y-106227256D01*
X141772743Y-106055739D01*
X141772736Y-106055733D01*
X141580293Y-105908067D01*
X141580292Y-105908066D01*
X141580289Y-105908064D01*
X141370212Y-105786776D01*
X141370205Y-105786773D01*
X141146104Y-105693947D01*
X140911785Y-105631161D01*
X140671289Y-105599500D01*
X140671288Y-105599500D01*
X139828712Y-105599500D01*
X139828711Y-105599500D01*
X139588214Y-105631161D01*
X139353895Y-105693947D01*
X139129794Y-105786773D01*
X139129785Y-105786777D01*
X138919706Y-105908067D01*
X138727263Y-106055733D01*
X138727256Y-106055739D01*
X138555739Y-106227256D01*
X138555733Y-106227263D01*
X138408067Y-106419706D01*
X138286777Y-106629785D01*
X138286773Y-106629794D01*
X138193947Y-106853895D01*
X138131161Y-107088214D01*
X138099500Y-107328711D01*
X138099500Y-107571288D01*
X121858695Y-107571288D01*
X121885674Y-107488256D01*
X121905460Y-107300000D01*
X121885674Y-107111744D01*
X121827179Y-106931716D01*
X121732533Y-106767784D01*
X121605871Y-106627112D01*
X121605870Y-106627111D01*
X121452734Y-106515851D01*
X121452729Y-106515848D01*
X121279807Y-106438857D01*
X121279802Y-106438855D01*
X121134001Y-106407865D01*
X121094646Y-106399500D01*
X120905354Y-106399500D01*
X120872897Y-106406398D01*
X120720197Y-106438855D01*
X120720192Y-106438857D01*
X120547270Y-106515848D01*
X120547265Y-106515851D01*
X120394129Y-106627111D01*
X120267466Y-106767785D01*
X120172821Y-106931715D01*
X120172818Y-106931722D01*
X120114327Y-107111740D01*
X120114326Y-107111744D01*
X120094540Y-107300000D01*
X117604651Y-107300000D01*
X117802456Y-107263024D01*
X117992637Y-107189348D01*
X118166041Y-107081981D01*
X118316764Y-106944579D01*
X118439673Y-106781821D01*
X118530582Y-106599250D01*
X118586397Y-106403083D01*
X118605215Y-106200000D01*
X118591882Y-106056116D01*
X118586397Y-105996917D01*
X118530582Y-105800750D01*
X118523848Y-105787227D01*
X118446382Y-105631653D01*
X118439673Y-105618179D01*
X118316764Y-105455421D01*
X118316762Y-105455418D01*
X118166041Y-105318019D01*
X118166039Y-105318017D01*
X117992642Y-105210655D01*
X117992635Y-105210651D01*
X117897546Y-105173814D01*
X117802456Y-105136976D01*
X117601976Y-105099500D01*
X117398024Y-105099500D01*
X117197544Y-105136976D01*
X117197541Y-105136976D01*
X117197541Y-105136977D01*
X117007364Y-105210651D01*
X117007357Y-105210655D01*
X116833960Y-105318017D01*
X116833958Y-105318019D01*
X116683237Y-105455418D01*
X116560327Y-105618178D01*
X116469422Y-105800739D01*
X116469417Y-105800752D01*
X116413602Y-105996917D01*
X116394785Y-106199999D01*
X116394785Y-106200000D01*
X116413602Y-106403081D01*
X116438779Y-106491565D01*
X116438193Y-106561432D01*
X116399926Y-106619891D01*
X116336129Y-106648382D01*
X116319513Y-106649500D01*
X116305354Y-106649500D01*
X116259672Y-106659210D01*
X116120199Y-106688855D01*
X116056898Y-106717039D01*
X115987648Y-106726323D01*
X115924371Y-106696695D01*
X115887158Y-106637560D01*
X115882935Y-106614575D01*
X115875063Y-106524592D01*
X115813903Y-106296337D01*
X115714035Y-106082171D01*
X115708425Y-106074158D01*
X115578494Y-105888597D01*
X115411402Y-105721506D01*
X115411396Y-105721501D01*
X115225842Y-105591575D01*
X115182217Y-105536998D01*
X115175023Y-105467500D01*
X115206546Y-105405145D01*
X115225842Y-105388425D01*
X115248026Y-105372891D01*
X115411401Y-105258495D01*
X115578495Y-105091401D01*
X115714035Y-104897830D01*
X115813903Y-104683663D01*
X115875063Y-104455408D01*
X115895659Y-104220000D01*
X115875063Y-103984592D01*
X115813903Y-103756337D01*
X115714035Y-103542171D01*
X115708425Y-103534158D01*
X115578494Y-103348597D01*
X115411402Y-103181506D01*
X115411401Y-103181505D01*
X115225405Y-103051269D01*
X115181781Y-102996692D01*
X115174588Y-102927193D01*
X115206110Y-102864839D01*
X115225405Y-102848119D01*
X115411082Y-102718105D01*
X115578105Y-102551082D01*
X115713600Y-102357578D01*
X115813429Y-102143492D01*
X115813432Y-102143486D01*
X115825084Y-102100000D01*
X150294540Y-102100000D01*
X150314326Y-102288256D01*
X150314327Y-102288259D01*
X150372818Y-102468277D01*
X150372821Y-102468284D01*
X150467467Y-102632216D01*
X150545153Y-102718495D01*
X150594129Y-102772888D01*
X150747265Y-102884148D01*
X150747270Y-102884151D01*
X150920192Y-102961142D01*
X150920197Y-102961144D01*
X151105354Y-103000500D01*
X151105355Y-103000500D01*
X151294644Y-103000500D01*
X151294646Y-103000500D01*
X151479803Y-102961144D01*
X151652730Y-102884151D01*
X151805871Y-102772888D01*
X151932533Y-102632216D01*
X152027179Y-102468284D01*
X152085674Y-102288256D01*
X152105460Y-102100000D01*
X152085674Y-101911744D01*
X152027179Y-101731716D01*
X151932533Y-101567784D01*
X151805871Y-101427112D01*
X151805870Y-101427111D01*
X151652734Y-101315851D01*
X151652729Y-101315848D01*
X151479807Y-101238857D01*
X151479802Y-101238855D01*
X151334001Y-101207865D01*
X151294646Y-101199500D01*
X151105354Y-101199500D01*
X151072897Y-101206398D01*
X150920197Y-101238855D01*
X150920192Y-101238857D01*
X150747270Y-101315848D01*
X150747265Y-101315851D01*
X150594129Y-101427111D01*
X150467466Y-101567785D01*
X150372821Y-101731715D01*
X150372818Y-101731722D01*
X150331947Y-101857511D01*
X150314326Y-101911744D01*
X150294540Y-102100000D01*
X115825084Y-102100000D01*
X115870636Y-101930000D01*
X114973012Y-101930000D01*
X115005925Y-101872993D01*
X115040000Y-101745826D01*
X115040000Y-101614174D01*
X115005925Y-101487007D01*
X114973012Y-101430000D01*
X115870636Y-101430000D01*
X115870635Y-101429999D01*
X115813432Y-101216513D01*
X115813429Y-101216507D01*
X115713600Y-101002422D01*
X115713599Y-101002420D01*
X115578113Y-100808926D01*
X115578108Y-100808920D01*
X115411082Y-100641894D01*
X115224968Y-100511575D01*
X115181344Y-100456998D01*
X115174151Y-100387499D01*
X115205673Y-100325145D01*
X115224968Y-100308425D01*
X115411082Y-100178105D01*
X115578105Y-100011082D01*
X115713600Y-99817578D01*
X115813429Y-99603492D01*
X115813432Y-99603486D01*
X115870636Y-99390000D01*
X114973012Y-99390000D01*
X115005925Y-99332993D01*
X115040000Y-99205826D01*
X115040000Y-99100000D01*
X147394540Y-99100000D01*
X147414326Y-99288256D01*
X147414327Y-99288259D01*
X147472818Y-99468277D01*
X147472821Y-99468284D01*
X147567467Y-99632216D01*
X147694129Y-99772888D01*
X147847265Y-99884148D01*
X147847270Y-99884151D01*
X148020192Y-99961142D01*
X148020197Y-99961144D01*
X148205354Y-100000500D01*
X148205355Y-100000500D01*
X148394644Y-100000500D01*
X148394646Y-100000500D01*
X148579803Y-99961144D01*
X148752730Y-99884151D01*
X148905871Y-99772888D01*
X149032533Y-99632216D01*
X149127179Y-99468284D01*
X149185674Y-99288256D01*
X149205460Y-99100000D01*
X149185674Y-98911744D01*
X149131112Y-98743823D01*
X149127181Y-98731722D01*
X149127180Y-98731721D01*
X149127179Y-98731716D01*
X149032533Y-98567784D01*
X148905871Y-98427112D01*
X148905870Y-98427111D01*
X148752734Y-98315851D01*
X148752729Y-98315848D01*
X148579807Y-98238857D01*
X148579802Y-98238855D01*
X148434001Y-98207865D01*
X148394646Y-98199500D01*
X148205354Y-98199500D01*
X148172897Y-98206398D01*
X148020197Y-98238855D01*
X148020192Y-98238857D01*
X147847270Y-98315848D01*
X147847265Y-98315851D01*
X147694129Y-98427111D01*
X147567466Y-98567785D01*
X147472821Y-98731715D01*
X147472818Y-98731722D01*
X147414327Y-98911740D01*
X147414326Y-98911744D01*
X147394540Y-99100000D01*
X115040000Y-99100000D01*
X115040000Y-99074174D01*
X115005925Y-98947007D01*
X114973012Y-98890000D01*
X115870636Y-98890000D01*
X115870635Y-98889999D01*
X115813432Y-98676513D01*
X115813429Y-98676507D01*
X115713600Y-98462422D01*
X115713599Y-98462420D01*
X115578113Y-98268926D01*
X115578108Y-98268920D01*
X115411078Y-98101890D01*
X115225405Y-97971879D01*
X115181780Y-97917302D01*
X115174588Y-97847804D01*
X115206110Y-97785449D01*
X115225406Y-97768730D01*
X115225842Y-97768425D01*
X115411401Y-97638495D01*
X115578495Y-97471401D01*
X115714035Y-97277830D01*
X115813903Y-97063663D01*
X115875063Y-96835408D01*
X115886909Y-96700015D01*
X158899500Y-96700015D01*
X158910000Y-96802795D01*
X158910001Y-96802796D01*
X158965186Y-96969335D01*
X158965187Y-96969337D01*
X159057286Y-97118651D01*
X159057289Y-97118655D01*
X159181344Y-97242710D01*
X159181348Y-97242713D01*
X159330662Y-97334812D01*
X159330664Y-97334813D01*
X159330666Y-97334814D01*
X159497203Y-97389999D01*
X159599992Y-97400500D01*
X159599997Y-97400500D01*
X161900003Y-97400500D01*
X161900008Y-97400500D01*
X162002797Y-97389999D01*
X162169334Y-97334814D01*
X162318655Y-97242711D01*
X162442711Y-97118655D01*
X162534814Y-96969334D01*
X162589999Y-96802797D01*
X162600500Y-96700008D01*
X162600500Y-95600000D01*
X163594540Y-95600000D01*
X163614326Y-95788256D01*
X163614327Y-95788259D01*
X163672818Y-95968277D01*
X163672821Y-95968284D01*
X163767467Y-96132216D01*
X163857506Y-96232214D01*
X163894129Y-96272888D01*
X164047265Y-96384148D01*
X164047270Y-96384151D01*
X164220192Y-96461142D01*
X164220197Y-96461144D01*
X164405354Y-96500500D01*
X164405355Y-96500500D01*
X164594644Y-96500500D01*
X164594646Y-96500500D01*
X164779803Y-96461144D01*
X164952730Y-96384151D01*
X165105871Y-96272888D01*
X165232533Y-96132216D01*
X165327179Y-95968284D01*
X165385674Y-95788256D01*
X165405460Y-95600000D01*
X165385674Y-95411744D01*
X165331112Y-95243823D01*
X165327181Y-95231722D01*
X165327180Y-95231721D01*
X165327179Y-95231716D01*
X165232533Y-95067784D01*
X165105871Y-94927112D01*
X165090369Y-94915849D01*
X164952734Y-94815851D01*
X164952729Y-94815848D01*
X164779807Y-94738857D01*
X164779802Y-94738855D01*
X164634001Y-94707865D01*
X164594646Y-94699500D01*
X164405354Y-94699500D01*
X164372897Y-94706398D01*
X164220197Y-94738855D01*
X164220192Y-94738857D01*
X164047270Y-94815848D01*
X164047265Y-94815851D01*
X163894129Y-94927111D01*
X163767466Y-95067785D01*
X163672821Y-95231715D01*
X163672818Y-95231722D01*
X163614327Y-95411740D01*
X163614326Y-95411744D01*
X163594540Y-95600000D01*
X162600500Y-95600000D01*
X162600500Y-93799992D01*
X162589999Y-93697203D01*
X162534814Y-93530666D01*
X162465186Y-93417783D01*
X162442713Y-93381348D01*
X162442710Y-93381344D01*
X162318655Y-93257289D01*
X162318651Y-93257286D01*
X162169337Y-93165187D01*
X162169335Y-93165186D01*
X162086065Y-93137593D01*
X162002797Y-93110001D01*
X162002795Y-93110000D01*
X161900015Y-93099500D01*
X161900008Y-93099500D01*
X159599992Y-93099500D01*
X159599984Y-93099500D01*
X159497204Y-93110000D01*
X159497203Y-93110001D01*
X159330664Y-93165186D01*
X159330662Y-93165187D01*
X159181348Y-93257286D01*
X159181344Y-93257289D01*
X159057289Y-93381344D01*
X159057286Y-93381348D01*
X158965187Y-93530662D01*
X158965186Y-93530664D01*
X158910001Y-93697203D01*
X158910000Y-93697204D01*
X158899500Y-93799984D01*
X158899500Y-96700015D01*
X115886909Y-96700015D01*
X115895659Y-96600000D01*
X115875063Y-96364592D01*
X115813903Y-96136337D01*
X115714035Y-95922171D01*
X115708425Y-95914158D01*
X115578494Y-95728597D01*
X115549897Y-95700000D01*
X156294540Y-95700000D01*
X156314326Y-95888256D01*
X156314327Y-95888259D01*
X156372818Y-96068277D01*
X156372821Y-96068284D01*
X156467467Y-96232216D01*
X156586654Y-96364586D01*
X156594129Y-96372888D01*
X156747265Y-96484148D01*
X156747270Y-96484151D01*
X156920192Y-96561142D01*
X156920197Y-96561144D01*
X157105354Y-96600500D01*
X157105355Y-96600500D01*
X157294644Y-96600500D01*
X157294646Y-96600500D01*
X157479803Y-96561144D01*
X157652730Y-96484151D01*
X157805871Y-96372888D01*
X157932533Y-96232216D01*
X158027179Y-96068284D01*
X158085674Y-95888256D01*
X158105460Y-95700000D01*
X158085674Y-95511744D01*
X158027179Y-95331716D01*
X157932533Y-95167784D01*
X157805871Y-95027112D01*
X157805870Y-95027111D01*
X157652734Y-94915851D01*
X157652729Y-94915848D01*
X157479807Y-94838857D01*
X157479802Y-94838855D01*
X157334001Y-94807865D01*
X157294646Y-94799500D01*
X157105354Y-94799500D01*
X157072897Y-94806398D01*
X156920197Y-94838855D01*
X156920192Y-94838857D01*
X156747270Y-94915848D01*
X156747265Y-94915851D01*
X156594129Y-95027111D01*
X156467466Y-95167785D01*
X156372821Y-95331715D01*
X156372818Y-95331722D01*
X156314327Y-95511740D01*
X156314326Y-95511744D01*
X156294540Y-95700000D01*
X115549897Y-95700000D01*
X115411402Y-95561506D01*
X115411396Y-95561501D01*
X115225842Y-95431575D01*
X115182217Y-95376998D01*
X115175023Y-95307500D01*
X115206546Y-95245145D01*
X115225842Y-95228425D01*
X115248026Y-95212891D01*
X115411401Y-95098495D01*
X115578495Y-94931401D01*
X115714035Y-94737830D01*
X115813903Y-94523663D01*
X115875063Y-94295408D01*
X115895659Y-94060000D01*
X115875063Y-93824592D01*
X115813903Y-93596337D01*
X115714035Y-93382171D01*
X115708425Y-93374158D01*
X115578494Y-93188597D01*
X115411402Y-93021506D01*
X115411396Y-93021501D01*
X115225842Y-92891575D01*
X115182217Y-92836998D01*
X115175023Y-92767500D01*
X115206546Y-92705145D01*
X115225842Y-92688425D01*
X115306822Y-92631722D01*
X115411401Y-92558495D01*
X115519911Y-92449985D01*
X138400000Y-92449985D01*
X138410493Y-92552689D01*
X138410494Y-92552696D01*
X138465641Y-92719118D01*
X138465643Y-92719123D01*
X138557684Y-92868344D01*
X138681655Y-92992315D01*
X138830876Y-93084356D01*
X138830881Y-93084358D01*
X138997303Y-93139505D01*
X138997310Y-93139506D01*
X139100014Y-93149999D01*
X139100027Y-93150000D01*
X140000000Y-93150000D01*
X140000000Y-91654120D01*
X140045818Y-91673099D01*
X140181056Y-91700000D01*
X140318944Y-91700000D01*
X140454182Y-91673099D01*
X140500000Y-91654120D01*
X140500000Y-93150000D01*
X141399973Y-93150000D01*
X141399985Y-93149999D01*
X141502689Y-93139506D01*
X141502696Y-93139505D01*
X141669118Y-93084358D01*
X141669123Y-93084356D01*
X141805885Y-93000000D01*
X151844540Y-93000000D01*
X151864326Y-93188256D01*
X151864327Y-93188259D01*
X151922818Y-93368277D01*
X151922821Y-93368284D01*
X152017467Y-93532216D01*
X152144129Y-93672888D01*
X152297265Y-93784148D01*
X152297270Y-93784151D01*
X152470192Y-93861142D01*
X152470197Y-93861144D01*
X152655354Y-93900500D01*
X152655355Y-93900500D01*
X152844644Y-93900500D01*
X152844646Y-93900500D01*
X153029803Y-93861144D01*
X153202730Y-93784151D01*
X153355871Y-93672888D01*
X153482533Y-93532216D01*
X153577179Y-93368284D01*
X153635674Y-93188256D01*
X153655460Y-93000000D01*
X153635674Y-92811744D01*
X153577179Y-92631716D01*
X153482533Y-92467784D01*
X153355871Y-92327112D01*
X153355870Y-92327111D01*
X153202734Y-92215851D01*
X153202729Y-92215848D01*
X153029807Y-92138857D01*
X153029802Y-92138855D01*
X152884001Y-92107865D01*
X152844646Y-92099500D01*
X152655354Y-92099500D01*
X152622897Y-92106398D01*
X152470197Y-92138855D01*
X152470192Y-92138857D01*
X152297270Y-92215848D01*
X152297265Y-92215851D01*
X152144129Y-92327111D01*
X152017466Y-92467785D01*
X151922821Y-92631715D01*
X151922818Y-92631722D01*
X151871391Y-92790000D01*
X151864326Y-92811744D01*
X151844540Y-93000000D01*
X141805885Y-93000000D01*
X141818344Y-92992315D01*
X141942315Y-92868344D01*
X142034356Y-92719123D01*
X142034358Y-92719118D01*
X142089505Y-92552696D01*
X142089506Y-92552689D01*
X142099999Y-92449985D01*
X142100000Y-92449972D01*
X142100000Y-91900000D01*
X156294540Y-91900000D01*
X156314326Y-92088256D01*
X156314327Y-92088259D01*
X156372818Y-92268277D01*
X156372821Y-92268284D01*
X156467467Y-92432216D01*
X156581172Y-92558498D01*
X156594129Y-92572888D01*
X156747265Y-92684148D01*
X156747270Y-92684151D01*
X156920192Y-92761142D01*
X156920197Y-92761144D01*
X157105354Y-92800500D01*
X157105355Y-92800500D01*
X157294644Y-92800500D01*
X157294646Y-92800500D01*
X157479803Y-92761144D01*
X157652730Y-92684151D01*
X157805871Y-92572888D01*
X157932533Y-92432216D01*
X158027179Y-92268284D01*
X158085674Y-92088256D01*
X158105460Y-91900000D01*
X158085674Y-91711744D01*
X158027179Y-91531716D01*
X157932533Y-91367784D01*
X157805871Y-91227112D01*
X157805870Y-91227111D01*
X157652734Y-91115851D01*
X157652729Y-91115848D01*
X157479807Y-91038857D01*
X157479802Y-91038855D01*
X157334001Y-91007865D01*
X157294646Y-90999500D01*
X157105354Y-90999500D01*
X157072897Y-91006398D01*
X156920197Y-91038855D01*
X156920192Y-91038857D01*
X156747270Y-91115848D01*
X156747265Y-91115851D01*
X156594129Y-91227111D01*
X156467466Y-91367785D01*
X156372821Y-91531715D01*
X156372818Y-91531722D01*
X156318142Y-91700000D01*
X156314326Y-91711744D01*
X156294540Y-91900000D01*
X142100000Y-91900000D01*
X142100000Y-91250000D01*
X140904121Y-91250000D01*
X140923099Y-91204182D01*
X140950000Y-91068944D01*
X140950000Y-90931056D01*
X140923099Y-90795818D01*
X140904121Y-90750000D01*
X142100000Y-90750000D01*
X142100000Y-90171288D01*
X158899500Y-90171288D01*
X158931161Y-90411785D01*
X158993947Y-90646104D01*
X159086773Y-90870205D01*
X159086777Y-90870214D01*
X159108974Y-90908661D01*
X159208064Y-91080289D01*
X159208066Y-91080292D01*
X159208067Y-91080293D01*
X159355733Y-91272736D01*
X159355739Y-91272743D01*
X159527256Y-91444260D01*
X159527262Y-91444265D01*
X159719711Y-91591936D01*
X159929788Y-91713224D01*
X160153900Y-91806054D01*
X160388211Y-91868838D01*
X160568586Y-91892584D01*
X160628711Y-91900500D01*
X160628712Y-91900500D01*
X160871289Y-91900500D01*
X160875086Y-91900000D01*
X163394540Y-91900000D01*
X163414326Y-92088256D01*
X163414327Y-92088259D01*
X163472818Y-92268277D01*
X163472821Y-92268284D01*
X163567467Y-92432216D01*
X163681172Y-92558498D01*
X163694129Y-92572888D01*
X163847265Y-92684148D01*
X163847270Y-92684151D01*
X164020192Y-92761142D01*
X164020197Y-92761144D01*
X164205354Y-92800500D01*
X164205355Y-92800500D01*
X164394644Y-92800500D01*
X164394646Y-92800500D01*
X164579803Y-92761144D01*
X164752730Y-92684151D01*
X164905871Y-92572888D01*
X165032533Y-92432216D01*
X165127179Y-92268284D01*
X165185674Y-92088256D01*
X165205460Y-91900000D01*
X165185674Y-91711744D01*
X165127179Y-91531716D01*
X165032533Y-91367784D01*
X164905871Y-91227112D01*
X164905870Y-91227111D01*
X164752734Y-91115851D01*
X164752729Y-91115848D01*
X164579807Y-91038857D01*
X164579802Y-91038855D01*
X164434001Y-91007865D01*
X164394646Y-90999500D01*
X164205354Y-90999500D01*
X164172897Y-91006398D01*
X164020197Y-91038855D01*
X164020192Y-91038857D01*
X163847270Y-91115848D01*
X163847265Y-91115851D01*
X163694129Y-91227111D01*
X163567466Y-91367785D01*
X163472821Y-91531715D01*
X163472818Y-91531722D01*
X163418142Y-91700000D01*
X163414326Y-91711744D01*
X163394540Y-91900000D01*
X160875086Y-91900000D01*
X160919388Y-91894167D01*
X161111789Y-91868838D01*
X161346100Y-91806054D01*
X161570212Y-91713224D01*
X161780289Y-91591936D01*
X161972738Y-91444265D01*
X162144265Y-91272738D01*
X162291936Y-91080289D01*
X162413224Y-90870212D01*
X162506054Y-90646100D01*
X162568838Y-90411789D01*
X162600500Y-90171288D01*
X162600500Y-89328712D01*
X162568838Y-89088211D01*
X162506054Y-88853900D01*
X162413224Y-88629788D01*
X162291936Y-88419711D01*
X162144265Y-88227262D01*
X162144260Y-88227256D01*
X161972743Y-88055739D01*
X161972736Y-88055733D01*
X161780293Y-87908067D01*
X161780292Y-87908066D01*
X161780289Y-87908064D01*
X161570212Y-87786776D01*
X161570205Y-87786773D01*
X161346104Y-87693947D01*
X161183959Y-87650500D01*
X161111789Y-87631162D01*
X161111788Y-87631161D01*
X161111785Y-87631161D01*
X160871289Y-87599500D01*
X160871288Y-87599500D01*
X160628712Y-87599500D01*
X160628711Y-87599500D01*
X160388214Y-87631161D01*
X160153895Y-87693947D01*
X159929794Y-87786773D01*
X159929785Y-87786777D01*
X159719706Y-87908067D01*
X159527263Y-88055733D01*
X159527256Y-88055739D01*
X159355739Y-88227256D01*
X159355733Y-88227263D01*
X159208067Y-88419706D01*
X159086777Y-88629785D01*
X159086773Y-88629794D01*
X158993947Y-88853895D01*
X158931161Y-89088214D01*
X158899500Y-89328711D01*
X158899500Y-90171288D01*
X142100000Y-90171288D01*
X142100000Y-89550027D01*
X142099999Y-89550014D01*
X142089506Y-89447310D01*
X142089505Y-89447303D01*
X142034358Y-89280881D01*
X142034356Y-89280876D01*
X141942315Y-89131655D01*
X141818344Y-89007684D01*
X141669123Y-88915643D01*
X141669118Y-88915641D01*
X141621917Y-88900000D01*
X142494540Y-88900000D01*
X142514326Y-89088256D01*
X142514327Y-89088259D01*
X142572818Y-89268277D01*
X142572821Y-89268284D01*
X142667467Y-89432216D01*
X142714227Y-89484148D01*
X142794129Y-89572888D01*
X142947265Y-89684148D01*
X142947270Y-89684151D01*
X143120192Y-89761142D01*
X143120197Y-89761144D01*
X143305354Y-89800500D01*
X143305355Y-89800500D01*
X143494644Y-89800500D01*
X143494646Y-89800500D01*
X143679803Y-89761144D01*
X143852730Y-89684151D01*
X144005871Y-89572888D01*
X144132533Y-89432216D01*
X144227179Y-89268284D01*
X144285674Y-89088256D01*
X144305460Y-88900000D01*
X144285674Y-88711744D01*
X144281858Y-88700000D01*
X147494540Y-88700000D01*
X147514326Y-88888256D01*
X147514327Y-88888259D01*
X147572818Y-89068277D01*
X147572821Y-89068284D01*
X147667467Y-89232216D01*
X147754352Y-89328711D01*
X147794129Y-89372888D01*
X147947265Y-89484148D01*
X147947270Y-89484151D01*
X148120192Y-89561142D01*
X148120197Y-89561144D01*
X148305354Y-89600500D01*
X148305355Y-89600500D01*
X148494644Y-89600500D01*
X148494646Y-89600500D01*
X148679803Y-89561144D01*
X148852730Y-89484151D01*
X149005871Y-89372888D01*
X149132533Y-89232216D01*
X149227179Y-89068284D01*
X149285674Y-88888256D01*
X149305460Y-88700000D01*
X149285674Y-88511744D01*
X149227179Y-88331716D01*
X149132533Y-88167784D01*
X149005871Y-88027112D01*
X149005870Y-88027111D01*
X148852734Y-87915851D01*
X148852729Y-87915848D01*
X148679807Y-87838857D01*
X148679802Y-87838855D01*
X148534001Y-87807865D01*
X148494646Y-87799500D01*
X148305354Y-87799500D01*
X148274938Y-87805965D01*
X148120197Y-87838855D01*
X148120192Y-87838857D01*
X147947270Y-87915848D01*
X147947265Y-87915851D01*
X147794129Y-88027111D01*
X147667466Y-88167785D01*
X147572821Y-88331715D01*
X147572818Y-88331722D01*
X147515553Y-88507967D01*
X147514326Y-88511744D01*
X147494540Y-88700000D01*
X144281858Y-88700000D01*
X144227179Y-88531716D01*
X144132533Y-88367784D01*
X144005871Y-88227112D01*
X144005870Y-88227111D01*
X143852734Y-88115851D01*
X143852729Y-88115848D01*
X143679807Y-88038857D01*
X143679802Y-88038855D01*
X143534001Y-88007865D01*
X143494646Y-87999500D01*
X143305354Y-87999500D01*
X143272897Y-88006398D01*
X143120197Y-88038855D01*
X143120192Y-88038857D01*
X142947270Y-88115848D01*
X142947265Y-88115851D01*
X142794129Y-88227111D01*
X142667466Y-88367785D01*
X142572821Y-88531715D01*
X142572818Y-88531722D01*
X142540242Y-88631982D01*
X142514326Y-88711744D01*
X142494540Y-88900000D01*
X141621917Y-88900000D01*
X141502696Y-88860494D01*
X141502689Y-88860493D01*
X141399985Y-88850000D01*
X140500000Y-88850000D01*
X140500000Y-90345879D01*
X140454182Y-90326901D01*
X140318944Y-90300000D01*
X140181056Y-90300000D01*
X140045818Y-90326901D01*
X140000000Y-90345879D01*
X140000000Y-88850000D01*
X139100014Y-88850000D01*
X138997310Y-88860493D01*
X138997303Y-88860494D01*
X138830881Y-88915641D01*
X138830876Y-88915643D01*
X138681655Y-89007684D01*
X138557684Y-89131655D01*
X138465643Y-89280876D01*
X138465641Y-89280881D01*
X138410494Y-89447303D01*
X138410493Y-89447310D01*
X138400000Y-89550014D01*
X138400000Y-90750000D01*
X139595879Y-90750000D01*
X139576901Y-90795818D01*
X139550000Y-90931056D01*
X139550000Y-91068944D01*
X139576901Y-91204182D01*
X139595879Y-91250000D01*
X138400000Y-91250000D01*
X138400000Y-92449985D01*
X115519911Y-92449985D01*
X115578495Y-92391401D01*
X115714035Y-92197830D01*
X115813903Y-91983663D01*
X115875063Y-91755408D01*
X115895659Y-91520000D01*
X115875063Y-91284592D01*
X115852397Y-91200000D01*
X123594540Y-91200000D01*
X123614326Y-91388256D01*
X123614327Y-91388259D01*
X123672818Y-91568277D01*
X123672821Y-91568284D01*
X123767467Y-91732216D01*
X123890482Y-91868838D01*
X123894129Y-91872888D01*
X124047265Y-91984148D01*
X124047270Y-91984151D01*
X124220192Y-92061142D01*
X124220197Y-92061144D01*
X124405354Y-92100500D01*
X124405355Y-92100500D01*
X124594644Y-92100500D01*
X124594646Y-92100500D01*
X124779803Y-92061144D01*
X124952730Y-91984151D01*
X125105871Y-91872888D01*
X125232533Y-91732216D01*
X125327179Y-91568284D01*
X125385674Y-91388256D01*
X125405460Y-91200000D01*
X125385674Y-91011744D01*
X125327179Y-90831716D01*
X125265567Y-90725000D01*
X127694540Y-90725000D01*
X127714326Y-90913256D01*
X127714327Y-90913259D01*
X127772818Y-91093277D01*
X127772821Y-91093284D01*
X127867467Y-91257216D01*
X127967023Y-91367784D01*
X127994129Y-91397888D01*
X128147265Y-91509148D01*
X128147270Y-91509151D01*
X128320192Y-91586142D01*
X128320197Y-91586144D01*
X128505354Y-91625500D01*
X128505355Y-91625500D01*
X128694644Y-91625500D01*
X128694646Y-91625500D01*
X128879803Y-91586144D01*
X129052730Y-91509151D01*
X129205871Y-91397888D01*
X129332533Y-91257216D01*
X129427179Y-91093284D01*
X129485674Y-90913256D01*
X129505460Y-90725000D01*
X129485674Y-90536744D01*
X129427179Y-90356716D01*
X129332533Y-90192784D01*
X129205871Y-90052112D01*
X129205870Y-90052111D01*
X129052734Y-89940851D01*
X129052729Y-89940848D01*
X128879807Y-89863857D01*
X128879802Y-89863855D01*
X128734001Y-89832865D01*
X128694646Y-89824500D01*
X128505354Y-89824500D01*
X128472897Y-89831398D01*
X128320197Y-89863855D01*
X128320192Y-89863857D01*
X128147270Y-89940848D01*
X128147265Y-89940851D01*
X127994129Y-90052111D01*
X127867466Y-90192785D01*
X127772821Y-90356715D01*
X127772818Y-90356722D01*
X127714327Y-90536740D01*
X127714326Y-90536744D01*
X127694540Y-90725000D01*
X125265567Y-90725000D01*
X125232533Y-90667784D01*
X125105871Y-90527112D01*
X125105870Y-90527111D01*
X124952734Y-90415851D01*
X124952729Y-90415848D01*
X124779807Y-90338857D01*
X124779802Y-90338855D01*
X124634001Y-90307865D01*
X124594646Y-90299500D01*
X124405354Y-90299500D01*
X124372897Y-90306398D01*
X124220197Y-90338855D01*
X124220192Y-90338857D01*
X124047270Y-90415848D01*
X124047265Y-90415851D01*
X123894129Y-90527111D01*
X123767466Y-90667785D01*
X123672821Y-90831715D01*
X123672818Y-90831722D01*
X123640543Y-90931056D01*
X123614326Y-91011744D01*
X123594540Y-91200000D01*
X115852397Y-91200000D01*
X115813903Y-91056337D01*
X115714035Y-90842171D01*
X115708425Y-90834158D01*
X115578494Y-90648597D01*
X115411402Y-90481506D01*
X115411396Y-90481501D01*
X115225842Y-90351575D01*
X115182217Y-90296998D01*
X115175023Y-90227500D01*
X115206546Y-90165145D01*
X115225842Y-90148425D01*
X115248026Y-90132891D01*
X115411401Y-90018495D01*
X115578495Y-89851401D01*
X115714035Y-89657830D01*
X115813903Y-89443663D01*
X115875063Y-89215408D01*
X115895659Y-88980000D01*
X115875063Y-88744592D01*
X115818024Y-88531716D01*
X115813905Y-88516344D01*
X115813904Y-88516343D01*
X115813903Y-88516337D01*
X115714035Y-88302171D01*
X115708425Y-88294158D01*
X115578494Y-88108597D01*
X115411402Y-87941506D01*
X115411396Y-87941501D01*
X115225842Y-87811575D01*
X115182217Y-87756998D01*
X115181493Y-87750000D01*
X151644785Y-87750000D01*
X151663602Y-87953082D01*
X151719417Y-88149247D01*
X151719422Y-88149260D01*
X151810327Y-88331821D01*
X151933237Y-88494581D01*
X152083958Y-88631980D01*
X152083960Y-88631982D01*
X152183141Y-88693392D01*
X152257363Y-88739348D01*
X152447544Y-88813024D01*
X152648024Y-88850500D01*
X152648026Y-88850500D01*
X152851974Y-88850500D01*
X152851976Y-88850500D01*
X153052456Y-88813024D01*
X153242637Y-88739348D01*
X153416041Y-88631981D01*
X153566764Y-88494579D01*
X153689673Y-88331821D01*
X153780582Y-88149250D01*
X153836397Y-87953083D01*
X153855215Y-87750000D01*
X153853593Y-87732500D01*
X153836397Y-87546917D01*
X153816818Y-87478105D01*
X153780582Y-87350750D01*
X153776193Y-87341936D01*
X153736272Y-87261764D01*
X153689673Y-87168179D01*
X153566764Y-87005421D01*
X153566762Y-87005418D01*
X153416041Y-86868019D01*
X153416039Y-86868017D01*
X153242642Y-86760655D01*
X153242635Y-86760651D01*
X153147546Y-86723814D01*
X153052456Y-86686976D01*
X152851976Y-86649500D01*
X152648024Y-86649500D01*
X152447544Y-86686976D01*
X152447541Y-86686976D01*
X152447541Y-86686977D01*
X152257364Y-86760651D01*
X152257357Y-86760655D01*
X152083960Y-86868017D01*
X152083958Y-86868019D01*
X151933237Y-87005418D01*
X151810327Y-87168178D01*
X151719422Y-87350739D01*
X151719417Y-87350752D01*
X151663602Y-87546917D01*
X151644785Y-87749999D01*
X151644785Y-87750000D01*
X115181493Y-87750000D01*
X115175023Y-87687500D01*
X115206546Y-87625145D01*
X115225842Y-87608425D01*
X115313684Y-87546917D01*
X115411401Y-87478495D01*
X115578495Y-87311401D01*
X115714035Y-87117830D01*
X115813903Y-86903663D01*
X115875063Y-86675408D01*
X115895659Y-86440000D01*
X115875063Y-86204592D01*
X115813903Y-85976337D01*
X115788233Y-85921288D01*
X138399500Y-85921288D01*
X138431161Y-86161785D01*
X138493947Y-86396104D01*
X138586773Y-86620205D01*
X138586776Y-86620212D01*
X138708064Y-86830289D01*
X138708066Y-86830292D01*
X138708067Y-86830293D01*
X138855733Y-87022736D01*
X138855739Y-87022743D01*
X139027256Y-87194260D01*
X139027262Y-87194265D01*
X139219711Y-87341936D01*
X139429788Y-87463224D01*
X139653900Y-87556054D01*
X139888211Y-87618838D01*
X140068586Y-87642584D01*
X140128711Y-87650500D01*
X140128712Y-87650500D01*
X140371289Y-87650500D01*
X140419388Y-87644167D01*
X140611789Y-87618838D01*
X140846100Y-87556054D01*
X141070212Y-87463224D01*
X141280289Y-87341936D01*
X141472738Y-87194265D01*
X141644265Y-87022738D01*
X141791936Y-86830289D01*
X141913224Y-86620212D01*
X142006054Y-86396100D01*
X142068838Y-86161789D01*
X142100500Y-85921288D01*
X142100500Y-85300000D01*
X152294540Y-85300000D01*
X152314326Y-85488256D01*
X152314327Y-85488259D01*
X152372818Y-85668277D01*
X152372821Y-85668284D01*
X152467467Y-85832216D01*
X152589698Y-85967967D01*
X152594129Y-85972888D01*
X152747265Y-86084148D01*
X152747270Y-86084151D01*
X152920192Y-86161142D01*
X152920197Y-86161144D01*
X153105354Y-86200500D01*
X153105355Y-86200500D01*
X153294644Y-86200500D01*
X153294646Y-86200500D01*
X153479803Y-86161144D01*
X153652730Y-86084151D01*
X153805871Y-85972888D01*
X153932533Y-85832216D01*
X154027179Y-85668284D01*
X154085674Y-85488256D01*
X154105460Y-85300000D01*
X154085674Y-85111744D01*
X154027179Y-84931716D01*
X153932533Y-84767784D01*
X153805871Y-84627112D01*
X153805870Y-84627111D01*
X153652734Y-84515851D01*
X153652729Y-84515848D01*
X153479807Y-84438857D01*
X153479802Y-84438855D01*
X153334001Y-84407865D01*
X153294646Y-84399500D01*
X153105354Y-84399500D01*
X153072897Y-84406398D01*
X152920197Y-84438855D01*
X152920192Y-84438857D01*
X152747270Y-84515848D01*
X152747265Y-84515851D01*
X152594129Y-84627111D01*
X152467466Y-84767785D01*
X152372821Y-84931715D01*
X152372818Y-84931722D01*
X152314327Y-85111740D01*
X152314326Y-85111744D01*
X152294540Y-85300000D01*
X142100500Y-85300000D01*
X142100500Y-85078712D01*
X142099105Y-85068119D01*
X142068838Y-84838214D01*
X142068838Y-84838211D01*
X142006054Y-84603900D01*
X141913224Y-84379788D01*
X141791936Y-84169711D01*
X141644265Y-83977262D01*
X141644260Y-83977256D01*
X141472743Y-83805739D01*
X141472736Y-83805733D01*
X141280293Y-83658067D01*
X141280292Y-83658066D01*
X141280289Y-83658064D01*
X141070212Y-83536776D01*
X140981427Y-83500000D01*
X158894540Y-83500000D01*
X158914326Y-83688256D01*
X158914327Y-83688259D01*
X158972818Y-83868277D01*
X158972821Y-83868284D01*
X159067467Y-84032216D01*
X159191264Y-84169706D01*
X159194129Y-84172888D01*
X159347265Y-84284148D01*
X159347270Y-84284151D01*
X159520192Y-84361142D01*
X159520197Y-84361144D01*
X159705354Y-84400500D01*
X159705355Y-84400500D01*
X159894644Y-84400500D01*
X159894646Y-84400500D01*
X160079803Y-84361144D01*
X160252730Y-84284151D01*
X160405871Y-84172888D01*
X160532533Y-84032216D01*
X160627179Y-83868284D01*
X160685674Y-83688256D01*
X160705460Y-83500000D01*
X161594540Y-83500000D01*
X161614326Y-83688256D01*
X161614327Y-83688259D01*
X161672818Y-83868277D01*
X161672821Y-83868284D01*
X161767467Y-84032216D01*
X161891264Y-84169706D01*
X161894129Y-84172888D01*
X162047265Y-84284148D01*
X162047270Y-84284151D01*
X162220192Y-84361142D01*
X162220197Y-84361144D01*
X162405354Y-84400500D01*
X162405355Y-84400500D01*
X162594644Y-84400500D01*
X162594646Y-84400500D01*
X162779803Y-84361144D01*
X162952730Y-84284151D01*
X163105871Y-84172888D01*
X163232533Y-84032216D01*
X163327179Y-83868284D01*
X163385674Y-83688256D01*
X163405460Y-83500000D01*
X164394540Y-83500000D01*
X164414326Y-83688256D01*
X164414327Y-83688259D01*
X164472818Y-83868277D01*
X164472821Y-83868284D01*
X164567467Y-84032216D01*
X164691264Y-84169706D01*
X164694129Y-84172888D01*
X164847265Y-84284148D01*
X164847270Y-84284151D01*
X165020192Y-84361142D01*
X165020197Y-84361144D01*
X165205354Y-84400500D01*
X165205355Y-84400500D01*
X165394644Y-84400500D01*
X165394646Y-84400500D01*
X165579803Y-84361144D01*
X165752730Y-84284151D01*
X165905871Y-84172888D01*
X166032533Y-84032216D01*
X166127179Y-83868284D01*
X166185674Y-83688256D01*
X166205460Y-83500000D01*
X167094540Y-83500000D01*
X167114326Y-83688256D01*
X167114327Y-83688259D01*
X167172818Y-83868277D01*
X167172821Y-83868284D01*
X167267467Y-84032216D01*
X167391264Y-84169706D01*
X167394129Y-84172888D01*
X167547265Y-84284148D01*
X167547270Y-84284151D01*
X167720192Y-84361142D01*
X167720197Y-84361144D01*
X167905354Y-84400500D01*
X167905355Y-84400500D01*
X168094644Y-84400500D01*
X168094646Y-84400500D01*
X168279803Y-84361144D01*
X168452730Y-84284151D01*
X168605871Y-84172888D01*
X168732533Y-84032216D01*
X168827179Y-83868284D01*
X168885674Y-83688256D01*
X168905460Y-83500000D01*
X168885674Y-83311744D01*
X168827179Y-83131716D01*
X168732533Y-82967784D01*
X168605871Y-82827112D01*
X168605870Y-82827111D01*
X168452734Y-82715851D01*
X168452729Y-82715848D01*
X168279807Y-82638857D01*
X168279802Y-82638855D01*
X168132283Y-82607500D01*
X168094646Y-82599500D01*
X167905354Y-82599500D01*
X167872897Y-82606398D01*
X167720197Y-82638855D01*
X167720192Y-82638857D01*
X167547270Y-82715848D01*
X167547265Y-82715851D01*
X167394129Y-82827111D01*
X167267466Y-82967785D01*
X167172821Y-83131715D01*
X167172818Y-83131722D01*
X167129380Y-83265412D01*
X167114326Y-83311744D01*
X167094540Y-83500000D01*
X166205460Y-83500000D01*
X166185674Y-83311744D01*
X166127179Y-83131716D01*
X166032533Y-82967784D01*
X165905871Y-82827112D01*
X165905870Y-82827111D01*
X165752734Y-82715851D01*
X165752729Y-82715848D01*
X165579807Y-82638857D01*
X165579802Y-82638855D01*
X165432283Y-82607500D01*
X165394646Y-82599500D01*
X165205354Y-82599500D01*
X165172897Y-82606398D01*
X165020197Y-82638855D01*
X165020192Y-82638857D01*
X164847270Y-82715848D01*
X164847265Y-82715851D01*
X164694129Y-82827111D01*
X164567466Y-82967785D01*
X164472821Y-83131715D01*
X164472818Y-83131722D01*
X164429380Y-83265412D01*
X164414326Y-83311744D01*
X164394540Y-83500000D01*
X163405460Y-83500000D01*
X163385674Y-83311744D01*
X163327179Y-83131716D01*
X163232533Y-82967784D01*
X163105871Y-82827112D01*
X163105870Y-82827111D01*
X162952734Y-82715851D01*
X162952729Y-82715848D01*
X162779807Y-82638857D01*
X162779802Y-82638855D01*
X162632283Y-82607500D01*
X162594646Y-82599500D01*
X162405354Y-82599500D01*
X162372897Y-82606398D01*
X162220197Y-82638855D01*
X162220192Y-82638857D01*
X162047270Y-82715848D01*
X162047265Y-82715851D01*
X161894129Y-82827111D01*
X161767466Y-82967785D01*
X161672821Y-83131715D01*
X161672818Y-83131722D01*
X161629380Y-83265412D01*
X161614326Y-83311744D01*
X161594540Y-83500000D01*
X160705460Y-83500000D01*
X160685674Y-83311744D01*
X160627179Y-83131716D01*
X160532533Y-82967784D01*
X160405871Y-82827112D01*
X160405870Y-82827111D01*
X160252734Y-82715851D01*
X160252729Y-82715848D01*
X160079807Y-82638857D01*
X160079802Y-82638855D01*
X159932283Y-82607500D01*
X159894646Y-82599500D01*
X159705354Y-82599500D01*
X159672897Y-82606398D01*
X159520197Y-82638855D01*
X159520192Y-82638857D01*
X159347270Y-82715848D01*
X159347265Y-82715851D01*
X159194129Y-82827111D01*
X159067466Y-82967785D01*
X158972821Y-83131715D01*
X158972818Y-83131722D01*
X158929380Y-83265412D01*
X158914326Y-83311744D01*
X158894540Y-83500000D01*
X140981427Y-83500000D01*
X140981188Y-83499901D01*
X140846104Y-83443947D01*
X140611785Y-83381161D01*
X140371289Y-83349500D01*
X140371288Y-83349500D01*
X140128712Y-83349500D01*
X140128711Y-83349500D01*
X139888214Y-83381161D01*
X139653895Y-83443947D01*
X139429794Y-83536773D01*
X139429785Y-83536777D01*
X139219706Y-83658067D01*
X139027263Y-83805733D01*
X139027256Y-83805739D01*
X138855739Y-83977256D01*
X138855733Y-83977263D01*
X138708067Y-84169706D01*
X138586777Y-84379785D01*
X138586773Y-84379794D01*
X138493947Y-84603895D01*
X138431161Y-84838214D01*
X138399500Y-85078711D01*
X138399500Y-85921288D01*
X115788233Y-85921288D01*
X115714035Y-85762171D01*
X115708731Y-85754595D01*
X115578494Y-85568597D01*
X115411402Y-85401506D01*
X115411401Y-85401505D01*
X115243844Y-85284180D01*
X115225405Y-85271269D01*
X115181781Y-85216692D01*
X115174588Y-85147193D01*
X115206110Y-85084839D01*
X115225405Y-85068119D01*
X115411082Y-84938105D01*
X115578105Y-84771082D01*
X115713600Y-84577578D01*
X115813429Y-84363492D01*
X115813432Y-84363486D01*
X115870636Y-84150000D01*
X114973012Y-84150000D01*
X115005925Y-84092993D01*
X115040000Y-83965826D01*
X115040000Y-83834174D01*
X115005925Y-83707007D01*
X114973012Y-83650000D01*
X115870636Y-83650000D01*
X115870635Y-83649999D01*
X115813432Y-83436513D01*
X115813429Y-83436507D01*
X115713600Y-83222422D01*
X115713599Y-83222420D01*
X115578113Y-83028926D01*
X115578108Y-83028920D01*
X115411078Y-82861890D01*
X115225405Y-82731879D01*
X115181780Y-82677302D01*
X115174588Y-82607804D01*
X115206110Y-82545449D01*
X115225406Y-82528730D01*
X115225842Y-82528425D01*
X115411401Y-82398495D01*
X115578495Y-82231401D01*
X115714035Y-82037830D01*
X115813903Y-81823663D01*
X115875063Y-81595408D01*
X115895659Y-81360000D01*
X115875063Y-81124592D01*
X115813903Y-80896337D01*
X115714035Y-80682171D01*
X115708425Y-80674158D01*
X115578494Y-80488597D01*
X115411402Y-80321506D01*
X115411396Y-80321501D01*
X115225842Y-80191575D01*
X115182217Y-80136998D01*
X115175023Y-80067500D01*
X115206546Y-80005145D01*
X115225842Y-79988425D01*
X115248026Y-79972891D01*
X115411401Y-79858495D01*
X115578495Y-79691401D01*
X115714035Y-79497830D01*
X115813903Y-79283663D01*
X115875063Y-79055408D01*
X115895659Y-78820000D01*
X115875063Y-78584592D01*
X115813903Y-78356337D01*
X115714035Y-78142171D01*
X115708425Y-78134158D01*
X115578494Y-77948597D01*
X115411402Y-77781506D01*
X115411396Y-77781501D01*
X115225842Y-77651575D01*
X115182217Y-77596998D01*
X115175023Y-77527500D01*
X115206546Y-77465145D01*
X115225842Y-77448425D01*
X115248026Y-77432891D01*
X115411401Y-77318495D01*
X115578495Y-77151401D01*
X115714035Y-76957830D01*
X115813903Y-76743663D01*
X115875063Y-76515408D01*
X115895659Y-76280000D01*
X115875063Y-76044592D01*
X115813903Y-75816337D01*
X115714035Y-75602171D01*
X115677558Y-75550075D01*
X115578494Y-75408597D01*
X115411402Y-75241506D01*
X115411395Y-75241501D01*
X115217834Y-75105967D01*
X115217830Y-75105965D01*
X115216307Y-75105255D01*
X115003663Y-75006097D01*
X115003659Y-75006096D01*
X115003655Y-75006094D01*
X114775413Y-74944938D01*
X114775403Y-74944936D01*
X114540001Y-74924341D01*
X114539999Y-74924341D01*
X114304596Y-74944936D01*
X114304586Y-74944938D01*
X114076344Y-75006094D01*
X114076335Y-75006098D01*
X113862171Y-75105964D01*
X113862169Y-75105965D01*
X113668600Y-75241503D01*
X113546673Y-75363430D01*
X113485350Y-75396914D01*
X113415658Y-75391930D01*
X113359725Y-75350058D01*
X113342810Y-75319081D01*
X113293797Y-75187671D01*
X113293793Y-75187664D01*
X113207547Y-75072455D01*
X113207544Y-75072452D01*
X113092335Y-74986206D01*
X113092328Y-74986202D01*
X112957482Y-74935908D01*
X112957483Y-74935908D01*
X112897883Y-74929501D01*
X112897881Y-74929500D01*
X112897873Y-74929500D01*
X112897864Y-74929500D01*
X111102129Y-74929500D01*
X111102123Y-74929501D01*
X111042516Y-74935908D01*
X110907671Y-74986202D01*
X110907664Y-74986206D01*
X110792455Y-75072452D01*
X110792452Y-75072455D01*
X110706206Y-75187664D01*
X110706202Y-75187671D01*
X110655908Y-75322517D01*
X110649501Y-75382116D01*
X110649500Y-75382135D01*
X110649500Y-77177870D01*
X110649501Y-77177876D01*
X110655908Y-77237483D01*
X110706202Y-77372328D01*
X110706206Y-77372335D01*
X110792452Y-77487544D01*
X110792455Y-77487547D01*
X110907664Y-77573793D01*
X110907671Y-77573797D01*
X111039081Y-77622810D01*
X111095015Y-77664681D01*
X111119432Y-77730145D01*
X111104580Y-77798418D01*
X111083430Y-77826673D01*
X110961503Y-77948600D01*
X110825965Y-78142169D01*
X110825964Y-78142171D01*
X110726098Y-78356335D01*
X110726094Y-78356344D01*
X110664938Y-78584586D01*
X110664936Y-78584596D01*
X110644341Y-78819999D01*
X110644341Y-78820000D01*
X110664936Y-79055403D01*
X110664938Y-79055413D01*
X110726094Y-79283655D01*
X110726096Y-79283659D01*
X110726097Y-79283663D01*
X110730000Y-79292032D01*
X110825965Y-79497830D01*
X110825967Y-79497834D01*
X110934281Y-79652521D01*
X110961501Y-79691396D01*
X110961506Y-79691402D01*
X111128597Y-79858493D01*
X111128603Y-79858498D01*
X111314158Y-79988425D01*
X111357783Y-80043002D01*
X111364977Y-80112500D01*
X111333454Y-80174855D01*
X111314158Y-80191575D01*
X111128597Y-80321505D01*
X110961505Y-80488597D01*
X110825965Y-80682169D01*
X110825964Y-80682171D01*
X110726098Y-80896335D01*
X110726094Y-80896344D01*
X110664938Y-81124586D01*
X110664936Y-81124596D01*
X110644341Y-81359999D01*
X110644341Y-81360000D01*
X110664936Y-81595403D01*
X110664938Y-81595413D01*
X110726094Y-81823655D01*
X110726096Y-81823659D01*
X110726097Y-81823663D01*
X110730000Y-81832032D01*
X110825965Y-82037830D01*
X110825967Y-82037834D01*
X110934281Y-82192521D01*
X110961501Y-82231396D01*
X110961506Y-82231402D01*
X111128597Y-82398493D01*
X111128603Y-82398498D01*
X111314158Y-82528425D01*
X111357783Y-82583002D01*
X111364977Y-82652500D01*
X111333454Y-82714855D01*
X111314158Y-82731575D01*
X111128597Y-82861505D01*
X110961505Y-83028597D01*
X110825965Y-83222169D01*
X110825964Y-83222171D01*
X110726098Y-83436335D01*
X110726094Y-83436344D01*
X110664938Y-83664586D01*
X110664936Y-83664596D01*
X110644341Y-83899999D01*
X110644341Y-83900000D01*
X110664936Y-84135403D01*
X110664938Y-84135413D01*
X110726094Y-84363655D01*
X110726096Y-84363659D01*
X110726097Y-84363663D01*
X110806004Y-84535023D01*
X110825965Y-84577830D01*
X110825967Y-84577834D01*
X110934281Y-84732521D01*
X110961501Y-84771396D01*
X110961506Y-84771402D01*
X111128597Y-84938493D01*
X111128603Y-84938498D01*
X111314158Y-85068425D01*
X111357783Y-85123002D01*
X111364977Y-85192500D01*
X111333454Y-85254855D01*
X111314158Y-85271575D01*
X111128597Y-85401505D01*
X110961505Y-85568597D01*
X110825965Y-85762169D01*
X110825964Y-85762171D01*
X110726098Y-85976335D01*
X110726094Y-85976344D01*
X110664938Y-86204586D01*
X110664936Y-86204596D01*
X110644341Y-86439999D01*
X110644341Y-86440000D01*
X110664936Y-86675403D01*
X110664938Y-86675413D01*
X110726094Y-86903655D01*
X110726096Y-86903659D01*
X110726097Y-86903663D01*
X110773548Y-87005421D01*
X110825965Y-87117830D01*
X110825967Y-87117834D01*
X110879482Y-87194260D01*
X110961504Y-87311400D01*
X110961506Y-87311402D01*
X111128597Y-87478493D01*
X111128603Y-87478498D01*
X111314158Y-87608425D01*
X111357783Y-87663002D01*
X111364977Y-87732500D01*
X111333454Y-87794855D01*
X111314158Y-87811575D01*
X111128597Y-87941505D01*
X110961505Y-88108597D01*
X110825965Y-88302169D01*
X110825964Y-88302171D01*
X110726098Y-88516335D01*
X110726094Y-88516344D01*
X110664938Y-88744586D01*
X110664936Y-88744596D01*
X110644341Y-88979999D01*
X110644341Y-88980000D01*
X110664936Y-89215403D01*
X110664938Y-89215413D01*
X110726094Y-89443655D01*
X110726096Y-89443659D01*
X110726097Y-89443663D01*
X110786356Y-89572888D01*
X110825965Y-89657830D01*
X110825967Y-89657834D01*
X110844395Y-89684151D01*
X110961501Y-89851396D01*
X110961506Y-89851402D01*
X111128597Y-90018493D01*
X111128603Y-90018498D01*
X111314158Y-90148425D01*
X111357783Y-90203002D01*
X111364977Y-90272500D01*
X111333454Y-90334855D01*
X111314158Y-90351575D01*
X111128597Y-90481505D01*
X110961505Y-90648597D01*
X110825965Y-90842169D01*
X110825964Y-90842171D01*
X110726098Y-91056335D01*
X110726094Y-91056344D01*
X110664938Y-91284586D01*
X110664936Y-91284596D01*
X110644341Y-91519999D01*
X110644341Y-91520000D01*
X110664936Y-91755403D01*
X110664938Y-91755413D01*
X110726094Y-91983655D01*
X110726096Y-91983659D01*
X110726097Y-91983663D01*
X110806004Y-92155023D01*
X110825965Y-92197830D01*
X110825967Y-92197834D01*
X110916489Y-92327112D01*
X110961501Y-92391396D01*
X110961506Y-92391402D01*
X111128597Y-92558493D01*
X111128603Y-92558498D01*
X111314158Y-92688425D01*
X111357783Y-92743002D01*
X111364977Y-92812500D01*
X111333454Y-92874855D01*
X111314158Y-92891575D01*
X111128597Y-93021505D01*
X110961505Y-93188597D01*
X110825965Y-93382169D01*
X110825964Y-93382171D01*
X110726098Y-93596335D01*
X110726094Y-93596344D01*
X110664938Y-93824586D01*
X110664936Y-93824596D01*
X110644341Y-94059999D01*
X110644341Y-94060000D01*
X110664936Y-94295403D01*
X110664938Y-94295413D01*
X110726094Y-94523655D01*
X110726096Y-94523659D01*
X110726097Y-94523663D01*
X110730000Y-94532032D01*
X110825965Y-94737830D01*
X110825967Y-94737834D01*
X110896704Y-94838856D01*
X110961501Y-94931396D01*
X110961506Y-94931402D01*
X111128597Y-95098493D01*
X111128603Y-95098498D01*
X111314158Y-95228425D01*
X111357783Y-95283002D01*
X111364977Y-95352500D01*
X111333454Y-95414855D01*
X111314158Y-95431575D01*
X111128597Y-95561505D01*
X110961505Y-95728597D01*
X110825965Y-95922169D01*
X110825964Y-95922171D01*
X110726098Y-96136335D01*
X110726094Y-96136344D01*
X110664938Y-96364586D01*
X110664936Y-96364596D01*
X110644341Y-96599999D01*
X110644341Y-96600000D01*
X110664936Y-96835403D01*
X110664938Y-96835413D01*
X110726094Y-97063655D01*
X110726096Y-97063659D01*
X110726097Y-97063663D01*
X110806004Y-97235023D01*
X110825965Y-97277830D01*
X110825967Y-97277834D01*
X110934281Y-97432521D01*
X110961501Y-97471396D01*
X110961506Y-97471402D01*
X111128597Y-97638493D01*
X111128603Y-97638498D01*
X111314594Y-97768730D01*
X111358219Y-97823307D01*
X111365413Y-97892805D01*
X111333890Y-97955160D01*
X111314595Y-97971880D01*
X111128922Y-98101890D01*
X111128920Y-98101891D01*
X110961891Y-98268920D01*
X110961886Y-98268926D01*
X110826400Y-98462420D01*
X110826399Y-98462422D01*
X110726570Y-98676507D01*
X110726567Y-98676513D01*
X110669364Y-98889999D01*
X110669364Y-98890000D01*
X111566988Y-98890000D01*
X111534075Y-98947007D01*
X111500000Y-99074174D01*
X111500000Y-99205826D01*
X111534075Y-99332993D01*
X111566988Y-99390000D01*
X110669364Y-99390000D01*
X110726567Y-99603486D01*
X110726570Y-99603492D01*
X110826399Y-99817578D01*
X110961894Y-100011082D01*
X111128917Y-100178105D01*
X111314595Y-100308119D01*
X111358219Y-100362696D01*
X111365412Y-100432195D01*
X111333890Y-100494549D01*
X111314595Y-100511269D01*
X111128594Y-100641508D01*
X110961505Y-100808597D01*
X110825965Y-101002169D01*
X110825964Y-101002171D01*
X110726098Y-101216335D01*
X110726094Y-101216344D01*
X110664938Y-101444586D01*
X110664936Y-101444596D01*
X110644341Y-101679999D01*
X110644341Y-101680000D01*
X110664936Y-101915403D01*
X110664938Y-101915413D01*
X110726094Y-102143655D01*
X110726096Y-102143659D01*
X110726097Y-102143663D01*
X110806004Y-102315023D01*
X110825965Y-102357830D01*
X110825967Y-102357834D01*
X110903301Y-102468277D01*
X110961501Y-102551396D01*
X110961506Y-102551402D01*
X111128597Y-102718493D01*
X111128603Y-102718498D01*
X111314158Y-102848425D01*
X111357783Y-102903002D01*
X111364977Y-102972500D01*
X111333454Y-103034855D01*
X111314158Y-103051575D01*
X111128597Y-103181505D01*
X110961505Y-103348597D01*
X110825965Y-103542169D01*
X110825964Y-103542171D01*
X110726098Y-103756335D01*
X110726094Y-103756344D01*
X110664938Y-103984586D01*
X110664936Y-103984596D01*
X110644341Y-104219999D01*
X110644341Y-104220000D01*
X110664936Y-104455403D01*
X110664938Y-104455413D01*
X110726094Y-104683655D01*
X110726096Y-104683659D01*
X110726097Y-104683663D01*
X110755754Y-104747262D01*
X110825965Y-104897830D01*
X110825967Y-104897834D01*
X110919734Y-105031746D01*
X110961501Y-105091396D01*
X110961506Y-105091402D01*
X111128597Y-105258493D01*
X111128603Y-105258498D01*
X111314158Y-105388425D01*
X111357783Y-105443002D01*
X111364977Y-105512500D01*
X111333454Y-105574855D01*
X111314158Y-105591575D01*
X111128597Y-105721505D01*
X110961505Y-105888597D01*
X110825965Y-106082169D01*
X110825964Y-106082171D01*
X110726098Y-106296335D01*
X110726094Y-106296344D01*
X110664938Y-106524586D01*
X110664936Y-106524596D01*
X110644341Y-106759999D01*
X110644341Y-106760000D01*
X110664936Y-106995403D01*
X110664938Y-106995413D01*
X110726094Y-107223655D01*
X110726096Y-107223659D01*
X110726097Y-107223663D01*
X110793744Y-107368732D01*
X110825965Y-107437830D01*
X110825967Y-107437834D01*
X110904507Y-107550000D01*
X110961501Y-107631396D01*
X110961506Y-107631402D01*
X111128597Y-107798493D01*
X111128603Y-107798498D01*
X111314158Y-107928425D01*
X111357783Y-107983002D01*
X111364977Y-108052500D01*
X111333454Y-108114855D01*
X111314158Y-108131575D01*
X111128597Y-108261505D01*
X110961505Y-108428597D01*
X110825965Y-108622169D01*
X110825964Y-108622171D01*
X110726098Y-108836335D01*
X110726094Y-108836344D01*
X110664938Y-109064586D01*
X110664936Y-109064596D01*
X110644341Y-109299999D01*
X110644341Y-109300000D01*
X110664936Y-109535403D01*
X110664938Y-109535413D01*
X110726094Y-109763655D01*
X110726096Y-109763659D01*
X110726097Y-109763663D01*
X110806004Y-109935023D01*
X110825965Y-109977830D01*
X110825967Y-109977834D01*
X110917156Y-110108064D01*
X110961501Y-110171396D01*
X110961506Y-110171402D01*
X111128597Y-110338493D01*
X111128603Y-110338498D01*
X111314158Y-110468425D01*
X111357783Y-110523002D01*
X111364977Y-110592500D01*
X111333454Y-110654855D01*
X111314158Y-110671575D01*
X111128597Y-110801505D01*
X110961505Y-110968597D01*
X110825965Y-111162169D01*
X110825964Y-111162171D01*
X110726098Y-111376335D01*
X110726094Y-111376344D01*
X110664938Y-111604586D01*
X110664936Y-111604596D01*
X110644341Y-111839999D01*
X110644341Y-111840000D01*
X110664936Y-112075403D01*
X110664938Y-112075413D01*
X110726094Y-112303655D01*
X110726096Y-112303659D01*
X110726097Y-112303663D01*
X110770787Y-112399500D01*
X110825965Y-112517830D01*
X110825967Y-112517834D01*
X110902484Y-112627111D01*
X110961501Y-112711396D01*
X110961506Y-112711402D01*
X111128597Y-112878493D01*
X111128603Y-112878498D01*
X111314158Y-113008425D01*
X111357783Y-113063002D01*
X111364977Y-113132500D01*
X111333454Y-113194855D01*
X111314158Y-113211575D01*
X111128597Y-113341505D01*
X110961505Y-113508597D01*
X110825965Y-113702169D01*
X110825964Y-113702171D01*
X110726098Y-113916335D01*
X110726094Y-113916344D01*
X110664938Y-114144586D01*
X110664936Y-114144596D01*
X110644341Y-114379999D01*
X110644341Y-114380000D01*
X110664936Y-114615403D01*
X110664938Y-114615413D01*
X110726094Y-114843655D01*
X110726096Y-114843659D01*
X110726097Y-114843663D01*
X110749236Y-114893284D01*
X110825965Y-115057830D01*
X110825967Y-115057834D01*
X110909339Y-115176901D01*
X110961501Y-115251396D01*
X110961506Y-115251402D01*
X111128597Y-115418493D01*
X111128603Y-115418498D01*
X111314158Y-115548425D01*
X111357783Y-115603002D01*
X111364977Y-115672500D01*
X111333454Y-115734855D01*
X111314158Y-115751575D01*
X111128597Y-115881505D01*
X110961505Y-116048597D01*
X110825965Y-116242169D01*
X110825964Y-116242171D01*
X110726098Y-116456335D01*
X110726094Y-116456344D01*
X110664938Y-116684586D01*
X110664936Y-116684596D01*
X110644341Y-116919999D01*
X110644341Y-116920000D01*
X110664936Y-117155403D01*
X110664938Y-117155413D01*
X110726094Y-117383655D01*
X110726096Y-117383659D01*
X110726097Y-117383663D01*
X110806004Y-117555023D01*
X110825965Y-117597830D01*
X110825967Y-117597834D01*
X110884888Y-117681981D01*
X110961501Y-117791396D01*
X110961506Y-117791402D01*
X111128597Y-117958493D01*
X111128603Y-117958498D01*
X111314158Y-118088425D01*
X111357783Y-118143002D01*
X111364977Y-118212500D01*
X111333454Y-118274855D01*
X111314158Y-118291575D01*
X111128597Y-118421505D01*
X110961505Y-118588597D01*
X110825965Y-118782169D01*
X110825964Y-118782171D01*
X110726098Y-118996335D01*
X110726094Y-118996344D01*
X110664938Y-119224586D01*
X110664936Y-119224596D01*
X110644341Y-119459999D01*
X110644341Y-119460000D01*
X110664936Y-119695403D01*
X110664938Y-119695413D01*
X110726094Y-119923655D01*
X110726096Y-119923659D01*
X110726097Y-119923663D01*
X110806004Y-120095023D01*
X110825965Y-120137830D01*
X110825967Y-120137834D01*
X110908421Y-120255589D01*
X110961501Y-120331396D01*
X110961506Y-120331402D01*
X111128597Y-120498493D01*
X111128603Y-120498498D01*
X111314158Y-120628425D01*
X111357783Y-120683002D01*
X111364977Y-120752500D01*
X111333454Y-120814855D01*
X111314158Y-120831575D01*
X111128597Y-120961505D01*
X110961505Y-121128597D01*
X110825965Y-121322169D01*
X110825964Y-121322171D01*
X110726098Y-121536335D01*
X110726094Y-121536344D01*
X110664938Y-121764586D01*
X110664936Y-121764596D01*
X110644341Y-121999999D01*
X110644341Y-122000000D01*
X109750000Y-122000000D01*
X109750000Y-69624000D01*
X109769685Y-69556961D01*
X109822489Y-69511206D01*
X109874000Y-69500000D01*
X111181547Y-69500000D01*
X111248586Y-69519685D01*
G37*
%TD.AperFunction*%
%TD*%
M02*
