%TF.GenerationSoftware,KiCad,Pcbnew,8.0.0*%
%TF.CreationDate,2024-03-16T12:32:21-04:00*%
%TF.ProjectId,AMP_PCBv3,414d505f-5043-4427-9633-2e6b69636164,A*%
%TF.SameCoordinates,Original*%
%TF.FileFunction,Copper,L1,Top*%
%TF.FilePolarity,Positive*%
%FSLAX46Y46*%
G04 Gerber Fmt 4.6, Leading zero omitted, Abs format (unit mm)*
G04 Created by KiCad (PCBNEW 8.0.0) date 2024-03-16 12:32:21*
%MOMM*%
%LPD*%
G01*
G04 APERTURE LIST*
G04 Aperture macros list*
%AMRoundRect*
0 Rectangle with rounded corners*
0 $1 Rounding radius*
0 $2 $3 $4 $5 $6 $7 $8 $9 X,Y pos of 4 corners*
0 Add a 4 corners polygon primitive as box body*
4,1,4,$2,$3,$4,$5,$6,$7,$8,$9,$2,$3,0*
0 Add four circle primitives for the rounded corners*
1,1,$1+$1,$2,$3*
1,1,$1+$1,$4,$5*
1,1,$1+$1,$6,$7*
1,1,$1+$1,$8,$9*
0 Add four rect primitives between the rounded corners*
20,1,$1+$1,$2,$3,$4,$5,0*
20,1,$1+$1,$4,$5,$6,$7,0*
20,1,$1+$1,$6,$7,$8,$9,0*
20,1,$1+$1,$8,$9,$2,$3,0*%
G04 Aperture macros list end*
%TA.AperFunction,SMDPad,CuDef*%
%ADD10R,0.700000X0.340000*%
%TD*%
%TA.AperFunction,SMDPad,CuDef*%
%ADD11RoundRect,0.250000X-0.450000X0.325000X-0.450000X-0.325000X0.450000X-0.325000X0.450000X0.325000X0*%
%TD*%
%TA.AperFunction,SMDPad,CuDef*%
%ADD12RoundRect,0.250000X0.450000X-0.325000X0.450000X0.325000X-0.450000X0.325000X-0.450000X-0.325000X0*%
%TD*%
%TA.AperFunction,SMDPad,CuDef*%
%ADD13RoundRect,0.250000X-0.337500X-0.475000X0.337500X-0.475000X0.337500X0.475000X-0.337500X0.475000X0*%
%TD*%
%TA.AperFunction,SMDPad,CuDef*%
%ADD14RoundRect,0.250000X-0.475000X0.337500X-0.475000X-0.337500X0.475000X-0.337500X0.475000X0.337500X0*%
%TD*%
%TA.AperFunction,SMDPad,CuDef*%
%ADD15RoundRect,0.250000X0.450000X-0.350000X0.450000X0.350000X-0.450000X0.350000X-0.450000X-0.350000X0*%
%TD*%
%TA.AperFunction,SMDPad,CuDef*%
%ADD16RoundRect,0.125000X0.125000X-0.125000X0.125000X0.125000X-0.125000X0.125000X-0.125000X-0.125000X0*%
%TD*%
%TA.AperFunction,ComponentPad*%
%ADD17R,1.050000X1.050000*%
%TD*%
%TA.AperFunction,ComponentPad*%
%ADD18C,1.050000*%
%TD*%
%TA.AperFunction,ComponentPad*%
%ADD19C,2.500000*%
%TD*%
%TA.AperFunction,SMDPad,CuDef*%
%ADD20RoundRect,0.250000X0.325000X0.450000X-0.325000X0.450000X-0.325000X-0.450000X0.325000X-0.450000X0*%
%TD*%
%TA.AperFunction,SMDPad,CuDef*%
%ADD21RoundRect,0.150000X0.150000X-0.512500X0.150000X0.512500X-0.150000X0.512500X-0.150000X-0.512500X0*%
%TD*%
%TA.AperFunction,SMDPad,CuDef*%
%ADD22RoundRect,0.250000X-0.350000X-0.450000X0.350000X-0.450000X0.350000X0.450000X-0.350000X0.450000X0*%
%TD*%
%TA.AperFunction,SMDPad,CuDef*%
%ADD23RoundRect,0.250000X0.337500X0.475000X-0.337500X0.475000X-0.337500X-0.475000X0.337500X-0.475000X0*%
%TD*%
%TA.AperFunction,SMDPad,CuDef*%
%ADD24RoundRect,0.250000X-0.450000X0.350000X-0.450000X-0.350000X0.450000X-0.350000X0.450000X0.350000X0*%
%TD*%
%TA.AperFunction,SMDPad,CuDef*%
%ADD25RoundRect,0.250000X0.350000X0.450000X-0.350000X0.450000X-0.350000X-0.450000X0.350000X-0.450000X0*%
%TD*%
%TA.AperFunction,SMDPad,CuDef*%
%ADD26RoundRect,0.050000X-0.050000X0.225000X-0.050000X-0.225000X0.050000X-0.225000X0.050000X0.225000X0*%
%TD*%
%TA.AperFunction,SMDPad,CuDef*%
%ADD27RoundRect,0.050000X-0.225000X-0.050000X0.225000X-0.050000X0.225000X0.050000X-0.225000X0.050000X0*%
%TD*%
%TA.AperFunction,SMDPad,CuDef*%
%ADD28RoundRect,0.317500X-1.157500X-0.317500X1.157500X-0.317500X1.157500X0.317500X-1.157500X0.317500X0*%
%TD*%
%TA.AperFunction,SMDPad,CuDef*%
%ADD29RoundRect,0.150000X0.150000X-0.587500X0.150000X0.587500X-0.150000X0.587500X-0.150000X-0.587500X0*%
%TD*%
%TA.AperFunction,SMDPad,CuDef*%
%ADD30RoundRect,0.250000X0.475000X-0.337500X0.475000X0.337500X-0.475000X0.337500X-0.475000X-0.337500X0*%
%TD*%
%TA.AperFunction,ComponentPad*%
%ADD31RoundRect,0.250001X1.099999X1.399999X-1.099999X1.399999X-1.099999X-1.399999X1.099999X-1.399999X0*%
%TD*%
%TA.AperFunction,ComponentPad*%
%ADD32O,2.700000X3.300000*%
%TD*%
%TA.AperFunction,ComponentPad*%
%ADD33RoundRect,0.250000X-0.350000X-0.625000X0.350000X-0.625000X0.350000X0.625000X-0.350000X0.625000X0*%
%TD*%
%TA.AperFunction,ComponentPad*%
%ADD34O,1.200000X1.750000*%
%TD*%
%TA.AperFunction,SMDPad,CuDef*%
%ADD35R,0.650000X1.560000*%
%TD*%
%TA.AperFunction,ComponentPad*%
%ADD36R,1.700000X1.700000*%
%TD*%
%TA.AperFunction,ComponentPad*%
%ADD37O,1.700000X1.700000*%
%TD*%
%TA.AperFunction,ComponentPad*%
%ADD38RoundRect,0.250000X0.845000X-0.620000X0.845000X0.620000X-0.845000X0.620000X-0.845000X-0.620000X0*%
%TD*%
%TA.AperFunction,ComponentPad*%
%ADD39O,2.190000X1.740000*%
%TD*%
%TA.AperFunction,ComponentPad*%
%ADD40C,2.050000*%
%TD*%
%TA.AperFunction,ComponentPad*%
%ADD41C,2.250000*%
%TD*%
%TA.AperFunction,ComponentPad*%
%ADD42RoundRect,0.250000X0.625000X-0.350000X0.625000X0.350000X-0.625000X0.350000X-0.625000X-0.350000X0*%
%TD*%
%TA.AperFunction,ComponentPad*%
%ADD43O,1.750000X1.200000*%
%TD*%
%TA.AperFunction,SMDPad,CuDef*%
%ADD44RoundRect,0.150000X0.850000X0.150000X-0.850000X0.150000X-0.850000X-0.150000X0.850000X-0.150000X0*%
%TD*%
%TA.AperFunction,SMDPad,CuDef*%
%ADD45R,1.200000X0.400000*%
%TD*%
%TA.AperFunction,SMDPad,CuDef*%
%ADD46RoundRect,0.250001X-1.999999X-0.799999X1.999999X-0.799999X1.999999X0.799999X-1.999999X0.799999X0*%
%TD*%
%TA.AperFunction,SMDPad,CuDef*%
%ADD47R,3.429000X2.413000*%
%TD*%
%TA.AperFunction,ComponentPad*%
%ADD48RoundRect,0.250000X0.620000X0.845000X-0.620000X0.845000X-0.620000X-0.845000X0.620000X-0.845000X0*%
%TD*%
%TA.AperFunction,ComponentPad*%
%ADD49O,1.740000X2.190000*%
%TD*%
%TA.AperFunction,ComponentPad*%
%ADD50RoundRect,0.250001X1.399999X-1.099999X1.399999X1.099999X-1.399999X1.099999X-1.399999X-1.099999X0*%
%TD*%
%TA.AperFunction,ComponentPad*%
%ADD51O,3.300000X2.700000*%
%TD*%
%TA.AperFunction,ViaPad*%
%ADD52C,0.800000*%
%TD*%
%TA.AperFunction,ViaPad*%
%ADD53C,1.200000*%
%TD*%
%TA.AperFunction,Conductor*%
%ADD54C,0.250000*%
%TD*%
%TA.AperFunction,Conductor*%
%ADD55C,0.200000*%
%TD*%
%TA.AperFunction,Conductor*%
%ADD56C,1.000000*%
%TD*%
%TA.AperFunction,Conductor*%
%ADD57C,0.500000*%
%TD*%
G04 APERTURE END LIST*
D10*
%TO.P,U1,1,VIN*%
%TO.N,+12V*%
X131250000Y-90500000D03*
%TO.P,U1,2,SW*%
%TO.N,Net-(U1-SW)*%
X131250000Y-90000000D03*
%TO.P,U1,3,GND*%
%TO.N,GND*%
X131250000Y-89500000D03*
%TO.P,U1,4,AGND*%
X129750000Y-89500000D03*
%TO.P,U1,5,EN*%
%TO.N,Net-(U1-EN)*%
X129750000Y-90000000D03*
%TO.P,U1,6,FB*%
%TO.N,Net-(U1-FB)*%
X129750000Y-90500000D03*
%TD*%
D11*
%TO.P,D7,1,K*%
%TO.N,Net-(D7-K)*%
X176000000Y-69725000D03*
%TO.P,D7,2,A*%
%TO.N,+3V3*%
X176000000Y-71775000D03*
%TD*%
D12*
%TO.P,D1,1,K*%
%TO.N,Net-(D1-K)*%
X161000000Y-83525000D03*
%TO.P,D1,2,A*%
%TO.N,/PC8*%
X161000000Y-81475000D03*
%TD*%
D13*
%TO.P,C4,1*%
%TO.N,/E5V*%
X121462500Y-92250000D03*
%TO.P,C4,2*%
%TO.N,Net-(U1-FB)*%
X123537500Y-92250000D03*
%TD*%
D11*
%TO.P,D6,1,K*%
%TO.N,Net-(D6-K)*%
X172000000Y-69725000D03*
%TO.P,D6,2,A*%
%TO.N,+5V*%
X172000000Y-71775000D03*
%TD*%
D14*
%TO.P,C2,1*%
%TO.N,+12V*%
X131950000Y-92212500D03*
%TO.P,C2,2*%
%TO.N,GND*%
X131950000Y-94287500D03*
%TD*%
D15*
%TO.P,R24,1*%
%TO.N,/Jetson USB/D+*%
X122000000Y-114250000D03*
%TO.P,R24,2*%
%TO.N,Net-(U3-USBDP)*%
X122000000Y-112250000D03*
%TD*%
D16*
%TO.P,D13,1,K*%
%TO.N,+12V*%
X141270000Y-128350000D03*
%TO.P,D13,2,A*%
%TO.N,Net-(D13-A)*%
X141270000Y-126150000D03*
%TD*%
D17*
%TO.P,J2,1,VBUS*%
%TO.N,/Jetson USB/VBUS*%
X126700000Y-118500000D03*
D18*
%TO.P,J2,2,D-*%
%TO.N,/Jetson USB/D+*%
X125900000Y-120400000D03*
%TO.P,J2,3,D+*%
%TO.N,/Jetson USB/D-*%
X125100000Y-118500000D03*
%TO.P,J2,4,ID*%
%TO.N,unconnected-(J2-ID-Pad4)*%
X124300000Y-120400000D03*
%TO.P,J2,5,GND*%
%TO.N,GND*%
X123500000Y-118500000D03*
D19*
%TO.P,J2,6,Shield*%
X129350000Y-119440000D03*
X120850000Y-119440000D03*
%TD*%
D20*
%TO.P,D9,1,K*%
%TO.N,Net-(D9-K)*%
X120025000Y-112000000D03*
%TO.P,D9,2,A*%
%TO.N,+3V3*%
X117975000Y-112000000D03*
%TD*%
D21*
%TO.P,U6,1,I/O1*%
%TO.N,/Jetson USB/D+*%
X124050000Y-114637500D03*
%TO.P,U6,2,GND*%
%TO.N,GND*%
X125000000Y-114637500D03*
%TO.P,U6,3,I/O2*%
%TO.N,/Jetson USB/D-*%
X125950000Y-114637500D03*
%TO.P,U6,4,I/O2*%
%TO.N,unconnected-(U6-I{slash}O2-Pad4)*%
X125950000Y-112362500D03*
%TO.P,U6,5,VBUS*%
%TO.N,/Jetson USB/VBUS*%
X125000000Y-112362500D03*
%TO.P,U6,6,I/O1*%
%TO.N,unconnected-(U6-I{slash}O1-Pad6)*%
X124050000Y-112362500D03*
%TD*%
D22*
%TO.P,R7,1*%
%TO.N,Net-(U1-FB)*%
X125500000Y-96750000D03*
%TO.P,R7,2*%
%TO.N,GND*%
X127500000Y-96750000D03*
%TD*%
%TO.P,R27,1*%
%TO.N,Net-(U3-CBUS1)*%
X130000000Y-110000000D03*
%TO.P,R27,2*%
%TO.N,Net-(D8-K)*%
X132000000Y-110000000D03*
%TD*%
D23*
%TO.P,C7,1*%
%TO.N,/E5V*%
X126737500Y-85250000D03*
%TO.P,C7,2*%
%TO.N,GND*%
X124662500Y-85250000D03*
%TD*%
D24*
%TO.P,R19,1*%
%TO.N,+3V3*%
X146750000Y-88845000D03*
%TO.P,R19,2*%
%TO.N,Net-(U4-EN{slash}DIAGB)*%
X146750000Y-90845000D03*
%TD*%
D25*
%TO.P,R5,1*%
%TO.N,Net-(U1-EN)*%
X127500000Y-94500000D03*
%TO.P,R5,2*%
%TO.N,GND*%
X125500000Y-94500000D03*
%TD*%
D26*
%TO.P,U5,1,NC*%
%TO.N,unconnected-(U5-NC-Pad1)*%
X162000000Y-105200000D03*
%TO.P,U5,2,NC*%
%TO.N,unconnected-(U5-NC-Pad2)*%
X161600000Y-105200000D03*
%TO.P,U5,3,NC*%
%TO.N,unconnected-(U5-NC-Pad3)*%
X161200000Y-105200000D03*
%TO.P,U5,4,NC*%
%TO.N,unconnected-(U5-NC-Pad4)*%
X160800000Y-105200000D03*
%TO.P,U5,5,NC*%
%TO.N,unconnected-(U5-NC-Pad5)*%
X160400000Y-105200000D03*
%TO.P,U5,6,NC*%
%TO.N,unconnected-(U5-NC-Pad6)*%
X160000000Y-105200000D03*
D27*
%TO.P,U5,7,AUX_CL*%
%TO.N,unconnected-(U5-AUX_CL-Pad7)*%
X159500000Y-105700000D03*
%TO.P,U5,8,VDDIO*%
%TO.N,+1V8*%
X159500000Y-106100000D03*
%TO.P,U5,9,SDO/AD0*%
%TO.N,/PB15*%
X159500000Y-106500000D03*
%TO.P,U5,10,REGOUT*%
%TO.N,Net-(U5-REGOUT)*%
X159500000Y-106900000D03*
%TO.P,U5,11,FSYNC*%
%TO.N,GND*%
X159500000Y-107300000D03*
%TO.P,U5,12,INT1*%
%TO.N,/IMU_INT1*%
X159500000Y-107700000D03*
D26*
%TO.P,U5,13,VDD*%
%TO.N,+1V8*%
X160000000Y-108200000D03*
%TO.P,U5,14,NC*%
%TO.N,unconnected-(U5-NC-Pad14)*%
X160400000Y-108200000D03*
%TO.P,U5,15,NC*%
%TO.N,unconnected-(U5-NC-Pad15)*%
X160800000Y-108200000D03*
%TO.P,U5,16,NC*%
%TO.N,unconnected-(U5-NC-Pad16)*%
X161200000Y-108200000D03*
%TO.P,U5,17,NC*%
%TO.N,unconnected-(U5-NC-Pad17)*%
X161600000Y-108200000D03*
%TO.P,U5,18,GND*%
%TO.N,GND*%
X162000000Y-108200000D03*
D27*
%TO.P,U5,19,RESV*%
%TO.N,unconnected-(U5-RESV-Pad19)*%
X162500000Y-107700000D03*
%TO.P,U5,20,GND*%
%TO.N,GND*%
X162500000Y-107300000D03*
%TO.P,U5,21,AUX_DA*%
%TO.N,unconnected-(U5-AUX_DA-Pad21)*%
X162500000Y-106900000D03*
%TO.P,U5,22,~{CS}*%
%TO.N,/IMU_CS*%
X162500000Y-106500000D03*
%TO.P,U5,23,SCL/SCLK*%
%TO.N,/PB10*%
X162500000Y-106100000D03*
%TO.P,U5,24,SDA/SDI*%
%TO.N,/PB14*%
X162500000Y-105700000D03*
%TD*%
D28*
%TO.P,U2,1,GND*%
%TO.N,GND*%
X152975000Y-113250000D03*
%TO.P,U2,2,MISO*%
%TO.N,/PB14*%
X152975000Y-115250000D03*
%TO.P,U2,3,MOSI*%
%TO.N,/PB15*%
X152975000Y-117250000D03*
%TO.P,U2,4,SCK*%
%TO.N,/PB10*%
X152975000Y-119250000D03*
%TO.P,U2,5,NSS*%
%TO.N,/PB13*%
X152975000Y-121250000D03*
%TO.P,U2,6,RESET*%
%TO.N,/PB4*%
X152975000Y-123250000D03*
%TO.P,U2,7,DIO5*%
%TO.N,unconnected-(U2-DIO5-Pad7)*%
X152975000Y-125250000D03*
%TO.P,U2,8,GND*%
%TO.N,GND*%
X152975000Y-127250000D03*
%TO.P,U2,9,ANT*%
%TO.N,Net-(AE1-A)*%
X168025000Y-127250000D03*
%TO.P,U2,10,GND*%
%TO.N,GND*%
X168025000Y-125250000D03*
%TO.P,U2,11,DIO3*%
%TO.N,unconnected-(U2-DIO3-Pad11)*%
X168025000Y-123250000D03*
%TO.P,U2,12,DIO4*%
%TO.N,unconnected-(U2-DIO4-Pad12)*%
X168025000Y-121250000D03*
%TO.P,U2,13,3.3V*%
%TO.N,+3V3*%
X168025000Y-119250000D03*
%TO.P,U2,14,DIO0*%
%TO.N,/PB5*%
X168025000Y-117250000D03*
%TO.P,U2,15,DIO1*%
%TO.N,unconnected-(U2-DIO1-Pad15)*%
X168025000Y-115250000D03*
%TO.P,U2,16,DIO2*%
%TO.N,unconnected-(U2-DIO2-Pad16)*%
X168025000Y-113250000D03*
%TD*%
D16*
%TO.P,D11,1,K*%
%TO.N,+12V*%
X124270000Y-128350000D03*
%TO.P,D11,2,A*%
%TO.N,Net-(D11-A)*%
X124270000Y-126150000D03*
%TD*%
D23*
%TO.P,C8,1*%
%TO.N,/E5V*%
X126737500Y-83000000D03*
%TO.P,C8,2*%
%TO.N,GND*%
X124662500Y-83000000D03*
%TD*%
D29*
%TO.P,Q2,1,G*%
%TO.N,/PC3*%
X120320000Y-127937500D03*
%TO.P,Q2,2,S*%
%TO.N,GND*%
X122220000Y-127937500D03*
%TO.P,Q2,3,D*%
%TO.N,Net-(D11-A)*%
X121270000Y-126062500D03*
%TD*%
D30*
%TO.P,C15,1*%
%TO.N,+1V8*%
X155300000Y-104875000D03*
%TO.P,C15,2*%
%TO.N,GND*%
X155300000Y-102800000D03*
%TD*%
D31*
%TO.P,J1,1,Pin_1*%
%TO.N,GND*%
X140250000Y-91000000D03*
D32*
%TO.P,J1,2,Pin_2*%
%TO.N,+12V*%
X140250000Y-85500000D03*
%TD*%
D33*
%TO.P,J5,1,Pin_1*%
%TO.N,/VESC_5V*%
X112250000Y-70750000D03*
D34*
%TO.P,J5,2,Pin_2*%
%TO.N,/VESC_VCC*%
X114250000Y-70750000D03*
%TO.P,J5,3,Pin_3*%
%TO.N,GND*%
X116250000Y-70750000D03*
%TO.P,J5,4,Pin_4*%
%TO.N,/VESC_ADC1*%
X118250000Y-70750000D03*
%TO.P,J5,5,Pin_5*%
%TO.N,/PC12*%
X120250000Y-70750000D03*
%TO.P,J5,6,Pin_6*%
%TO.N,/PD2*%
X122250000Y-70750000D03*
%TO.P,J5,7,Pin_7*%
%TO.N,/VESC_ADC2*%
X124250000Y-70750000D03*
%TO.P,J5,8,Pin_8*%
%TO.N,/VESC_ADC3*%
X126250000Y-70750000D03*
%TD*%
D23*
%TO.P,C5,1*%
%TO.N,/E5V*%
X126737500Y-89750000D03*
%TO.P,C5,2*%
%TO.N,GND*%
X124662500Y-89750000D03*
%TD*%
D24*
%TO.P,R12,1*%
%TO.N,Net-(U4-CS)*%
X143250000Y-95845000D03*
%TO.P,R12,2*%
%TO.N,GND*%
X143250000Y-97845000D03*
%TD*%
D25*
%TO.P,R14,1*%
%TO.N,/BRAKE_INA*%
X167750000Y-95595000D03*
%TO.P,R14,2*%
%TO.N,Net-(U4-INA)*%
X165750000Y-95595000D03*
%TD*%
%TO.P,R4,1*%
%TO.N,+12V*%
X127500000Y-92250000D03*
%TO.P,R4,2*%
%TO.N,Net-(U1-EN)*%
X125500000Y-92250000D03*
%TD*%
D22*
%TO.P,R6,1*%
%TO.N,/E5V*%
X121500000Y-96750000D03*
%TO.P,R6,2*%
%TO.N,Net-(U1-FB)*%
X123500000Y-96750000D03*
%TD*%
D35*
%TO.P,U7,1,IN*%
%TO.N,+3V3*%
X153150000Y-103687500D03*
%TO.P,U7,2,GND*%
%TO.N,GND*%
X152200000Y-103687500D03*
%TO.P,U7,3,EN*%
%TO.N,+3V3*%
X151250000Y-103687500D03*
%TO.P,U7,4,NC*%
%TO.N,unconnected-(U7-NC-Pad4)*%
X151250000Y-106387500D03*
%TO.P,U7,5,OUT*%
%TO.N,+1V8*%
X153150000Y-106387500D03*
%TD*%
D31*
%TO.P,M1,1,+*%
%TO.N,Net-(M1-+)*%
X160750000Y-95250000D03*
D32*
%TO.P,M1,2,-*%
%TO.N,Net-(M1--)*%
X160750000Y-89750000D03*
%TD*%
D22*
%TO.P,R15,1*%
%TO.N,Net-(U4-INB)*%
X165750000Y-92095000D03*
%TO.P,R15,2*%
%TO.N,/BRAKE_INB*%
X167750000Y-92095000D03*
%TD*%
D15*
%TO.P,R16,1*%
%TO.N,/BRAKE_ENA*%
X145250000Y-97845000D03*
%TO.P,R16,2*%
%TO.N,Net-(U4-EN{slash}DIAGA)*%
X145250000Y-95845000D03*
%TD*%
D36*
%TO.P,CN10,1,Pin_1*%
%TO.N,/PC9*%
X172960000Y-76280000D03*
D37*
%TO.P,CN10,2,Pin_2*%
%TO.N,/PC8*%
X175500000Y-76280000D03*
%TO.P,CN10,3,Pin_3*%
%TO.N,/PB8*%
X172960000Y-78820000D03*
%TO.P,CN10,4,Pin_4*%
%TO.N,/PC6*%
X175500000Y-78820000D03*
%TO.P,CN10,5,Pin_5*%
%TO.N,/PB9*%
X172960000Y-81360000D03*
%TO.P,CN10,6,Pin_6*%
%TO.N,/BRAKE_ENB*%
X175500000Y-81360000D03*
%TO.P,CN10,7,Pin_7*%
%TO.N,/AVDD*%
X172960000Y-83900000D03*
%TO.P,CN10,8,Pin_8*%
%TO.N,/U5V*%
X175500000Y-83900000D03*
%TO.P,CN10,9,Pin_9*%
%TO.N,GND*%
X172960000Y-86440000D03*
%TO.P,CN10,10,Pin_10*%
%TO.N,unconnected-(CN10-Pin_10-Pad10)*%
X175500000Y-86440000D03*
%TO.P,CN10,11,Pin_11*%
%TO.N,/PA5*%
X172960000Y-88980000D03*
%TO.P,CN10,12,Pin_12*%
%TO.N,/PA12*%
X175500000Y-88980000D03*
%TO.P,CN10,13,Pin_13*%
%TO.N,/BRAKE_INB*%
X172960000Y-91520000D03*
%TO.P,CN10,14,Pin_14*%
%TO.N,/PA11*%
X175500000Y-91520000D03*
%TO.P,CN10,15,Pin_15*%
%TO.N,/BRAKE_INA*%
X172960000Y-94060000D03*
%TO.P,CN10,16,Pin_16*%
%TO.N,/BRAKE_ENA*%
X175500000Y-94060000D03*
%TO.P,CN10,17,Pin_17*%
%TO.N,/PB6*%
X172960000Y-96600000D03*
%TO.P,CN10,18,Pin_18*%
%TO.N,unconnected-(CN10-Pin_18-Pad18)*%
X175500000Y-96600000D03*
%TO.P,CN10,19,Pin_19*%
%TO.N,/BRAKE_CS*%
X172960000Y-99140000D03*
%TO.P,CN10,20,Pin_20*%
%TO.N,GND*%
X175500000Y-99140000D03*
%TO.P,CN10,21,Pin_21*%
%TO.N,/PA9*%
X172960000Y-101680000D03*
%TO.P,CN10,22,Pin_22*%
%TO.N,/PB2*%
X175500000Y-101680000D03*
%TO.P,CN10,23,Pin_23*%
%TO.N,/PA8*%
X172960000Y-104220000D03*
%TO.P,CN10,24,Pin_24*%
%TO.N,/LED_SIG*%
X175500000Y-104220000D03*
%TO.P,CN10,25,Pin_25*%
%TO.N,/PB10*%
X172960000Y-106760000D03*
%TO.P,CN10,26,Pin_26*%
%TO.N,/PB15*%
X175500000Y-106760000D03*
%TO.P,CN10,27,Pin_27*%
%TO.N,/PB4*%
X172960000Y-109300000D03*
%TO.P,CN10,28,Pin_28*%
%TO.N,/PB14*%
X175500000Y-109300000D03*
%TO.P,CN10,29,Pin_29*%
%TO.N,/PB5*%
X172960000Y-111840000D03*
%TO.P,CN10,30,Pin_30*%
%TO.N,/PB13*%
X175500000Y-111840000D03*
%TO.P,CN10,31,Pin_31*%
%TO.N,/PB3*%
X172960000Y-114380000D03*
%TO.P,CN10,32,Pin_32*%
%TO.N,/AGND*%
X175500000Y-114380000D03*
%TO.P,CN10,33,Pin_33*%
%TO.N,/IMU_CS*%
X172960000Y-116920000D03*
%TO.P,CN10,34,Pin_34*%
%TO.N,/IMU_INT1*%
X175500000Y-116920000D03*
%TO.P,CN10,35,Pin_35*%
%TO.N,/PA2*%
X172960000Y-119460000D03*
%TO.P,CN10,36,Pin_36*%
%TO.N,unconnected-(CN10-Pin_36-Pad36)*%
X175500000Y-119460000D03*
%TO.P,CN10,37,Pin_37*%
%TO.N,/PA3*%
X172960000Y-122000000D03*
%TO.P,CN10,38,Pin_38*%
%TO.N,unconnected-(CN10-Pin_38-Pad38)*%
X175500000Y-122000000D03*
%TD*%
D38*
%TO.P,M2,1,-*%
%TO.N,Net-(D10-A)*%
X114520000Y-136290000D03*
D39*
%TO.P,M2,2,+*%
%TO.N,+12V*%
X114520000Y-133750000D03*
%TO.P,M2,3,Tach*%
%TO.N,unconnected-(M2-Tach-Pad3)*%
X114520000Y-131210000D03*
%TD*%
D14*
%TO.P,C1,1*%
%TO.N,+12V*%
X134200000Y-92212500D03*
%TO.P,C1,2*%
%TO.N,GND*%
X134200000Y-94287500D03*
%TD*%
D22*
%TO.P,R26,1*%
%TO.N,Net-(U3-CBUS0)*%
X130000000Y-107750000D03*
%TO.P,R26,2*%
%TO.N,GND*%
X132000000Y-107750000D03*
%TD*%
D29*
%TO.P,Q4,1,G*%
%TO.N,/PC1*%
X137320000Y-127937500D03*
%TO.P,Q4,2,S*%
%TO.N,GND*%
X139220000Y-127937500D03*
%TO.P,Q4,3,D*%
%TO.N,Net-(D13-A)*%
X138270000Y-126062500D03*
%TD*%
D40*
%TO.P,AE1,1,A*%
%TO.N,Net-(AE1-A)*%
X168000000Y-133500000D03*
D41*
%TO.P,AE1,2,Shield*%
%TO.N,GND*%
X170540000Y-130960000D03*
X165460000Y-130960000D03*
X170540000Y-136040000D03*
X165460000Y-136040000D03*
%TD*%
D30*
%TO.P,C10,1*%
%TO.N,/BRAKE_CS*%
X139000000Y-97882500D03*
%TO.P,C10,2*%
%TO.N,GND*%
X139000000Y-95807500D03*
%TD*%
D15*
%TO.P,R18,1*%
%TO.N,+3V3*%
X147250000Y-97845000D03*
%TO.P,R18,2*%
%TO.N,Net-(U4-EN{slash}DIAGA)*%
X147250000Y-95845000D03*
%TD*%
D11*
%TO.P,D5,1,K*%
%TO.N,Net-(D5-K)*%
X168000000Y-69725000D03*
%TO.P,D5,2,A*%
%TO.N,+12V*%
X168000000Y-71775000D03*
%TD*%
D14*
%TO.P,C3,1*%
%TO.N,+12V*%
X129700000Y-92212500D03*
%TO.P,C3,2*%
%TO.N,GND*%
X129700000Y-94287500D03*
%TD*%
D36*
%TO.P,CN7,1,Pin_1*%
%TO.N,/PC10*%
X112000000Y-76280000D03*
D37*
%TO.P,CN7,2,Pin_2*%
%TO.N,/PC11*%
X114540000Y-76280000D03*
%TO.P,CN7,3,Pin_3*%
%TO.N,/PC12*%
X112000000Y-78820000D03*
%TO.P,CN7,4,Pin_4*%
%TO.N,/PD2*%
X114540000Y-78820000D03*
%TO.P,CN7,5,Pin_5*%
%TO.N,/VDD*%
X112000000Y-81360000D03*
%TO.P,CN7,6,Pin_6*%
%TO.N,/E5V*%
X114540000Y-81360000D03*
%TO.P,CN7,7,Pin_7*%
%TO.N,/BOOT0*%
X112000000Y-83900000D03*
%TO.P,CN7,8,Pin_8*%
%TO.N,GND*%
X114540000Y-83900000D03*
%TO.P,CN7,9,Pin_9*%
%TO.N,unconnected-(CN7-Pin_9-Pad9)*%
X112000000Y-86440000D03*
%TO.P,CN7,10,Pin_10*%
%TO.N,unconnected-(CN7-Pin_10-Pad10)*%
X114540000Y-86440000D03*
%TO.P,CN7,11,Pin_11*%
%TO.N,unconnected-(CN7-Pin_11-Pad11)*%
X112000000Y-88980000D03*
%TO.P,CN7,12,Pin_12*%
%TO.N,/IOREF*%
X114540000Y-88980000D03*
%TO.P,CN7,13,Pin_13*%
%TO.N,/PA13*%
X112000000Y-91520000D03*
%TO.P,CN7,14,Pin_14*%
%TO.N,/RST*%
X114540000Y-91520000D03*
%TO.P,CN7,15,Pin_15*%
%TO.N,/PA14*%
X112000000Y-94060000D03*
%TO.P,CN7,16,Pin_16*%
%TO.N,+3V3*%
X114540000Y-94060000D03*
%TO.P,CN7,17,Pin_17*%
%TO.N,/PA15*%
X112000000Y-96600000D03*
%TO.P,CN7,18,Pin_18*%
%TO.N,+5V*%
X114540000Y-96600000D03*
%TO.P,CN7,19,Pin_19*%
%TO.N,GND*%
X112000000Y-99140000D03*
%TO.P,CN7,20,Pin_20*%
X114540000Y-99140000D03*
%TO.P,CN7,21,Pin_21*%
%TO.N,/PB7*%
X112000000Y-101680000D03*
%TO.P,CN7,22,Pin_22*%
%TO.N,GND*%
X114540000Y-101680000D03*
%TO.P,CN7,23,Pin_23*%
%TO.N,/PC13*%
X112000000Y-104220000D03*
%TO.P,CN7,24,Pin_24*%
%TO.N,/VIN*%
X114540000Y-104220000D03*
%TO.P,CN7,25,Pin_25*%
%TO.N,/PC14*%
X112000000Y-106760000D03*
%TO.P,CN7,26,Pin_26*%
%TO.N,unconnected-(CN7-Pin_26-Pad26)*%
X114540000Y-106760000D03*
%TO.P,CN7,27,Pin_27*%
%TO.N,/PC15*%
X112000000Y-109300000D03*
%TO.P,CN7,28,Pin_28*%
%TO.N,/PA0*%
X114540000Y-109300000D03*
%TO.P,CN7,29,Pin_29*%
%TO.N,/PH0*%
X112000000Y-111840000D03*
%TO.P,CN7,30,Pin_30*%
%TO.N,/PA1*%
X114540000Y-111840000D03*
%TO.P,CN7,31,Pin_31*%
%TO.N,/PH1*%
X112000000Y-114380000D03*
%TO.P,CN7,32,Pin_32*%
%TO.N,/PA4*%
X114540000Y-114380000D03*
%TO.P,CN7,33,Pin_33*%
%TO.N,/VBAT*%
X112000000Y-116920000D03*
%TO.P,CN7,34,Pin_34*%
%TO.N,/PB0*%
X114540000Y-116920000D03*
%TO.P,CN7,35,Pin_35*%
%TO.N,/PC2*%
X112000000Y-119460000D03*
%TO.P,CN7,36,Pin_36*%
%TO.N,/PC1*%
X114540000Y-119460000D03*
%TO.P,CN7,37,Pin_37*%
%TO.N,/PC3*%
X112000000Y-122000000D03*
%TO.P,CN7,38,Pin_38*%
%TO.N,/PC0*%
X114540000Y-122000000D03*
%TD*%
D13*
%TO.P,C14,1*%
%TO.N,+1V8*%
X160012500Y-110300000D03*
%TO.P,C14,2*%
%TO.N,GND*%
X162087500Y-110300000D03*
%TD*%
D38*
%TO.P,M4,1,-*%
%TO.N,Net-(D12-A)*%
X131520000Y-136290000D03*
D39*
%TO.P,M4,2,+*%
%TO.N,+12V*%
X131520000Y-133750000D03*
%TO.P,M4,3,Tach*%
%TO.N,unconnected-(M4-Tach-Pad3)*%
X131520000Y-131210000D03*
%TD*%
D42*
%TO.P,J4,1,Pin_1*%
%TO.N,GND*%
X161750000Y-75250000D03*
D43*
%TO.P,J4,2,Pin_2*%
%TO.N,/VESC_5V*%
X161750000Y-73250000D03*
%TO.P,J4,3,Pin_3*%
%TO.N,/PC9*%
X161750000Y-71250000D03*
%TD*%
D44*
%TO.P,U4,1,GNDA*%
%TO.N,GND*%
X155250000Y-98290000D03*
%TO.P,U4,2,OUTA*%
%TO.N,Net-(M1-+)*%
X155250000Y-97020000D03*
%TO.P,U4,3,INA*%
%TO.N,Net-(U4-INA)*%
X155250000Y-95750000D03*
%TO.P,U4,4,VCC*%
%TO.N,+12V*%
X155250000Y-94480000D03*
%TO.P,U4,5,VCC*%
X155250000Y-93210000D03*
%TO.P,U4,6,INB*%
%TO.N,Net-(U4-INB)*%
X155250000Y-91940000D03*
%TO.P,U4,7,OUTB*%
%TO.N,Net-(M1--)*%
X155250000Y-90670000D03*
%TO.P,U4,8,GNDB*%
%TO.N,GND*%
X155250000Y-89400000D03*
%TO.P,U4,9,GNDB*%
X150250000Y-89400000D03*
%TO.P,U4,10,OUTB*%
%TO.N,Net-(M1--)*%
X150250000Y-90670000D03*
%TO.P,U4,11,EN/DIAGB*%
%TO.N,Net-(U4-EN{slash}DIAGB)*%
X150250000Y-91940000D03*
%TO.P,U4,12,VCC*%
%TO.N,+12V*%
X150250000Y-93210000D03*
%TO.P,U4,13,CS*%
%TO.N,Net-(U4-CS)*%
X150250000Y-94480000D03*
%TO.P,U4,14,EN/DIAGA*%
%TO.N,Net-(U4-EN{slash}DIAGA)*%
X150250000Y-95750000D03*
%TO.P,U4,15,OUTA*%
%TO.N,Net-(M1-+)*%
X150250000Y-97020000D03*
%TO.P,U4,16,GNDA*%
%TO.N,GND*%
X150250000Y-98290000D03*
%TD*%
D15*
%TO.P,R23,1*%
%TO.N,/Jetson USB/D-*%
X128000000Y-114500000D03*
%TO.P,R23,2*%
%TO.N,Net-(U3-USBDM)*%
X128000000Y-112500000D03*
%TD*%
D29*
%TO.P,Q1,1,G*%
%TO.N,/PC2*%
X111800000Y-127937500D03*
%TO.P,Q1,2,S*%
%TO.N,GND*%
X113700000Y-127937500D03*
%TO.P,Q1,3,D*%
%TO.N,Net-(D10-A)*%
X112750000Y-126062500D03*
%TD*%
D12*
%TO.P,D3,1,K*%
%TO.N,Net-(D3-K)*%
X166500000Y-83525000D03*
%TO.P,D3,2,A*%
%TO.N,/PC6*%
X166500000Y-81475000D03*
%TD*%
D38*
%TO.P,M5,1,-*%
%TO.N,Net-(D13-A)*%
X140040000Y-136290000D03*
D39*
%TO.P,M5,2,+*%
%TO.N,+12V*%
X140040000Y-133750000D03*
%TO.P,M5,3,Tach*%
%TO.N,unconnected-(M5-Tach-Pad3)*%
X140040000Y-131210000D03*
%TD*%
D45*
%TO.P,U3,1,TXD*%
%TO.N,/PA1*%
X122400000Y-106027500D03*
%TO.P,U3,2,~{RTS}*%
%TO.N,unconnected-(U3-~{RTS}-Pad2)*%
X122400000Y-106662500D03*
%TO.P,U3,3,VCCIO*%
%TO.N,+3V3*%
X122400000Y-107297500D03*
%TO.P,U3,4,RXD*%
%TO.N,/PA0*%
X122400000Y-107932500D03*
%TO.P,U3,5,GND*%
%TO.N,GND*%
X122400000Y-108567500D03*
%TO.P,U3,6,~{CTS}*%
%TO.N,unconnected-(U3-~{CTS}-Pad6)*%
X122400000Y-109202500D03*
%TO.P,U3,7,CBUS2*%
%TO.N,Net-(U3-CBUS2)*%
X122400000Y-109837500D03*
%TO.P,U3,8,USBDP*%
%TO.N,Net-(U3-USBDP)*%
X122400000Y-110472500D03*
%TO.P,U3,9,USBDM*%
%TO.N,Net-(U3-USBDM)*%
X127600000Y-110472500D03*
%TO.P,U3,10,3V3OUT*%
%TO.N,+3V3*%
X127600000Y-109837500D03*
%TO.P,U3,11,~{RESET}*%
X127600000Y-109202500D03*
%TO.P,U3,12,VCC*%
X127600000Y-108567500D03*
%TO.P,U3,13,GND*%
%TO.N,GND*%
X127600000Y-107932500D03*
%TO.P,U3,14,CBUS1*%
%TO.N,Net-(U3-CBUS1)*%
X127600000Y-107297500D03*
%TO.P,U3,15,CBUS0*%
%TO.N,Net-(U3-CBUS0)*%
X127600000Y-106662500D03*
%TO.P,U3,16,CBUS3*%
%TO.N,unconnected-(U3-CBUS3-Pad16)*%
X127600000Y-106027500D03*
%TD*%
D23*
%TO.P,C16,1*%
%TO.N,Net-(U5-REGOUT)*%
X153137500Y-108637500D03*
%TO.P,C16,2*%
%TO.N,GND*%
X151062500Y-108637500D03*
%TD*%
D16*
%TO.P,D10,1,K*%
%TO.N,+12V*%
X115750000Y-128350000D03*
%TO.P,D10,2,A*%
%TO.N,Net-(D10-A)*%
X115750000Y-126150000D03*
%TD*%
D15*
%TO.P,R13,1*%
%TO.N,/BRAKE_CS*%
X141250000Y-97845000D03*
%TO.P,R13,2*%
%TO.N,Net-(U4-CS)*%
X141250000Y-95845000D03*
%TD*%
D12*
%TO.P,D4,1,K*%
%TO.N,Net-(D4-K)*%
X169250000Y-83525000D03*
%TO.P,D4,2,A*%
%TO.N,/PB9*%
X169250000Y-81475000D03*
%TD*%
D13*
%TO.P,C12,1*%
%TO.N,GND*%
X145712500Y-93095000D03*
%TO.P,C12,2*%
%TO.N,+12V*%
X147787500Y-93095000D03*
%TD*%
D23*
%TO.P,C9,1*%
%TO.N,/E5V*%
X126737500Y-80750000D03*
%TO.P,C9,2*%
%TO.N,GND*%
X124662500Y-80750000D03*
%TD*%
D38*
%TO.P,M3,1,-*%
%TO.N,Net-(D11-A)*%
X123040000Y-136290000D03*
D39*
%TO.P,M3,2,+*%
%TO.N,+12V*%
X123040000Y-133750000D03*
%TO.P,M3,3,Tach*%
%TO.N,unconnected-(M3-Tach-Pad3)*%
X123040000Y-131210000D03*
%TD*%
D12*
%TO.P,D2,1,K*%
%TO.N,Net-(D2-K)*%
X163750000Y-83525000D03*
%TO.P,D2,2,A*%
%TO.N,/PB8*%
X163750000Y-81475000D03*
%TD*%
D46*
%TO.P,C11,1*%
%TO.N,+12V*%
X148900000Y-83595000D03*
%TO.P,C11,2*%
%TO.N,GND*%
X156100000Y-83595000D03*
%TD*%
D47*
%TO.P,L1,1*%
%TO.N,Net-(U1-SW)*%
X131250000Y-86921000D03*
%TO.P,L1,2*%
%TO.N,/E5V*%
X131250000Y-81079000D03*
%TD*%
D15*
%TO.P,R17,1*%
%TO.N,Net-(U4-EN{slash}DIAGB)*%
X144750000Y-90845000D03*
%TO.P,R17,2*%
%TO.N,/BRAKE_ENB*%
X144750000Y-88845000D03*
%TD*%
D20*
%TO.P,D8,1,K*%
%TO.N,Net-(D8-K)*%
X132025000Y-112250000D03*
%TO.P,D8,2,A*%
%TO.N,+3V3*%
X129975000Y-112250000D03*
%TD*%
D22*
%TO.P,R28,1*%
%TO.N,Net-(U3-CBUS2)*%
X118000000Y-109750000D03*
%TO.P,R28,2*%
%TO.N,Net-(D9-K)*%
X120000000Y-109750000D03*
%TD*%
D25*
%TO.P,R25,1*%
%TO.N,/Jetson USB/VBUS*%
X132000000Y-105500000D03*
%TO.P,R25,2*%
%TO.N,Net-(U3-CBUS0)*%
X130000000Y-105500000D03*
%TD*%
D48*
%TO.P,J3,1,Pin_1*%
%TO.N,GND*%
X156790000Y-133500000D03*
D49*
%TO.P,J3,2,Pin_2*%
%TO.N,+5V*%
X154250000Y-133500000D03*
%TO.P,J3,3,Pin_3*%
%TO.N,/LED_SIG*%
X151710000Y-133500000D03*
%TD*%
D23*
%TO.P,C6,1*%
%TO.N,/E5V*%
X126737500Y-87500000D03*
%TO.P,C6,2*%
%TO.N,GND*%
X124662500Y-87500000D03*
%TD*%
D50*
%TO.P,J6,1,Pin_1*%
%TO.N,GND*%
X140250000Y-120050000D03*
D51*
%TO.P,J6,2,Pin_2*%
%TO.N,/PA9*%
X140250000Y-115850000D03*
%TO.P,J6,3,Pin_3*%
%TO.N,/PB2*%
X140250000Y-111650000D03*
%TO.P,J6,4,Pin_4*%
%TO.N,+12V*%
X140250000Y-107450000D03*
%TO.P,J6,5,Pin_5*%
%TO.N,GND*%
X145750000Y-120050000D03*
%TO.P,J6,6,Pin_6*%
X145750000Y-115850000D03*
%TO.P,J6,7,Pin_7*%
X145750000Y-111650000D03*
%TO.P,J6,8,Pin_8*%
X145750000Y-107450000D03*
%TD*%
D16*
%TO.P,D12,1,K*%
%TO.N,+12V*%
X132750000Y-128350000D03*
%TO.P,D12,2,A*%
%TO.N,Net-(D12-A)*%
X132750000Y-126150000D03*
%TD*%
D29*
%TO.P,Q3,1,G*%
%TO.N,/PC0*%
X128800000Y-127937500D03*
%TO.P,Q3,2,S*%
%TO.N,GND*%
X130700000Y-127937500D03*
%TO.P,Q3,3,D*%
%TO.N,Net-(D12-A)*%
X129750000Y-126062500D03*
%TD*%
D14*
%TO.P,C13,1*%
%TO.N,+1V8*%
X155300000Y-106800000D03*
%TO.P,C13,2*%
%TO.N,GND*%
X155300000Y-108875000D03*
%TD*%
D52*
%TO.N,GND*%
X125000000Y-116000000D03*
X163700000Y-108100000D03*
X131000000Y-106700000D03*
X128600000Y-89100000D03*
X152200000Y-102100000D03*
X131600000Y-127900000D03*
X123102603Y-90702603D03*
X139700000Y-94300000D03*
X140100000Y-127900000D03*
X170400000Y-125300000D03*
X144300000Y-93400000D03*
D53*
X155200000Y-81500000D03*
D52*
X123100000Y-81800000D03*
X142500000Y-99600000D03*
X125200000Y-105900000D03*
X150100000Y-110200000D03*
X114600000Y-127900000D03*
X158500000Y-108700000D03*
X156900000Y-102800000D03*
X135900000Y-94300000D03*
X123900000Y-110600000D03*
X153000000Y-111400000D03*
D53*
X157500000Y-98800000D03*
D52*
X128900000Y-97700000D03*
X166500000Y-71400000D03*
D53*
X157100000Y-89000000D03*
D52*
X123100000Y-127900000D03*
X159600000Y-81500000D03*
X150500000Y-127300000D03*
%TO.N,+3V3*%
X170500000Y-119800000D03*
X177100000Y-73100000D03*
X126500000Y-109200000D03*
X148400000Y-88700000D03*
X119000000Y-113300000D03*
X151200000Y-102100000D03*
X121000000Y-107300000D03*
X148300000Y-99100000D03*
D53*
%TO.N,+5V*%
X117500000Y-106200000D03*
X117500000Y-116800000D03*
D52*
%TO.N,/PA1*%
X116400000Y-109000000D03*
X116400000Y-107550000D03*
%TO.N,/PC1*%
X137420000Y-124600000D03*
X135220000Y-124600000D03*
X116900000Y-122999994D03*
X119100000Y-123000000D03*
%TO.N,/PC3*%
X116900000Y-125000000D03*
X119100000Y-125000000D03*
%TO.N,/PC0*%
X119100000Y-123999997D03*
X116900000Y-123999997D03*
%TO.N,/PC9*%
X166650153Y-74150153D03*
X165624847Y-73124847D03*
%TO.N,/PB10*%
X166207109Y-105892891D03*
X170625153Y-107125153D03*
X157500383Y-114525000D03*
X157499997Y-115975000D03*
%TO.N,/PB15*%
X157500000Y-108687500D03*
X156475482Y-115974209D03*
X157454690Y-107287500D03*
X156500380Y-114525000D03*
%TO.N,/PB4*%
X158500000Y-115975000D03*
X158500000Y-120525000D03*
X158500000Y-114500000D03*
X158500000Y-121975000D03*
%TO.N,/PB14*%
X170168281Y-105531413D03*
D53*
%TO.N,+12V*%
X152750000Y-87750000D03*
D52*
X152750000Y-93000000D03*
%TO.N,Net-(U1-FB)*%
X128600000Y-90725000D03*
X124500000Y-91200000D03*
%TO.N,Net-(D1-K)*%
X159800000Y-83500000D03*
%TO.N,Net-(D2-K)*%
X162500000Y-83500000D03*
%TO.N,Net-(D3-K)*%
X165300000Y-83500000D03*
%TO.N,Net-(D4-K)*%
X168000000Y-83500000D03*
%TO.N,Net-(D5-K)*%
X166600000Y-69700000D03*
%TO.N,Net-(D6-K)*%
X170600000Y-69700000D03*
%TO.N,Net-(D7-K)*%
X174600000Y-69700000D03*
%TO.N,Net-(U4-INA)*%
X157200000Y-95700000D03*
X164500000Y-95600000D03*
%TO.N,Net-(U4-INB)*%
X164300000Y-91900000D03*
X157200000Y-91900000D03*
%TO.N,+1V8*%
X156454687Y-107287500D03*
X157225380Y-110006403D03*
%TO.N,/BRAKE_ENB*%
X143400000Y-88900000D03*
X153200000Y-85300000D03*
%TO.N,/IMU_CS*%
X165500000Y-106600000D03*
%TO.N,/IMU_INT1*%
X158300000Y-110200000D03*
%TD*%
D54*
%TO.N,/Jetson USB/VBUS*%
X132925000Y-113175000D02*
X130750000Y-115350000D01*
X130750000Y-115350000D02*
X130600000Y-115500000D01*
X130460050Y-115339950D02*
X130739950Y-115339950D01*
X130739950Y-115339950D02*
X130750000Y-115350000D01*
X130460050Y-115339950D02*
X130600000Y-115479900D01*
X128695100Y-113575000D02*
X130460050Y-115339950D01*
X130460050Y-115560050D02*
X130500000Y-115600000D01*
X130600000Y-115500000D02*
X130500000Y-115600000D01*
X130500000Y-115600000D02*
X127600000Y-118500000D01*
X130460050Y-115339950D02*
X130460050Y-115560050D01*
X125000000Y-112362500D02*
X125000000Y-113024999D01*
X125000000Y-113024999D02*
X125550001Y-113575000D01*
X125550001Y-113575000D02*
X128695100Y-113575000D01*
X130600000Y-115479900D02*
X130600000Y-115500000D01*
D55*
%TO.N,/Jetson USB/D-*%
X125950000Y-114637500D02*
X127862500Y-114637500D01*
X127862500Y-114637500D02*
X128000000Y-114500000D01*
D54*
%TO.N,Net-(U3-USBDM)*%
X128000000Y-112500000D02*
X128000000Y-110872500D01*
X128000000Y-110872500D02*
X127600000Y-110472500D01*
%TO.N,/PC12*%
X120250000Y-72550000D02*
X120250000Y-70750000D01*
X112000000Y-78820000D02*
X113175000Y-77645000D01*
X115155000Y-77645000D02*
X120250000Y-72550000D01*
X113175000Y-77645000D02*
X115155000Y-77645000D01*
%TO.N,/PD2*%
X115742081Y-78820000D02*
X122250000Y-72312081D01*
X122250000Y-72312081D02*
X122250000Y-70750000D01*
X114540000Y-78820000D02*
X115742081Y-78820000D01*
D56*
%TO.N,/E5V*%
X126737500Y-80025000D02*
X126012500Y-79300000D01*
D54*
X124179900Y-88600000D02*
X125587500Y-88600000D01*
X125587500Y-88600000D02*
X126737500Y-89750000D01*
X121462500Y-92250000D02*
X121462500Y-91317400D01*
D56*
X126737500Y-80750000D02*
X126737500Y-80025000D01*
D54*
X121462500Y-92250000D02*
X121462500Y-96712500D01*
D56*
X126737500Y-80750000D02*
X130921000Y-80750000D01*
X130921000Y-80750000D02*
X131250000Y-81079000D01*
X126012500Y-79300000D02*
X116600000Y-79300000D01*
X116600000Y-79300000D02*
X114540000Y-81360000D01*
D54*
X121462500Y-91317400D02*
X124179900Y-88600000D01*
D56*
X126737500Y-80750000D02*
X126737500Y-89750000D01*
D54*
X121462500Y-96712500D02*
X121500000Y-96750000D01*
D57*
%TO.N,GND*%
X140062500Y-127937500D02*
X140100000Y-127900000D01*
D54*
X139000000Y-95000000D02*
X139700000Y-94300000D01*
X124662500Y-89750000D02*
X124055206Y-89750000D01*
X129700000Y-94287500D02*
X134200000Y-94287500D01*
D57*
X113700000Y-127937500D02*
X114562500Y-127937500D01*
D54*
X155300000Y-108875000D02*
X155300000Y-109100000D01*
X123215000Y-108567500D02*
X125200000Y-106582500D01*
D57*
X114562500Y-127937500D02*
X114600000Y-127900000D01*
D54*
X125000000Y-114637500D02*
X125000000Y-116000000D01*
X124662500Y-87500000D02*
X124662500Y-80750000D01*
D56*
X156990000Y-98290000D02*
X157500000Y-98800000D01*
D54*
X131250000Y-89500000D02*
X129750000Y-89500000D01*
X152975000Y-113250000D02*
X152975000Y-111425000D01*
D56*
X156700000Y-89400000D02*
X157100000Y-89000000D01*
D54*
X150550000Y-127250000D02*
X150500000Y-127300000D01*
D55*
X162500000Y-107300000D02*
X162900000Y-107300000D01*
X162000000Y-108200000D02*
X162000000Y-110212500D01*
X159500000Y-107300000D02*
X159128640Y-107300000D01*
D54*
X129750000Y-89500000D02*
X129000000Y-89500000D01*
D57*
X131562500Y-127937500D02*
X131600000Y-127900000D01*
D56*
X156100000Y-83595000D02*
X156100000Y-82400000D01*
D54*
X168025000Y-125250000D02*
X170350000Y-125250000D01*
X135887500Y-94287500D02*
X135900000Y-94300000D01*
X132000000Y-107750000D02*
X132000000Y-107700000D01*
X134200000Y-94287500D02*
X135887500Y-94287500D01*
D56*
X156100000Y-82400000D02*
X155200000Y-81500000D01*
X155250000Y-89400000D02*
X156700000Y-89400000D01*
X155250000Y-98290000D02*
X156990000Y-98290000D01*
D54*
X124150000Y-80750000D02*
X123100000Y-81800000D01*
X132000000Y-107700000D02*
X131000000Y-106700000D01*
D57*
X123062500Y-127937500D02*
X123100000Y-127900000D01*
D54*
X145712500Y-93095000D02*
X144605000Y-93095000D01*
X155300000Y-102800000D02*
X156900000Y-102800000D01*
X129000000Y-89500000D02*
X128600000Y-89100000D01*
X125200000Y-106382500D02*
X125200000Y-105900000D01*
X139000000Y-95807500D02*
X139000000Y-95000000D01*
X122400000Y-108567500D02*
X123215000Y-108567500D01*
X143250000Y-97845000D02*
X143250000Y-98850000D01*
X126750000Y-107932500D02*
X125200000Y-106382500D01*
X151062500Y-108637500D02*
X151062500Y-109237500D01*
D57*
X139220000Y-127937500D02*
X140062500Y-127937500D01*
D55*
X162087500Y-110300000D02*
X163700000Y-108687500D01*
D54*
X127600000Y-107932500D02*
X126750000Y-107932500D01*
D55*
X163700000Y-108687500D02*
X163700000Y-108100000D01*
D54*
X124662500Y-80750000D02*
X124150000Y-80750000D01*
X152975000Y-111425000D02*
X153000000Y-111400000D01*
X143250000Y-98850000D02*
X142500000Y-99600000D01*
D55*
X162900000Y-107300000D02*
X163700000Y-108100000D01*
D57*
X122220000Y-127937500D02*
X123062500Y-127937500D01*
D54*
X124055206Y-89750000D02*
X123102603Y-90702603D01*
X144605000Y-93095000D02*
X144300000Y-93400000D01*
D55*
X158500000Y-107928640D02*
X158500000Y-108700000D01*
D54*
X152975000Y-127250000D02*
X150550000Y-127250000D01*
D55*
X162000000Y-110212500D02*
X162087500Y-110300000D01*
D54*
X125500000Y-94500000D02*
X125500000Y-94750000D01*
X151062500Y-109237500D02*
X150100000Y-110200000D01*
D57*
X130700000Y-127937500D02*
X131562500Y-127937500D01*
D54*
X127950000Y-96750000D02*
X128900000Y-97700000D01*
X155300000Y-109100000D02*
X153000000Y-111400000D01*
D55*
X159128640Y-107300000D02*
X158500000Y-107928640D01*
D54*
X127500000Y-96750000D02*
X127950000Y-96750000D01*
X125200000Y-106582500D02*
X125200000Y-105900000D01*
D56*
X150250000Y-89400000D02*
X155250000Y-89400000D01*
D54*
X152200000Y-103687500D02*
X152200000Y-102100000D01*
X170350000Y-125250000D02*
X170400000Y-125300000D01*
X125500000Y-94750000D02*
X127500000Y-96750000D01*
D56*
X150250000Y-98290000D02*
X155250000Y-98290000D01*
D54*
%TO.N,+3V3*%
X151325000Y-104792500D02*
X153075000Y-104792500D01*
X168025000Y-119250000D02*
X169950000Y-119250000D01*
X122400000Y-107297500D02*
X121002500Y-107297500D01*
X127600000Y-109837500D02*
X128450000Y-109837500D01*
X151250000Y-103687500D02*
X151250000Y-102150000D01*
X147250000Y-98050000D02*
X148300000Y-99100000D01*
X126500000Y-109200000D02*
X127597500Y-109200000D01*
X127597500Y-109200000D02*
X127600000Y-109202500D01*
X169950000Y-119250000D02*
X170500000Y-119800000D01*
X151250000Y-103687500D02*
X151250000Y-104717500D01*
X148255000Y-88845000D02*
X148400000Y-88700000D01*
X129000000Y-111275000D02*
X129975000Y-112250000D01*
X117975000Y-112000000D02*
X117975000Y-112275000D01*
X176000000Y-71775000D02*
X176000000Y-72000000D01*
X176000000Y-72000000D02*
X177100000Y-73100000D01*
X153075000Y-104792500D02*
X153150000Y-104717500D01*
X129000000Y-110387500D02*
X129000000Y-111275000D01*
X128450000Y-109837500D02*
X129000000Y-110387500D01*
X147250000Y-97845000D02*
X147250000Y-98050000D01*
X153150000Y-104717500D02*
X153150000Y-103687500D01*
X151250000Y-104717500D02*
X151325000Y-104792500D01*
X127600000Y-109837500D02*
X127600000Y-108567500D01*
X121002500Y-107297500D02*
X121000000Y-107300000D01*
X146750000Y-88845000D02*
X148255000Y-88845000D01*
X151250000Y-102150000D02*
X151200000Y-102100000D01*
X117975000Y-112275000D02*
X119000000Y-113300000D01*
D56*
%TO.N,+5V*%
X155000000Y-137860000D02*
X154810000Y-137860000D01*
X178000000Y-76587968D02*
X173187032Y-71775000D01*
X153400000Y-137860000D02*
X154300000Y-137860000D01*
X153690000Y-137860000D02*
X154250000Y-137300000D01*
X178000000Y-136800000D02*
X178000000Y-76587968D01*
X154250000Y-133500000D02*
X154250000Y-137300000D01*
X154250000Y-137810000D02*
X154300000Y-137860000D01*
X114540000Y-96600000D02*
X117500000Y-99560000D01*
X117500000Y-99560000D02*
X117500000Y-106200000D01*
X118900000Y-137860000D02*
X153400000Y-137860000D01*
X154250000Y-137300000D02*
X154250000Y-137810000D01*
X154300000Y-137860000D02*
X155000000Y-137860000D01*
X154810000Y-137860000D02*
X154250000Y-137300000D01*
X155000000Y-137860000D02*
X163660000Y-137860000D01*
X163660000Y-137860000D02*
X163700000Y-137900000D01*
X117500000Y-116800000D02*
X118000000Y-117300000D01*
X118000000Y-117300000D02*
X118000000Y-136960000D01*
X118000000Y-136960000D02*
X118900000Y-137860000D01*
X173187032Y-71775000D02*
X172000000Y-71775000D01*
X153400000Y-137860000D02*
X153690000Y-137860000D01*
X163700000Y-137900000D02*
X176900000Y-137900000D01*
X176900000Y-137900000D02*
X178000000Y-136800000D01*
D54*
%TO.N,/PA0*%
X115565000Y-108275000D02*
X121375000Y-108275000D01*
X121375000Y-108275000D02*
X121717500Y-107932500D01*
X114540000Y-109300000D02*
X115565000Y-108275000D01*
X121717500Y-107932500D02*
X122400000Y-107932500D01*
%TO.N,/PA1*%
X116400000Y-109980000D02*
X116400000Y-109000000D01*
X116400000Y-107550000D02*
X119724695Y-107550000D01*
X114540000Y-111840000D02*
X116400000Y-109980000D01*
X121247195Y-106027500D02*
X122400000Y-106027500D01*
X119724695Y-107550000D02*
X121247195Y-106027500D01*
%TO.N,/PC2*%
X111800000Y-127937500D02*
X110825000Y-126962500D01*
X110825000Y-126962500D02*
X110825000Y-120635000D01*
X110825000Y-120635000D02*
X112000000Y-119460000D01*
%TO.N,/PC1*%
X137320000Y-124700000D02*
X137320000Y-127937500D01*
X116900000Y-121820000D02*
X116900000Y-122999994D01*
X133620000Y-123000000D02*
X135220000Y-124600000D01*
X114540000Y-119460000D02*
X116900000Y-121820000D01*
X137420000Y-124600000D02*
X137320000Y-124700000D01*
X119100000Y-123000000D02*
X133620000Y-123000000D01*
%TO.N,/PC3*%
X115489860Y-125000000D02*
X116900000Y-125000000D01*
X112000000Y-122000000D02*
X112489860Y-122000000D01*
X120320000Y-126220000D02*
X120320000Y-127937500D01*
X119100000Y-125000000D02*
X120320000Y-126220000D01*
X112489860Y-122000000D02*
X115489860Y-125000000D01*
%TO.N,/PC0*%
X116539997Y-123999997D02*
X116900000Y-123999997D01*
X119100000Y-123999997D02*
X124862497Y-123999997D01*
X114540000Y-122000000D02*
X116539997Y-123999997D01*
X124862497Y-123999997D02*
X128800000Y-127937500D01*
%TO.N,/PC9*%
X166650153Y-74150153D02*
X168780000Y-76280000D01*
X168780000Y-76280000D02*
X172960000Y-76280000D01*
X161750000Y-71250000D02*
X163750000Y-71250000D01*
X163750000Y-71250000D02*
X165624847Y-73124847D01*
%TO.N,/PC8*%
X165020000Y-77455000D02*
X174325000Y-77455000D01*
X161000000Y-81475000D02*
X165020000Y-77455000D01*
X174325000Y-77455000D02*
X175500000Y-76280000D01*
%TO.N,/PB8*%
X166405000Y-78820000D02*
X172960000Y-78820000D01*
X163750000Y-81475000D02*
X166405000Y-78820000D01*
%TO.N,/PC6*%
X166500000Y-81475000D02*
X167790000Y-80185000D01*
X167790000Y-80185000D02*
X174135000Y-80185000D01*
X174135000Y-80185000D02*
X175500000Y-78820000D01*
%TO.N,/PB9*%
X169250000Y-81475000D02*
X172845000Y-81475000D01*
X172845000Y-81475000D02*
X172960000Y-81360000D01*
%TO.N,/PA9*%
X143775000Y-106625000D02*
X149100000Y-101300000D01*
X149100000Y-101300000D02*
X172580000Y-101300000D01*
X143775000Y-112325000D02*
X143775000Y-106625000D01*
X172580000Y-101300000D02*
X172960000Y-101680000D01*
X140250000Y-115850000D02*
X143775000Y-112325000D01*
%TO.N,/PB2*%
X143325000Y-108575000D02*
X143325000Y-106438604D01*
X172473299Y-100505000D02*
X174325000Y-100505000D01*
X172128299Y-100850000D02*
X172473299Y-100505000D01*
X143325000Y-106438604D02*
X148913604Y-100850000D01*
X174325000Y-100505000D02*
X175500000Y-101680000D01*
X140250000Y-111650000D02*
X143325000Y-108575000D01*
X148913604Y-100850000D02*
X172128299Y-100850000D01*
D55*
%TO.N,/PB10*%
X162500000Y-106100000D02*
X165010050Y-106100000D01*
D54*
X154224997Y-119250000D02*
X157499997Y-115975000D01*
X170493423Y-107125153D02*
X170625153Y-107125153D01*
D55*
X165010050Y-106100000D02*
X165217159Y-105892891D01*
D54*
X157500383Y-114525000D02*
X157500383Y-114474312D01*
X172960000Y-106760000D02*
X170990306Y-106760000D01*
X170990306Y-106760000D02*
X170625153Y-107125153D01*
X163843576Y-113775000D02*
X170493423Y-107125153D01*
D55*
X165217159Y-105892891D02*
X166207109Y-105892891D01*
D54*
X158199695Y-113775000D02*
X163843576Y-113775000D01*
X157500383Y-114474312D02*
X158199695Y-113775000D01*
X152975000Y-119250000D02*
X154224997Y-119250000D01*
%TO.N,/PB15*%
X155199691Y-117250000D02*
X156475482Y-115974209D01*
D55*
X158242190Y-106500000D02*
X157454690Y-107287500D01*
D54*
X171140000Y-105585000D02*
X174325000Y-105585000D01*
X156500380Y-114525000D02*
X156500380Y-109687120D01*
X156500380Y-114499698D02*
X157675078Y-113325000D01*
X156500380Y-114525000D02*
X156500380Y-114499698D01*
X174325000Y-105585000D02*
X175500000Y-106760000D01*
X157675078Y-113325000D02*
X163400000Y-113325000D01*
X163400000Y-113325000D02*
X171140000Y-105585000D01*
X156500380Y-109687120D02*
X157500000Y-108687500D01*
D55*
X159500000Y-106500000D02*
X158242190Y-106500000D01*
D54*
X152975000Y-117250000D02*
X155199691Y-117250000D01*
%TO.N,/PB4*%
X163754972Y-114500000D02*
X168954972Y-109300000D01*
X158500000Y-115975000D02*
X158500000Y-120525000D01*
X157225000Y-123250000D02*
X152975000Y-123250000D01*
X172960000Y-109300000D02*
X168954972Y-109300000D01*
X163754972Y-114500000D02*
X158500000Y-114500000D01*
X158500000Y-121975000D02*
X157225000Y-123250000D01*
%TO.N,/PB14*%
X168416368Y-110475000D02*
X174325000Y-110475000D01*
D55*
X162500000Y-105700000D02*
X163007109Y-105192891D01*
D54*
X163641368Y-115250000D02*
X168416368Y-110475000D01*
D55*
X169829759Y-105192891D02*
X170168281Y-105531413D01*
D54*
X174325000Y-110475000D02*
X175500000Y-109300000D01*
D55*
X163007109Y-105192891D02*
X169829759Y-105192891D01*
D54*
X152975000Y-115250000D02*
X163641368Y-115250000D01*
%TO.N,/PB5*%
X169500000Y-117250000D02*
X170100000Y-116650000D01*
X170100000Y-116650000D02*
X170100000Y-112800000D01*
X168025000Y-117250000D02*
X169500000Y-117250000D01*
X171060000Y-111840000D02*
X172960000Y-111840000D01*
X170100000Y-112800000D02*
X171060000Y-111840000D01*
%TO.N,/PB13*%
X169448632Y-118210000D02*
X170550000Y-117108632D01*
X172473299Y-113015000D02*
X174325000Y-113015000D01*
X170550000Y-117108632D02*
X170550000Y-114938299D01*
X163641368Y-121250000D02*
X166681368Y-118210000D01*
X166681368Y-118210000D02*
X169448632Y-118210000D01*
X152975000Y-121250000D02*
X163641368Y-121250000D01*
X170550000Y-114938299D02*
X172473299Y-113015000D01*
X174325000Y-113015000D02*
X175500000Y-111840000D01*
%TO.N,+12V*%
X153095000Y-79400000D02*
X160375000Y-79400000D01*
D56*
X134200000Y-92212500D02*
X131950000Y-92212500D01*
D57*
X116065000Y-132205000D02*
X114520000Y-133750000D01*
X124585000Y-128665000D02*
X124585000Y-132205000D01*
D56*
X135368135Y-92212500D02*
X137575000Y-94419365D01*
X134200000Y-92212500D02*
X134200000Y-91550000D01*
X137575000Y-94419365D02*
X137575000Y-104775000D01*
X131950000Y-92212500D02*
X129700000Y-92212500D01*
D57*
X133065000Y-132205000D02*
X131520000Y-133750000D01*
D56*
X136320000Y-128950000D02*
X131520000Y-133750000D01*
X147902500Y-93210000D02*
X147787500Y-93095000D01*
X134200000Y-92212500D02*
X135368135Y-92212500D01*
D57*
X124270000Y-128350000D02*
X124585000Y-128665000D01*
D54*
X131250000Y-90500000D02*
X131600000Y-90500000D01*
X131950000Y-90850000D02*
X131950000Y-92212500D01*
X160375000Y-79400000D02*
X168000000Y-71775000D01*
D57*
X141585000Y-132205000D02*
X140040000Y-133750000D01*
X116065000Y-128665000D02*
X116065000Y-132205000D01*
X132750000Y-128350000D02*
X133065000Y-128665000D01*
D56*
X136320000Y-111380000D02*
X136320000Y-128950000D01*
D54*
X131600000Y-90500000D02*
X131950000Y-90850000D01*
D56*
X129662500Y-92250000D02*
X129700000Y-92212500D01*
X150250000Y-93210000D02*
X147902500Y-93210000D01*
D54*
X148900000Y-83595000D02*
X153095000Y-79400000D01*
D57*
X115750000Y-128350000D02*
X116065000Y-128665000D01*
X124585000Y-132205000D02*
X123040000Y-133750000D01*
D56*
X140250000Y-107450000D02*
X136320000Y-111380000D01*
X134200000Y-91550000D02*
X140250000Y-85500000D01*
D57*
X133065000Y-128665000D02*
X133065000Y-132205000D01*
D56*
X127500000Y-92250000D02*
X129662500Y-92250000D01*
D57*
X141270000Y-128350000D02*
X141585000Y-128665000D01*
X141585000Y-128665000D02*
X141585000Y-132205000D01*
D56*
X137575000Y-104775000D02*
X140250000Y-107450000D01*
D54*
%TO.N,Net-(U1-FB)*%
X129750000Y-90500000D02*
X128825000Y-90500000D01*
X123500000Y-96750000D02*
X123500000Y-92287500D01*
X124500000Y-91287500D02*
X123537500Y-92250000D01*
X128825000Y-90500000D02*
X128600000Y-90725000D01*
X123500000Y-92287500D02*
X123537500Y-92250000D01*
X125500000Y-96750000D02*
X123500000Y-96750000D01*
X124500000Y-91200000D02*
X124500000Y-91287500D01*
%TO.N,Net-(D1-K)*%
X161000000Y-83525000D02*
X159825000Y-83525000D01*
X159825000Y-83525000D02*
X159800000Y-83500000D01*
%TO.N,Net-(D2-K)*%
X163750000Y-83525000D02*
X162525000Y-83525000D01*
X162525000Y-83525000D02*
X162500000Y-83500000D01*
%TO.N,Net-(D3-K)*%
X165325000Y-83525000D02*
X165300000Y-83500000D01*
X166500000Y-83525000D02*
X165325000Y-83525000D01*
%TO.N,Net-(D4-K)*%
X169250000Y-83525000D02*
X168025000Y-83525000D01*
X168025000Y-83525000D02*
X168000000Y-83500000D01*
%TO.N,Net-(D5-K)*%
X166625000Y-69725000D02*
X166600000Y-69700000D01*
X168000000Y-69725000D02*
X166625000Y-69725000D01*
%TO.N,Net-(U1-SW)*%
X131250000Y-90000000D02*
X131920000Y-90000000D01*
X131920000Y-90000000D02*
X132300000Y-89620000D01*
X132300000Y-87971000D02*
X131250000Y-86921000D01*
X132300000Y-89620000D02*
X132300000Y-87971000D01*
%TO.N,Net-(U1-EN)*%
X128120100Y-90000000D02*
X129750000Y-90000000D01*
X125870100Y-92250000D02*
X128120100Y-90000000D01*
X127500000Y-94500000D02*
X125500000Y-92500000D01*
X125500000Y-92500000D02*
X125500000Y-92250000D01*
X125500000Y-92250000D02*
X125870100Y-92250000D01*
D56*
%TO.N,Net-(M1-+)*%
X160750000Y-95250000D02*
X158980000Y-97020000D01*
X158980000Y-97020000D02*
X155250000Y-97020000D01*
X155250000Y-97020000D02*
X150250000Y-97020000D01*
D54*
%TO.N,Net-(D6-K)*%
X170625000Y-69725000D02*
X170600000Y-69700000D01*
X172000000Y-69725000D02*
X170625000Y-69725000D01*
%TO.N,Net-(D7-K)*%
X174625000Y-69725000D02*
X174600000Y-69700000D01*
X176000000Y-69725000D02*
X174625000Y-69725000D01*
%TO.N,Net-(D9-K)*%
X120000000Y-111975000D02*
X120025000Y-112000000D01*
X120000000Y-109750000D02*
X120000000Y-111975000D01*
D55*
%TO.N,/Jetson USB/D-*%
X125950000Y-117650000D02*
X125950000Y-114637500D01*
X125100000Y-118500000D02*
X125950000Y-117650000D01*
%TO.N,/Jetson USB/D+*%
X122600000Y-116087500D02*
X124050000Y-114637500D01*
X124050000Y-114637500D02*
X123662500Y-114250000D01*
X123158273Y-119325000D02*
X122600000Y-118766727D01*
X122600000Y-118766727D02*
X122600000Y-116087500D01*
X123662500Y-114250000D02*
X122000000Y-114250000D01*
X125900000Y-120400000D02*
X124825000Y-119325000D01*
X124825000Y-119325000D02*
X123158273Y-119325000D01*
D54*
%TO.N,/Jetson USB/VBUS*%
X132925000Y-106425000D02*
X132925000Y-113175000D01*
X127600000Y-118500000D02*
X126700000Y-118500000D01*
X132000000Y-105500000D02*
X132925000Y-106425000D01*
D57*
%TO.N,Net-(AE1-A)*%
X168025000Y-133475000D02*
X168000000Y-133500000D01*
X168025000Y-127250000D02*
X168025000Y-133475000D01*
D54*
%TO.N,Net-(U3-USBDP)*%
X122000000Y-112250000D02*
X122000000Y-110872500D01*
X122000000Y-110872500D02*
X122400000Y-110472500D01*
%TO.N,Net-(U3-CBUS0)*%
X130000000Y-105500000D02*
X130000000Y-107750000D01*
X130000000Y-107750000D02*
X128912500Y-106662500D01*
X128912500Y-106662500D02*
X127600000Y-106662500D01*
%TO.N,Net-(U3-CBUS1)*%
X128450000Y-107297500D02*
X129000000Y-107847500D01*
X129000000Y-109000000D02*
X130000000Y-110000000D01*
X129000000Y-107847500D02*
X129000000Y-109000000D01*
X127600000Y-107297500D02*
X128450000Y-107297500D01*
%TO.N,Net-(U3-CBUS2)*%
X122400000Y-109837500D02*
X121707600Y-109837500D01*
X119025000Y-108725000D02*
X118000000Y-109750000D01*
X120595100Y-108725000D02*
X119025000Y-108725000D01*
X121707600Y-109837500D02*
X120595100Y-108725000D01*
D56*
%TO.N,Net-(M1--)*%
X155250000Y-90670000D02*
X150250000Y-90670000D01*
X160750000Y-89750000D02*
X159830000Y-90670000D01*
X159830000Y-90670000D02*
X155250000Y-90670000D01*
D54*
%TO.N,Net-(U4-CS)*%
X144615000Y-94480000D02*
X150250000Y-94480000D01*
X141250000Y-95845000D02*
X143250000Y-95845000D01*
X143250000Y-95845000D02*
X144615000Y-94480000D01*
%TO.N,Net-(U4-INA)*%
X157150000Y-95750000D02*
X157200000Y-95700000D01*
X155250000Y-95750000D02*
X157150000Y-95750000D01*
X165745000Y-95600000D02*
X165750000Y-95595000D01*
X164500000Y-95600000D02*
X165745000Y-95600000D01*
%TO.N,Net-(U4-INB)*%
X155250000Y-91940000D02*
X157160000Y-91940000D01*
X165555000Y-91900000D02*
X165750000Y-92095000D01*
X157160000Y-91940000D02*
X157200000Y-91900000D01*
X164300000Y-91900000D02*
X165555000Y-91900000D01*
%TO.N,Net-(U4-EN{slash}DIAGA)*%
X145250000Y-95845000D02*
X147250000Y-95845000D01*
X147250000Y-95845000D02*
X150155000Y-95845000D01*
X150155000Y-95845000D02*
X150250000Y-95750000D01*
%TO.N,Net-(U4-EN{slash}DIAGB)*%
X144750000Y-90845000D02*
X146750000Y-90845000D01*
X147845000Y-91940000D02*
X150250000Y-91940000D01*
X146750000Y-90845000D02*
X147845000Y-91940000D01*
D57*
%TO.N,+1V8*%
X153787500Y-106387500D02*
X155300000Y-104875000D01*
X155300000Y-104875000D02*
X155300000Y-106800000D01*
D55*
X157225380Y-110115330D02*
X157225380Y-110006403D01*
X156000000Y-106100000D02*
X155300000Y-106800000D01*
D57*
X153150000Y-106387500D02*
X153787500Y-106387500D01*
D55*
X159500000Y-106100000D02*
X156000000Y-106100000D01*
X160000000Y-110287500D02*
X160000000Y-108200000D01*
X159412500Y-110900000D02*
X158010050Y-110900000D01*
X160012500Y-110300000D02*
X160000000Y-110287500D01*
X155967187Y-106800000D02*
X156454687Y-107287500D01*
X158010050Y-110900000D02*
X157225380Y-110115330D01*
X160012500Y-110300000D02*
X159412500Y-110900000D01*
X155300000Y-106800000D02*
X155967187Y-106800000D01*
%TO.N,Net-(U5-REGOUT)*%
X153137500Y-108637500D02*
X153787500Y-107987500D01*
X158962954Y-106900000D02*
X159500000Y-106900000D01*
X157875454Y-107987500D02*
X158962954Y-106900000D01*
X153787500Y-107987500D02*
X157875454Y-107987500D01*
D54*
%TO.N,Net-(D8-K)*%
X132025000Y-110025000D02*
X132000000Y-110000000D01*
X132025000Y-112250000D02*
X132025000Y-110025000D01*
D57*
%TO.N,Net-(D10-A)*%
X115750000Y-126150000D02*
X112837500Y-126150000D01*
X112837500Y-126150000D02*
X112750000Y-126062500D01*
X112750000Y-134520000D02*
X112750000Y-126062500D01*
X114520000Y-136290000D02*
X112750000Y-134520000D01*
%TO.N,Net-(D11-A)*%
X123040000Y-136290000D02*
X121270000Y-134520000D01*
X121270000Y-134520000D02*
X121270000Y-126062500D01*
X121357500Y-126150000D02*
X121270000Y-126062500D01*
X124270000Y-126150000D02*
X121357500Y-126150000D01*
%TO.N,Net-(D12-A)*%
X129750000Y-134520000D02*
X129750000Y-126062500D01*
X129837500Y-126150000D02*
X129750000Y-126062500D01*
X132750000Y-126150000D02*
X129837500Y-126150000D01*
X131520000Y-136290000D02*
X129750000Y-134520000D01*
%TO.N,Net-(D13-A)*%
X138357500Y-126150000D02*
X138270000Y-126062500D01*
X141270000Y-126150000D02*
X138357500Y-126150000D01*
X138270000Y-134520000D02*
X138270000Y-126062500D01*
X140040000Y-136290000D02*
X138270000Y-134520000D01*
D54*
%TO.N,/BRAKE_ENB*%
X174325000Y-82535000D02*
X175500000Y-81360000D01*
X144750000Y-88845000D02*
X143455000Y-88845000D01*
X169070100Y-85300000D02*
X171835100Y-82535000D01*
X153200000Y-85300000D02*
X169070100Y-85300000D01*
X143455000Y-88845000D02*
X143400000Y-88900000D01*
X171835100Y-82535000D02*
X174325000Y-82535000D01*
%TO.N,/BRAKE_INB*%
X167750000Y-92095000D02*
X172385000Y-92095000D01*
X172385000Y-92095000D02*
X172960000Y-91520000D01*
%TO.N,/BRAKE_INA*%
X169285000Y-94060000D02*
X167750000Y-95595000D01*
X172960000Y-94060000D02*
X169285000Y-94060000D01*
%TO.N,/BRAKE_ENA*%
X176700000Y-95260000D02*
X175500000Y-94060000D01*
X170985000Y-97965000D02*
X175796701Y-97965000D01*
X176700000Y-97061701D02*
X176700000Y-95260000D01*
X145250000Y-97845000D02*
X147355000Y-99950000D01*
X169000000Y-99950000D02*
X170985000Y-97965000D01*
X147355000Y-99950000D02*
X169000000Y-99950000D01*
X175796701Y-97965000D02*
X176700000Y-97061701D01*
%TO.N,/BRAKE_CS*%
X142274695Y-100400000D02*
X171700000Y-100400000D01*
X171700000Y-100400000D02*
X172960000Y-99140000D01*
X141250000Y-97845000D02*
X141250000Y-99375305D01*
X139000000Y-97882500D02*
X141212500Y-97882500D01*
X141250000Y-99375305D02*
X142274695Y-100400000D01*
X141212500Y-97882500D02*
X141250000Y-97845000D01*
D55*
%TO.N,/IMU_CS*%
X162500000Y-106500000D02*
X165400000Y-106500000D01*
X165400000Y-106500000D02*
X165500000Y-106600000D01*
%TO.N,/IMU_INT1*%
X159500000Y-109000000D02*
X158300000Y-110200000D01*
X159500000Y-107700000D02*
X159500000Y-109000000D01*
%TD*%
%TA.AperFunction,Conductor*%
%TO.N,+12V*%
G36*
X152443039Y-81769685D02*
G01*
X152488794Y-81822489D01*
X152500000Y-81874000D01*
X152500000Y-84684053D01*
X152480315Y-84751092D01*
X152468153Y-84767022D01*
X152467468Y-84767782D01*
X152467464Y-84767787D01*
X152372821Y-84931715D01*
X152372818Y-84931722D01*
X152314327Y-85111740D01*
X152314326Y-85111744D01*
X152294540Y-85300000D01*
X152314326Y-85488256D01*
X152314327Y-85488259D01*
X152372818Y-85668277D01*
X152372821Y-85668284D01*
X152467467Y-85832216D01*
X152468146Y-85832970D01*
X152468401Y-85833502D01*
X152471285Y-85837471D01*
X152470559Y-85837998D01*
X152498379Y-85895960D01*
X152500000Y-85915946D01*
X152500000Y-86000000D01*
X152591156Y-86000000D01*
X152658195Y-86019685D01*
X152664041Y-86023682D01*
X152747265Y-86084148D01*
X152747270Y-86084151D01*
X152920192Y-86161142D01*
X152920197Y-86161144D01*
X153105354Y-86200500D01*
X153105355Y-86200500D01*
X153294644Y-86200500D01*
X153294646Y-86200500D01*
X153479803Y-86161144D01*
X153652730Y-86084151D01*
X153683036Y-86062131D01*
X153735959Y-86023682D01*
X153801765Y-86000202D01*
X153808844Y-86000000D01*
X163876000Y-86000000D01*
X163943039Y-86019685D01*
X163988794Y-86072489D01*
X164000000Y-86124000D01*
X164000000Y-90967322D01*
X163980315Y-91034361D01*
X163927511Y-91080116D01*
X163926436Y-91080601D01*
X163847269Y-91115848D01*
X163694129Y-91227111D01*
X163567466Y-91367785D01*
X163472821Y-91531715D01*
X163472818Y-91531722D01*
X163414327Y-91711740D01*
X163414326Y-91711744D01*
X163394540Y-91900000D01*
X163414326Y-92088256D01*
X163414327Y-92088259D01*
X163472818Y-92268277D01*
X163472821Y-92268284D01*
X163567467Y-92432216D01*
X163694129Y-92572888D01*
X163847270Y-92684151D01*
X163926439Y-92719399D01*
X163979673Y-92764648D01*
X163999994Y-92831497D01*
X164000000Y-92832677D01*
X164000000Y-94787010D01*
X163980315Y-94854049D01*
X163948887Y-94887327D01*
X163894128Y-94927112D01*
X163894123Y-94927116D01*
X163767466Y-95067785D01*
X163672821Y-95231715D01*
X163672818Y-95231722D01*
X163637766Y-95339602D01*
X163614326Y-95411744D01*
X163594540Y-95600000D01*
X163614326Y-95788256D01*
X163614327Y-95788259D01*
X163672818Y-95968277D01*
X163672821Y-95968284D01*
X163767467Y-96132216D01*
X163894129Y-96272888D01*
X163948885Y-96312670D01*
X163991551Y-96367999D01*
X164000000Y-96412988D01*
X164000000Y-97876000D01*
X163980315Y-97943039D01*
X163927511Y-97988794D01*
X163876000Y-98000000D01*
X159714284Y-98000000D01*
X159647245Y-97980315D01*
X159601490Y-97927511D01*
X159591546Y-97858353D01*
X159620571Y-97794797D01*
X159626602Y-97788319D01*
X159757139Y-97657782D01*
X159757141Y-97657778D01*
X159978102Y-97436816D01*
X160039424Y-97403334D01*
X160065782Y-97400500D01*
X161900003Y-97400500D01*
X161900008Y-97400500D01*
X162002797Y-97389999D01*
X162169334Y-97334814D01*
X162318655Y-97242711D01*
X162442711Y-97118655D01*
X162534814Y-96969334D01*
X162589999Y-96802797D01*
X162600500Y-96700008D01*
X162600500Y-93799992D01*
X162589999Y-93697203D01*
X162534814Y-93530666D01*
X162491226Y-93460000D01*
X162442713Y-93381348D01*
X162442710Y-93381344D01*
X162318655Y-93257289D01*
X162318651Y-93257286D01*
X162169337Y-93165187D01*
X162169335Y-93165186D01*
X162086065Y-93137593D01*
X162002797Y-93110001D01*
X162002795Y-93110000D01*
X161900015Y-93099500D01*
X161900008Y-93099500D01*
X159599992Y-93099500D01*
X159599984Y-93099500D01*
X159497204Y-93110000D01*
X159497203Y-93110001D01*
X159330664Y-93165186D01*
X159330662Y-93165187D01*
X159181348Y-93257286D01*
X159181344Y-93257289D01*
X159057289Y-93381344D01*
X159057286Y-93381348D01*
X158965187Y-93530662D01*
X158965186Y-93530664D01*
X158910001Y-93697203D01*
X158910000Y-93697204D01*
X158899500Y-93799984D01*
X158899500Y-95634218D01*
X158879815Y-95701257D01*
X158863181Y-95721899D01*
X158601899Y-95983181D01*
X158540576Y-96016666D01*
X158514218Y-96019500D01*
X158209595Y-96019500D01*
X158142556Y-95999815D01*
X158096801Y-95947011D01*
X158086274Y-95882541D01*
X158105460Y-95700000D01*
X158085674Y-95511744D01*
X158027179Y-95331716D01*
X157932533Y-95167784D01*
X157805871Y-95027112D01*
X157805870Y-95027111D01*
X157652734Y-94915851D01*
X157652729Y-94915848D01*
X157479807Y-94838857D01*
X157479802Y-94838855D01*
X157334001Y-94807865D01*
X157294646Y-94799500D01*
X157105354Y-94799500D01*
X157072897Y-94806398D01*
X156920197Y-94838855D01*
X156914013Y-94840865D01*
X156913419Y-94839038D01*
X156853268Y-94847090D01*
X156789998Y-94817448D01*
X156752797Y-94758305D01*
X156750319Y-94733271D01*
X156747295Y-94730000D01*
X153752705Y-94730000D01*
X153752704Y-94730001D01*
X153752899Y-94732486D01*
X153798718Y-94890198D01*
X153882314Y-95031552D01*
X153887100Y-95037722D01*
X153884640Y-95039629D01*
X153911210Y-95088288D01*
X153906226Y-95157980D01*
X153885162Y-95190781D01*
X153886699Y-95191974D01*
X153881915Y-95198140D01*
X153798255Y-95339603D01*
X153798254Y-95339606D01*
X153752402Y-95497426D01*
X153752401Y-95497432D01*
X153749500Y-95534298D01*
X153749500Y-95895500D01*
X153729815Y-95962539D01*
X153677011Y-96008294D01*
X153625500Y-96019500D01*
X151874500Y-96019500D01*
X151807461Y-95999815D01*
X151761706Y-95947011D01*
X151750500Y-95895500D01*
X151750500Y-95534313D01*
X151750499Y-95534298D01*
X151747598Y-95497432D01*
X151747597Y-95497426D01*
X151701745Y-95339606D01*
X151701744Y-95339603D01*
X151701744Y-95339602D01*
X151618081Y-95198135D01*
X151618078Y-95198132D01*
X151613298Y-95191969D01*
X151615750Y-95190066D01*
X151589155Y-95141421D01*
X151594104Y-95071726D01*
X151614940Y-95039304D01*
X151613298Y-95038031D01*
X151618075Y-95031870D01*
X151618081Y-95031865D01*
X151701744Y-94890398D01*
X151741081Y-94755001D01*
X151747597Y-94732573D01*
X151747598Y-94732567D01*
X151750500Y-94695694D01*
X151750500Y-94264306D01*
X151747800Y-94229998D01*
X153752704Y-94229998D01*
X153752705Y-94230000D01*
X155000000Y-94230000D01*
X155000000Y-93460000D01*
X155500000Y-93460000D01*
X155500000Y-94230000D01*
X156747295Y-94230000D01*
X156747295Y-94229998D01*
X156747100Y-94227513D01*
X156701281Y-94069801D01*
X156617685Y-93928447D01*
X156612900Y-93922278D01*
X156615252Y-93920453D01*
X156588445Y-93871405D01*
X156593402Y-93801712D01*
X156614465Y-93768936D01*
X156612900Y-93767722D01*
X156617685Y-93761552D01*
X156701281Y-93620198D01*
X156747100Y-93462486D01*
X156747295Y-93460001D01*
X156747295Y-93460000D01*
X155500000Y-93460000D01*
X155000000Y-93460000D01*
X153752705Y-93460000D01*
X153752704Y-93460001D01*
X153752899Y-93462486D01*
X153798718Y-93620198D01*
X153882314Y-93761552D01*
X153887100Y-93767722D01*
X153884753Y-93769542D01*
X153911564Y-93818642D01*
X153906580Y-93888334D01*
X153885541Y-93921069D01*
X153887100Y-93922278D01*
X153882314Y-93928447D01*
X153798718Y-94069801D01*
X153752899Y-94227513D01*
X153752704Y-94229998D01*
X151747800Y-94229998D01*
X151747598Y-94227431D01*
X151713987Y-94111744D01*
X151701745Y-94069606D01*
X151701744Y-94069603D01*
X151701744Y-94069602D01*
X151618081Y-93928135D01*
X151618078Y-93928132D01*
X151613298Y-93921969D01*
X151615635Y-93920155D01*
X151588798Y-93871050D01*
X151593756Y-93801356D01*
X151614554Y-93768998D01*
X151612903Y-93767717D01*
X151617686Y-93761550D01*
X151701281Y-93620198D01*
X151747100Y-93462486D01*
X151747295Y-93460001D01*
X151747295Y-93460000D01*
X149000000Y-93460000D01*
X149000000Y-92960000D01*
X151747295Y-92960000D01*
X151747295Y-92959998D01*
X151747100Y-92957513D01*
X151701281Y-92799801D01*
X151617685Y-92658447D01*
X151612900Y-92652278D01*
X151615366Y-92650364D01*
X151588802Y-92601776D01*
X151593749Y-92532082D01*
X151614856Y-92499232D01*
X151613301Y-92498026D01*
X151618077Y-92491868D01*
X151618081Y-92491865D01*
X151701744Y-92350398D01*
X151747598Y-92192569D01*
X151750500Y-92155694D01*
X151750500Y-91794500D01*
X151770185Y-91727461D01*
X151822989Y-91681706D01*
X151874500Y-91670500D01*
X153625500Y-91670500D01*
X153692539Y-91690185D01*
X153738294Y-91742989D01*
X153749500Y-91794500D01*
X153749500Y-92155701D01*
X153752401Y-92192567D01*
X153752402Y-92192573D01*
X153798254Y-92350393D01*
X153798255Y-92350396D01*
X153881917Y-92491862D01*
X153886702Y-92498031D01*
X153884369Y-92499840D01*
X153911210Y-92548995D01*
X153906226Y-92618687D01*
X153885470Y-92651021D01*
X153887097Y-92652283D01*
X153882313Y-92658449D01*
X153798718Y-92799801D01*
X153752899Y-92957513D01*
X153752704Y-92959998D01*
X153752705Y-92960000D01*
X156747295Y-92960000D01*
X156747295Y-92959998D01*
X156747100Y-92957511D01*
X156747099Y-92957508D01*
X156730386Y-92899982D01*
X156730585Y-92830113D01*
X156768526Y-92771442D01*
X156832164Y-92742598D01*
X156899897Y-92752106D01*
X156920193Y-92761142D01*
X156920197Y-92761144D01*
X157105354Y-92800500D01*
X157105355Y-92800500D01*
X157294644Y-92800500D01*
X157294646Y-92800500D01*
X157479803Y-92761144D01*
X157652730Y-92684151D01*
X157805871Y-92572888D01*
X157932533Y-92432216D01*
X158027179Y-92268284D01*
X158085674Y-92088256D01*
X158105460Y-91900000D01*
X158095734Y-91807460D01*
X158108304Y-91738731D01*
X158156036Y-91687708D01*
X158219055Y-91670500D01*
X159731460Y-91670500D01*
X159822562Y-91670500D01*
X159884562Y-91687112D01*
X159929788Y-91713224D01*
X160153900Y-91806054D01*
X160388211Y-91868838D01*
X160568586Y-91892584D01*
X160628711Y-91900500D01*
X160628712Y-91900500D01*
X160871289Y-91900500D01*
X160919388Y-91894167D01*
X161111789Y-91868838D01*
X161346100Y-91806054D01*
X161570212Y-91713224D01*
X161780289Y-91591936D01*
X161972738Y-91444265D01*
X162144265Y-91272738D01*
X162291936Y-91080289D01*
X162413224Y-90870212D01*
X162506054Y-90646100D01*
X162568838Y-90411789D01*
X162600500Y-90171288D01*
X162600500Y-89328712D01*
X162568838Y-89088211D01*
X162506054Y-88853900D01*
X162504231Y-88849500D01*
X162413226Y-88629794D01*
X162413224Y-88629788D01*
X162291936Y-88419711D01*
X162144265Y-88227262D01*
X162144260Y-88227256D01*
X161972743Y-88055739D01*
X161972736Y-88055733D01*
X161780293Y-87908067D01*
X161780292Y-87908066D01*
X161780289Y-87908064D01*
X161570212Y-87786776D01*
X161570205Y-87786773D01*
X161346104Y-87693947D01*
X161118831Y-87633049D01*
X161111789Y-87631162D01*
X161111788Y-87631161D01*
X161111785Y-87631161D01*
X160871289Y-87599500D01*
X160871288Y-87599500D01*
X160628712Y-87599500D01*
X160628711Y-87599500D01*
X160388214Y-87631161D01*
X160153895Y-87693947D01*
X159929794Y-87786773D01*
X159929785Y-87786777D01*
X159719706Y-87908067D01*
X159527263Y-88055733D01*
X159527256Y-88055739D01*
X159355739Y-88227256D01*
X159355733Y-88227263D01*
X159208067Y-88419706D01*
X159086777Y-88629785D01*
X159086773Y-88629794D01*
X158993947Y-88853895D01*
X158931161Y-89088214D01*
X158899500Y-89328711D01*
X158899500Y-89545500D01*
X158879815Y-89612539D01*
X158827011Y-89658294D01*
X158775500Y-89669500D01*
X158196281Y-89669500D01*
X158129242Y-89649815D01*
X158083487Y-89597011D01*
X158073543Y-89527853D01*
X158085281Y-89490229D01*
X158130575Y-89399265D01*
X158130576Y-89399260D01*
X158130582Y-89399250D01*
X158186397Y-89203083D01*
X158205215Y-89000000D01*
X158186397Y-88796917D01*
X158130582Y-88600750D01*
X158039673Y-88418179D01*
X157974379Y-88331716D01*
X157916762Y-88255418D01*
X157766041Y-88118019D01*
X157766039Y-88118017D01*
X157592642Y-88010655D01*
X157592635Y-88010651D01*
X157442523Y-87952498D01*
X157402456Y-87936976D01*
X157201976Y-87899500D01*
X156998024Y-87899500D01*
X156797544Y-87936976D01*
X156797541Y-87936976D01*
X156797541Y-87936977D01*
X156607364Y-88010651D01*
X156607357Y-88010655D01*
X156433960Y-88118017D01*
X156433958Y-88118019D01*
X156283237Y-88255418D01*
X156211642Y-88350227D01*
X156155533Y-88391863D01*
X156112688Y-88399500D01*
X150151457Y-88399500D01*
X149958170Y-88437947D01*
X149958160Y-88437950D01*
X149776088Y-88513366D01*
X149678456Y-88578602D01*
X149611778Y-88599480D01*
X149609565Y-88599500D01*
X149404279Y-88599500D01*
X149337240Y-88579815D01*
X149291485Y-88527011D01*
X149286348Y-88513818D01*
X149227181Y-88331722D01*
X149227180Y-88331721D01*
X149227179Y-88331716D01*
X149132533Y-88167784D01*
X149031850Y-88055964D01*
X149009599Y-88009599D01*
X148996323Y-87996323D01*
X148941805Y-87980315D01*
X148935959Y-87976318D01*
X148852734Y-87915851D01*
X148852729Y-87915848D01*
X148679807Y-87838857D01*
X148679802Y-87838855D01*
X148534001Y-87807865D01*
X148494646Y-87799500D01*
X148305354Y-87799500D01*
X148272897Y-87806398D01*
X148120197Y-87838855D01*
X148120192Y-87838857D01*
X147947271Y-87915848D01*
X147879432Y-87965136D01*
X147813625Y-87988615D01*
X147745572Y-87972789D01*
X147718866Y-87952498D01*
X147668657Y-87902289D01*
X147668656Y-87902288D01*
X147519334Y-87810186D01*
X147352797Y-87755001D01*
X147352795Y-87755000D01*
X147250010Y-87744500D01*
X146249998Y-87744500D01*
X146249980Y-87744501D01*
X146147203Y-87755000D01*
X146147200Y-87755001D01*
X145980668Y-87810185D01*
X145980663Y-87810187D01*
X145831342Y-87902289D01*
X145826909Y-87905795D01*
X145762113Y-87931934D01*
X145693471Y-87918892D01*
X145673091Y-87905795D01*
X145668657Y-87902289D01*
X145668656Y-87902288D01*
X145519334Y-87810186D01*
X145352797Y-87755001D01*
X145352795Y-87755000D01*
X145250010Y-87744500D01*
X144249998Y-87744500D01*
X144249980Y-87744501D01*
X144147203Y-87755000D01*
X144147200Y-87755001D01*
X143980668Y-87810185D01*
X143980663Y-87810187D01*
X143831342Y-87902289D01*
X143769951Y-87963681D01*
X143708628Y-87997166D01*
X143682270Y-88000000D01*
X143505901Y-88000000D01*
X143496368Y-87999500D01*
X143494646Y-87999500D01*
X143305354Y-87999500D01*
X143303632Y-87999500D01*
X143294099Y-88000000D01*
X137124000Y-88000000D01*
X137056961Y-87980315D01*
X137011206Y-87927511D01*
X137000000Y-87876000D01*
X137000000Y-85921248D01*
X138400000Y-85921248D01*
X138400001Y-85921264D01*
X138431653Y-86161687D01*
X138494421Y-86395939D01*
X138587220Y-86619978D01*
X138587227Y-86619993D01*
X138708480Y-86830009D01*
X138856110Y-87022405D01*
X138856116Y-87022412D01*
X139027587Y-87193883D01*
X139027594Y-87193889D01*
X139219990Y-87341519D01*
X139430006Y-87462772D01*
X139430021Y-87462779D01*
X139654060Y-87555578D01*
X139888312Y-87618346D01*
X140000000Y-87633049D01*
X140000000Y-86154120D01*
X140045818Y-86173099D01*
X140181056Y-86200000D01*
X140318944Y-86200000D01*
X140454182Y-86173099D01*
X140500000Y-86154120D01*
X140500000Y-87633048D01*
X140611687Y-87618346D01*
X140845939Y-87555578D01*
X141069978Y-87462779D01*
X141069993Y-87462772D01*
X141280009Y-87341519D01*
X141472405Y-87193889D01*
X141472412Y-87193883D01*
X141643883Y-87022412D01*
X141643889Y-87022405D01*
X141791519Y-86830009D01*
X141912772Y-86619993D01*
X141912779Y-86619978D01*
X142005578Y-86395939D01*
X142068346Y-86161687D01*
X142099998Y-85921264D01*
X142100000Y-85921248D01*
X142100000Y-85750000D01*
X140904121Y-85750000D01*
X140923099Y-85704182D01*
X140950000Y-85568944D01*
X140950000Y-85431056D01*
X140923099Y-85295818D01*
X140904121Y-85250000D01*
X142100000Y-85250000D01*
X142100000Y-85078751D01*
X142099998Y-85078735D01*
X142068346Y-84838312D01*
X142005578Y-84604060D01*
X141912779Y-84380021D01*
X141912772Y-84380006D01*
X141791519Y-84169990D01*
X141643889Y-83977594D01*
X141643883Y-83977587D01*
X141511296Y-83845000D01*
X146150000Y-83845000D01*
X146150000Y-84444985D01*
X146160493Y-84547689D01*
X146160494Y-84547696D01*
X146215641Y-84714118D01*
X146215643Y-84714123D01*
X146307684Y-84863344D01*
X146431655Y-84987315D01*
X146580876Y-85079356D01*
X146580881Y-85079358D01*
X146747303Y-85134505D01*
X146747310Y-85134506D01*
X146850014Y-85144999D01*
X146850027Y-85145000D01*
X148650000Y-85145000D01*
X148650000Y-83845000D01*
X149150000Y-83845000D01*
X149150000Y-85145000D01*
X150949973Y-85145000D01*
X150949985Y-85144999D01*
X151052689Y-85134506D01*
X151052696Y-85134505D01*
X151219118Y-85079358D01*
X151219123Y-85079356D01*
X151368344Y-84987315D01*
X151492315Y-84863344D01*
X151584356Y-84714123D01*
X151584358Y-84714118D01*
X151639505Y-84547696D01*
X151639506Y-84547689D01*
X151649999Y-84444985D01*
X151650000Y-84444972D01*
X151650000Y-83845000D01*
X149150000Y-83845000D01*
X148650000Y-83845000D01*
X146150000Y-83845000D01*
X141511296Y-83845000D01*
X141472412Y-83806116D01*
X141472405Y-83806110D01*
X141280009Y-83658480D01*
X141069993Y-83537227D01*
X141069978Y-83537220D01*
X140845939Y-83444421D01*
X140611687Y-83381653D01*
X140500000Y-83366948D01*
X140500000Y-84845879D01*
X140454182Y-84826901D01*
X140318944Y-84800000D01*
X140181056Y-84800000D01*
X140045818Y-84826901D01*
X140000000Y-84845879D01*
X140000000Y-83366948D01*
X139999999Y-83366948D01*
X139888312Y-83381653D01*
X139654060Y-83444421D01*
X139430021Y-83537220D01*
X139430006Y-83537227D01*
X139219990Y-83658480D01*
X139027594Y-83806110D01*
X139027587Y-83806116D01*
X138856116Y-83977587D01*
X138856110Y-83977594D01*
X138708480Y-84169990D01*
X138587227Y-84380006D01*
X138587220Y-84380021D01*
X138494421Y-84604060D01*
X138431653Y-84838312D01*
X138400001Y-85078735D01*
X138400000Y-85078751D01*
X138400000Y-85250000D01*
X139595879Y-85250000D01*
X139576901Y-85295818D01*
X139550000Y-85431056D01*
X139550000Y-85568944D01*
X139576901Y-85704182D01*
X139595879Y-85750000D01*
X138400000Y-85750000D01*
X138400000Y-85921248D01*
X137000000Y-85921248D01*
X137000000Y-83345000D01*
X146150000Y-83345000D01*
X148650000Y-83345000D01*
X148650000Y-82045000D01*
X149150000Y-82045000D01*
X149150000Y-83345000D01*
X151650000Y-83345000D01*
X151650000Y-82745027D01*
X151649999Y-82745014D01*
X151639506Y-82642310D01*
X151639505Y-82642303D01*
X151584358Y-82475881D01*
X151584356Y-82475876D01*
X151492315Y-82326655D01*
X151368344Y-82202684D01*
X151219123Y-82110643D01*
X151219118Y-82110641D01*
X151052696Y-82055494D01*
X151052689Y-82055493D01*
X150949985Y-82045000D01*
X149150000Y-82045000D01*
X148650000Y-82045000D01*
X146850014Y-82045000D01*
X146747310Y-82055493D01*
X146747303Y-82055494D01*
X146580881Y-82110641D01*
X146580876Y-82110643D01*
X146431655Y-82202684D01*
X146307684Y-82326655D01*
X146215643Y-82475876D01*
X146215641Y-82475881D01*
X146160494Y-82642303D01*
X146160493Y-82642310D01*
X146150000Y-82745014D01*
X146150000Y-83345000D01*
X137000000Y-83345000D01*
X137000000Y-81874000D01*
X137019685Y-81806961D01*
X137072489Y-81761206D01*
X137124000Y-81750000D01*
X152376000Y-81750000D01*
X152443039Y-81769685D01*
G37*
%TD.AperFunction*%
%TD*%
M02*
