%TF.GenerationSoftware,KiCad,Pcbnew,8.0.0*%
%TF.CreationDate,2024-03-16T12:32:21-04:00*%
%TF.ProjectId,AMP_PCBv3,414d505f-5043-4427-9633-2e6b69636164,A*%
%TF.SameCoordinates,Original*%
%TF.FileFunction,Legend,Top*%
%TF.FilePolarity,Positive*%
%FSLAX46Y46*%
G04 Gerber Fmt 4.6, Leading zero omitted, Abs format (unit mm)*
G04 Created by KiCad (PCBNEW 8.0.0) date 2024-03-16 12:32:21*
%MOMM*%
%LPD*%
G01*
G04 APERTURE LIST*
G04 Aperture macros list*
%AMRoundRect*
0 Rectangle with rounded corners*
0 $1 Rounding radius*
0 $2 $3 $4 $5 $6 $7 $8 $9 X,Y pos of 4 corners*
0 Add a 4 corners polygon primitive as box body*
4,1,4,$2,$3,$4,$5,$6,$7,$8,$9,$2,$3,0*
0 Add four circle primitives for the rounded corners*
1,1,$1+$1,$2,$3*
1,1,$1+$1,$4,$5*
1,1,$1+$1,$6,$7*
1,1,$1+$1,$8,$9*
0 Add four rect primitives between the rounded corners*
20,1,$1+$1,$2,$3,$4,$5,0*
20,1,$1+$1,$4,$5,$6,$7,0*
20,1,$1+$1,$6,$7,$8,$9,0*
20,1,$1+$1,$8,$9,$2,$3,0*%
G04 Aperture macros list end*
%ADD10C,0.400000*%
%ADD11C,0.250000*%
%ADD12C,0.150000*%
%ADD13C,0.120000*%
%ADD14R,0.700000X0.340000*%
%ADD15RoundRect,0.250000X-0.450000X0.325000X-0.450000X-0.325000X0.450000X-0.325000X0.450000X0.325000X0*%
%ADD16RoundRect,0.250000X0.450000X-0.325000X0.450000X0.325000X-0.450000X0.325000X-0.450000X-0.325000X0*%
%ADD17RoundRect,0.250000X-0.337500X-0.475000X0.337500X-0.475000X0.337500X0.475000X-0.337500X0.475000X0*%
%ADD18RoundRect,0.250000X-0.475000X0.337500X-0.475000X-0.337500X0.475000X-0.337500X0.475000X0.337500X0*%
%ADD19RoundRect,0.250000X0.450000X-0.350000X0.450000X0.350000X-0.450000X0.350000X-0.450000X-0.350000X0*%
%ADD20RoundRect,0.125000X0.125000X-0.125000X0.125000X0.125000X-0.125000X0.125000X-0.125000X-0.125000X0*%
%ADD21R,1.050000X1.050000*%
%ADD22C,1.050000*%
%ADD23C,2.500000*%
%ADD24RoundRect,0.250000X0.325000X0.450000X-0.325000X0.450000X-0.325000X-0.450000X0.325000X-0.450000X0*%
%ADD25RoundRect,0.150000X0.150000X-0.512500X0.150000X0.512500X-0.150000X0.512500X-0.150000X-0.512500X0*%
%ADD26RoundRect,0.250000X-0.350000X-0.450000X0.350000X-0.450000X0.350000X0.450000X-0.350000X0.450000X0*%
%ADD27RoundRect,0.250000X0.337500X0.475000X-0.337500X0.475000X-0.337500X-0.475000X0.337500X-0.475000X0*%
%ADD28RoundRect,0.250000X-0.450000X0.350000X-0.450000X-0.350000X0.450000X-0.350000X0.450000X0.350000X0*%
%ADD29RoundRect,0.250000X0.350000X0.450000X-0.350000X0.450000X-0.350000X-0.450000X0.350000X-0.450000X0*%
%ADD30RoundRect,0.050000X-0.050000X0.225000X-0.050000X-0.225000X0.050000X-0.225000X0.050000X0.225000X0*%
%ADD31RoundRect,0.050000X-0.225000X-0.050000X0.225000X-0.050000X0.225000X0.050000X-0.225000X0.050000X0*%
%ADD32RoundRect,0.317500X-1.157500X-0.317500X1.157500X-0.317500X1.157500X0.317500X-1.157500X0.317500X0*%
%ADD33RoundRect,0.150000X0.150000X-0.587500X0.150000X0.587500X-0.150000X0.587500X-0.150000X-0.587500X0*%
%ADD34RoundRect,0.250000X0.475000X-0.337500X0.475000X0.337500X-0.475000X0.337500X-0.475000X-0.337500X0*%
%ADD35RoundRect,0.250001X1.099999X1.399999X-1.099999X1.399999X-1.099999X-1.399999X1.099999X-1.399999X0*%
%ADD36O,2.700000X3.300000*%
%ADD37RoundRect,0.250000X-0.350000X-0.625000X0.350000X-0.625000X0.350000X0.625000X-0.350000X0.625000X0*%
%ADD38O,1.200000X1.750000*%
%ADD39R,0.650000X1.560000*%
%ADD40R,1.700000X1.700000*%
%ADD41O,1.700000X1.700000*%
%ADD42RoundRect,0.250000X0.845000X-0.620000X0.845000X0.620000X-0.845000X0.620000X-0.845000X-0.620000X0*%
%ADD43O,2.190000X1.740000*%
%ADD44C,2.050000*%
%ADD45C,2.250000*%
%ADD46RoundRect,0.250000X0.625000X-0.350000X0.625000X0.350000X-0.625000X0.350000X-0.625000X-0.350000X0*%
%ADD47O,1.750000X1.200000*%
%ADD48RoundRect,0.150000X0.850000X0.150000X-0.850000X0.150000X-0.850000X-0.150000X0.850000X-0.150000X0*%
%ADD49R,1.200000X0.400000*%
%ADD50RoundRect,0.250001X-1.999999X-0.799999X1.999999X-0.799999X1.999999X0.799999X-1.999999X0.799999X0*%
%ADD51R,3.429000X2.413000*%
%ADD52RoundRect,0.250000X0.620000X0.845000X-0.620000X0.845000X-0.620000X-0.845000X0.620000X-0.845000X0*%
%ADD53O,1.740000X2.190000*%
%ADD54RoundRect,0.250001X1.399999X-1.099999X1.399999X1.099999X-1.399999X1.099999X-1.399999X-1.099999X0*%
%ADD55O,3.300000X2.700000*%
G04 APERTURE END LIST*
D10*
X161892857Y-99530800D02*
X159607143Y-99530800D01*
X160750000Y-98387942D02*
X160750000Y-100673657D01*
D11*
X135881571Y-80375528D02*
X135881571Y-79518385D01*
X135881571Y-79946956D02*
X137381571Y-79946956D01*
X137381571Y-79946956D02*
X137167285Y-79804099D01*
X137167285Y-79804099D02*
X137024428Y-79661242D01*
X137024428Y-79661242D02*
X136953000Y-79518385D01*
X137238714Y-80946956D02*
X137310142Y-81018384D01*
X137310142Y-81018384D02*
X137381571Y-81161242D01*
X137381571Y-81161242D02*
X137381571Y-81518384D01*
X137381571Y-81518384D02*
X137310142Y-81661242D01*
X137310142Y-81661242D02*
X137238714Y-81732670D01*
X137238714Y-81732670D02*
X137095857Y-81804099D01*
X137095857Y-81804099D02*
X136953000Y-81804099D01*
X136953000Y-81804099D02*
X136738714Y-81732670D01*
X136738714Y-81732670D02*
X135881571Y-80875527D01*
X135881571Y-80875527D02*
X135881571Y-81804099D01*
X137381571Y-82232670D02*
X135881571Y-82732670D01*
X135881571Y-82732670D02*
X137381571Y-83232670D01*
D12*
X170289819Y-71369047D02*
X170289819Y-71940475D01*
X170289819Y-71654761D02*
X169289819Y-71654761D01*
X169289819Y-71654761D02*
X169432676Y-71749999D01*
X169432676Y-71749999D02*
X169527914Y-71845237D01*
X169527914Y-71845237D02*
X169575533Y-71940475D01*
X169385057Y-70988094D02*
X169337438Y-70940475D01*
X169337438Y-70940475D02*
X169289819Y-70845237D01*
X169289819Y-70845237D02*
X169289819Y-70607142D01*
X169289819Y-70607142D02*
X169337438Y-70511904D01*
X169337438Y-70511904D02*
X169385057Y-70464285D01*
X169385057Y-70464285D02*
X169480295Y-70416666D01*
X169480295Y-70416666D02*
X169575533Y-70416666D01*
X169575533Y-70416666D02*
X169718390Y-70464285D01*
X169718390Y-70464285D02*
X170289819Y-71035713D01*
X170289819Y-71035713D02*
X170289819Y-70416666D01*
X169289819Y-70130951D02*
X170289819Y-69797618D01*
X170289819Y-69797618D02*
X169289819Y-69464285D01*
D11*
X164581615Y-87685214D02*
X164795901Y-87756642D01*
X164795901Y-87756642D02*
X164867330Y-87828071D01*
X164867330Y-87828071D02*
X164938758Y-87970928D01*
X164938758Y-87970928D02*
X164938758Y-88185214D01*
X164938758Y-88185214D02*
X164867330Y-88328071D01*
X164867330Y-88328071D02*
X164795901Y-88399500D01*
X164795901Y-88399500D02*
X164653044Y-88470928D01*
X164653044Y-88470928D02*
X164081615Y-88470928D01*
X164081615Y-88470928D02*
X164081615Y-86970928D01*
X164081615Y-86970928D02*
X164581615Y-86970928D01*
X164581615Y-86970928D02*
X164724473Y-87042357D01*
X164724473Y-87042357D02*
X164795901Y-87113785D01*
X164795901Y-87113785D02*
X164867330Y-87256642D01*
X164867330Y-87256642D02*
X164867330Y-87399500D01*
X164867330Y-87399500D02*
X164795901Y-87542357D01*
X164795901Y-87542357D02*
X164724473Y-87613785D01*
X164724473Y-87613785D02*
X164581615Y-87685214D01*
X164581615Y-87685214D02*
X164081615Y-87685214D01*
X166438758Y-88470928D02*
X165938758Y-87756642D01*
X165581615Y-88470928D02*
X165581615Y-86970928D01*
X165581615Y-86970928D02*
X166153044Y-86970928D01*
X166153044Y-86970928D02*
X166295901Y-87042357D01*
X166295901Y-87042357D02*
X166367330Y-87113785D01*
X166367330Y-87113785D02*
X166438758Y-87256642D01*
X166438758Y-87256642D02*
X166438758Y-87470928D01*
X166438758Y-87470928D02*
X166367330Y-87613785D01*
X166367330Y-87613785D02*
X166295901Y-87685214D01*
X166295901Y-87685214D02*
X166153044Y-87756642D01*
X166153044Y-87756642D02*
X165581615Y-87756642D01*
X167010187Y-88042357D02*
X167724473Y-88042357D01*
X166867330Y-88470928D02*
X167367330Y-86970928D01*
X167367330Y-86970928D02*
X167867330Y-88470928D01*
X168367329Y-88470928D02*
X168367329Y-86970928D01*
X169224472Y-88470928D02*
X168581615Y-87613785D01*
X169224472Y-86970928D02*
X168367329Y-87828071D01*
X169867329Y-87685214D02*
X170367329Y-87685214D01*
X170581615Y-88470928D02*
X169867329Y-88470928D01*
X169867329Y-88470928D02*
X169867329Y-86970928D01*
X169867329Y-86970928D02*
X170581615Y-86970928D01*
D12*
X173289819Y-70940476D02*
X173289819Y-71416666D01*
X173289819Y-71416666D02*
X173766009Y-71464285D01*
X173766009Y-71464285D02*
X173718390Y-71416666D01*
X173718390Y-71416666D02*
X173670771Y-71321428D01*
X173670771Y-71321428D02*
X173670771Y-71083333D01*
X173670771Y-71083333D02*
X173718390Y-70988095D01*
X173718390Y-70988095D02*
X173766009Y-70940476D01*
X173766009Y-70940476D02*
X173861247Y-70892857D01*
X173861247Y-70892857D02*
X174099342Y-70892857D01*
X174099342Y-70892857D02*
X174194580Y-70940476D01*
X174194580Y-70940476D02*
X174242200Y-70988095D01*
X174242200Y-70988095D02*
X174289819Y-71083333D01*
X174289819Y-71083333D02*
X174289819Y-71321428D01*
X174289819Y-71321428D02*
X174242200Y-71416666D01*
X174242200Y-71416666D02*
X174194580Y-71464285D01*
X173289819Y-70607142D02*
X174289819Y-70273809D01*
X174289819Y-70273809D02*
X173289819Y-69940476D01*
D10*
X139107142Y-80219200D02*
X141392857Y-80219200D01*
X140249999Y-81362057D02*
X140249999Y-79076342D01*
D12*
X177289819Y-71988094D02*
X177289819Y-71369047D01*
X177289819Y-71369047D02*
X177670771Y-71702380D01*
X177670771Y-71702380D02*
X177670771Y-71559523D01*
X177670771Y-71559523D02*
X177718390Y-71464285D01*
X177718390Y-71464285D02*
X177766009Y-71416666D01*
X177766009Y-71416666D02*
X177861247Y-71369047D01*
X177861247Y-71369047D02*
X178099342Y-71369047D01*
X178099342Y-71369047D02*
X178194580Y-71416666D01*
X178194580Y-71416666D02*
X178242200Y-71464285D01*
X178242200Y-71464285D02*
X178289819Y-71559523D01*
X178289819Y-71559523D02*
X178289819Y-71845237D01*
X178289819Y-71845237D02*
X178242200Y-71940475D01*
X178242200Y-71940475D02*
X178194580Y-71988094D01*
X177289819Y-71083332D02*
X178289819Y-70749999D01*
X178289819Y-70749999D02*
X177289819Y-70416666D01*
X177289819Y-70178570D02*
X177289819Y-69559523D01*
X177289819Y-69559523D02*
X177670771Y-69892856D01*
X177670771Y-69892856D02*
X177670771Y-69749999D01*
X177670771Y-69749999D02*
X177718390Y-69654761D01*
X177718390Y-69654761D02*
X177766009Y-69607142D01*
X177766009Y-69607142D02*
X177861247Y-69559523D01*
X177861247Y-69559523D02*
X178099342Y-69559523D01*
X178099342Y-69559523D02*
X178194580Y-69607142D01*
X178194580Y-69607142D02*
X178242200Y-69654761D01*
X178242200Y-69654761D02*
X178289819Y-69749999D01*
X178289819Y-69749999D02*
X178289819Y-70035713D01*
X178289819Y-70035713D02*
X178242200Y-70130951D01*
X178242200Y-70130951D02*
X178194580Y-70178570D01*
X132004819Y-90761904D02*
X132814342Y-90761904D01*
X132814342Y-90761904D02*
X132909580Y-90714285D01*
X132909580Y-90714285D02*
X132957200Y-90666666D01*
X132957200Y-90666666D02*
X133004819Y-90571428D01*
X133004819Y-90571428D02*
X133004819Y-90380952D01*
X133004819Y-90380952D02*
X132957200Y-90285714D01*
X132957200Y-90285714D02*
X132909580Y-90238095D01*
X132909580Y-90238095D02*
X132814342Y-90190476D01*
X132814342Y-90190476D02*
X132004819Y-90190476D01*
X133004819Y-89190476D02*
X133004819Y-89761904D01*
X133004819Y-89476190D02*
X132004819Y-89476190D01*
X132004819Y-89476190D02*
X132147676Y-89571428D01*
X132147676Y-89571428D02*
X132242914Y-89666666D01*
X132242914Y-89666666D02*
X132290533Y-89761904D01*
X176454819Y-74238094D02*
X175454819Y-74238094D01*
X175454819Y-74238094D02*
X175454819Y-73999999D01*
X175454819Y-73999999D02*
X175502438Y-73857142D01*
X175502438Y-73857142D02*
X175597676Y-73761904D01*
X175597676Y-73761904D02*
X175692914Y-73714285D01*
X175692914Y-73714285D02*
X175883390Y-73666666D01*
X175883390Y-73666666D02*
X176026247Y-73666666D01*
X176026247Y-73666666D02*
X176216723Y-73714285D01*
X176216723Y-73714285D02*
X176311961Y-73761904D01*
X176311961Y-73761904D02*
X176407200Y-73857142D01*
X176407200Y-73857142D02*
X176454819Y-73999999D01*
X176454819Y-73999999D02*
X176454819Y-74238094D01*
X175454819Y-73333332D02*
X175454819Y-72666666D01*
X175454819Y-72666666D02*
X176454819Y-73095237D01*
X161454819Y-80488094D02*
X160454819Y-80488094D01*
X160454819Y-80488094D02*
X160454819Y-80249999D01*
X160454819Y-80249999D02*
X160502438Y-80107142D01*
X160502438Y-80107142D02*
X160597676Y-80011904D01*
X160597676Y-80011904D02*
X160692914Y-79964285D01*
X160692914Y-79964285D02*
X160883390Y-79916666D01*
X160883390Y-79916666D02*
X161026247Y-79916666D01*
X161026247Y-79916666D02*
X161216723Y-79964285D01*
X161216723Y-79964285D02*
X161311961Y-80011904D01*
X161311961Y-80011904D02*
X161407200Y-80107142D01*
X161407200Y-80107142D02*
X161454819Y-80249999D01*
X161454819Y-80249999D02*
X161454819Y-80488094D01*
X161454819Y-78964285D02*
X161454819Y-79535713D01*
X161454819Y-79249999D02*
X160454819Y-79249999D01*
X160454819Y-79249999D02*
X160597676Y-79345237D01*
X160597676Y-79345237D02*
X160692914Y-79440475D01*
X160692914Y-79440475D02*
X160740533Y-79535713D01*
X119433333Y-92559580D02*
X119385714Y-92607200D01*
X119385714Y-92607200D02*
X119242857Y-92654819D01*
X119242857Y-92654819D02*
X119147619Y-92654819D01*
X119147619Y-92654819D02*
X119004762Y-92607200D01*
X119004762Y-92607200D02*
X118909524Y-92511961D01*
X118909524Y-92511961D02*
X118861905Y-92416723D01*
X118861905Y-92416723D02*
X118814286Y-92226247D01*
X118814286Y-92226247D02*
X118814286Y-92083390D01*
X118814286Y-92083390D02*
X118861905Y-91892914D01*
X118861905Y-91892914D02*
X118909524Y-91797676D01*
X118909524Y-91797676D02*
X119004762Y-91702438D01*
X119004762Y-91702438D02*
X119147619Y-91654819D01*
X119147619Y-91654819D02*
X119242857Y-91654819D01*
X119242857Y-91654819D02*
X119385714Y-91702438D01*
X119385714Y-91702438D02*
X119433333Y-91750057D01*
X120290476Y-91988152D02*
X120290476Y-92654819D01*
X120052381Y-91607200D02*
X119814286Y-92321485D01*
X119814286Y-92321485D02*
X120433333Y-92321485D01*
X172454819Y-74238094D02*
X171454819Y-74238094D01*
X171454819Y-74238094D02*
X171454819Y-73999999D01*
X171454819Y-73999999D02*
X171502438Y-73857142D01*
X171502438Y-73857142D02*
X171597676Y-73761904D01*
X171597676Y-73761904D02*
X171692914Y-73714285D01*
X171692914Y-73714285D02*
X171883390Y-73666666D01*
X171883390Y-73666666D02*
X172026247Y-73666666D01*
X172026247Y-73666666D02*
X172216723Y-73714285D01*
X172216723Y-73714285D02*
X172311961Y-73761904D01*
X172311961Y-73761904D02*
X172407200Y-73857142D01*
X172407200Y-73857142D02*
X172454819Y-73999999D01*
X172454819Y-73999999D02*
X172454819Y-74238094D01*
X171454819Y-72809523D02*
X171454819Y-72999999D01*
X171454819Y-72999999D02*
X171502438Y-73095237D01*
X171502438Y-73095237D02*
X171550057Y-73142856D01*
X171550057Y-73142856D02*
X171692914Y-73238094D01*
X171692914Y-73238094D02*
X171883390Y-73285713D01*
X171883390Y-73285713D02*
X172264342Y-73285713D01*
X172264342Y-73285713D02*
X172359580Y-73238094D01*
X172359580Y-73238094D02*
X172407200Y-73190475D01*
X172407200Y-73190475D02*
X172454819Y-73095237D01*
X172454819Y-73095237D02*
X172454819Y-72904761D01*
X172454819Y-72904761D02*
X172407200Y-72809523D01*
X172407200Y-72809523D02*
X172359580Y-72761904D01*
X172359580Y-72761904D02*
X172264342Y-72714285D01*
X172264342Y-72714285D02*
X172026247Y-72714285D01*
X172026247Y-72714285D02*
X171931009Y-72761904D01*
X171931009Y-72761904D02*
X171883390Y-72809523D01*
X171883390Y-72809523D02*
X171835771Y-72904761D01*
X171835771Y-72904761D02*
X171835771Y-73095237D01*
X171835771Y-73095237D02*
X171883390Y-73190475D01*
X171883390Y-73190475D02*
X171931009Y-73238094D01*
X171931009Y-73238094D02*
X172026247Y-73285713D01*
X132309580Y-96416666D02*
X132357200Y-96464285D01*
X132357200Y-96464285D02*
X132404819Y-96607142D01*
X132404819Y-96607142D02*
X132404819Y-96702380D01*
X132404819Y-96702380D02*
X132357200Y-96845237D01*
X132357200Y-96845237D02*
X132261961Y-96940475D01*
X132261961Y-96940475D02*
X132166723Y-96988094D01*
X132166723Y-96988094D02*
X131976247Y-97035713D01*
X131976247Y-97035713D02*
X131833390Y-97035713D01*
X131833390Y-97035713D02*
X131642914Y-96988094D01*
X131642914Y-96988094D02*
X131547676Y-96940475D01*
X131547676Y-96940475D02*
X131452438Y-96845237D01*
X131452438Y-96845237D02*
X131404819Y-96702380D01*
X131404819Y-96702380D02*
X131404819Y-96607142D01*
X131404819Y-96607142D02*
X131452438Y-96464285D01*
X131452438Y-96464285D02*
X131500057Y-96416666D01*
X131500057Y-96035713D02*
X131452438Y-95988094D01*
X131452438Y-95988094D02*
X131404819Y-95892856D01*
X131404819Y-95892856D02*
X131404819Y-95654761D01*
X131404819Y-95654761D02*
X131452438Y-95559523D01*
X131452438Y-95559523D02*
X131500057Y-95511904D01*
X131500057Y-95511904D02*
X131595295Y-95464285D01*
X131595295Y-95464285D02*
X131690533Y-95464285D01*
X131690533Y-95464285D02*
X131833390Y-95511904D01*
X131833390Y-95511904D02*
X132404819Y-96083332D01*
X132404819Y-96083332D02*
X132404819Y-95464285D01*
X119107142Y-114704819D02*
X118773809Y-114228628D01*
X118535714Y-114704819D02*
X118535714Y-113704819D01*
X118535714Y-113704819D02*
X118916666Y-113704819D01*
X118916666Y-113704819D02*
X119011904Y-113752438D01*
X119011904Y-113752438D02*
X119059523Y-113800057D01*
X119059523Y-113800057D02*
X119107142Y-113895295D01*
X119107142Y-113895295D02*
X119107142Y-114038152D01*
X119107142Y-114038152D02*
X119059523Y-114133390D01*
X119059523Y-114133390D02*
X119011904Y-114181009D01*
X119011904Y-114181009D02*
X118916666Y-114228628D01*
X118916666Y-114228628D02*
X118535714Y-114228628D01*
X119488095Y-113800057D02*
X119535714Y-113752438D01*
X119535714Y-113752438D02*
X119630952Y-113704819D01*
X119630952Y-113704819D02*
X119869047Y-113704819D01*
X119869047Y-113704819D02*
X119964285Y-113752438D01*
X119964285Y-113752438D02*
X120011904Y-113800057D01*
X120011904Y-113800057D02*
X120059523Y-113895295D01*
X120059523Y-113895295D02*
X120059523Y-113990533D01*
X120059523Y-113990533D02*
X120011904Y-114133390D01*
X120011904Y-114133390D02*
X119440476Y-114704819D01*
X119440476Y-114704819D02*
X120059523Y-114704819D01*
X120916666Y-114038152D02*
X120916666Y-114704819D01*
X120678571Y-113657200D02*
X120440476Y-114371485D01*
X120440476Y-114371485D02*
X121059523Y-114371485D01*
X143474819Y-128464285D02*
X142474819Y-128464285D01*
X142474819Y-128464285D02*
X142474819Y-128226190D01*
X142474819Y-128226190D02*
X142522438Y-128083333D01*
X142522438Y-128083333D02*
X142617676Y-127988095D01*
X142617676Y-127988095D02*
X142712914Y-127940476D01*
X142712914Y-127940476D02*
X142903390Y-127892857D01*
X142903390Y-127892857D02*
X143046247Y-127892857D01*
X143046247Y-127892857D02*
X143236723Y-127940476D01*
X143236723Y-127940476D02*
X143331961Y-127988095D01*
X143331961Y-127988095D02*
X143427200Y-128083333D01*
X143427200Y-128083333D02*
X143474819Y-128226190D01*
X143474819Y-128226190D02*
X143474819Y-128464285D01*
X143474819Y-126940476D02*
X143474819Y-127511904D01*
X143474819Y-127226190D02*
X142474819Y-127226190D01*
X142474819Y-127226190D02*
X142617676Y-127321428D01*
X142617676Y-127321428D02*
X142712914Y-127416666D01*
X142712914Y-127416666D02*
X142760533Y-127511904D01*
X142474819Y-126607142D02*
X142474819Y-125988095D01*
X142474819Y-125988095D02*
X142855771Y-126321428D01*
X142855771Y-126321428D02*
X142855771Y-126178571D01*
X142855771Y-126178571D02*
X142903390Y-126083333D01*
X142903390Y-126083333D02*
X142951009Y-126035714D01*
X142951009Y-126035714D02*
X143046247Y-125988095D01*
X143046247Y-125988095D02*
X143284342Y-125988095D01*
X143284342Y-125988095D02*
X143379580Y-126035714D01*
X143379580Y-126035714D02*
X143427200Y-126083333D01*
X143427200Y-126083333D02*
X143474819Y-126178571D01*
X143474819Y-126178571D02*
X143474819Y-126464285D01*
X143474819Y-126464285D02*
X143427200Y-126559523D01*
X143427200Y-126559523D02*
X143379580Y-126607142D01*
X124766666Y-121654819D02*
X124766666Y-122369104D01*
X124766666Y-122369104D02*
X124719047Y-122511961D01*
X124719047Y-122511961D02*
X124623809Y-122607200D01*
X124623809Y-122607200D02*
X124480952Y-122654819D01*
X124480952Y-122654819D02*
X124385714Y-122654819D01*
X125195238Y-121750057D02*
X125242857Y-121702438D01*
X125242857Y-121702438D02*
X125338095Y-121654819D01*
X125338095Y-121654819D02*
X125576190Y-121654819D01*
X125576190Y-121654819D02*
X125671428Y-121702438D01*
X125671428Y-121702438D02*
X125719047Y-121750057D01*
X125719047Y-121750057D02*
X125766666Y-121845295D01*
X125766666Y-121845295D02*
X125766666Y-121940533D01*
X125766666Y-121940533D02*
X125719047Y-122083390D01*
X125719047Y-122083390D02*
X125147619Y-122654819D01*
X125147619Y-122654819D02*
X125766666Y-122654819D01*
X118204819Y-114738094D02*
X117204819Y-114738094D01*
X117204819Y-114738094D02*
X117204819Y-114499999D01*
X117204819Y-114499999D02*
X117252438Y-114357142D01*
X117252438Y-114357142D02*
X117347676Y-114261904D01*
X117347676Y-114261904D02*
X117442914Y-114214285D01*
X117442914Y-114214285D02*
X117633390Y-114166666D01*
X117633390Y-114166666D02*
X117776247Y-114166666D01*
X117776247Y-114166666D02*
X117966723Y-114214285D01*
X117966723Y-114214285D02*
X118061961Y-114261904D01*
X118061961Y-114261904D02*
X118157200Y-114357142D01*
X118157200Y-114357142D02*
X118204819Y-114499999D01*
X118204819Y-114499999D02*
X118204819Y-114738094D01*
X118204819Y-113690475D02*
X118204819Y-113499999D01*
X118204819Y-113499999D02*
X118157200Y-113404761D01*
X118157200Y-113404761D02*
X118109580Y-113357142D01*
X118109580Y-113357142D02*
X117966723Y-113261904D01*
X117966723Y-113261904D02*
X117776247Y-113214285D01*
X117776247Y-113214285D02*
X117395295Y-113214285D01*
X117395295Y-113214285D02*
X117300057Y-113261904D01*
X117300057Y-113261904D02*
X117252438Y-113309523D01*
X117252438Y-113309523D02*
X117204819Y-113404761D01*
X117204819Y-113404761D02*
X117204819Y-113595237D01*
X117204819Y-113595237D02*
X117252438Y-113690475D01*
X117252438Y-113690475D02*
X117300057Y-113738094D01*
X117300057Y-113738094D02*
X117395295Y-113785713D01*
X117395295Y-113785713D02*
X117633390Y-113785713D01*
X117633390Y-113785713D02*
X117728628Y-113738094D01*
X117728628Y-113738094D02*
X117776247Y-113690475D01*
X117776247Y-113690475D02*
X117823866Y-113595237D01*
X117823866Y-113595237D02*
X117823866Y-113404761D01*
X117823866Y-113404761D02*
X117776247Y-113309523D01*
X117776247Y-113309523D02*
X117728628Y-113261904D01*
X117728628Y-113261904D02*
X117633390Y-113214285D01*
X121488095Y-115454819D02*
X121488095Y-116264342D01*
X121488095Y-116264342D02*
X121535714Y-116359580D01*
X121535714Y-116359580D02*
X121583333Y-116407200D01*
X121583333Y-116407200D02*
X121678571Y-116454819D01*
X121678571Y-116454819D02*
X121869047Y-116454819D01*
X121869047Y-116454819D02*
X121964285Y-116407200D01*
X121964285Y-116407200D02*
X122011904Y-116359580D01*
X122011904Y-116359580D02*
X122059523Y-116264342D01*
X122059523Y-116264342D02*
X122059523Y-115454819D01*
X122964285Y-115454819D02*
X122773809Y-115454819D01*
X122773809Y-115454819D02*
X122678571Y-115502438D01*
X122678571Y-115502438D02*
X122630952Y-115550057D01*
X122630952Y-115550057D02*
X122535714Y-115692914D01*
X122535714Y-115692914D02*
X122488095Y-115883390D01*
X122488095Y-115883390D02*
X122488095Y-116264342D01*
X122488095Y-116264342D02*
X122535714Y-116359580D01*
X122535714Y-116359580D02*
X122583333Y-116407200D01*
X122583333Y-116407200D02*
X122678571Y-116454819D01*
X122678571Y-116454819D02*
X122869047Y-116454819D01*
X122869047Y-116454819D02*
X122964285Y-116407200D01*
X122964285Y-116407200D02*
X123011904Y-116359580D01*
X123011904Y-116359580D02*
X123059523Y-116264342D01*
X123059523Y-116264342D02*
X123059523Y-116026247D01*
X123059523Y-116026247D02*
X123011904Y-115931009D01*
X123011904Y-115931009D02*
X122964285Y-115883390D01*
X122964285Y-115883390D02*
X122869047Y-115835771D01*
X122869047Y-115835771D02*
X122678571Y-115835771D01*
X122678571Y-115835771D02*
X122583333Y-115883390D01*
X122583333Y-115883390D02*
X122535714Y-115931009D01*
X122535714Y-115931009D02*
X122488095Y-116026247D01*
X126333333Y-98954819D02*
X126000000Y-98478628D01*
X125761905Y-98954819D02*
X125761905Y-97954819D01*
X125761905Y-97954819D02*
X126142857Y-97954819D01*
X126142857Y-97954819D02*
X126238095Y-98002438D01*
X126238095Y-98002438D02*
X126285714Y-98050057D01*
X126285714Y-98050057D02*
X126333333Y-98145295D01*
X126333333Y-98145295D02*
X126333333Y-98288152D01*
X126333333Y-98288152D02*
X126285714Y-98383390D01*
X126285714Y-98383390D02*
X126238095Y-98431009D01*
X126238095Y-98431009D02*
X126142857Y-98478628D01*
X126142857Y-98478628D02*
X125761905Y-98478628D01*
X126666667Y-97954819D02*
X127333333Y-97954819D01*
X127333333Y-97954819D02*
X126904762Y-98954819D01*
X133607142Y-110454819D02*
X133273809Y-109978628D01*
X133035714Y-110454819D02*
X133035714Y-109454819D01*
X133035714Y-109454819D02*
X133416666Y-109454819D01*
X133416666Y-109454819D02*
X133511904Y-109502438D01*
X133511904Y-109502438D02*
X133559523Y-109550057D01*
X133559523Y-109550057D02*
X133607142Y-109645295D01*
X133607142Y-109645295D02*
X133607142Y-109788152D01*
X133607142Y-109788152D02*
X133559523Y-109883390D01*
X133559523Y-109883390D02*
X133511904Y-109931009D01*
X133511904Y-109931009D02*
X133416666Y-109978628D01*
X133416666Y-109978628D02*
X133035714Y-109978628D01*
X133988095Y-109550057D02*
X134035714Y-109502438D01*
X134035714Y-109502438D02*
X134130952Y-109454819D01*
X134130952Y-109454819D02*
X134369047Y-109454819D01*
X134369047Y-109454819D02*
X134464285Y-109502438D01*
X134464285Y-109502438D02*
X134511904Y-109550057D01*
X134511904Y-109550057D02*
X134559523Y-109645295D01*
X134559523Y-109645295D02*
X134559523Y-109740533D01*
X134559523Y-109740533D02*
X134511904Y-109883390D01*
X134511904Y-109883390D02*
X133940476Y-110454819D01*
X133940476Y-110454819D02*
X134559523Y-110454819D01*
X134892857Y-109454819D02*
X135559523Y-109454819D01*
X135559523Y-109454819D02*
X135130952Y-110454819D01*
X122533333Y-85609580D02*
X122485714Y-85657200D01*
X122485714Y-85657200D02*
X122342857Y-85704819D01*
X122342857Y-85704819D02*
X122247619Y-85704819D01*
X122247619Y-85704819D02*
X122104762Y-85657200D01*
X122104762Y-85657200D02*
X122009524Y-85561961D01*
X122009524Y-85561961D02*
X121961905Y-85466723D01*
X121961905Y-85466723D02*
X121914286Y-85276247D01*
X121914286Y-85276247D02*
X121914286Y-85133390D01*
X121914286Y-85133390D02*
X121961905Y-84942914D01*
X121961905Y-84942914D02*
X122009524Y-84847676D01*
X122009524Y-84847676D02*
X122104762Y-84752438D01*
X122104762Y-84752438D02*
X122247619Y-84704819D01*
X122247619Y-84704819D02*
X122342857Y-84704819D01*
X122342857Y-84704819D02*
X122485714Y-84752438D01*
X122485714Y-84752438D02*
X122533333Y-84800057D01*
X122866667Y-84704819D02*
X123533333Y-84704819D01*
X123533333Y-84704819D02*
X123104762Y-85704819D01*
X147204819Y-87237857D02*
X146728628Y-87571190D01*
X147204819Y-87809285D02*
X146204819Y-87809285D01*
X146204819Y-87809285D02*
X146204819Y-87428333D01*
X146204819Y-87428333D02*
X146252438Y-87333095D01*
X146252438Y-87333095D02*
X146300057Y-87285476D01*
X146300057Y-87285476D02*
X146395295Y-87237857D01*
X146395295Y-87237857D02*
X146538152Y-87237857D01*
X146538152Y-87237857D02*
X146633390Y-87285476D01*
X146633390Y-87285476D02*
X146681009Y-87333095D01*
X146681009Y-87333095D02*
X146728628Y-87428333D01*
X146728628Y-87428333D02*
X146728628Y-87809285D01*
X147204819Y-86285476D02*
X147204819Y-86856904D01*
X147204819Y-86571190D02*
X146204819Y-86571190D01*
X146204819Y-86571190D02*
X146347676Y-86666428D01*
X146347676Y-86666428D02*
X146442914Y-86761666D01*
X146442914Y-86761666D02*
X146490533Y-86856904D01*
X147204819Y-85809285D02*
X147204819Y-85618809D01*
X147204819Y-85618809D02*
X147157200Y-85523571D01*
X147157200Y-85523571D02*
X147109580Y-85475952D01*
X147109580Y-85475952D02*
X146966723Y-85380714D01*
X146966723Y-85380714D02*
X146776247Y-85333095D01*
X146776247Y-85333095D02*
X146395295Y-85333095D01*
X146395295Y-85333095D02*
X146300057Y-85380714D01*
X146300057Y-85380714D02*
X146252438Y-85428333D01*
X146252438Y-85428333D02*
X146204819Y-85523571D01*
X146204819Y-85523571D02*
X146204819Y-85714047D01*
X146204819Y-85714047D02*
X146252438Y-85809285D01*
X146252438Y-85809285D02*
X146300057Y-85856904D01*
X146300057Y-85856904D02*
X146395295Y-85904523D01*
X146395295Y-85904523D02*
X146633390Y-85904523D01*
X146633390Y-85904523D02*
X146728628Y-85856904D01*
X146728628Y-85856904D02*
X146776247Y-85809285D01*
X146776247Y-85809285D02*
X146823866Y-85714047D01*
X146823866Y-85714047D02*
X146823866Y-85523571D01*
X146823866Y-85523571D02*
X146776247Y-85428333D01*
X146776247Y-85428333D02*
X146728628Y-85380714D01*
X146728628Y-85380714D02*
X146633390Y-85333095D01*
X124454819Y-94666666D02*
X123978628Y-94999999D01*
X124454819Y-95238094D02*
X123454819Y-95238094D01*
X123454819Y-95238094D02*
X123454819Y-94857142D01*
X123454819Y-94857142D02*
X123502438Y-94761904D01*
X123502438Y-94761904D02*
X123550057Y-94714285D01*
X123550057Y-94714285D02*
X123645295Y-94666666D01*
X123645295Y-94666666D02*
X123788152Y-94666666D01*
X123788152Y-94666666D02*
X123883390Y-94714285D01*
X123883390Y-94714285D02*
X123931009Y-94761904D01*
X123931009Y-94761904D02*
X123978628Y-94857142D01*
X123978628Y-94857142D02*
X123978628Y-95238094D01*
X123454819Y-93761904D02*
X123454819Y-94238094D01*
X123454819Y-94238094D02*
X123931009Y-94285713D01*
X123931009Y-94285713D02*
X123883390Y-94238094D01*
X123883390Y-94238094D02*
X123835771Y-94142856D01*
X123835771Y-94142856D02*
X123835771Y-93904761D01*
X123835771Y-93904761D02*
X123883390Y-93809523D01*
X123883390Y-93809523D02*
X123931009Y-93761904D01*
X123931009Y-93761904D02*
X124026247Y-93714285D01*
X124026247Y-93714285D02*
X124264342Y-93714285D01*
X124264342Y-93714285D02*
X124359580Y-93761904D01*
X124359580Y-93761904D02*
X124407200Y-93809523D01*
X124407200Y-93809523D02*
X124454819Y-93904761D01*
X124454819Y-93904761D02*
X124454819Y-94142856D01*
X124454819Y-94142856D02*
X124407200Y-94238094D01*
X124407200Y-94238094D02*
X124359580Y-94285713D01*
X163704819Y-107461904D02*
X164514342Y-107461904D01*
X164514342Y-107461904D02*
X164609580Y-107414285D01*
X164609580Y-107414285D02*
X164657200Y-107366666D01*
X164657200Y-107366666D02*
X164704819Y-107271428D01*
X164704819Y-107271428D02*
X164704819Y-107080952D01*
X164704819Y-107080952D02*
X164657200Y-106985714D01*
X164657200Y-106985714D02*
X164609580Y-106938095D01*
X164609580Y-106938095D02*
X164514342Y-106890476D01*
X164514342Y-106890476D02*
X163704819Y-106890476D01*
X163704819Y-105938095D02*
X163704819Y-106414285D01*
X163704819Y-106414285D02*
X164181009Y-106461904D01*
X164181009Y-106461904D02*
X164133390Y-106414285D01*
X164133390Y-106414285D02*
X164085771Y-106319047D01*
X164085771Y-106319047D02*
X164085771Y-106080952D01*
X164085771Y-106080952D02*
X164133390Y-105985714D01*
X164133390Y-105985714D02*
X164181009Y-105938095D01*
X164181009Y-105938095D02*
X164276247Y-105890476D01*
X164276247Y-105890476D02*
X164514342Y-105890476D01*
X164514342Y-105890476D02*
X164609580Y-105938095D01*
X164609580Y-105938095D02*
X164657200Y-105985714D01*
X164657200Y-105985714D02*
X164704819Y-106080952D01*
X164704819Y-106080952D02*
X164704819Y-106319047D01*
X164704819Y-106319047D02*
X164657200Y-106414285D01*
X164657200Y-106414285D02*
X164609580Y-106461904D01*
X165238095Y-110854819D02*
X165238095Y-111664342D01*
X165238095Y-111664342D02*
X165285714Y-111759580D01*
X165285714Y-111759580D02*
X165333333Y-111807200D01*
X165333333Y-111807200D02*
X165428571Y-111854819D01*
X165428571Y-111854819D02*
X165619047Y-111854819D01*
X165619047Y-111854819D02*
X165714285Y-111807200D01*
X165714285Y-111807200D02*
X165761904Y-111759580D01*
X165761904Y-111759580D02*
X165809523Y-111664342D01*
X165809523Y-111664342D02*
X165809523Y-110854819D01*
X166238095Y-110950057D02*
X166285714Y-110902438D01*
X166285714Y-110902438D02*
X166380952Y-110854819D01*
X166380952Y-110854819D02*
X166619047Y-110854819D01*
X166619047Y-110854819D02*
X166714285Y-110902438D01*
X166714285Y-110902438D02*
X166761904Y-110950057D01*
X166761904Y-110950057D02*
X166809523Y-111045295D01*
X166809523Y-111045295D02*
X166809523Y-111140533D01*
X166809523Y-111140533D02*
X166761904Y-111283390D01*
X166761904Y-111283390D02*
X166190476Y-111854819D01*
X166190476Y-111854819D02*
X166809523Y-111854819D01*
X126474819Y-128464285D02*
X125474819Y-128464285D01*
X125474819Y-128464285D02*
X125474819Y-128226190D01*
X125474819Y-128226190D02*
X125522438Y-128083333D01*
X125522438Y-128083333D02*
X125617676Y-127988095D01*
X125617676Y-127988095D02*
X125712914Y-127940476D01*
X125712914Y-127940476D02*
X125903390Y-127892857D01*
X125903390Y-127892857D02*
X126046247Y-127892857D01*
X126046247Y-127892857D02*
X126236723Y-127940476D01*
X126236723Y-127940476D02*
X126331961Y-127988095D01*
X126331961Y-127988095D02*
X126427200Y-128083333D01*
X126427200Y-128083333D02*
X126474819Y-128226190D01*
X126474819Y-128226190D02*
X126474819Y-128464285D01*
X126474819Y-126940476D02*
X126474819Y-127511904D01*
X126474819Y-127226190D02*
X125474819Y-127226190D01*
X125474819Y-127226190D02*
X125617676Y-127321428D01*
X125617676Y-127321428D02*
X125712914Y-127416666D01*
X125712914Y-127416666D02*
X125760533Y-127511904D01*
X126474819Y-125988095D02*
X126474819Y-126559523D01*
X126474819Y-126273809D02*
X125474819Y-126273809D01*
X125474819Y-126273809D02*
X125617676Y-126369047D01*
X125617676Y-126369047D02*
X125712914Y-126464285D01*
X125712914Y-126464285D02*
X125760533Y-126559523D01*
X122533333Y-83359580D02*
X122485714Y-83407200D01*
X122485714Y-83407200D02*
X122342857Y-83454819D01*
X122342857Y-83454819D02*
X122247619Y-83454819D01*
X122247619Y-83454819D02*
X122104762Y-83407200D01*
X122104762Y-83407200D02*
X122009524Y-83311961D01*
X122009524Y-83311961D02*
X121961905Y-83216723D01*
X121961905Y-83216723D02*
X121914286Y-83026247D01*
X121914286Y-83026247D02*
X121914286Y-82883390D01*
X121914286Y-82883390D02*
X121961905Y-82692914D01*
X121961905Y-82692914D02*
X122009524Y-82597676D01*
X122009524Y-82597676D02*
X122104762Y-82502438D01*
X122104762Y-82502438D02*
X122247619Y-82454819D01*
X122247619Y-82454819D02*
X122342857Y-82454819D01*
X122342857Y-82454819D02*
X122485714Y-82502438D01*
X122485714Y-82502438D02*
X122533333Y-82550057D01*
X123104762Y-82883390D02*
X123009524Y-82835771D01*
X123009524Y-82835771D02*
X122961905Y-82788152D01*
X122961905Y-82788152D02*
X122914286Y-82692914D01*
X122914286Y-82692914D02*
X122914286Y-82645295D01*
X122914286Y-82645295D02*
X122961905Y-82550057D01*
X122961905Y-82550057D02*
X123009524Y-82502438D01*
X123009524Y-82502438D02*
X123104762Y-82454819D01*
X123104762Y-82454819D02*
X123295238Y-82454819D01*
X123295238Y-82454819D02*
X123390476Y-82502438D01*
X123390476Y-82502438D02*
X123438095Y-82550057D01*
X123438095Y-82550057D02*
X123485714Y-82645295D01*
X123485714Y-82645295D02*
X123485714Y-82692914D01*
X123485714Y-82692914D02*
X123438095Y-82788152D01*
X123438095Y-82788152D02*
X123390476Y-82835771D01*
X123390476Y-82835771D02*
X123295238Y-82883390D01*
X123295238Y-82883390D02*
X123104762Y-82883390D01*
X123104762Y-82883390D02*
X123009524Y-82931009D01*
X123009524Y-82931009D02*
X122961905Y-82978628D01*
X122961905Y-82978628D02*
X122914286Y-83073866D01*
X122914286Y-83073866D02*
X122914286Y-83264342D01*
X122914286Y-83264342D02*
X122961905Y-83359580D01*
X122961905Y-83359580D02*
X123009524Y-83407200D01*
X123009524Y-83407200D02*
X123104762Y-83454819D01*
X123104762Y-83454819D02*
X123295238Y-83454819D01*
X123295238Y-83454819D02*
X123390476Y-83407200D01*
X123390476Y-83407200D02*
X123438095Y-83359580D01*
X123438095Y-83359580D02*
X123485714Y-83264342D01*
X123485714Y-83264342D02*
X123485714Y-83073866D01*
X123485714Y-83073866D02*
X123438095Y-82978628D01*
X123438095Y-82978628D02*
X123390476Y-82931009D01*
X123390476Y-82931009D02*
X123295238Y-82883390D01*
X119420057Y-127095238D02*
X119372438Y-127190476D01*
X119372438Y-127190476D02*
X119277200Y-127285714D01*
X119277200Y-127285714D02*
X119134342Y-127428571D01*
X119134342Y-127428571D02*
X119086723Y-127523809D01*
X119086723Y-127523809D02*
X119086723Y-127619047D01*
X119324819Y-127571428D02*
X119277200Y-127666666D01*
X119277200Y-127666666D02*
X119181961Y-127761904D01*
X119181961Y-127761904D02*
X118991485Y-127809523D01*
X118991485Y-127809523D02*
X118658152Y-127809523D01*
X118658152Y-127809523D02*
X118467676Y-127761904D01*
X118467676Y-127761904D02*
X118372438Y-127666666D01*
X118372438Y-127666666D02*
X118324819Y-127571428D01*
X118324819Y-127571428D02*
X118324819Y-127380952D01*
X118324819Y-127380952D02*
X118372438Y-127285714D01*
X118372438Y-127285714D02*
X118467676Y-127190476D01*
X118467676Y-127190476D02*
X118658152Y-127142857D01*
X118658152Y-127142857D02*
X118991485Y-127142857D01*
X118991485Y-127142857D02*
X119181961Y-127190476D01*
X119181961Y-127190476D02*
X119277200Y-127285714D01*
X119277200Y-127285714D02*
X119324819Y-127380952D01*
X119324819Y-127380952D02*
X119324819Y-127571428D01*
X118420057Y-126761904D02*
X118372438Y-126714285D01*
X118372438Y-126714285D02*
X118324819Y-126619047D01*
X118324819Y-126619047D02*
X118324819Y-126380952D01*
X118324819Y-126380952D02*
X118372438Y-126285714D01*
X118372438Y-126285714D02*
X118420057Y-126238095D01*
X118420057Y-126238095D02*
X118515295Y-126190476D01*
X118515295Y-126190476D02*
X118610533Y-126190476D01*
X118610533Y-126190476D02*
X118753390Y-126238095D01*
X118753390Y-126238095D02*
X119324819Y-126809523D01*
X119324819Y-126809523D02*
X119324819Y-126190476D01*
X154657142Y-101659580D02*
X154609523Y-101707200D01*
X154609523Y-101707200D02*
X154466666Y-101754819D01*
X154466666Y-101754819D02*
X154371428Y-101754819D01*
X154371428Y-101754819D02*
X154228571Y-101707200D01*
X154228571Y-101707200D02*
X154133333Y-101611961D01*
X154133333Y-101611961D02*
X154085714Y-101516723D01*
X154085714Y-101516723D02*
X154038095Y-101326247D01*
X154038095Y-101326247D02*
X154038095Y-101183390D01*
X154038095Y-101183390D02*
X154085714Y-100992914D01*
X154085714Y-100992914D02*
X154133333Y-100897676D01*
X154133333Y-100897676D02*
X154228571Y-100802438D01*
X154228571Y-100802438D02*
X154371428Y-100754819D01*
X154371428Y-100754819D02*
X154466666Y-100754819D01*
X154466666Y-100754819D02*
X154609523Y-100802438D01*
X154609523Y-100802438D02*
X154657142Y-100850057D01*
X155609523Y-101754819D02*
X155038095Y-101754819D01*
X155323809Y-101754819D02*
X155323809Y-100754819D01*
X155323809Y-100754819D02*
X155228571Y-100897676D01*
X155228571Y-100897676D02*
X155133333Y-100992914D01*
X155133333Y-100992914D02*
X155038095Y-101040533D01*
X156514285Y-100754819D02*
X156038095Y-100754819D01*
X156038095Y-100754819D02*
X155990476Y-101231009D01*
X155990476Y-101231009D02*
X156038095Y-101183390D01*
X156038095Y-101183390D02*
X156133333Y-101135771D01*
X156133333Y-101135771D02*
X156371428Y-101135771D01*
X156371428Y-101135771D02*
X156466666Y-101183390D01*
X156466666Y-101183390D02*
X156514285Y-101231009D01*
X156514285Y-101231009D02*
X156561904Y-101326247D01*
X156561904Y-101326247D02*
X156561904Y-101564342D01*
X156561904Y-101564342D02*
X156514285Y-101659580D01*
X156514285Y-101659580D02*
X156466666Y-101707200D01*
X156466666Y-101707200D02*
X156371428Y-101754819D01*
X156371428Y-101754819D02*
X156133333Y-101754819D01*
X156133333Y-101754819D02*
X156038095Y-101707200D01*
X156038095Y-101707200D02*
X155990476Y-101659580D01*
X118916666Y-67304819D02*
X118916666Y-68019104D01*
X118916666Y-68019104D02*
X118869047Y-68161961D01*
X118869047Y-68161961D02*
X118773809Y-68257200D01*
X118773809Y-68257200D02*
X118630952Y-68304819D01*
X118630952Y-68304819D02*
X118535714Y-68304819D01*
X119869047Y-67304819D02*
X119392857Y-67304819D01*
X119392857Y-67304819D02*
X119345238Y-67781009D01*
X119345238Y-67781009D02*
X119392857Y-67733390D01*
X119392857Y-67733390D02*
X119488095Y-67685771D01*
X119488095Y-67685771D02*
X119726190Y-67685771D01*
X119726190Y-67685771D02*
X119821428Y-67733390D01*
X119821428Y-67733390D02*
X119869047Y-67781009D01*
X119869047Y-67781009D02*
X119916666Y-67876247D01*
X119916666Y-67876247D02*
X119916666Y-68114342D01*
X119916666Y-68114342D02*
X119869047Y-68209580D01*
X119869047Y-68209580D02*
X119821428Y-68257200D01*
X119821428Y-68257200D02*
X119726190Y-68304819D01*
X119726190Y-68304819D02*
X119488095Y-68304819D01*
X119488095Y-68304819D02*
X119392857Y-68257200D01*
X119392857Y-68257200D02*
X119345238Y-68209580D01*
X122533333Y-90109580D02*
X122485714Y-90157200D01*
X122485714Y-90157200D02*
X122342857Y-90204819D01*
X122342857Y-90204819D02*
X122247619Y-90204819D01*
X122247619Y-90204819D02*
X122104762Y-90157200D01*
X122104762Y-90157200D02*
X122009524Y-90061961D01*
X122009524Y-90061961D02*
X121961905Y-89966723D01*
X121961905Y-89966723D02*
X121914286Y-89776247D01*
X121914286Y-89776247D02*
X121914286Y-89633390D01*
X121914286Y-89633390D02*
X121961905Y-89442914D01*
X121961905Y-89442914D02*
X122009524Y-89347676D01*
X122009524Y-89347676D02*
X122104762Y-89252438D01*
X122104762Y-89252438D02*
X122247619Y-89204819D01*
X122247619Y-89204819D02*
X122342857Y-89204819D01*
X122342857Y-89204819D02*
X122485714Y-89252438D01*
X122485714Y-89252438D02*
X122533333Y-89300057D01*
X123438095Y-89204819D02*
X122961905Y-89204819D01*
X122961905Y-89204819D02*
X122914286Y-89681009D01*
X122914286Y-89681009D02*
X122961905Y-89633390D01*
X122961905Y-89633390D02*
X123057143Y-89585771D01*
X123057143Y-89585771D02*
X123295238Y-89585771D01*
X123295238Y-89585771D02*
X123390476Y-89633390D01*
X123390476Y-89633390D02*
X123438095Y-89681009D01*
X123438095Y-89681009D02*
X123485714Y-89776247D01*
X123485714Y-89776247D02*
X123485714Y-90014342D01*
X123485714Y-90014342D02*
X123438095Y-90109580D01*
X123438095Y-90109580D02*
X123390476Y-90157200D01*
X123390476Y-90157200D02*
X123295238Y-90204819D01*
X123295238Y-90204819D02*
X123057143Y-90204819D01*
X123057143Y-90204819D02*
X122961905Y-90157200D01*
X122961905Y-90157200D02*
X122914286Y-90109580D01*
X143704819Y-100737857D02*
X143228628Y-101071190D01*
X143704819Y-101309285D02*
X142704819Y-101309285D01*
X142704819Y-101309285D02*
X142704819Y-100928333D01*
X142704819Y-100928333D02*
X142752438Y-100833095D01*
X142752438Y-100833095D02*
X142800057Y-100785476D01*
X142800057Y-100785476D02*
X142895295Y-100737857D01*
X142895295Y-100737857D02*
X143038152Y-100737857D01*
X143038152Y-100737857D02*
X143133390Y-100785476D01*
X143133390Y-100785476D02*
X143181009Y-100833095D01*
X143181009Y-100833095D02*
X143228628Y-100928333D01*
X143228628Y-100928333D02*
X143228628Y-101309285D01*
X143704819Y-99785476D02*
X143704819Y-100356904D01*
X143704819Y-100071190D02*
X142704819Y-100071190D01*
X142704819Y-100071190D02*
X142847676Y-100166428D01*
X142847676Y-100166428D02*
X142942914Y-100261666D01*
X142942914Y-100261666D02*
X142990533Y-100356904D01*
X142800057Y-99404523D02*
X142752438Y-99356904D01*
X142752438Y-99356904D02*
X142704819Y-99261666D01*
X142704819Y-99261666D02*
X142704819Y-99023571D01*
X142704819Y-99023571D02*
X142752438Y-98928333D01*
X142752438Y-98928333D02*
X142800057Y-98880714D01*
X142800057Y-98880714D02*
X142895295Y-98833095D01*
X142895295Y-98833095D02*
X142990533Y-98833095D01*
X142990533Y-98833095D02*
X143133390Y-98880714D01*
X143133390Y-98880714D02*
X143704819Y-99452142D01*
X143704819Y-99452142D02*
X143704819Y-98833095D01*
X166107142Y-97699819D02*
X165773809Y-97223628D01*
X165535714Y-97699819D02*
X165535714Y-96699819D01*
X165535714Y-96699819D02*
X165916666Y-96699819D01*
X165916666Y-96699819D02*
X166011904Y-96747438D01*
X166011904Y-96747438D02*
X166059523Y-96795057D01*
X166059523Y-96795057D02*
X166107142Y-96890295D01*
X166107142Y-96890295D02*
X166107142Y-97033152D01*
X166107142Y-97033152D02*
X166059523Y-97128390D01*
X166059523Y-97128390D02*
X166011904Y-97176009D01*
X166011904Y-97176009D02*
X165916666Y-97223628D01*
X165916666Y-97223628D02*
X165535714Y-97223628D01*
X167059523Y-97699819D02*
X166488095Y-97699819D01*
X166773809Y-97699819D02*
X166773809Y-96699819D01*
X166773809Y-96699819D02*
X166678571Y-96842676D01*
X166678571Y-96842676D02*
X166583333Y-96937914D01*
X166583333Y-96937914D02*
X166488095Y-96985533D01*
X167916666Y-97033152D02*
X167916666Y-97699819D01*
X167678571Y-96652200D02*
X167440476Y-97366485D01*
X167440476Y-97366485D02*
X168059523Y-97366485D01*
X128704819Y-90666666D02*
X128228628Y-90999999D01*
X128704819Y-91238094D02*
X127704819Y-91238094D01*
X127704819Y-91238094D02*
X127704819Y-90857142D01*
X127704819Y-90857142D02*
X127752438Y-90761904D01*
X127752438Y-90761904D02*
X127800057Y-90714285D01*
X127800057Y-90714285D02*
X127895295Y-90666666D01*
X127895295Y-90666666D02*
X128038152Y-90666666D01*
X128038152Y-90666666D02*
X128133390Y-90714285D01*
X128133390Y-90714285D02*
X128181009Y-90761904D01*
X128181009Y-90761904D02*
X128228628Y-90857142D01*
X128228628Y-90857142D02*
X128228628Y-91238094D01*
X128038152Y-89809523D02*
X128704819Y-89809523D01*
X127657200Y-90047618D02*
X128371485Y-90285713D01*
X128371485Y-90285713D02*
X128371485Y-89666666D01*
X122333333Y-98954819D02*
X122000000Y-98478628D01*
X121761905Y-98954819D02*
X121761905Y-97954819D01*
X121761905Y-97954819D02*
X122142857Y-97954819D01*
X122142857Y-97954819D02*
X122238095Y-98002438D01*
X122238095Y-98002438D02*
X122285714Y-98050057D01*
X122285714Y-98050057D02*
X122333333Y-98145295D01*
X122333333Y-98145295D02*
X122333333Y-98288152D01*
X122333333Y-98288152D02*
X122285714Y-98383390D01*
X122285714Y-98383390D02*
X122238095Y-98431009D01*
X122238095Y-98431009D02*
X122142857Y-98478628D01*
X122142857Y-98478628D02*
X121761905Y-98478628D01*
X123190476Y-97954819D02*
X123000000Y-97954819D01*
X123000000Y-97954819D02*
X122904762Y-98002438D01*
X122904762Y-98002438D02*
X122857143Y-98050057D01*
X122857143Y-98050057D02*
X122761905Y-98192914D01*
X122761905Y-98192914D02*
X122714286Y-98383390D01*
X122714286Y-98383390D02*
X122714286Y-98764342D01*
X122714286Y-98764342D02*
X122761905Y-98859580D01*
X122761905Y-98859580D02*
X122809524Y-98907200D01*
X122809524Y-98907200D02*
X122904762Y-98954819D01*
X122904762Y-98954819D02*
X123095238Y-98954819D01*
X123095238Y-98954819D02*
X123190476Y-98907200D01*
X123190476Y-98907200D02*
X123238095Y-98859580D01*
X123238095Y-98859580D02*
X123285714Y-98764342D01*
X123285714Y-98764342D02*
X123285714Y-98526247D01*
X123285714Y-98526247D02*
X123238095Y-98431009D01*
X123238095Y-98431009D02*
X123190476Y-98383390D01*
X123190476Y-98383390D02*
X123095238Y-98335771D01*
X123095238Y-98335771D02*
X122904762Y-98335771D01*
X122904762Y-98335771D02*
X122809524Y-98383390D01*
X122809524Y-98383390D02*
X122761905Y-98431009D01*
X122761905Y-98431009D02*
X122714286Y-98526247D01*
X149154819Y-105699404D02*
X149964342Y-105699404D01*
X149964342Y-105699404D02*
X150059580Y-105651785D01*
X150059580Y-105651785D02*
X150107200Y-105604166D01*
X150107200Y-105604166D02*
X150154819Y-105508928D01*
X150154819Y-105508928D02*
X150154819Y-105318452D01*
X150154819Y-105318452D02*
X150107200Y-105223214D01*
X150107200Y-105223214D02*
X150059580Y-105175595D01*
X150059580Y-105175595D02*
X149964342Y-105127976D01*
X149964342Y-105127976D02*
X149154819Y-105127976D01*
X149154819Y-104747023D02*
X149154819Y-104080357D01*
X149154819Y-104080357D02*
X150154819Y-104508928D01*
X166107142Y-90899819D02*
X165773809Y-90423628D01*
X165535714Y-90899819D02*
X165535714Y-89899819D01*
X165535714Y-89899819D02*
X165916666Y-89899819D01*
X165916666Y-89899819D02*
X166011904Y-89947438D01*
X166011904Y-89947438D02*
X166059523Y-89995057D01*
X166059523Y-89995057D02*
X166107142Y-90090295D01*
X166107142Y-90090295D02*
X166107142Y-90233152D01*
X166107142Y-90233152D02*
X166059523Y-90328390D01*
X166059523Y-90328390D02*
X166011904Y-90376009D01*
X166011904Y-90376009D02*
X165916666Y-90423628D01*
X165916666Y-90423628D02*
X165535714Y-90423628D01*
X167059523Y-90899819D02*
X166488095Y-90899819D01*
X166773809Y-90899819D02*
X166773809Y-89899819D01*
X166773809Y-89899819D02*
X166678571Y-90042676D01*
X166678571Y-90042676D02*
X166583333Y-90137914D01*
X166583333Y-90137914D02*
X166488095Y-90185533D01*
X167964285Y-89899819D02*
X167488095Y-89899819D01*
X167488095Y-89899819D02*
X167440476Y-90376009D01*
X167440476Y-90376009D02*
X167488095Y-90328390D01*
X167488095Y-90328390D02*
X167583333Y-90280771D01*
X167583333Y-90280771D02*
X167821428Y-90280771D01*
X167821428Y-90280771D02*
X167916666Y-90328390D01*
X167916666Y-90328390D02*
X167964285Y-90376009D01*
X167964285Y-90376009D02*
X168011904Y-90471247D01*
X168011904Y-90471247D02*
X168011904Y-90709342D01*
X168011904Y-90709342D02*
X167964285Y-90804580D01*
X167964285Y-90804580D02*
X167916666Y-90852200D01*
X167916666Y-90852200D02*
X167821428Y-90899819D01*
X167821428Y-90899819D02*
X167583333Y-90899819D01*
X167583333Y-90899819D02*
X167488095Y-90852200D01*
X167488095Y-90852200D02*
X167440476Y-90804580D01*
X145704819Y-100737857D02*
X145228628Y-101071190D01*
X145704819Y-101309285D02*
X144704819Y-101309285D01*
X144704819Y-101309285D02*
X144704819Y-100928333D01*
X144704819Y-100928333D02*
X144752438Y-100833095D01*
X144752438Y-100833095D02*
X144800057Y-100785476D01*
X144800057Y-100785476D02*
X144895295Y-100737857D01*
X144895295Y-100737857D02*
X145038152Y-100737857D01*
X145038152Y-100737857D02*
X145133390Y-100785476D01*
X145133390Y-100785476D02*
X145181009Y-100833095D01*
X145181009Y-100833095D02*
X145228628Y-100928333D01*
X145228628Y-100928333D02*
X145228628Y-101309285D01*
X145704819Y-99785476D02*
X145704819Y-100356904D01*
X145704819Y-100071190D02*
X144704819Y-100071190D01*
X144704819Y-100071190D02*
X144847676Y-100166428D01*
X144847676Y-100166428D02*
X144942914Y-100261666D01*
X144942914Y-100261666D02*
X144990533Y-100356904D01*
X144704819Y-98928333D02*
X144704819Y-99118809D01*
X144704819Y-99118809D02*
X144752438Y-99214047D01*
X144752438Y-99214047D02*
X144800057Y-99261666D01*
X144800057Y-99261666D02*
X144942914Y-99356904D01*
X144942914Y-99356904D02*
X145133390Y-99404523D01*
X145133390Y-99404523D02*
X145514342Y-99404523D01*
X145514342Y-99404523D02*
X145609580Y-99356904D01*
X145609580Y-99356904D02*
X145657200Y-99309285D01*
X145657200Y-99309285D02*
X145704819Y-99214047D01*
X145704819Y-99214047D02*
X145704819Y-99023571D01*
X145704819Y-99023571D02*
X145657200Y-98928333D01*
X145657200Y-98928333D02*
X145609580Y-98880714D01*
X145609580Y-98880714D02*
X145514342Y-98833095D01*
X145514342Y-98833095D02*
X145276247Y-98833095D01*
X145276247Y-98833095D02*
X145181009Y-98880714D01*
X145181009Y-98880714D02*
X145133390Y-98928333D01*
X145133390Y-98928333D02*
X145085771Y-99023571D01*
X145085771Y-99023571D02*
X145085771Y-99214047D01*
X145085771Y-99214047D02*
X145133390Y-99309285D01*
X145133390Y-99309285D02*
X145181009Y-99356904D01*
X145181009Y-99356904D02*
X145276247Y-99404523D01*
X173833333Y-124609580D02*
X173785714Y-124657200D01*
X173785714Y-124657200D02*
X173642857Y-124704819D01*
X173642857Y-124704819D02*
X173547619Y-124704819D01*
X173547619Y-124704819D02*
X173404762Y-124657200D01*
X173404762Y-124657200D02*
X173309524Y-124561961D01*
X173309524Y-124561961D02*
X173261905Y-124466723D01*
X173261905Y-124466723D02*
X173214286Y-124276247D01*
X173214286Y-124276247D02*
X173214286Y-124133390D01*
X173214286Y-124133390D02*
X173261905Y-123942914D01*
X173261905Y-123942914D02*
X173309524Y-123847676D01*
X173309524Y-123847676D02*
X173404762Y-123752438D01*
X173404762Y-123752438D02*
X173547619Y-123704819D01*
X173547619Y-123704819D02*
X173642857Y-123704819D01*
X173642857Y-123704819D02*
X173785714Y-123752438D01*
X173785714Y-123752438D02*
X173833333Y-123800057D01*
X174261905Y-124704819D02*
X174261905Y-123704819D01*
X174261905Y-123704819D02*
X174833333Y-124704819D01*
X174833333Y-124704819D02*
X174833333Y-123704819D01*
X175833333Y-124704819D02*
X175261905Y-124704819D01*
X175547619Y-124704819D02*
X175547619Y-123704819D01*
X175547619Y-123704819D02*
X175452381Y-123847676D01*
X175452381Y-123847676D02*
X175357143Y-123942914D01*
X175357143Y-123942914D02*
X175261905Y-123990533D01*
X176452381Y-123704819D02*
X176547619Y-123704819D01*
X176547619Y-123704819D02*
X176642857Y-123752438D01*
X176642857Y-123752438D02*
X176690476Y-123800057D01*
X176690476Y-123800057D02*
X176738095Y-123895295D01*
X176738095Y-123895295D02*
X176785714Y-124085771D01*
X176785714Y-124085771D02*
X176785714Y-124323866D01*
X176785714Y-124323866D02*
X176738095Y-124514342D01*
X176738095Y-124514342D02*
X176690476Y-124609580D01*
X176690476Y-124609580D02*
X176642857Y-124657200D01*
X176642857Y-124657200D02*
X176547619Y-124704819D01*
X176547619Y-124704819D02*
X176452381Y-124704819D01*
X176452381Y-124704819D02*
X176357143Y-124657200D01*
X176357143Y-124657200D02*
X176309524Y-124609580D01*
X176309524Y-124609580D02*
X176261905Y-124514342D01*
X176261905Y-124514342D02*
X176214286Y-124323866D01*
X176214286Y-124323866D02*
X176214286Y-124085771D01*
X176214286Y-124085771D02*
X176261905Y-123895295D01*
X176261905Y-123895295D02*
X176309524Y-123800057D01*
X176309524Y-123800057D02*
X176357143Y-123752438D01*
X176357143Y-123752438D02*
X176452381Y-123704819D01*
X110854819Y-134559523D02*
X109854819Y-134559523D01*
X109854819Y-134559523D02*
X110569104Y-134226190D01*
X110569104Y-134226190D02*
X109854819Y-133892857D01*
X109854819Y-133892857D02*
X110854819Y-133892857D01*
X109950057Y-133464285D02*
X109902438Y-133416666D01*
X109902438Y-133416666D02*
X109854819Y-133321428D01*
X109854819Y-133321428D02*
X109854819Y-133083333D01*
X109854819Y-133083333D02*
X109902438Y-132988095D01*
X109902438Y-132988095D02*
X109950057Y-132940476D01*
X109950057Y-132940476D02*
X110045295Y-132892857D01*
X110045295Y-132892857D02*
X110140533Y-132892857D01*
X110140533Y-132892857D02*
X110283390Y-132940476D01*
X110283390Y-132940476D02*
X110854819Y-133511904D01*
X110854819Y-133511904D02*
X110854819Y-132892857D01*
X134559580Y-96416666D02*
X134607200Y-96464285D01*
X134607200Y-96464285D02*
X134654819Y-96607142D01*
X134654819Y-96607142D02*
X134654819Y-96702380D01*
X134654819Y-96702380D02*
X134607200Y-96845237D01*
X134607200Y-96845237D02*
X134511961Y-96940475D01*
X134511961Y-96940475D02*
X134416723Y-96988094D01*
X134416723Y-96988094D02*
X134226247Y-97035713D01*
X134226247Y-97035713D02*
X134083390Y-97035713D01*
X134083390Y-97035713D02*
X133892914Y-96988094D01*
X133892914Y-96988094D02*
X133797676Y-96940475D01*
X133797676Y-96940475D02*
X133702438Y-96845237D01*
X133702438Y-96845237D02*
X133654819Y-96702380D01*
X133654819Y-96702380D02*
X133654819Y-96607142D01*
X133654819Y-96607142D02*
X133702438Y-96464285D01*
X133702438Y-96464285D02*
X133750057Y-96416666D01*
X134654819Y-95464285D02*
X134654819Y-96035713D01*
X134654819Y-95749999D02*
X133654819Y-95749999D01*
X133654819Y-95749999D02*
X133797676Y-95845237D01*
X133797676Y-95845237D02*
X133892914Y-95940475D01*
X133892914Y-95940475D02*
X133940533Y-96035713D01*
X133607142Y-108204819D02*
X133273809Y-107728628D01*
X133035714Y-108204819D02*
X133035714Y-107204819D01*
X133035714Y-107204819D02*
X133416666Y-107204819D01*
X133416666Y-107204819D02*
X133511904Y-107252438D01*
X133511904Y-107252438D02*
X133559523Y-107300057D01*
X133559523Y-107300057D02*
X133607142Y-107395295D01*
X133607142Y-107395295D02*
X133607142Y-107538152D01*
X133607142Y-107538152D02*
X133559523Y-107633390D01*
X133559523Y-107633390D02*
X133511904Y-107681009D01*
X133511904Y-107681009D02*
X133416666Y-107728628D01*
X133416666Y-107728628D02*
X133035714Y-107728628D01*
X133988095Y-107300057D02*
X134035714Y-107252438D01*
X134035714Y-107252438D02*
X134130952Y-107204819D01*
X134130952Y-107204819D02*
X134369047Y-107204819D01*
X134369047Y-107204819D02*
X134464285Y-107252438D01*
X134464285Y-107252438D02*
X134511904Y-107300057D01*
X134511904Y-107300057D02*
X134559523Y-107395295D01*
X134559523Y-107395295D02*
X134559523Y-107490533D01*
X134559523Y-107490533D02*
X134511904Y-107633390D01*
X134511904Y-107633390D02*
X133940476Y-108204819D01*
X133940476Y-108204819D02*
X134559523Y-108204819D01*
X135416666Y-107204819D02*
X135226190Y-107204819D01*
X135226190Y-107204819D02*
X135130952Y-107252438D01*
X135130952Y-107252438D02*
X135083333Y-107300057D01*
X135083333Y-107300057D02*
X134988095Y-107442914D01*
X134988095Y-107442914D02*
X134940476Y-107633390D01*
X134940476Y-107633390D02*
X134940476Y-108014342D01*
X134940476Y-108014342D02*
X134988095Y-108109580D01*
X134988095Y-108109580D02*
X135035714Y-108157200D01*
X135035714Y-108157200D02*
X135130952Y-108204819D01*
X135130952Y-108204819D02*
X135321428Y-108204819D01*
X135321428Y-108204819D02*
X135416666Y-108157200D01*
X135416666Y-108157200D02*
X135464285Y-108109580D01*
X135464285Y-108109580D02*
X135511904Y-108014342D01*
X135511904Y-108014342D02*
X135511904Y-107776247D01*
X135511904Y-107776247D02*
X135464285Y-107681009D01*
X135464285Y-107681009D02*
X135416666Y-107633390D01*
X135416666Y-107633390D02*
X135321428Y-107585771D01*
X135321428Y-107585771D02*
X135130952Y-107585771D01*
X135130952Y-107585771D02*
X135035714Y-107633390D01*
X135035714Y-107633390D02*
X134988095Y-107681009D01*
X134988095Y-107681009D02*
X134940476Y-107776247D01*
X136420057Y-127095238D02*
X136372438Y-127190476D01*
X136372438Y-127190476D02*
X136277200Y-127285714D01*
X136277200Y-127285714D02*
X136134342Y-127428571D01*
X136134342Y-127428571D02*
X136086723Y-127523809D01*
X136086723Y-127523809D02*
X136086723Y-127619047D01*
X136324819Y-127571428D02*
X136277200Y-127666666D01*
X136277200Y-127666666D02*
X136181961Y-127761904D01*
X136181961Y-127761904D02*
X135991485Y-127809523D01*
X135991485Y-127809523D02*
X135658152Y-127809523D01*
X135658152Y-127809523D02*
X135467676Y-127761904D01*
X135467676Y-127761904D02*
X135372438Y-127666666D01*
X135372438Y-127666666D02*
X135324819Y-127571428D01*
X135324819Y-127571428D02*
X135324819Y-127380952D01*
X135324819Y-127380952D02*
X135372438Y-127285714D01*
X135372438Y-127285714D02*
X135467676Y-127190476D01*
X135467676Y-127190476D02*
X135658152Y-127142857D01*
X135658152Y-127142857D02*
X135991485Y-127142857D01*
X135991485Y-127142857D02*
X136181961Y-127190476D01*
X136181961Y-127190476D02*
X136277200Y-127285714D01*
X136277200Y-127285714D02*
X136324819Y-127380952D01*
X136324819Y-127380952D02*
X136324819Y-127571428D01*
X135658152Y-126285714D02*
X136324819Y-126285714D01*
X135277200Y-126523809D02*
X135991485Y-126761904D01*
X135991485Y-126761904D02*
X135991485Y-126142857D01*
X172919104Y-134666666D02*
X172919104Y-134190476D01*
X173204819Y-134761904D02*
X172204819Y-134428571D01*
X172204819Y-134428571D02*
X173204819Y-134095238D01*
X172681009Y-133761904D02*
X172681009Y-133428571D01*
X173204819Y-133285714D02*
X173204819Y-133761904D01*
X173204819Y-133761904D02*
X172204819Y-133761904D01*
X172204819Y-133761904D02*
X172204819Y-133285714D01*
X173204819Y-132333333D02*
X173204819Y-132904761D01*
X173204819Y-132619047D02*
X172204819Y-132619047D01*
X172204819Y-132619047D02*
X172347676Y-132714285D01*
X172347676Y-132714285D02*
X172442914Y-132809523D01*
X172442914Y-132809523D02*
X172490533Y-132904761D01*
X139359580Y-100737857D02*
X139407200Y-100785476D01*
X139407200Y-100785476D02*
X139454819Y-100928333D01*
X139454819Y-100928333D02*
X139454819Y-101023571D01*
X139454819Y-101023571D02*
X139407200Y-101166428D01*
X139407200Y-101166428D02*
X139311961Y-101261666D01*
X139311961Y-101261666D02*
X139216723Y-101309285D01*
X139216723Y-101309285D02*
X139026247Y-101356904D01*
X139026247Y-101356904D02*
X138883390Y-101356904D01*
X138883390Y-101356904D02*
X138692914Y-101309285D01*
X138692914Y-101309285D02*
X138597676Y-101261666D01*
X138597676Y-101261666D02*
X138502438Y-101166428D01*
X138502438Y-101166428D02*
X138454819Y-101023571D01*
X138454819Y-101023571D02*
X138454819Y-100928333D01*
X138454819Y-100928333D02*
X138502438Y-100785476D01*
X138502438Y-100785476D02*
X138550057Y-100737857D01*
X139454819Y-99785476D02*
X139454819Y-100356904D01*
X139454819Y-100071190D02*
X138454819Y-100071190D01*
X138454819Y-100071190D02*
X138597676Y-100166428D01*
X138597676Y-100166428D02*
X138692914Y-100261666D01*
X138692914Y-100261666D02*
X138740533Y-100356904D01*
X138454819Y-99166428D02*
X138454819Y-99071190D01*
X138454819Y-99071190D02*
X138502438Y-98975952D01*
X138502438Y-98975952D02*
X138550057Y-98928333D01*
X138550057Y-98928333D02*
X138645295Y-98880714D01*
X138645295Y-98880714D02*
X138835771Y-98833095D01*
X138835771Y-98833095D02*
X139073866Y-98833095D01*
X139073866Y-98833095D02*
X139264342Y-98880714D01*
X139264342Y-98880714D02*
X139359580Y-98928333D01*
X139359580Y-98928333D02*
X139407200Y-98975952D01*
X139407200Y-98975952D02*
X139454819Y-99071190D01*
X139454819Y-99071190D02*
X139454819Y-99166428D01*
X139454819Y-99166428D02*
X139407200Y-99261666D01*
X139407200Y-99261666D02*
X139359580Y-99309285D01*
X139359580Y-99309285D02*
X139264342Y-99356904D01*
X139264342Y-99356904D02*
X139073866Y-99404523D01*
X139073866Y-99404523D02*
X138835771Y-99404523D01*
X138835771Y-99404523D02*
X138645295Y-99356904D01*
X138645295Y-99356904D02*
X138550057Y-99309285D01*
X138550057Y-99309285D02*
X138502438Y-99261666D01*
X138502438Y-99261666D02*
X138454819Y-99166428D01*
X147704819Y-100737857D02*
X147228628Y-101071190D01*
X147704819Y-101309285D02*
X146704819Y-101309285D01*
X146704819Y-101309285D02*
X146704819Y-100928333D01*
X146704819Y-100928333D02*
X146752438Y-100833095D01*
X146752438Y-100833095D02*
X146800057Y-100785476D01*
X146800057Y-100785476D02*
X146895295Y-100737857D01*
X146895295Y-100737857D02*
X147038152Y-100737857D01*
X147038152Y-100737857D02*
X147133390Y-100785476D01*
X147133390Y-100785476D02*
X147181009Y-100833095D01*
X147181009Y-100833095D02*
X147228628Y-100928333D01*
X147228628Y-100928333D02*
X147228628Y-101309285D01*
X147704819Y-99785476D02*
X147704819Y-100356904D01*
X147704819Y-100071190D02*
X146704819Y-100071190D01*
X146704819Y-100071190D02*
X146847676Y-100166428D01*
X146847676Y-100166428D02*
X146942914Y-100261666D01*
X146942914Y-100261666D02*
X146990533Y-100356904D01*
X147133390Y-99214047D02*
X147085771Y-99309285D01*
X147085771Y-99309285D02*
X147038152Y-99356904D01*
X147038152Y-99356904D02*
X146942914Y-99404523D01*
X146942914Y-99404523D02*
X146895295Y-99404523D01*
X146895295Y-99404523D02*
X146800057Y-99356904D01*
X146800057Y-99356904D02*
X146752438Y-99309285D01*
X146752438Y-99309285D02*
X146704819Y-99214047D01*
X146704819Y-99214047D02*
X146704819Y-99023571D01*
X146704819Y-99023571D02*
X146752438Y-98928333D01*
X146752438Y-98928333D02*
X146800057Y-98880714D01*
X146800057Y-98880714D02*
X146895295Y-98833095D01*
X146895295Y-98833095D02*
X146942914Y-98833095D01*
X146942914Y-98833095D02*
X147038152Y-98880714D01*
X147038152Y-98880714D02*
X147085771Y-98928333D01*
X147085771Y-98928333D02*
X147133390Y-99023571D01*
X147133390Y-99023571D02*
X147133390Y-99214047D01*
X147133390Y-99214047D02*
X147181009Y-99309285D01*
X147181009Y-99309285D02*
X147228628Y-99356904D01*
X147228628Y-99356904D02*
X147323866Y-99404523D01*
X147323866Y-99404523D02*
X147514342Y-99404523D01*
X147514342Y-99404523D02*
X147609580Y-99356904D01*
X147609580Y-99356904D02*
X147657200Y-99309285D01*
X147657200Y-99309285D02*
X147704819Y-99214047D01*
X147704819Y-99214047D02*
X147704819Y-99023571D01*
X147704819Y-99023571D02*
X147657200Y-98928333D01*
X147657200Y-98928333D02*
X147609580Y-98880714D01*
X147609580Y-98880714D02*
X147514342Y-98833095D01*
X147514342Y-98833095D02*
X147323866Y-98833095D01*
X147323866Y-98833095D02*
X147228628Y-98880714D01*
X147228628Y-98880714D02*
X147181009Y-98928333D01*
X147181009Y-98928333D02*
X147133390Y-99023571D01*
X168454819Y-74238094D02*
X167454819Y-74238094D01*
X167454819Y-74238094D02*
X167454819Y-73999999D01*
X167454819Y-73999999D02*
X167502438Y-73857142D01*
X167502438Y-73857142D02*
X167597676Y-73761904D01*
X167597676Y-73761904D02*
X167692914Y-73714285D01*
X167692914Y-73714285D02*
X167883390Y-73666666D01*
X167883390Y-73666666D02*
X168026247Y-73666666D01*
X168026247Y-73666666D02*
X168216723Y-73714285D01*
X168216723Y-73714285D02*
X168311961Y-73761904D01*
X168311961Y-73761904D02*
X168407200Y-73857142D01*
X168407200Y-73857142D02*
X168454819Y-73999999D01*
X168454819Y-73999999D02*
X168454819Y-74238094D01*
X167454819Y-72761904D02*
X167454819Y-73238094D01*
X167454819Y-73238094D02*
X167931009Y-73285713D01*
X167931009Y-73285713D02*
X167883390Y-73238094D01*
X167883390Y-73238094D02*
X167835771Y-73142856D01*
X167835771Y-73142856D02*
X167835771Y-72904761D01*
X167835771Y-72904761D02*
X167883390Y-72809523D01*
X167883390Y-72809523D02*
X167931009Y-72761904D01*
X167931009Y-72761904D02*
X168026247Y-72714285D01*
X168026247Y-72714285D02*
X168264342Y-72714285D01*
X168264342Y-72714285D02*
X168359580Y-72761904D01*
X168359580Y-72761904D02*
X168407200Y-72809523D01*
X168407200Y-72809523D02*
X168454819Y-72904761D01*
X168454819Y-72904761D02*
X168454819Y-73142856D01*
X168454819Y-73142856D02*
X168407200Y-73238094D01*
X168407200Y-73238094D02*
X168359580Y-73285713D01*
X130059580Y-96416666D02*
X130107200Y-96464285D01*
X130107200Y-96464285D02*
X130154819Y-96607142D01*
X130154819Y-96607142D02*
X130154819Y-96702380D01*
X130154819Y-96702380D02*
X130107200Y-96845237D01*
X130107200Y-96845237D02*
X130011961Y-96940475D01*
X130011961Y-96940475D02*
X129916723Y-96988094D01*
X129916723Y-96988094D02*
X129726247Y-97035713D01*
X129726247Y-97035713D02*
X129583390Y-97035713D01*
X129583390Y-97035713D02*
X129392914Y-96988094D01*
X129392914Y-96988094D02*
X129297676Y-96940475D01*
X129297676Y-96940475D02*
X129202438Y-96845237D01*
X129202438Y-96845237D02*
X129154819Y-96702380D01*
X129154819Y-96702380D02*
X129154819Y-96607142D01*
X129154819Y-96607142D02*
X129202438Y-96464285D01*
X129202438Y-96464285D02*
X129250057Y-96416666D01*
X129154819Y-96083332D02*
X129154819Y-95464285D01*
X129154819Y-95464285D02*
X129535771Y-95797618D01*
X129535771Y-95797618D02*
X129535771Y-95654761D01*
X129535771Y-95654761D02*
X129583390Y-95559523D01*
X129583390Y-95559523D02*
X129631009Y-95511904D01*
X129631009Y-95511904D02*
X129726247Y-95464285D01*
X129726247Y-95464285D02*
X129964342Y-95464285D01*
X129964342Y-95464285D02*
X130059580Y-95511904D01*
X130059580Y-95511904D02*
X130107200Y-95559523D01*
X130107200Y-95559523D02*
X130154819Y-95654761D01*
X130154819Y-95654761D02*
X130154819Y-95940475D01*
X130154819Y-95940475D02*
X130107200Y-96035713D01*
X130107200Y-96035713D02*
X130059580Y-96083332D01*
X111309523Y-124609580D02*
X111261904Y-124657200D01*
X111261904Y-124657200D02*
X111119047Y-124704819D01*
X111119047Y-124704819D02*
X111023809Y-124704819D01*
X111023809Y-124704819D02*
X110880952Y-124657200D01*
X110880952Y-124657200D02*
X110785714Y-124561961D01*
X110785714Y-124561961D02*
X110738095Y-124466723D01*
X110738095Y-124466723D02*
X110690476Y-124276247D01*
X110690476Y-124276247D02*
X110690476Y-124133390D01*
X110690476Y-124133390D02*
X110738095Y-123942914D01*
X110738095Y-123942914D02*
X110785714Y-123847676D01*
X110785714Y-123847676D02*
X110880952Y-123752438D01*
X110880952Y-123752438D02*
X111023809Y-123704819D01*
X111023809Y-123704819D02*
X111119047Y-123704819D01*
X111119047Y-123704819D02*
X111261904Y-123752438D01*
X111261904Y-123752438D02*
X111309523Y-123800057D01*
X111738095Y-124704819D02*
X111738095Y-123704819D01*
X111738095Y-123704819D02*
X112309523Y-124704819D01*
X112309523Y-124704819D02*
X112309523Y-123704819D01*
X112690476Y-123704819D02*
X113357142Y-123704819D01*
X113357142Y-123704819D02*
X112928571Y-124704819D01*
X163757142Y-110659580D02*
X163709523Y-110707200D01*
X163709523Y-110707200D02*
X163566666Y-110754819D01*
X163566666Y-110754819D02*
X163471428Y-110754819D01*
X163471428Y-110754819D02*
X163328571Y-110707200D01*
X163328571Y-110707200D02*
X163233333Y-110611961D01*
X163233333Y-110611961D02*
X163185714Y-110516723D01*
X163185714Y-110516723D02*
X163138095Y-110326247D01*
X163138095Y-110326247D02*
X163138095Y-110183390D01*
X163138095Y-110183390D02*
X163185714Y-109992914D01*
X163185714Y-109992914D02*
X163233333Y-109897676D01*
X163233333Y-109897676D02*
X163328571Y-109802438D01*
X163328571Y-109802438D02*
X163471428Y-109754819D01*
X163471428Y-109754819D02*
X163566666Y-109754819D01*
X163566666Y-109754819D02*
X163709523Y-109802438D01*
X163709523Y-109802438D02*
X163757142Y-109850057D01*
X164709523Y-110754819D02*
X164138095Y-110754819D01*
X164423809Y-110754819D02*
X164423809Y-109754819D01*
X164423809Y-109754819D02*
X164328571Y-109897676D01*
X164328571Y-109897676D02*
X164233333Y-109992914D01*
X164233333Y-109992914D02*
X164138095Y-110040533D01*
X165566666Y-110088152D02*
X165566666Y-110754819D01*
X165328571Y-109707200D02*
X165090476Y-110421485D01*
X165090476Y-110421485D02*
X165709523Y-110421485D01*
X127854819Y-134559523D02*
X126854819Y-134559523D01*
X126854819Y-134559523D02*
X127569104Y-134226190D01*
X127569104Y-134226190D02*
X126854819Y-133892857D01*
X126854819Y-133892857D02*
X127854819Y-133892857D01*
X127188152Y-132988095D02*
X127854819Y-132988095D01*
X126807200Y-133226190D02*
X127521485Y-133464285D01*
X127521485Y-133464285D02*
X127521485Y-132845238D01*
X158304819Y-73583333D02*
X159019104Y-73583333D01*
X159019104Y-73583333D02*
X159161961Y-73630952D01*
X159161961Y-73630952D02*
X159257200Y-73726190D01*
X159257200Y-73726190D02*
X159304819Y-73869047D01*
X159304819Y-73869047D02*
X159304819Y-73964285D01*
X158638152Y-72678571D02*
X159304819Y-72678571D01*
X158257200Y-72916666D02*
X158971485Y-73154761D01*
X158971485Y-73154761D02*
X158971485Y-72535714D01*
X151988095Y-99199819D02*
X151988095Y-100009342D01*
X151988095Y-100009342D02*
X152035714Y-100104580D01*
X152035714Y-100104580D02*
X152083333Y-100152200D01*
X152083333Y-100152200D02*
X152178571Y-100199819D01*
X152178571Y-100199819D02*
X152369047Y-100199819D01*
X152369047Y-100199819D02*
X152464285Y-100152200D01*
X152464285Y-100152200D02*
X152511904Y-100104580D01*
X152511904Y-100104580D02*
X152559523Y-100009342D01*
X152559523Y-100009342D02*
X152559523Y-99199819D01*
X153464285Y-99533152D02*
X153464285Y-100199819D01*
X153226190Y-99152200D02*
X152988095Y-99866485D01*
X152988095Y-99866485D02*
X153607142Y-99866485D01*
X129607142Y-114954819D02*
X129273809Y-114478628D01*
X129035714Y-114954819D02*
X129035714Y-113954819D01*
X129035714Y-113954819D02*
X129416666Y-113954819D01*
X129416666Y-113954819D02*
X129511904Y-114002438D01*
X129511904Y-114002438D02*
X129559523Y-114050057D01*
X129559523Y-114050057D02*
X129607142Y-114145295D01*
X129607142Y-114145295D02*
X129607142Y-114288152D01*
X129607142Y-114288152D02*
X129559523Y-114383390D01*
X129559523Y-114383390D02*
X129511904Y-114431009D01*
X129511904Y-114431009D02*
X129416666Y-114478628D01*
X129416666Y-114478628D02*
X129035714Y-114478628D01*
X129988095Y-114050057D02*
X130035714Y-114002438D01*
X130035714Y-114002438D02*
X130130952Y-113954819D01*
X130130952Y-113954819D02*
X130369047Y-113954819D01*
X130369047Y-113954819D02*
X130464285Y-114002438D01*
X130464285Y-114002438D02*
X130511904Y-114050057D01*
X130511904Y-114050057D02*
X130559523Y-114145295D01*
X130559523Y-114145295D02*
X130559523Y-114240533D01*
X130559523Y-114240533D02*
X130511904Y-114383390D01*
X130511904Y-114383390D02*
X129940476Y-114954819D01*
X129940476Y-114954819D02*
X130559523Y-114954819D01*
X130892857Y-113954819D02*
X131511904Y-113954819D01*
X131511904Y-113954819D02*
X131178571Y-114335771D01*
X131178571Y-114335771D02*
X131321428Y-114335771D01*
X131321428Y-114335771D02*
X131416666Y-114383390D01*
X131416666Y-114383390D02*
X131464285Y-114431009D01*
X131464285Y-114431009D02*
X131511904Y-114526247D01*
X131511904Y-114526247D02*
X131511904Y-114764342D01*
X131511904Y-114764342D02*
X131464285Y-114859580D01*
X131464285Y-114859580D02*
X131416666Y-114907200D01*
X131416666Y-114907200D02*
X131321428Y-114954819D01*
X131321428Y-114954819D02*
X131035714Y-114954819D01*
X131035714Y-114954819D02*
X130940476Y-114907200D01*
X130940476Y-114907200D02*
X130892857Y-114859580D01*
X110900057Y-127095238D02*
X110852438Y-127190476D01*
X110852438Y-127190476D02*
X110757200Y-127285714D01*
X110757200Y-127285714D02*
X110614342Y-127428571D01*
X110614342Y-127428571D02*
X110566723Y-127523809D01*
X110566723Y-127523809D02*
X110566723Y-127619047D01*
X110804819Y-127571428D02*
X110757200Y-127666666D01*
X110757200Y-127666666D02*
X110661961Y-127761904D01*
X110661961Y-127761904D02*
X110471485Y-127809523D01*
X110471485Y-127809523D02*
X110138152Y-127809523D01*
X110138152Y-127809523D02*
X109947676Y-127761904D01*
X109947676Y-127761904D02*
X109852438Y-127666666D01*
X109852438Y-127666666D02*
X109804819Y-127571428D01*
X109804819Y-127571428D02*
X109804819Y-127380952D01*
X109804819Y-127380952D02*
X109852438Y-127285714D01*
X109852438Y-127285714D02*
X109947676Y-127190476D01*
X109947676Y-127190476D02*
X110138152Y-127142857D01*
X110138152Y-127142857D02*
X110471485Y-127142857D01*
X110471485Y-127142857D02*
X110661961Y-127190476D01*
X110661961Y-127190476D02*
X110757200Y-127285714D01*
X110757200Y-127285714D02*
X110804819Y-127380952D01*
X110804819Y-127380952D02*
X110804819Y-127571428D01*
X110804819Y-126190476D02*
X110804819Y-126761904D01*
X110804819Y-126476190D02*
X109804819Y-126476190D01*
X109804819Y-126476190D02*
X109947676Y-126571428D01*
X109947676Y-126571428D02*
X110042914Y-126666666D01*
X110042914Y-126666666D02*
X110090533Y-126761904D01*
X166954819Y-80488094D02*
X165954819Y-80488094D01*
X165954819Y-80488094D02*
X165954819Y-80249999D01*
X165954819Y-80249999D02*
X166002438Y-80107142D01*
X166002438Y-80107142D02*
X166097676Y-80011904D01*
X166097676Y-80011904D02*
X166192914Y-79964285D01*
X166192914Y-79964285D02*
X166383390Y-79916666D01*
X166383390Y-79916666D02*
X166526247Y-79916666D01*
X166526247Y-79916666D02*
X166716723Y-79964285D01*
X166716723Y-79964285D02*
X166811961Y-80011904D01*
X166811961Y-80011904D02*
X166907200Y-80107142D01*
X166907200Y-80107142D02*
X166954819Y-80249999D01*
X166954819Y-80249999D02*
X166954819Y-80488094D01*
X165954819Y-79583332D02*
X165954819Y-78964285D01*
X165954819Y-78964285D02*
X166335771Y-79297618D01*
X166335771Y-79297618D02*
X166335771Y-79154761D01*
X166335771Y-79154761D02*
X166383390Y-79059523D01*
X166383390Y-79059523D02*
X166431009Y-79011904D01*
X166431009Y-79011904D02*
X166526247Y-78964285D01*
X166526247Y-78964285D02*
X166764342Y-78964285D01*
X166764342Y-78964285D02*
X166859580Y-79011904D01*
X166859580Y-79011904D02*
X166907200Y-79059523D01*
X166907200Y-79059523D02*
X166954819Y-79154761D01*
X166954819Y-79154761D02*
X166954819Y-79440475D01*
X166954819Y-79440475D02*
X166907200Y-79535713D01*
X166907200Y-79535713D02*
X166859580Y-79583332D01*
X136374819Y-134559523D02*
X135374819Y-134559523D01*
X135374819Y-134559523D02*
X136089104Y-134226190D01*
X136089104Y-134226190D02*
X135374819Y-133892857D01*
X135374819Y-133892857D02*
X136374819Y-133892857D01*
X135374819Y-132940476D02*
X135374819Y-133416666D01*
X135374819Y-133416666D02*
X135851009Y-133464285D01*
X135851009Y-133464285D02*
X135803390Y-133416666D01*
X135803390Y-133416666D02*
X135755771Y-133321428D01*
X135755771Y-133321428D02*
X135755771Y-133083333D01*
X135755771Y-133083333D02*
X135803390Y-132988095D01*
X135803390Y-132988095D02*
X135851009Y-132940476D01*
X135851009Y-132940476D02*
X135946247Y-132892857D01*
X135946247Y-132892857D02*
X136184342Y-132892857D01*
X136184342Y-132892857D02*
X136279580Y-132940476D01*
X136279580Y-132940476D02*
X136327200Y-132988095D01*
X136327200Y-132988095D02*
X136374819Y-133083333D01*
X136374819Y-133083333D02*
X136374819Y-133321428D01*
X136374819Y-133321428D02*
X136327200Y-133416666D01*
X136327200Y-133416666D02*
X136279580Y-133464285D01*
X124238095Y-104134819D02*
X124238095Y-104944342D01*
X124238095Y-104944342D02*
X124285714Y-105039580D01*
X124285714Y-105039580D02*
X124333333Y-105087200D01*
X124333333Y-105087200D02*
X124428571Y-105134819D01*
X124428571Y-105134819D02*
X124619047Y-105134819D01*
X124619047Y-105134819D02*
X124714285Y-105087200D01*
X124714285Y-105087200D02*
X124761904Y-105039580D01*
X124761904Y-105039580D02*
X124809523Y-104944342D01*
X124809523Y-104944342D02*
X124809523Y-104134819D01*
X125190476Y-104134819D02*
X125809523Y-104134819D01*
X125809523Y-104134819D02*
X125476190Y-104515771D01*
X125476190Y-104515771D02*
X125619047Y-104515771D01*
X125619047Y-104515771D02*
X125714285Y-104563390D01*
X125714285Y-104563390D02*
X125761904Y-104611009D01*
X125761904Y-104611009D02*
X125809523Y-104706247D01*
X125809523Y-104706247D02*
X125809523Y-104944342D01*
X125809523Y-104944342D02*
X125761904Y-105039580D01*
X125761904Y-105039580D02*
X125714285Y-105087200D01*
X125714285Y-105087200D02*
X125619047Y-105134819D01*
X125619047Y-105134819D02*
X125333333Y-105134819D01*
X125333333Y-105134819D02*
X125238095Y-105087200D01*
X125238095Y-105087200D02*
X125190476Y-105039580D01*
X151457142Y-110677080D02*
X151409523Y-110724700D01*
X151409523Y-110724700D02*
X151266666Y-110772319D01*
X151266666Y-110772319D02*
X151171428Y-110772319D01*
X151171428Y-110772319D02*
X151028571Y-110724700D01*
X151028571Y-110724700D02*
X150933333Y-110629461D01*
X150933333Y-110629461D02*
X150885714Y-110534223D01*
X150885714Y-110534223D02*
X150838095Y-110343747D01*
X150838095Y-110343747D02*
X150838095Y-110200890D01*
X150838095Y-110200890D02*
X150885714Y-110010414D01*
X150885714Y-110010414D02*
X150933333Y-109915176D01*
X150933333Y-109915176D02*
X151028571Y-109819938D01*
X151028571Y-109819938D02*
X151171428Y-109772319D01*
X151171428Y-109772319D02*
X151266666Y-109772319D01*
X151266666Y-109772319D02*
X151409523Y-109819938D01*
X151409523Y-109819938D02*
X151457142Y-109867557D01*
X152409523Y-110772319D02*
X151838095Y-110772319D01*
X152123809Y-110772319D02*
X152123809Y-109772319D01*
X152123809Y-109772319D02*
X152028571Y-109915176D01*
X152028571Y-109915176D02*
X151933333Y-110010414D01*
X151933333Y-110010414D02*
X151838095Y-110058033D01*
X153266666Y-109772319D02*
X153076190Y-109772319D01*
X153076190Y-109772319D02*
X152980952Y-109819938D01*
X152980952Y-109819938D02*
X152933333Y-109867557D01*
X152933333Y-109867557D02*
X152838095Y-110010414D01*
X152838095Y-110010414D02*
X152790476Y-110200890D01*
X152790476Y-110200890D02*
X152790476Y-110581842D01*
X152790476Y-110581842D02*
X152838095Y-110677080D01*
X152838095Y-110677080D02*
X152885714Y-110724700D01*
X152885714Y-110724700D02*
X152980952Y-110772319D01*
X152980952Y-110772319D02*
X153171428Y-110772319D01*
X153171428Y-110772319D02*
X153266666Y-110724700D01*
X153266666Y-110724700D02*
X153314285Y-110677080D01*
X153314285Y-110677080D02*
X153361904Y-110581842D01*
X153361904Y-110581842D02*
X153361904Y-110343747D01*
X153361904Y-110343747D02*
X153314285Y-110248509D01*
X153314285Y-110248509D02*
X153266666Y-110200890D01*
X153266666Y-110200890D02*
X153171428Y-110153271D01*
X153171428Y-110153271D02*
X152980952Y-110153271D01*
X152980952Y-110153271D02*
X152885714Y-110200890D01*
X152885714Y-110200890D02*
X152838095Y-110248509D01*
X152838095Y-110248509D02*
X152790476Y-110343747D01*
X117954819Y-128464285D02*
X116954819Y-128464285D01*
X116954819Y-128464285D02*
X116954819Y-128226190D01*
X116954819Y-128226190D02*
X117002438Y-128083333D01*
X117002438Y-128083333D02*
X117097676Y-127988095D01*
X117097676Y-127988095D02*
X117192914Y-127940476D01*
X117192914Y-127940476D02*
X117383390Y-127892857D01*
X117383390Y-127892857D02*
X117526247Y-127892857D01*
X117526247Y-127892857D02*
X117716723Y-127940476D01*
X117716723Y-127940476D02*
X117811961Y-127988095D01*
X117811961Y-127988095D02*
X117907200Y-128083333D01*
X117907200Y-128083333D02*
X117954819Y-128226190D01*
X117954819Y-128226190D02*
X117954819Y-128464285D01*
X117954819Y-126940476D02*
X117954819Y-127511904D01*
X117954819Y-127226190D02*
X116954819Y-127226190D01*
X116954819Y-127226190D02*
X117097676Y-127321428D01*
X117097676Y-127321428D02*
X117192914Y-127416666D01*
X117192914Y-127416666D02*
X117240533Y-127511904D01*
X116954819Y-126321428D02*
X116954819Y-126226190D01*
X116954819Y-126226190D02*
X117002438Y-126130952D01*
X117002438Y-126130952D02*
X117050057Y-126083333D01*
X117050057Y-126083333D02*
X117145295Y-126035714D01*
X117145295Y-126035714D02*
X117335771Y-125988095D01*
X117335771Y-125988095D02*
X117573866Y-125988095D01*
X117573866Y-125988095D02*
X117764342Y-126035714D01*
X117764342Y-126035714D02*
X117859580Y-126083333D01*
X117859580Y-126083333D02*
X117907200Y-126130952D01*
X117907200Y-126130952D02*
X117954819Y-126226190D01*
X117954819Y-126226190D02*
X117954819Y-126321428D01*
X117954819Y-126321428D02*
X117907200Y-126416666D01*
X117907200Y-126416666D02*
X117859580Y-126464285D01*
X117859580Y-126464285D02*
X117764342Y-126511904D01*
X117764342Y-126511904D02*
X117573866Y-126559523D01*
X117573866Y-126559523D02*
X117335771Y-126559523D01*
X117335771Y-126559523D02*
X117145295Y-126511904D01*
X117145295Y-126511904D02*
X117050057Y-126464285D01*
X117050057Y-126464285D02*
X117002438Y-126416666D01*
X117002438Y-126416666D02*
X116954819Y-126321428D01*
X141704819Y-100737857D02*
X141228628Y-101071190D01*
X141704819Y-101309285D02*
X140704819Y-101309285D01*
X140704819Y-101309285D02*
X140704819Y-100928333D01*
X140704819Y-100928333D02*
X140752438Y-100833095D01*
X140752438Y-100833095D02*
X140800057Y-100785476D01*
X140800057Y-100785476D02*
X140895295Y-100737857D01*
X140895295Y-100737857D02*
X141038152Y-100737857D01*
X141038152Y-100737857D02*
X141133390Y-100785476D01*
X141133390Y-100785476D02*
X141181009Y-100833095D01*
X141181009Y-100833095D02*
X141228628Y-100928333D01*
X141228628Y-100928333D02*
X141228628Y-101309285D01*
X141704819Y-99785476D02*
X141704819Y-100356904D01*
X141704819Y-100071190D02*
X140704819Y-100071190D01*
X140704819Y-100071190D02*
X140847676Y-100166428D01*
X140847676Y-100166428D02*
X140942914Y-100261666D01*
X140942914Y-100261666D02*
X140990533Y-100356904D01*
X140704819Y-99452142D02*
X140704819Y-98833095D01*
X140704819Y-98833095D02*
X141085771Y-99166428D01*
X141085771Y-99166428D02*
X141085771Y-99023571D01*
X141085771Y-99023571D02*
X141133390Y-98928333D01*
X141133390Y-98928333D02*
X141181009Y-98880714D01*
X141181009Y-98880714D02*
X141276247Y-98833095D01*
X141276247Y-98833095D02*
X141514342Y-98833095D01*
X141514342Y-98833095D02*
X141609580Y-98880714D01*
X141609580Y-98880714D02*
X141657200Y-98928333D01*
X141657200Y-98928333D02*
X141704819Y-99023571D01*
X141704819Y-99023571D02*
X141704819Y-99309285D01*
X141704819Y-99309285D02*
X141657200Y-99404523D01*
X141657200Y-99404523D02*
X141609580Y-99452142D01*
X169704819Y-80488094D02*
X168704819Y-80488094D01*
X168704819Y-80488094D02*
X168704819Y-80249999D01*
X168704819Y-80249999D02*
X168752438Y-80107142D01*
X168752438Y-80107142D02*
X168847676Y-80011904D01*
X168847676Y-80011904D02*
X168942914Y-79964285D01*
X168942914Y-79964285D02*
X169133390Y-79916666D01*
X169133390Y-79916666D02*
X169276247Y-79916666D01*
X169276247Y-79916666D02*
X169466723Y-79964285D01*
X169466723Y-79964285D02*
X169561961Y-80011904D01*
X169561961Y-80011904D02*
X169657200Y-80107142D01*
X169657200Y-80107142D02*
X169704819Y-80249999D01*
X169704819Y-80249999D02*
X169704819Y-80488094D01*
X169038152Y-79059523D02*
X169704819Y-79059523D01*
X168657200Y-79297618D02*
X169371485Y-79535713D01*
X169371485Y-79535713D02*
X169371485Y-78916666D01*
X144609580Y-93737857D02*
X144657200Y-93785476D01*
X144657200Y-93785476D02*
X144704819Y-93928333D01*
X144704819Y-93928333D02*
X144704819Y-94023571D01*
X144704819Y-94023571D02*
X144657200Y-94166428D01*
X144657200Y-94166428D02*
X144561961Y-94261666D01*
X144561961Y-94261666D02*
X144466723Y-94309285D01*
X144466723Y-94309285D02*
X144276247Y-94356904D01*
X144276247Y-94356904D02*
X144133390Y-94356904D01*
X144133390Y-94356904D02*
X143942914Y-94309285D01*
X143942914Y-94309285D02*
X143847676Y-94261666D01*
X143847676Y-94261666D02*
X143752438Y-94166428D01*
X143752438Y-94166428D02*
X143704819Y-94023571D01*
X143704819Y-94023571D02*
X143704819Y-93928333D01*
X143704819Y-93928333D02*
X143752438Y-93785476D01*
X143752438Y-93785476D02*
X143800057Y-93737857D01*
X144704819Y-92785476D02*
X144704819Y-93356904D01*
X144704819Y-93071190D02*
X143704819Y-93071190D01*
X143704819Y-93071190D02*
X143847676Y-93166428D01*
X143847676Y-93166428D02*
X143942914Y-93261666D01*
X143942914Y-93261666D02*
X143990533Y-93356904D01*
X143800057Y-92404523D02*
X143752438Y-92356904D01*
X143752438Y-92356904D02*
X143704819Y-92261666D01*
X143704819Y-92261666D02*
X143704819Y-92023571D01*
X143704819Y-92023571D02*
X143752438Y-91928333D01*
X143752438Y-91928333D02*
X143800057Y-91880714D01*
X143800057Y-91880714D02*
X143895295Y-91833095D01*
X143895295Y-91833095D02*
X143990533Y-91833095D01*
X143990533Y-91833095D02*
X144133390Y-91880714D01*
X144133390Y-91880714D02*
X144704819Y-92452142D01*
X144704819Y-92452142D02*
X144704819Y-91833095D01*
X122533333Y-81109580D02*
X122485714Y-81157200D01*
X122485714Y-81157200D02*
X122342857Y-81204819D01*
X122342857Y-81204819D02*
X122247619Y-81204819D01*
X122247619Y-81204819D02*
X122104762Y-81157200D01*
X122104762Y-81157200D02*
X122009524Y-81061961D01*
X122009524Y-81061961D02*
X121961905Y-80966723D01*
X121961905Y-80966723D02*
X121914286Y-80776247D01*
X121914286Y-80776247D02*
X121914286Y-80633390D01*
X121914286Y-80633390D02*
X121961905Y-80442914D01*
X121961905Y-80442914D02*
X122009524Y-80347676D01*
X122009524Y-80347676D02*
X122104762Y-80252438D01*
X122104762Y-80252438D02*
X122247619Y-80204819D01*
X122247619Y-80204819D02*
X122342857Y-80204819D01*
X122342857Y-80204819D02*
X122485714Y-80252438D01*
X122485714Y-80252438D02*
X122533333Y-80300057D01*
X123009524Y-81204819D02*
X123200000Y-81204819D01*
X123200000Y-81204819D02*
X123295238Y-81157200D01*
X123295238Y-81157200D02*
X123342857Y-81109580D01*
X123342857Y-81109580D02*
X123438095Y-80966723D01*
X123438095Y-80966723D02*
X123485714Y-80776247D01*
X123485714Y-80776247D02*
X123485714Y-80395295D01*
X123485714Y-80395295D02*
X123438095Y-80300057D01*
X123438095Y-80300057D02*
X123390476Y-80252438D01*
X123390476Y-80252438D02*
X123295238Y-80204819D01*
X123295238Y-80204819D02*
X123104762Y-80204819D01*
X123104762Y-80204819D02*
X123009524Y-80252438D01*
X123009524Y-80252438D02*
X122961905Y-80300057D01*
X122961905Y-80300057D02*
X122914286Y-80395295D01*
X122914286Y-80395295D02*
X122914286Y-80633390D01*
X122914286Y-80633390D02*
X122961905Y-80728628D01*
X122961905Y-80728628D02*
X123009524Y-80776247D01*
X123009524Y-80776247D02*
X123104762Y-80823866D01*
X123104762Y-80823866D02*
X123295238Y-80823866D01*
X123295238Y-80823866D02*
X123390476Y-80776247D01*
X123390476Y-80776247D02*
X123438095Y-80728628D01*
X123438095Y-80728628D02*
X123485714Y-80633390D01*
X119374819Y-134559523D02*
X118374819Y-134559523D01*
X118374819Y-134559523D02*
X119089104Y-134226190D01*
X119089104Y-134226190D02*
X118374819Y-133892857D01*
X118374819Y-133892857D02*
X119374819Y-133892857D01*
X118374819Y-133511904D02*
X118374819Y-132892857D01*
X118374819Y-132892857D02*
X118755771Y-133226190D01*
X118755771Y-133226190D02*
X118755771Y-133083333D01*
X118755771Y-133083333D02*
X118803390Y-132988095D01*
X118803390Y-132988095D02*
X118851009Y-132940476D01*
X118851009Y-132940476D02*
X118946247Y-132892857D01*
X118946247Y-132892857D02*
X119184342Y-132892857D01*
X119184342Y-132892857D02*
X119279580Y-132940476D01*
X119279580Y-132940476D02*
X119327200Y-132988095D01*
X119327200Y-132988095D02*
X119374819Y-133083333D01*
X119374819Y-133083333D02*
X119374819Y-133369047D01*
X119374819Y-133369047D02*
X119327200Y-133464285D01*
X119327200Y-133464285D02*
X119279580Y-133511904D01*
X164204819Y-80488094D02*
X163204819Y-80488094D01*
X163204819Y-80488094D02*
X163204819Y-80249999D01*
X163204819Y-80249999D02*
X163252438Y-80107142D01*
X163252438Y-80107142D02*
X163347676Y-80011904D01*
X163347676Y-80011904D02*
X163442914Y-79964285D01*
X163442914Y-79964285D02*
X163633390Y-79916666D01*
X163633390Y-79916666D02*
X163776247Y-79916666D01*
X163776247Y-79916666D02*
X163966723Y-79964285D01*
X163966723Y-79964285D02*
X164061961Y-80011904D01*
X164061961Y-80011904D02*
X164157200Y-80107142D01*
X164157200Y-80107142D02*
X164204819Y-80249999D01*
X164204819Y-80249999D02*
X164204819Y-80488094D01*
X163300057Y-79535713D02*
X163252438Y-79488094D01*
X163252438Y-79488094D02*
X163204819Y-79392856D01*
X163204819Y-79392856D02*
X163204819Y-79154761D01*
X163204819Y-79154761D02*
X163252438Y-79059523D01*
X163252438Y-79059523D02*
X163300057Y-79011904D01*
X163300057Y-79011904D02*
X163395295Y-78964285D01*
X163395295Y-78964285D02*
X163490533Y-78964285D01*
X163490533Y-78964285D02*
X163633390Y-79011904D01*
X163633390Y-79011904D02*
X164204819Y-79583332D01*
X164204819Y-79583332D02*
X164204819Y-78964285D01*
X158109580Y-81237857D02*
X158157200Y-81285476D01*
X158157200Y-81285476D02*
X158204819Y-81428333D01*
X158204819Y-81428333D02*
X158204819Y-81523571D01*
X158204819Y-81523571D02*
X158157200Y-81666428D01*
X158157200Y-81666428D02*
X158061961Y-81761666D01*
X158061961Y-81761666D02*
X157966723Y-81809285D01*
X157966723Y-81809285D02*
X157776247Y-81856904D01*
X157776247Y-81856904D02*
X157633390Y-81856904D01*
X157633390Y-81856904D02*
X157442914Y-81809285D01*
X157442914Y-81809285D02*
X157347676Y-81761666D01*
X157347676Y-81761666D02*
X157252438Y-81666428D01*
X157252438Y-81666428D02*
X157204819Y-81523571D01*
X157204819Y-81523571D02*
X157204819Y-81428333D01*
X157204819Y-81428333D02*
X157252438Y-81285476D01*
X157252438Y-81285476D02*
X157300057Y-81237857D01*
X158204819Y-80285476D02*
X158204819Y-80856904D01*
X158204819Y-80571190D02*
X157204819Y-80571190D01*
X157204819Y-80571190D02*
X157347676Y-80666428D01*
X157347676Y-80666428D02*
X157442914Y-80761666D01*
X157442914Y-80761666D02*
X157490533Y-80856904D01*
X158204819Y-79333095D02*
X158204819Y-79904523D01*
X158204819Y-79618809D02*
X157204819Y-79618809D01*
X157204819Y-79618809D02*
X157347676Y-79714047D01*
X157347676Y-79714047D02*
X157442914Y-79809285D01*
X157442914Y-79809285D02*
X157490533Y-79904523D01*
X134704819Y-88666666D02*
X134704819Y-89142856D01*
X134704819Y-89142856D02*
X133704819Y-89142856D01*
X134704819Y-87809523D02*
X134704819Y-88380951D01*
X134704819Y-88095237D02*
X133704819Y-88095237D01*
X133704819Y-88095237D02*
X133847676Y-88190475D01*
X133847676Y-88190475D02*
X133942914Y-88285713D01*
X133942914Y-88285713D02*
X133990533Y-88380951D01*
X145204819Y-87237857D02*
X144728628Y-87571190D01*
X145204819Y-87809285D02*
X144204819Y-87809285D01*
X144204819Y-87809285D02*
X144204819Y-87428333D01*
X144204819Y-87428333D02*
X144252438Y-87333095D01*
X144252438Y-87333095D02*
X144300057Y-87285476D01*
X144300057Y-87285476D02*
X144395295Y-87237857D01*
X144395295Y-87237857D02*
X144538152Y-87237857D01*
X144538152Y-87237857D02*
X144633390Y-87285476D01*
X144633390Y-87285476D02*
X144681009Y-87333095D01*
X144681009Y-87333095D02*
X144728628Y-87428333D01*
X144728628Y-87428333D02*
X144728628Y-87809285D01*
X145204819Y-86285476D02*
X145204819Y-86856904D01*
X145204819Y-86571190D02*
X144204819Y-86571190D01*
X144204819Y-86571190D02*
X144347676Y-86666428D01*
X144347676Y-86666428D02*
X144442914Y-86761666D01*
X144442914Y-86761666D02*
X144490533Y-86856904D01*
X144204819Y-85952142D02*
X144204819Y-85285476D01*
X144204819Y-85285476D02*
X145204819Y-85714047D01*
X133261905Y-112704819D02*
X133261905Y-111704819D01*
X133261905Y-111704819D02*
X133500000Y-111704819D01*
X133500000Y-111704819D02*
X133642857Y-111752438D01*
X133642857Y-111752438D02*
X133738095Y-111847676D01*
X133738095Y-111847676D02*
X133785714Y-111942914D01*
X133785714Y-111942914D02*
X133833333Y-112133390D01*
X133833333Y-112133390D02*
X133833333Y-112276247D01*
X133833333Y-112276247D02*
X133785714Y-112466723D01*
X133785714Y-112466723D02*
X133738095Y-112561961D01*
X133738095Y-112561961D02*
X133642857Y-112657200D01*
X133642857Y-112657200D02*
X133500000Y-112704819D01*
X133500000Y-112704819D02*
X133261905Y-112704819D01*
X134404762Y-112133390D02*
X134309524Y-112085771D01*
X134309524Y-112085771D02*
X134261905Y-112038152D01*
X134261905Y-112038152D02*
X134214286Y-111942914D01*
X134214286Y-111942914D02*
X134214286Y-111895295D01*
X134214286Y-111895295D02*
X134261905Y-111800057D01*
X134261905Y-111800057D02*
X134309524Y-111752438D01*
X134309524Y-111752438D02*
X134404762Y-111704819D01*
X134404762Y-111704819D02*
X134595238Y-111704819D01*
X134595238Y-111704819D02*
X134690476Y-111752438D01*
X134690476Y-111752438D02*
X134738095Y-111800057D01*
X134738095Y-111800057D02*
X134785714Y-111895295D01*
X134785714Y-111895295D02*
X134785714Y-111942914D01*
X134785714Y-111942914D02*
X134738095Y-112038152D01*
X134738095Y-112038152D02*
X134690476Y-112085771D01*
X134690476Y-112085771D02*
X134595238Y-112133390D01*
X134595238Y-112133390D02*
X134404762Y-112133390D01*
X134404762Y-112133390D02*
X134309524Y-112181009D01*
X134309524Y-112181009D02*
X134261905Y-112228628D01*
X134261905Y-112228628D02*
X134214286Y-112323866D01*
X134214286Y-112323866D02*
X134214286Y-112514342D01*
X134214286Y-112514342D02*
X134261905Y-112609580D01*
X134261905Y-112609580D02*
X134309524Y-112657200D01*
X134309524Y-112657200D02*
X134404762Y-112704819D01*
X134404762Y-112704819D02*
X134595238Y-112704819D01*
X134595238Y-112704819D02*
X134690476Y-112657200D01*
X134690476Y-112657200D02*
X134738095Y-112609580D01*
X134738095Y-112609580D02*
X134785714Y-112514342D01*
X134785714Y-112514342D02*
X134785714Y-112323866D01*
X134785714Y-112323866D02*
X134738095Y-112228628D01*
X134738095Y-112228628D02*
X134690476Y-112181009D01*
X134690476Y-112181009D02*
X134595238Y-112133390D01*
X118357142Y-108454819D02*
X118023809Y-107978628D01*
X117785714Y-108454819D02*
X117785714Y-107454819D01*
X117785714Y-107454819D02*
X118166666Y-107454819D01*
X118166666Y-107454819D02*
X118261904Y-107502438D01*
X118261904Y-107502438D02*
X118309523Y-107550057D01*
X118309523Y-107550057D02*
X118357142Y-107645295D01*
X118357142Y-107645295D02*
X118357142Y-107788152D01*
X118357142Y-107788152D02*
X118309523Y-107883390D01*
X118309523Y-107883390D02*
X118261904Y-107931009D01*
X118261904Y-107931009D02*
X118166666Y-107978628D01*
X118166666Y-107978628D02*
X117785714Y-107978628D01*
X118738095Y-107550057D02*
X118785714Y-107502438D01*
X118785714Y-107502438D02*
X118880952Y-107454819D01*
X118880952Y-107454819D02*
X119119047Y-107454819D01*
X119119047Y-107454819D02*
X119214285Y-107502438D01*
X119214285Y-107502438D02*
X119261904Y-107550057D01*
X119261904Y-107550057D02*
X119309523Y-107645295D01*
X119309523Y-107645295D02*
X119309523Y-107740533D01*
X119309523Y-107740533D02*
X119261904Y-107883390D01*
X119261904Y-107883390D02*
X118690476Y-108454819D01*
X118690476Y-108454819D02*
X119309523Y-108454819D01*
X119880952Y-107883390D02*
X119785714Y-107835771D01*
X119785714Y-107835771D02*
X119738095Y-107788152D01*
X119738095Y-107788152D02*
X119690476Y-107692914D01*
X119690476Y-107692914D02*
X119690476Y-107645295D01*
X119690476Y-107645295D02*
X119738095Y-107550057D01*
X119738095Y-107550057D02*
X119785714Y-107502438D01*
X119785714Y-107502438D02*
X119880952Y-107454819D01*
X119880952Y-107454819D02*
X120071428Y-107454819D01*
X120071428Y-107454819D02*
X120166666Y-107502438D01*
X120166666Y-107502438D02*
X120214285Y-107550057D01*
X120214285Y-107550057D02*
X120261904Y-107645295D01*
X120261904Y-107645295D02*
X120261904Y-107692914D01*
X120261904Y-107692914D02*
X120214285Y-107788152D01*
X120214285Y-107788152D02*
X120166666Y-107835771D01*
X120166666Y-107835771D02*
X120071428Y-107883390D01*
X120071428Y-107883390D02*
X119880952Y-107883390D01*
X119880952Y-107883390D02*
X119785714Y-107931009D01*
X119785714Y-107931009D02*
X119738095Y-107978628D01*
X119738095Y-107978628D02*
X119690476Y-108073866D01*
X119690476Y-108073866D02*
X119690476Y-108264342D01*
X119690476Y-108264342D02*
X119738095Y-108359580D01*
X119738095Y-108359580D02*
X119785714Y-108407200D01*
X119785714Y-108407200D02*
X119880952Y-108454819D01*
X119880952Y-108454819D02*
X120071428Y-108454819D01*
X120071428Y-108454819D02*
X120166666Y-108407200D01*
X120166666Y-108407200D02*
X120214285Y-108359580D01*
X120214285Y-108359580D02*
X120261904Y-108264342D01*
X120261904Y-108264342D02*
X120261904Y-108073866D01*
X120261904Y-108073866D02*
X120214285Y-107978628D01*
X120214285Y-107978628D02*
X120166666Y-107931009D01*
X120166666Y-107931009D02*
X120071428Y-107883390D01*
X133607142Y-105954819D02*
X133273809Y-105478628D01*
X133035714Y-105954819D02*
X133035714Y-104954819D01*
X133035714Y-104954819D02*
X133416666Y-104954819D01*
X133416666Y-104954819D02*
X133511904Y-105002438D01*
X133511904Y-105002438D02*
X133559523Y-105050057D01*
X133559523Y-105050057D02*
X133607142Y-105145295D01*
X133607142Y-105145295D02*
X133607142Y-105288152D01*
X133607142Y-105288152D02*
X133559523Y-105383390D01*
X133559523Y-105383390D02*
X133511904Y-105431009D01*
X133511904Y-105431009D02*
X133416666Y-105478628D01*
X133416666Y-105478628D02*
X133035714Y-105478628D01*
X133988095Y-105050057D02*
X134035714Y-105002438D01*
X134035714Y-105002438D02*
X134130952Y-104954819D01*
X134130952Y-104954819D02*
X134369047Y-104954819D01*
X134369047Y-104954819D02*
X134464285Y-105002438D01*
X134464285Y-105002438D02*
X134511904Y-105050057D01*
X134511904Y-105050057D02*
X134559523Y-105145295D01*
X134559523Y-105145295D02*
X134559523Y-105240533D01*
X134559523Y-105240533D02*
X134511904Y-105383390D01*
X134511904Y-105383390D02*
X133940476Y-105954819D01*
X133940476Y-105954819D02*
X134559523Y-105954819D01*
X135464285Y-104954819D02*
X134988095Y-104954819D01*
X134988095Y-104954819D02*
X134940476Y-105431009D01*
X134940476Y-105431009D02*
X134988095Y-105383390D01*
X134988095Y-105383390D02*
X135083333Y-105335771D01*
X135083333Y-105335771D02*
X135321428Y-105335771D01*
X135321428Y-105335771D02*
X135416666Y-105383390D01*
X135416666Y-105383390D02*
X135464285Y-105431009D01*
X135464285Y-105431009D02*
X135511904Y-105526247D01*
X135511904Y-105526247D02*
X135511904Y-105764342D01*
X135511904Y-105764342D02*
X135464285Y-105859580D01*
X135464285Y-105859580D02*
X135416666Y-105907200D01*
X135416666Y-105907200D02*
X135321428Y-105954819D01*
X135321428Y-105954819D02*
X135083333Y-105954819D01*
X135083333Y-105954819D02*
X134988095Y-105907200D01*
X134988095Y-105907200D02*
X134940476Y-105859580D01*
X153916666Y-137074819D02*
X153916666Y-137789104D01*
X153916666Y-137789104D02*
X153869047Y-137931961D01*
X153869047Y-137931961D02*
X153773809Y-138027200D01*
X153773809Y-138027200D02*
X153630952Y-138074819D01*
X153630952Y-138074819D02*
X153535714Y-138074819D01*
X154297619Y-137074819D02*
X154916666Y-137074819D01*
X154916666Y-137074819D02*
X154583333Y-137455771D01*
X154583333Y-137455771D02*
X154726190Y-137455771D01*
X154726190Y-137455771D02*
X154821428Y-137503390D01*
X154821428Y-137503390D02*
X154869047Y-137551009D01*
X154869047Y-137551009D02*
X154916666Y-137646247D01*
X154916666Y-137646247D02*
X154916666Y-137884342D01*
X154916666Y-137884342D02*
X154869047Y-137979580D01*
X154869047Y-137979580D02*
X154821428Y-138027200D01*
X154821428Y-138027200D02*
X154726190Y-138074819D01*
X154726190Y-138074819D02*
X154440476Y-138074819D01*
X154440476Y-138074819D02*
X154345238Y-138027200D01*
X154345238Y-138027200D02*
X154297619Y-137979580D01*
X122533333Y-87859580D02*
X122485714Y-87907200D01*
X122485714Y-87907200D02*
X122342857Y-87954819D01*
X122342857Y-87954819D02*
X122247619Y-87954819D01*
X122247619Y-87954819D02*
X122104762Y-87907200D01*
X122104762Y-87907200D02*
X122009524Y-87811961D01*
X122009524Y-87811961D02*
X121961905Y-87716723D01*
X121961905Y-87716723D02*
X121914286Y-87526247D01*
X121914286Y-87526247D02*
X121914286Y-87383390D01*
X121914286Y-87383390D02*
X121961905Y-87192914D01*
X121961905Y-87192914D02*
X122009524Y-87097676D01*
X122009524Y-87097676D02*
X122104762Y-87002438D01*
X122104762Y-87002438D02*
X122247619Y-86954819D01*
X122247619Y-86954819D02*
X122342857Y-86954819D01*
X122342857Y-86954819D02*
X122485714Y-87002438D01*
X122485714Y-87002438D02*
X122533333Y-87050057D01*
X123390476Y-86954819D02*
X123200000Y-86954819D01*
X123200000Y-86954819D02*
X123104762Y-87002438D01*
X123104762Y-87002438D02*
X123057143Y-87050057D01*
X123057143Y-87050057D02*
X122961905Y-87192914D01*
X122961905Y-87192914D02*
X122914286Y-87383390D01*
X122914286Y-87383390D02*
X122914286Y-87764342D01*
X122914286Y-87764342D02*
X122961905Y-87859580D01*
X122961905Y-87859580D02*
X123009524Y-87907200D01*
X123009524Y-87907200D02*
X123104762Y-87954819D01*
X123104762Y-87954819D02*
X123295238Y-87954819D01*
X123295238Y-87954819D02*
X123390476Y-87907200D01*
X123390476Y-87907200D02*
X123438095Y-87859580D01*
X123438095Y-87859580D02*
X123485714Y-87764342D01*
X123485714Y-87764342D02*
X123485714Y-87526247D01*
X123485714Y-87526247D02*
X123438095Y-87431009D01*
X123438095Y-87431009D02*
X123390476Y-87383390D01*
X123390476Y-87383390D02*
X123295238Y-87335771D01*
X123295238Y-87335771D02*
X123104762Y-87335771D01*
X123104762Y-87335771D02*
X123009524Y-87383390D01*
X123009524Y-87383390D02*
X122961905Y-87431009D01*
X122961905Y-87431009D02*
X122914286Y-87526247D01*
X136254819Y-114083333D02*
X136969104Y-114083333D01*
X136969104Y-114083333D02*
X137111961Y-114130952D01*
X137111961Y-114130952D02*
X137207200Y-114226190D01*
X137207200Y-114226190D02*
X137254819Y-114369047D01*
X137254819Y-114369047D02*
X137254819Y-114464285D01*
X136254819Y-113178571D02*
X136254819Y-113369047D01*
X136254819Y-113369047D02*
X136302438Y-113464285D01*
X136302438Y-113464285D02*
X136350057Y-113511904D01*
X136350057Y-113511904D02*
X136492914Y-113607142D01*
X136492914Y-113607142D02*
X136683390Y-113654761D01*
X136683390Y-113654761D02*
X137064342Y-113654761D01*
X137064342Y-113654761D02*
X137159580Y-113607142D01*
X137159580Y-113607142D02*
X137207200Y-113559523D01*
X137207200Y-113559523D02*
X137254819Y-113464285D01*
X137254819Y-113464285D02*
X137254819Y-113273809D01*
X137254819Y-113273809D02*
X137207200Y-113178571D01*
X137207200Y-113178571D02*
X137159580Y-113130952D01*
X137159580Y-113130952D02*
X137064342Y-113083333D01*
X137064342Y-113083333D02*
X136826247Y-113083333D01*
X136826247Y-113083333D02*
X136731009Y-113130952D01*
X136731009Y-113130952D02*
X136683390Y-113178571D01*
X136683390Y-113178571D02*
X136635771Y-113273809D01*
X136635771Y-113273809D02*
X136635771Y-113464285D01*
X136635771Y-113464285D02*
X136683390Y-113559523D01*
X136683390Y-113559523D02*
X136731009Y-113607142D01*
X136731009Y-113607142D02*
X136826247Y-113654761D01*
X134954819Y-128464285D02*
X133954819Y-128464285D01*
X133954819Y-128464285D02*
X133954819Y-128226190D01*
X133954819Y-128226190D02*
X134002438Y-128083333D01*
X134002438Y-128083333D02*
X134097676Y-127988095D01*
X134097676Y-127988095D02*
X134192914Y-127940476D01*
X134192914Y-127940476D02*
X134383390Y-127892857D01*
X134383390Y-127892857D02*
X134526247Y-127892857D01*
X134526247Y-127892857D02*
X134716723Y-127940476D01*
X134716723Y-127940476D02*
X134811961Y-127988095D01*
X134811961Y-127988095D02*
X134907200Y-128083333D01*
X134907200Y-128083333D02*
X134954819Y-128226190D01*
X134954819Y-128226190D02*
X134954819Y-128464285D01*
X134954819Y-126940476D02*
X134954819Y-127511904D01*
X134954819Y-127226190D02*
X133954819Y-127226190D01*
X133954819Y-127226190D02*
X134097676Y-127321428D01*
X134097676Y-127321428D02*
X134192914Y-127416666D01*
X134192914Y-127416666D02*
X134240533Y-127511904D01*
X134050057Y-126559523D02*
X134002438Y-126511904D01*
X134002438Y-126511904D02*
X133954819Y-126416666D01*
X133954819Y-126416666D02*
X133954819Y-126178571D01*
X133954819Y-126178571D02*
X134002438Y-126083333D01*
X134002438Y-126083333D02*
X134050057Y-126035714D01*
X134050057Y-126035714D02*
X134145295Y-125988095D01*
X134145295Y-125988095D02*
X134240533Y-125988095D01*
X134240533Y-125988095D02*
X134383390Y-126035714D01*
X134383390Y-126035714D02*
X134954819Y-126607142D01*
X134954819Y-126607142D02*
X134954819Y-125988095D01*
X127900057Y-127095238D02*
X127852438Y-127190476D01*
X127852438Y-127190476D02*
X127757200Y-127285714D01*
X127757200Y-127285714D02*
X127614342Y-127428571D01*
X127614342Y-127428571D02*
X127566723Y-127523809D01*
X127566723Y-127523809D02*
X127566723Y-127619047D01*
X127804819Y-127571428D02*
X127757200Y-127666666D01*
X127757200Y-127666666D02*
X127661961Y-127761904D01*
X127661961Y-127761904D02*
X127471485Y-127809523D01*
X127471485Y-127809523D02*
X127138152Y-127809523D01*
X127138152Y-127809523D02*
X126947676Y-127761904D01*
X126947676Y-127761904D02*
X126852438Y-127666666D01*
X126852438Y-127666666D02*
X126804819Y-127571428D01*
X126804819Y-127571428D02*
X126804819Y-127380952D01*
X126804819Y-127380952D02*
X126852438Y-127285714D01*
X126852438Y-127285714D02*
X126947676Y-127190476D01*
X126947676Y-127190476D02*
X127138152Y-127142857D01*
X127138152Y-127142857D02*
X127471485Y-127142857D01*
X127471485Y-127142857D02*
X127661961Y-127190476D01*
X127661961Y-127190476D02*
X127757200Y-127285714D01*
X127757200Y-127285714D02*
X127804819Y-127380952D01*
X127804819Y-127380952D02*
X127804819Y-127571428D01*
X126804819Y-126809523D02*
X126804819Y-126190476D01*
X126804819Y-126190476D02*
X127185771Y-126523809D01*
X127185771Y-126523809D02*
X127185771Y-126380952D01*
X127185771Y-126380952D02*
X127233390Y-126285714D01*
X127233390Y-126285714D02*
X127281009Y-126238095D01*
X127281009Y-126238095D02*
X127376247Y-126190476D01*
X127376247Y-126190476D02*
X127614342Y-126190476D01*
X127614342Y-126190476D02*
X127709580Y-126238095D01*
X127709580Y-126238095D02*
X127757200Y-126285714D01*
X127757200Y-126285714D02*
X127804819Y-126380952D01*
X127804819Y-126380952D02*
X127804819Y-126666666D01*
X127804819Y-126666666D02*
X127757200Y-126761904D01*
X127757200Y-126761904D02*
X127709580Y-126809523D01*
X154557142Y-110797080D02*
X154509523Y-110844700D01*
X154509523Y-110844700D02*
X154366666Y-110892319D01*
X154366666Y-110892319D02*
X154271428Y-110892319D01*
X154271428Y-110892319D02*
X154128571Y-110844700D01*
X154128571Y-110844700D02*
X154033333Y-110749461D01*
X154033333Y-110749461D02*
X153985714Y-110654223D01*
X153985714Y-110654223D02*
X153938095Y-110463747D01*
X153938095Y-110463747D02*
X153938095Y-110320890D01*
X153938095Y-110320890D02*
X153985714Y-110130414D01*
X153985714Y-110130414D02*
X154033333Y-110035176D01*
X154033333Y-110035176D02*
X154128571Y-109939938D01*
X154128571Y-109939938D02*
X154271428Y-109892319D01*
X154271428Y-109892319D02*
X154366666Y-109892319D01*
X154366666Y-109892319D02*
X154509523Y-109939938D01*
X154509523Y-109939938D02*
X154557142Y-109987557D01*
X155509523Y-110892319D02*
X154938095Y-110892319D01*
X155223809Y-110892319D02*
X155223809Y-109892319D01*
X155223809Y-109892319D02*
X155128571Y-110035176D01*
X155128571Y-110035176D02*
X155033333Y-110130414D01*
X155033333Y-110130414D02*
X154938095Y-110178033D01*
X155842857Y-109892319D02*
X156461904Y-109892319D01*
X156461904Y-109892319D02*
X156128571Y-110273271D01*
X156128571Y-110273271D02*
X156271428Y-110273271D01*
X156271428Y-110273271D02*
X156366666Y-110320890D01*
X156366666Y-110320890D02*
X156414285Y-110368509D01*
X156414285Y-110368509D02*
X156461904Y-110463747D01*
X156461904Y-110463747D02*
X156461904Y-110701842D01*
X156461904Y-110701842D02*
X156414285Y-110797080D01*
X156414285Y-110797080D02*
X156366666Y-110844700D01*
X156366666Y-110844700D02*
X156271428Y-110892319D01*
X156271428Y-110892319D02*
X155985714Y-110892319D01*
X155985714Y-110892319D02*
X155890476Y-110844700D01*
X155890476Y-110844700D02*
X155842857Y-110797080D01*
D13*
%TO.C,U1*%
X131400000Y-90900000D02*
X129850000Y-90900000D01*
X129850000Y-89100000D02*
X131150000Y-89100000D01*
%TO.C,D7*%
X176960000Y-68890000D02*
X175040000Y-68890000D01*
X175040000Y-68890000D02*
X175040000Y-71750000D01*
X176960000Y-71750000D02*
X176960000Y-68890000D01*
%TO.C,D1*%
X160040000Y-84360000D02*
X161960000Y-84360000D01*
X161960000Y-84360000D02*
X161960000Y-81500000D01*
X160040000Y-81500000D02*
X160040000Y-84360000D01*
%TO.C,C4*%
X122238748Y-91515000D02*
X122761252Y-91515000D01*
X122238748Y-92985000D02*
X122761252Y-92985000D01*
%TO.C,D6*%
X172960000Y-68890000D02*
X171040000Y-68890000D01*
X171040000Y-68890000D02*
X171040000Y-71750000D01*
X172960000Y-71750000D02*
X172960000Y-68890000D01*
%TO.C,C2*%
X132685000Y-92988748D02*
X132685000Y-93511252D01*
X131215000Y-92988748D02*
X131215000Y-93511252D01*
%TO.C,R24*%
X121265000Y-113477064D02*
X121265000Y-113022936D01*
X122735000Y-113477064D02*
X122735000Y-113022936D01*
%TO.C,D13*%
X140420000Y-128860000D02*
X142120000Y-128860000D01*
X140420000Y-128860000D02*
X140420000Y-126200000D01*
X142120000Y-128860000D02*
X142120000Y-126200000D01*
D12*
%TO.C,J2*%
X129000000Y-121400000D02*
X121200000Y-121400000D01*
X129000000Y-120800000D02*
X129000000Y-121400000D01*
X129000000Y-117900000D02*
X129000000Y-117300000D01*
X129000000Y-117300000D02*
X121200000Y-117300000D01*
X127200000Y-117000000D02*
X126200000Y-117000000D01*
X121200000Y-121400000D02*
X121200000Y-120800000D01*
X121200000Y-117300000D02*
X121200000Y-117900000D01*
D13*
%TO.C,D9*%
X120860000Y-112960000D02*
X120860000Y-111040000D01*
X120860000Y-111040000D02*
X118000000Y-111040000D01*
X118000000Y-112960000D02*
X120860000Y-112960000D01*
%TO.C,U6*%
X123440000Y-113500000D02*
X123440000Y-115300000D01*
X123440000Y-113500000D02*
X123440000Y-112700000D01*
X126560000Y-113500000D02*
X126560000Y-114300000D01*
X126560000Y-113500000D02*
X126560000Y-112700000D01*
%TO.C,R7*%
X126272936Y-96015000D02*
X126727064Y-96015000D01*
X126272936Y-97485000D02*
X126727064Y-97485000D01*
%TO.C,R27*%
X130772936Y-109265000D02*
X131227064Y-109265000D01*
X130772936Y-110735000D02*
X131227064Y-110735000D01*
%TO.C,C7*%
X125961252Y-85985000D02*
X125438748Y-85985000D01*
X125961252Y-84515000D02*
X125438748Y-84515000D01*
%TO.C,R19*%
X147485000Y-89617936D02*
X147485000Y-90072064D01*
X146015000Y-89617936D02*
X146015000Y-90072064D01*
%TO.C,R5*%
X126727064Y-95235000D02*
X126272936Y-95235000D01*
X126727064Y-93765000D02*
X126272936Y-93765000D01*
D12*
%TO.C,U5*%
X162600000Y-105100000D02*
X162600000Y-105500000D01*
X159400000Y-105100000D02*
X159800000Y-105100000D01*
X159400000Y-105100000D02*
X159400000Y-105500000D01*
X162600000Y-108300000D02*
X162600000Y-107900000D01*
X162600000Y-108300000D02*
X162200000Y-108300000D01*
X159400000Y-108300000D02*
X159400000Y-107900000D01*
X159400000Y-108300000D02*
X159800000Y-108300000D01*
D13*
%TO.C,U2*%
X152400000Y-112150000D02*
X152400000Y-112500000D01*
X152400000Y-112150000D02*
X168600000Y-112150000D01*
X152400000Y-112500000D02*
X151500000Y-112500000D01*
X152400000Y-127950000D02*
X152400000Y-128350000D01*
X152400000Y-128350000D02*
X168600000Y-128350000D01*
X168600000Y-112150000D02*
X168600000Y-112550000D01*
X168600000Y-128350000D02*
X168600000Y-127950000D01*
%TO.C,D11*%
X123420000Y-128860000D02*
X125120000Y-128860000D01*
X123420000Y-128860000D02*
X123420000Y-126200000D01*
X125120000Y-128860000D02*
X125120000Y-126200000D01*
%TO.C,C8*%
X125961252Y-83735000D02*
X125438748Y-83735000D01*
X125961252Y-82265000D02*
X125438748Y-82265000D01*
%TO.C,Q2*%
X119710000Y-127000000D02*
X119710000Y-128675000D01*
X119710000Y-127000000D02*
X119710000Y-126350000D01*
X122830000Y-127000000D02*
X122830000Y-127650000D01*
X122830000Y-127000000D02*
X122830000Y-126350000D01*
%TO.C,C15*%
X154565000Y-104098752D02*
X154565000Y-103576248D01*
X156035000Y-104098752D02*
X156035000Y-103576248D01*
%TO.C,J1*%
X143300000Y-93600000D02*
X143300000Y-90750000D01*
X143060000Y-93360000D02*
X143060000Y-83540000D01*
X143060000Y-83540000D02*
X142060000Y-83540000D01*
X142060000Y-83540000D02*
X142060000Y-82140000D01*
X142060000Y-82140000D02*
X140250000Y-82140000D01*
X140450000Y-93600000D02*
X143300000Y-93600000D01*
X140250000Y-93360000D02*
X143060000Y-93360000D01*
X140250000Y-93360000D02*
X137440000Y-93360000D01*
X138440000Y-83540000D02*
X138440000Y-82140000D01*
X138440000Y-82140000D02*
X140250000Y-82140000D01*
X137440000Y-93360000D02*
X137440000Y-83540000D01*
X137440000Y-83540000D02*
X138440000Y-83540000D01*
%TO.C,J5*%
X109890000Y-68640000D02*
X109890000Y-69890000D01*
X110190000Y-68940000D02*
X110190000Y-73660000D01*
X110190000Y-70250000D02*
X110800000Y-70250000D01*
X110190000Y-71550000D02*
X110800000Y-71550000D01*
X110190000Y-73660000D02*
X128310000Y-73660000D01*
X110800000Y-69550000D02*
X110800000Y-73050000D01*
X110800000Y-73050000D02*
X127700000Y-73050000D01*
X111140000Y-68640000D02*
X109890000Y-68640000D01*
X111650000Y-68740000D02*
X111650000Y-68940000D01*
X111950000Y-68740000D02*
X111650000Y-68740000D01*
X111950000Y-68840000D02*
X111650000Y-68840000D01*
X111950000Y-68940000D02*
X111950000Y-68740000D01*
X112750000Y-68940000D02*
X112750000Y-69550000D01*
X112750000Y-69550000D02*
X110800000Y-69550000D01*
X113150000Y-72550000D02*
X113350000Y-72550000D01*
X113150000Y-73050000D02*
X113150000Y-72550000D01*
X113250000Y-73050000D02*
X113250000Y-72550000D01*
X113350000Y-72550000D02*
X113350000Y-73050000D01*
X115150000Y-72550000D02*
X115350000Y-72550000D01*
X115150000Y-73050000D02*
X115150000Y-72550000D01*
X115250000Y-73050000D02*
X115250000Y-72550000D01*
X115350000Y-72550000D02*
X115350000Y-73050000D01*
X117150000Y-72550000D02*
X117350000Y-72550000D01*
X117150000Y-73050000D02*
X117150000Y-72550000D01*
X117250000Y-73050000D02*
X117250000Y-72550000D01*
X117350000Y-72550000D02*
X117350000Y-73050000D01*
X119150000Y-72550000D02*
X119350000Y-72550000D01*
X119150000Y-73050000D02*
X119150000Y-72550000D01*
X119250000Y-73050000D02*
X119250000Y-72550000D01*
X119350000Y-72550000D02*
X119350000Y-73050000D01*
X121150000Y-72550000D02*
X121350000Y-72550000D01*
X121150000Y-73050000D02*
X121150000Y-72550000D01*
X121250000Y-73050000D02*
X121250000Y-72550000D01*
X121350000Y-72550000D02*
X121350000Y-73050000D01*
X123150000Y-72550000D02*
X123350000Y-72550000D01*
X123150000Y-73050000D02*
X123150000Y-72550000D01*
X123250000Y-73050000D02*
X123250000Y-72550000D01*
X123350000Y-72550000D02*
X123350000Y-73050000D01*
X125150000Y-72550000D02*
X125350000Y-72550000D01*
X125150000Y-73050000D02*
X125150000Y-72550000D01*
X125250000Y-73050000D02*
X125250000Y-72550000D01*
X125350000Y-72550000D02*
X125350000Y-73050000D01*
X125750000Y-69550000D02*
X125750000Y-68940000D01*
X127700000Y-69550000D02*
X125750000Y-69550000D01*
X127700000Y-73050000D02*
X127700000Y-69550000D01*
X128310000Y-68940000D02*
X110190000Y-68940000D01*
X128310000Y-70250000D02*
X127700000Y-70250000D01*
X128310000Y-71550000D02*
X127700000Y-71550000D01*
X128310000Y-73660000D02*
X128310000Y-68940000D01*
%TO.C,C5*%
X125961252Y-90485000D02*
X125438748Y-90485000D01*
X125961252Y-89015000D02*
X125438748Y-89015000D01*
%TO.C,R12*%
X143985000Y-96617936D02*
X143985000Y-97072064D01*
X142515000Y-96617936D02*
X142515000Y-97072064D01*
%TO.C,R14*%
X166977064Y-96330000D02*
X166522936Y-96330000D01*
X166977064Y-94860000D02*
X166522936Y-94860000D01*
%TO.C,R4*%
X126727064Y-92985000D02*
X126272936Y-92985000D01*
X126727064Y-91515000D02*
X126272936Y-91515000D01*
%TO.C,R6*%
X122272936Y-96015000D02*
X122727064Y-96015000D01*
X122272936Y-97485000D02*
X122727064Y-97485000D01*
%TO.C,U7*%
X150590000Y-104137500D02*
X150590000Y-105937500D01*
X153810000Y-105937500D02*
X153810000Y-103487500D01*
%TO.C,M1*%
X163800000Y-97850000D02*
X163800000Y-95000000D01*
X163560000Y-97610000D02*
X163560000Y-87790000D01*
X163560000Y-87790000D02*
X162560000Y-87790000D01*
X162560000Y-87790000D02*
X162560000Y-86390000D01*
X162560000Y-86390000D02*
X160750000Y-86390000D01*
X160950000Y-97850000D02*
X163800000Y-97850000D01*
X160750000Y-97610000D02*
X163560000Y-97610000D01*
X160750000Y-97610000D02*
X157940000Y-97610000D01*
X158940000Y-87790000D02*
X158940000Y-86390000D01*
X158940000Y-86390000D02*
X160750000Y-86390000D01*
X157940000Y-97610000D02*
X157940000Y-87790000D01*
X157940000Y-87790000D02*
X158940000Y-87790000D01*
%TO.C,R15*%
X166522936Y-91360000D02*
X166977064Y-91360000D01*
X166522936Y-92830000D02*
X166977064Y-92830000D01*
%TO.C,R16*%
X144515000Y-97072064D02*
X144515000Y-96617936D01*
X145985000Y-97072064D02*
X145985000Y-96617936D01*
%TO.C,CN10*%
X171630000Y-74950000D02*
X172960000Y-74950000D01*
X171630000Y-76280000D02*
X171630000Y-74950000D01*
X171630000Y-77550000D02*
X171630000Y-123330000D01*
X171630000Y-77550000D02*
X174230000Y-77550000D01*
X171630000Y-123330000D02*
X176830000Y-123330000D01*
X174230000Y-74950000D02*
X176830000Y-74950000D01*
X174230000Y-77550000D02*
X174230000Y-74950000D01*
X176830000Y-74950000D02*
X176830000Y-123330000D01*
%TO.C,M2*%
X112520000Y-137960000D02*
X116520000Y-137960000D01*
X111490000Y-137670000D02*
X117510000Y-137670000D01*
X117510000Y-137670000D02*
X117510000Y-129830000D01*
X111490000Y-137090000D02*
X112090000Y-137090000D01*
X112090000Y-137090000D02*
X112090000Y-135490000D01*
X116510000Y-136290000D02*
X115980000Y-136040000D01*
X116510000Y-136290000D02*
X116510000Y-131210000D01*
X117510000Y-136290000D02*
X116510000Y-136290000D01*
X115980000Y-136040000D02*
X115980000Y-131460000D01*
X117510000Y-136040000D02*
X116510000Y-136040000D01*
X112090000Y-135490000D02*
X111490000Y-135490000D01*
X111490000Y-134550000D02*
X112090000Y-134550000D01*
X112090000Y-134550000D02*
X112090000Y-132950000D01*
X112090000Y-132950000D02*
X111490000Y-132950000D01*
X111490000Y-132010000D02*
X112090000Y-132010000D01*
X112090000Y-132010000D02*
X112090000Y-130410000D01*
X115980000Y-131460000D02*
X116510000Y-131210000D01*
X117510000Y-131460000D02*
X116510000Y-131460000D01*
X116510000Y-131210000D02*
X117510000Y-131210000D01*
X112090000Y-130410000D02*
X111490000Y-130410000D01*
X111490000Y-129830000D02*
X111490000Y-137670000D01*
X117510000Y-129830000D02*
X111490000Y-129830000D01*
%TO.C,C1*%
X134935000Y-92988748D02*
X134935000Y-93511252D01*
X133465000Y-92988748D02*
X133465000Y-93511252D01*
%TO.C,R26*%
X130772936Y-107015000D02*
X131227064Y-107015000D01*
X130772936Y-108485000D02*
X131227064Y-108485000D01*
%TO.C,Q4*%
X136710000Y-127000000D02*
X136710000Y-128675000D01*
X136710000Y-127000000D02*
X136710000Y-126350000D01*
X139830000Y-127000000D02*
X139830000Y-127650000D01*
X139830000Y-127000000D02*
X139830000Y-126350000D01*
%TO.C,AE1*%
X169660000Y-129890000D02*
X166340000Y-129890000D01*
X171610000Y-131840000D02*
X171610000Y-135160000D01*
X164390000Y-131840000D02*
X164390000Y-135160000D01*
X169660000Y-137110000D02*
X166340000Y-137110000D01*
%TO.C,C10*%
X138265000Y-97106252D02*
X138265000Y-96583748D01*
X139735000Y-97106252D02*
X139735000Y-96583748D01*
%TO.C,R18*%
X146515000Y-97072064D02*
X146515000Y-96617936D01*
X147985000Y-97072064D02*
X147985000Y-96617936D01*
%TO.C,D5*%
X168960000Y-68890000D02*
X167040000Y-68890000D01*
X167040000Y-68890000D02*
X167040000Y-71750000D01*
X168960000Y-71750000D02*
X168960000Y-68890000D01*
%TO.C,C3*%
X130435000Y-92988748D02*
X130435000Y-93511252D01*
X128965000Y-92988748D02*
X128965000Y-93511252D01*
%TO.C,CN7*%
X110670000Y-74950000D02*
X112000000Y-74950000D01*
X110670000Y-76280000D02*
X110670000Y-74950000D01*
X110670000Y-77550000D02*
X110670000Y-123330000D01*
X110670000Y-77550000D02*
X113270000Y-77550000D01*
X110670000Y-123330000D02*
X115870000Y-123330000D01*
X113270000Y-74950000D02*
X115870000Y-74950000D01*
X113270000Y-77550000D02*
X113270000Y-74950000D01*
X115870000Y-74950000D02*
X115870000Y-123330000D01*
%TO.C,C14*%
X160788748Y-109565000D02*
X161311252Y-109565000D01*
X160788748Y-111035000D02*
X161311252Y-111035000D01*
%TO.C,M4*%
X129520000Y-137960000D02*
X133520000Y-137960000D01*
X128490000Y-137670000D02*
X134510000Y-137670000D01*
X134510000Y-137670000D02*
X134510000Y-129830000D01*
X128490000Y-137090000D02*
X129090000Y-137090000D01*
X129090000Y-137090000D02*
X129090000Y-135490000D01*
X133510000Y-136290000D02*
X132980000Y-136040000D01*
X133510000Y-136290000D02*
X133510000Y-131210000D01*
X134510000Y-136290000D02*
X133510000Y-136290000D01*
X132980000Y-136040000D02*
X132980000Y-131460000D01*
X134510000Y-136040000D02*
X133510000Y-136040000D01*
X129090000Y-135490000D02*
X128490000Y-135490000D01*
X128490000Y-134550000D02*
X129090000Y-134550000D01*
X129090000Y-134550000D02*
X129090000Y-132950000D01*
X129090000Y-132950000D02*
X128490000Y-132950000D01*
X128490000Y-132010000D02*
X129090000Y-132010000D01*
X129090000Y-132010000D02*
X129090000Y-130410000D01*
X132980000Y-131460000D02*
X133510000Y-131210000D01*
X134510000Y-131460000D02*
X133510000Y-131460000D01*
X133510000Y-131210000D02*
X134510000Y-131210000D01*
X129090000Y-130410000D02*
X128490000Y-130410000D01*
X128490000Y-129830000D02*
X128490000Y-137670000D01*
X134510000Y-129830000D02*
X128490000Y-129830000D01*
%TO.C,J4*%
X159640000Y-77610000D02*
X160890000Y-77610000D01*
X159940000Y-77310000D02*
X164660000Y-77310000D01*
X161250000Y-77310000D02*
X161250000Y-76700000D01*
X162550000Y-77310000D02*
X162550000Y-76700000D01*
X164660000Y-77310000D02*
X164660000Y-69190000D01*
X160550000Y-76700000D02*
X164050000Y-76700000D01*
X164050000Y-76700000D02*
X164050000Y-69800000D01*
X159640000Y-76360000D02*
X159640000Y-77610000D01*
X159740000Y-75850000D02*
X159940000Y-75850000D01*
X159740000Y-75550000D02*
X159740000Y-75850000D01*
X159840000Y-75550000D02*
X159840000Y-75850000D01*
X159940000Y-75550000D02*
X159740000Y-75550000D01*
X159940000Y-74750000D02*
X160550000Y-74750000D01*
X160550000Y-74750000D02*
X160550000Y-76700000D01*
X163550000Y-74350000D02*
X163550000Y-74150000D01*
X164050000Y-74350000D02*
X163550000Y-74350000D01*
X164050000Y-74250000D02*
X163550000Y-74250000D01*
X163550000Y-74150000D02*
X164050000Y-74150000D01*
X163550000Y-72350000D02*
X163550000Y-72150000D01*
X164050000Y-72350000D02*
X163550000Y-72350000D01*
X164050000Y-72250000D02*
X163550000Y-72250000D01*
X163550000Y-72150000D02*
X164050000Y-72150000D01*
X160550000Y-71750000D02*
X159940000Y-71750000D01*
X160550000Y-69800000D02*
X160550000Y-71750000D01*
X164050000Y-69800000D02*
X160550000Y-69800000D01*
X159940000Y-69190000D02*
X159940000Y-77310000D01*
X161250000Y-69190000D02*
X161250000Y-69800000D01*
X162550000Y-69190000D02*
X162550000Y-69800000D01*
X164660000Y-69190000D02*
X159940000Y-69190000D01*
%TO.C,U4*%
X152750000Y-98905000D02*
X156250000Y-98905000D01*
X152750000Y-98905000D02*
X150800000Y-98905000D01*
X152750000Y-88785000D02*
X154700000Y-88785000D01*
X152750000Y-88785000D02*
X150800000Y-88785000D01*
%TO.C,R23*%
X127265000Y-113727064D02*
X127265000Y-113272936D01*
X128735000Y-113727064D02*
X128735000Y-113272936D01*
%TO.C,Q1*%
X111190000Y-127000000D02*
X111190000Y-128675000D01*
X111190000Y-127000000D02*
X111190000Y-126350000D01*
X114310000Y-127000000D02*
X114310000Y-127650000D01*
X114310000Y-127000000D02*
X114310000Y-126350000D01*
%TO.C,D3*%
X165540000Y-84360000D02*
X167460000Y-84360000D01*
X167460000Y-84360000D02*
X167460000Y-81500000D01*
X165540000Y-81500000D02*
X165540000Y-84360000D01*
%TO.C,M5*%
X138040000Y-137960000D02*
X142040000Y-137960000D01*
X137010000Y-137670000D02*
X143030000Y-137670000D01*
X143030000Y-137670000D02*
X143030000Y-129830000D01*
X137010000Y-137090000D02*
X137610000Y-137090000D01*
X137610000Y-137090000D02*
X137610000Y-135490000D01*
X142030000Y-136290000D02*
X141500000Y-136040000D01*
X142030000Y-136290000D02*
X142030000Y-131210000D01*
X143030000Y-136290000D02*
X142030000Y-136290000D01*
X141500000Y-136040000D02*
X141500000Y-131460000D01*
X143030000Y-136040000D02*
X142030000Y-136040000D01*
X137610000Y-135490000D02*
X137010000Y-135490000D01*
X137010000Y-134550000D02*
X137610000Y-134550000D01*
X137610000Y-134550000D02*
X137610000Y-132950000D01*
X137610000Y-132950000D02*
X137010000Y-132950000D01*
X137010000Y-132010000D02*
X137610000Y-132010000D01*
X137610000Y-132010000D02*
X137610000Y-130410000D01*
X141500000Y-131460000D02*
X142030000Y-131210000D01*
X143030000Y-131460000D02*
X142030000Y-131460000D01*
X142030000Y-131210000D02*
X143030000Y-131210000D01*
X137610000Y-130410000D02*
X137010000Y-130410000D01*
X137010000Y-129830000D02*
X137010000Y-137670000D01*
X143030000Y-129830000D02*
X137010000Y-129830000D01*
D12*
%TO.C,U3*%
X121725000Y-105525000D02*
X127000000Y-105525000D01*
X123000000Y-110925000D02*
X127000000Y-110925000D01*
D13*
%TO.C,C16*%
X152361252Y-109372500D02*
X151838748Y-109372500D01*
X152361252Y-107902500D02*
X151838748Y-107902500D01*
%TO.C,D10*%
X114900000Y-128860000D02*
X116600000Y-128860000D01*
X114900000Y-128860000D02*
X114900000Y-126200000D01*
X116600000Y-128860000D02*
X116600000Y-126200000D01*
%TO.C,R13*%
X140515000Y-97072064D02*
X140515000Y-96617936D01*
X141985000Y-97072064D02*
X141985000Y-96617936D01*
%TO.C,D4*%
X168290000Y-84360000D02*
X170210000Y-84360000D01*
X170210000Y-84360000D02*
X170210000Y-81500000D01*
X168290000Y-81500000D02*
X168290000Y-84360000D01*
%TO.C,C12*%
X146488748Y-92360000D02*
X147011252Y-92360000D01*
X146488748Y-93830000D02*
X147011252Y-93830000D01*
%TO.C,C9*%
X125961252Y-81485000D02*
X125438748Y-81485000D01*
X125961252Y-80015000D02*
X125438748Y-80015000D01*
%TO.C,M3*%
X121040000Y-137960000D02*
X125040000Y-137960000D01*
X120010000Y-137670000D02*
X126030000Y-137670000D01*
X126030000Y-137670000D02*
X126030000Y-129830000D01*
X120010000Y-137090000D02*
X120610000Y-137090000D01*
X120610000Y-137090000D02*
X120610000Y-135490000D01*
X125030000Y-136290000D02*
X124500000Y-136040000D01*
X125030000Y-136290000D02*
X125030000Y-131210000D01*
X126030000Y-136290000D02*
X125030000Y-136290000D01*
X124500000Y-136040000D02*
X124500000Y-131460000D01*
X126030000Y-136040000D02*
X125030000Y-136040000D01*
X120610000Y-135490000D02*
X120010000Y-135490000D01*
X120010000Y-134550000D02*
X120610000Y-134550000D01*
X120610000Y-134550000D02*
X120610000Y-132950000D01*
X120610000Y-132950000D02*
X120010000Y-132950000D01*
X120010000Y-132010000D02*
X120610000Y-132010000D01*
X120610000Y-132010000D02*
X120610000Y-130410000D01*
X124500000Y-131460000D02*
X125030000Y-131210000D01*
X126030000Y-131460000D02*
X125030000Y-131460000D01*
X125030000Y-131210000D02*
X126030000Y-131210000D01*
X120610000Y-130410000D02*
X120010000Y-130410000D01*
X120010000Y-129830000D02*
X120010000Y-137670000D01*
X126030000Y-129830000D02*
X120010000Y-129830000D01*
%TO.C,D2*%
X162790000Y-84360000D02*
X164710000Y-84360000D01*
X164710000Y-84360000D02*
X164710000Y-81500000D01*
X162790000Y-81500000D02*
X162790000Y-84360000D01*
%TO.C,C11*%
X148240000Y-80399437D02*
X148240000Y-82285000D01*
X148240000Y-80399437D02*
X149304437Y-79335000D01*
X148240000Y-86790563D02*
X148240000Y-84905000D01*
X148240000Y-86790563D02*
X149304437Y-87855000D01*
X149304437Y-79335000D02*
X156760000Y-79335000D01*
X149304437Y-87855000D02*
X156760000Y-87855000D01*
X156760000Y-79335000D02*
X156760000Y-82285000D01*
X156760000Y-87855000D02*
X156760000Y-84905000D01*
%TO.C,L1*%
X127975000Y-87275000D02*
X127975000Y-80725000D01*
X129235500Y-87275000D02*
X127975000Y-87275000D01*
X133264500Y-87275000D02*
X134525000Y-87275000D01*
X134525000Y-87275000D02*
X134525000Y-80725000D01*
X127975000Y-80725000D02*
X129235500Y-80725000D01*
X134525000Y-80725000D02*
X133264500Y-80725000D01*
%TO.C,R17*%
X144015000Y-90072064D02*
X144015000Y-89617936D01*
X145485000Y-90072064D02*
X145485000Y-89617936D01*
%TO.C,D8*%
X132860000Y-113210000D02*
X132860000Y-111290000D01*
X132860000Y-111290000D02*
X130000000Y-111290000D01*
X130000000Y-113210000D02*
X132860000Y-113210000D01*
%TO.C,R28*%
X118772936Y-109015000D02*
X119227064Y-109015000D01*
X118772936Y-110485000D02*
X119227064Y-110485000D01*
%TO.C,R25*%
X131227064Y-106235000D02*
X130772936Y-106235000D01*
X131227064Y-104765000D02*
X130772936Y-104765000D01*
%TO.C,J3*%
X158460000Y-135500000D02*
X158460000Y-131500000D01*
X158170000Y-136530000D02*
X158170000Y-130510000D01*
X158170000Y-130510000D02*
X150330000Y-130510000D01*
X157590000Y-136530000D02*
X157590000Y-135930000D01*
X157590000Y-135930000D02*
X155990000Y-135930000D01*
X156790000Y-131510000D02*
X156540000Y-132040000D01*
X156790000Y-131510000D02*
X151710000Y-131510000D01*
X156790000Y-130510000D02*
X156790000Y-131510000D01*
X156540000Y-132040000D02*
X151960000Y-132040000D01*
X156540000Y-130510000D02*
X156540000Y-131510000D01*
X155990000Y-135930000D02*
X155990000Y-136530000D01*
X155050000Y-136530000D02*
X155050000Y-135930000D01*
X155050000Y-135930000D02*
X153450000Y-135930000D01*
X153450000Y-135930000D02*
X153450000Y-136530000D01*
X152510000Y-136530000D02*
X152510000Y-135930000D01*
X152510000Y-135930000D02*
X150910000Y-135930000D01*
X151960000Y-132040000D02*
X151710000Y-131510000D01*
X151960000Y-130510000D02*
X151960000Y-131510000D01*
X151710000Y-131510000D02*
X151710000Y-130510000D01*
X150910000Y-135930000D02*
X150910000Y-136530000D01*
X150330000Y-136530000D02*
X158170000Y-136530000D01*
X150330000Y-130510000D02*
X150330000Y-136530000D01*
%TO.C,C6*%
X125961252Y-88235000D02*
X125438748Y-88235000D01*
X125961252Y-86765000D02*
X125438748Y-86765000D01*
%TO.C,J6*%
X137650000Y-123100000D02*
X140500000Y-123100000D01*
X137890000Y-122860000D02*
X147710000Y-122860000D01*
X147710000Y-122860000D02*
X147710000Y-115560000D01*
X137650000Y-120250000D02*
X137650000Y-123100000D01*
X147710000Y-115560000D02*
X149110000Y-115560000D01*
X149110000Y-115560000D02*
X149110000Y-113750000D01*
X137890000Y-113750000D02*
X137890000Y-122860000D01*
X137890000Y-113750000D02*
X137890000Y-104640000D01*
X147710000Y-111940000D02*
X149110000Y-111940000D01*
X149110000Y-111940000D02*
X149110000Y-113750000D01*
X137890000Y-104640000D02*
X147710000Y-104640000D01*
X147710000Y-104640000D02*
X147710000Y-111940000D01*
%TO.C,D12*%
X131900000Y-128860000D02*
X133600000Y-128860000D01*
X131900000Y-128860000D02*
X131900000Y-126200000D01*
X133600000Y-128860000D02*
X133600000Y-126200000D01*
%TO.C,Q3*%
X128190000Y-127000000D02*
X128190000Y-128675000D01*
X128190000Y-127000000D02*
X128190000Y-126350000D01*
X131310000Y-127000000D02*
X131310000Y-127650000D01*
X131310000Y-127000000D02*
X131310000Y-126350000D01*
%TO.C,C13*%
X156035000Y-107576248D02*
X156035000Y-108098752D01*
X154565000Y-107576248D02*
X154565000Y-108098752D01*
%TD*%
%LPC*%
D14*
%TO.C,U1*%
X131250000Y-90500000D03*
X131250000Y-90000000D03*
X131250000Y-89500000D03*
X129750000Y-89500000D03*
X129750000Y-90000000D03*
X129750000Y-90500000D03*
%TD*%
D15*
%TO.C,D7*%
X176000000Y-69725000D03*
X176000000Y-71775000D03*
%TD*%
D16*
%TO.C,D1*%
X161000000Y-83525000D03*
X161000000Y-81475000D03*
%TD*%
D17*
%TO.C,C4*%
X121462500Y-92250000D03*
X123537500Y-92250000D03*
%TD*%
D15*
%TO.C,D6*%
X172000000Y-69725000D03*
X172000000Y-71775000D03*
%TD*%
D18*
%TO.C,C2*%
X131950000Y-92212500D03*
X131950000Y-94287500D03*
%TD*%
D19*
%TO.C,R24*%
X122000000Y-114250000D03*
X122000000Y-112250000D03*
%TD*%
D20*
%TO.C,D13*%
X141270000Y-128350000D03*
X141270000Y-126150000D03*
%TD*%
D21*
%TO.C,J2*%
X126700000Y-118500000D03*
D22*
X125900000Y-120400000D03*
X125100000Y-118500000D03*
X124300000Y-120400000D03*
X123500000Y-118500000D03*
D23*
X129350000Y-119440000D03*
X120850000Y-119440000D03*
%TD*%
D24*
%TO.C,D9*%
X120025000Y-112000000D03*
X117975000Y-112000000D03*
%TD*%
D25*
%TO.C,U6*%
X124050000Y-114637500D03*
X125000000Y-114637500D03*
X125950000Y-114637500D03*
X125950000Y-112362500D03*
X125000000Y-112362500D03*
X124050000Y-112362500D03*
%TD*%
D26*
%TO.C,R7*%
X125500000Y-96750000D03*
X127500000Y-96750000D03*
%TD*%
%TO.C,R27*%
X130000000Y-110000000D03*
X132000000Y-110000000D03*
%TD*%
D27*
%TO.C,C7*%
X126737500Y-85250000D03*
X124662500Y-85250000D03*
%TD*%
D28*
%TO.C,R19*%
X146750000Y-88845000D03*
X146750000Y-90845000D03*
%TD*%
D29*
%TO.C,R5*%
X127500000Y-94500000D03*
X125500000Y-94500000D03*
%TD*%
D30*
%TO.C,U5*%
X162000000Y-105200000D03*
X161600000Y-105200000D03*
X161200000Y-105200000D03*
X160800000Y-105200000D03*
X160400000Y-105200000D03*
X160000000Y-105200000D03*
D31*
X159500000Y-105700000D03*
X159500000Y-106100000D03*
X159500000Y-106500000D03*
X159500000Y-106900000D03*
X159500000Y-107300000D03*
X159500000Y-107700000D03*
D30*
X160000000Y-108200000D03*
X160400000Y-108200000D03*
X160800000Y-108200000D03*
X161200000Y-108200000D03*
X161600000Y-108200000D03*
X162000000Y-108200000D03*
D31*
X162500000Y-107700000D03*
X162500000Y-107300000D03*
X162500000Y-106900000D03*
X162500000Y-106500000D03*
X162500000Y-106100000D03*
X162500000Y-105700000D03*
%TD*%
D32*
%TO.C,U2*%
X152975000Y-113250000D03*
X152975000Y-115250000D03*
X152975000Y-117250000D03*
X152975000Y-119250000D03*
X152975000Y-121250000D03*
X152975000Y-123250000D03*
X152975000Y-125250000D03*
X152975000Y-127250000D03*
X168025000Y-127250000D03*
X168025000Y-125250000D03*
X168025000Y-123250000D03*
X168025000Y-121250000D03*
X168025000Y-119250000D03*
X168025000Y-117250000D03*
X168025000Y-115250000D03*
X168025000Y-113250000D03*
%TD*%
D20*
%TO.C,D11*%
X124270000Y-128350000D03*
X124270000Y-126150000D03*
%TD*%
D27*
%TO.C,C8*%
X126737500Y-83000000D03*
X124662500Y-83000000D03*
%TD*%
D33*
%TO.C,Q2*%
X120320000Y-127937500D03*
X122220000Y-127937500D03*
X121270000Y-126062500D03*
%TD*%
D34*
%TO.C,C15*%
X155300000Y-104875000D03*
X155300000Y-102800000D03*
%TD*%
D35*
%TO.C,J1*%
X140250000Y-91000000D03*
D36*
X140250000Y-85500000D03*
%TD*%
D37*
%TO.C,J5*%
X112250000Y-70750000D03*
D38*
X114250000Y-70750000D03*
X116250000Y-70750000D03*
X118250000Y-70750000D03*
X120250000Y-70750000D03*
X122250000Y-70750000D03*
X124250000Y-70750000D03*
X126250000Y-70750000D03*
%TD*%
D27*
%TO.C,C5*%
X126737500Y-89750000D03*
X124662500Y-89750000D03*
%TD*%
D28*
%TO.C,R12*%
X143250000Y-95845000D03*
X143250000Y-97845000D03*
%TD*%
D29*
%TO.C,R14*%
X167750000Y-95595000D03*
X165750000Y-95595000D03*
%TD*%
%TO.C,R4*%
X127500000Y-92250000D03*
X125500000Y-92250000D03*
%TD*%
D26*
%TO.C,R6*%
X121500000Y-96750000D03*
X123500000Y-96750000D03*
%TD*%
D39*
%TO.C,U7*%
X153150000Y-103687500D03*
X152200000Y-103687500D03*
X151250000Y-103687500D03*
X151250000Y-106387500D03*
X153150000Y-106387500D03*
%TD*%
D35*
%TO.C,M1*%
X160750000Y-95250000D03*
D36*
X160750000Y-89750000D03*
%TD*%
D26*
%TO.C,R15*%
X165750000Y-92095000D03*
X167750000Y-92095000D03*
%TD*%
D19*
%TO.C,R16*%
X145250000Y-97845000D03*
X145250000Y-95845000D03*
%TD*%
D40*
%TO.C,CN10*%
X172960000Y-76280000D03*
D41*
X175500000Y-76280000D03*
X172960000Y-78820000D03*
X175500000Y-78820000D03*
X172960000Y-81360000D03*
X175500000Y-81360000D03*
X172960000Y-83900000D03*
X175500000Y-83900000D03*
X172960000Y-86440000D03*
X175500000Y-86440000D03*
X172960000Y-88980000D03*
X175500000Y-88980000D03*
X172960000Y-91520000D03*
X175500000Y-91520000D03*
X172960000Y-94060000D03*
X175500000Y-94060000D03*
X172960000Y-96600000D03*
X175500000Y-96600000D03*
X172960000Y-99140000D03*
X175500000Y-99140000D03*
X172960000Y-101680000D03*
X175500000Y-101680000D03*
X172960000Y-104220000D03*
X175500000Y-104220000D03*
X172960000Y-106760000D03*
X175500000Y-106760000D03*
X172960000Y-109300000D03*
X175500000Y-109300000D03*
X172960000Y-111840000D03*
X175500000Y-111840000D03*
X172960000Y-114380000D03*
X175500000Y-114380000D03*
X172960000Y-116920000D03*
X175500000Y-116920000D03*
X172960000Y-119460000D03*
X175500000Y-119460000D03*
X172960000Y-122000000D03*
X175500000Y-122000000D03*
%TD*%
D42*
%TO.C,M2*%
X114520000Y-136290000D03*
D43*
X114520000Y-133750000D03*
X114520000Y-131210000D03*
%TD*%
D18*
%TO.C,C1*%
X134200000Y-92212500D03*
X134200000Y-94287500D03*
%TD*%
D26*
%TO.C,R26*%
X130000000Y-107750000D03*
X132000000Y-107750000D03*
%TD*%
D33*
%TO.C,Q4*%
X137320000Y-127937500D03*
X139220000Y-127937500D03*
X138270000Y-126062500D03*
%TD*%
D44*
%TO.C,AE1*%
X168000000Y-133500000D03*
D45*
X170540000Y-130960000D03*
X165460000Y-130960000D03*
X170540000Y-136040000D03*
X165460000Y-136040000D03*
%TD*%
D34*
%TO.C,C10*%
X139000000Y-97882500D03*
X139000000Y-95807500D03*
%TD*%
D19*
%TO.C,R18*%
X147250000Y-97845000D03*
X147250000Y-95845000D03*
%TD*%
D15*
%TO.C,D5*%
X168000000Y-69725000D03*
X168000000Y-71775000D03*
%TD*%
D18*
%TO.C,C3*%
X129700000Y-92212500D03*
X129700000Y-94287500D03*
%TD*%
D40*
%TO.C,CN7*%
X112000000Y-76280000D03*
D41*
X114540000Y-76280000D03*
X112000000Y-78820000D03*
X114540000Y-78820000D03*
X112000000Y-81360000D03*
X114540000Y-81360000D03*
X112000000Y-83900000D03*
X114540000Y-83900000D03*
X112000000Y-86440000D03*
X114540000Y-86440000D03*
X112000000Y-88980000D03*
X114540000Y-88980000D03*
X112000000Y-91520000D03*
X114540000Y-91520000D03*
X112000000Y-94060000D03*
X114540000Y-94060000D03*
X112000000Y-96600000D03*
X114540000Y-96600000D03*
X112000000Y-99140000D03*
X114540000Y-99140000D03*
X112000000Y-101680000D03*
X114540000Y-101680000D03*
X112000000Y-104220000D03*
X114540000Y-104220000D03*
X112000000Y-106760000D03*
X114540000Y-106760000D03*
X112000000Y-109300000D03*
X114540000Y-109300000D03*
X112000000Y-111840000D03*
X114540000Y-111840000D03*
X112000000Y-114380000D03*
X114540000Y-114380000D03*
X112000000Y-116920000D03*
X114540000Y-116920000D03*
X112000000Y-119460000D03*
X114540000Y-119460000D03*
X112000000Y-122000000D03*
X114540000Y-122000000D03*
%TD*%
D17*
%TO.C,C14*%
X160012500Y-110300000D03*
X162087500Y-110300000D03*
%TD*%
D42*
%TO.C,M4*%
X131520000Y-136290000D03*
D43*
X131520000Y-133750000D03*
X131520000Y-131210000D03*
%TD*%
D46*
%TO.C,J4*%
X161750000Y-75250000D03*
D47*
X161750000Y-73250000D03*
X161750000Y-71250000D03*
%TD*%
D48*
%TO.C,U4*%
X155250000Y-98290000D03*
X155250000Y-97020000D03*
X155250000Y-95750000D03*
X155250000Y-94480000D03*
X155250000Y-93210000D03*
X155250000Y-91940000D03*
X155250000Y-90670000D03*
X155250000Y-89400000D03*
X150250000Y-89400000D03*
X150250000Y-90670000D03*
X150250000Y-91940000D03*
X150250000Y-93210000D03*
X150250000Y-94480000D03*
X150250000Y-95750000D03*
X150250000Y-97020000D03*
X150250000Y-98290000D03*
%TD*%
D19*
%TO.C,R23*%
X128000000Y-114500000D03*
X128000000Y-112500000D03*
%TD*%
D33*
%TO.C,Q1*%
X111800000Y-127937500D03*
X113700000Y-127937500D03*
X112750000Y-126062500D03*
%TD*%
D16*
%TO.C,D3*%
X166500000Y-83525000D03*
X166500000Y-81475000D03*
%TD*%
D42*
%TO.C,M5*%
X140040000Y-136290000D03*
D43*
X140040000Y-133750000D03*
X140040000Y-131210000D03*
%TD*%
D49*
%TO.C,U3*%
X122400000Y-106027500D03*
X122400000Y-106662500D03*
X122400000Y-107297500D03*
X122400000Y-107932500D03*
X122400000Y-108567500D03*
X122400000Y-109202500D03*
X122400000Y-109837500D03*
X122400000Y-110472500D03*
X127600000Y-110472500D03*
X127600000Y-109837500D03*
X127600000Y-109202500D03*
X127600000Y-108567500D03*
X127600000Y-107932500D03*
X127600000Y-107297500D03*
X127600000Y-106662500D03*
X127600000Y-106027500D03*
%TD*%
D27*
%TO.C,C16*%
X153137500Y-108637500D03*
X151062500Y-108637500D03*
%TD*%
D20*
%TO.C,D10*%
X115750000Y-128350000D03*
X115750000Y-126150000D03*
%TD*%
D19*
%TO.C,R13*%
X141250000Y-97845000D03*
X141250000Y-95845000D03*
%TD*%
D16*
%TO.C,D4*%
X169250000Y-83525000D03*
X169250000Y-81475000D03*
%TD*%
D17*
%TO.C,C12*%
X145712500Y-93095000D03*
X147787500Y-93095000D03*
%TD*%
D27*
%TO.C,C9*%
X126737500Y-80750000D03*
X124662500Y-80750000D03*
%TD*%
D42*
%TO.C,M3*%
X123040000Y-136290000D03*
D43*
X123040000Y-133750000D03*
X123040000Y-131210000D03*
%TD*%
D16*
%TO.C,D2*%
X163750000Y-83525000D03*
X163750000Y-81475000D03*
%TD*%
D50*
%TO.C,C11*%
X148900000Y-83595000D03*
X156100000Y-83595000D03*
%TD*%
D51*
%TO.C,L1*%
X131250000Y-86921000D03*
X131250000Y-81079000D03*
%TD*%
D19*
%TO.C,R17*%
X144750000Y-90845000D03*
X144750000Y-88845000D03*
%TD*%
D24*
%TO.C,D8*%
X132025000Y-112250000D03*
X129975000Y-112250000D03*
%TD*%
D26*
%TO.C,R28*%
X118000000Y-109750000D03*
X120000000Y-109750000D03*
%TD*%
D29*
%TO.C,R25*%
X132000000Y-105500000D03*
X130000000Y-105500000D03*
%TD*%
D52*
%TO.C,J3*%
X156790000Y-133500000D03*
D53*
X154250000Y-133500000D03*
X151710000Y-133500000D03*
%TD*%
D27*
%TO.C,C6*%
X126737500Y-87500000D03*
X124662500Y-87500000D03*
%TD*%
D54*
%TO.C,J6*%
X140250000Y-120050000D03*
D55*
X140250000Y-115850000D03*
X140250000Y-111650000D03*
X140250000Y-107450000D03*
X145750000Y-120050000D03*
X145750000Y-115850000D03*
X145750000Y-111650000D03*
X145750000Y-107450000D03*
%TD*%
D20*
%TO.C,D12*%
X132750000Y-128350000D03*
X132750000Y-126150000D03*
%TD*%
D33*
%TO.C,Q3*%
X128800000Y-127937500D03*
X130700000Y-127937500D03*
X129750000Y-126062500D03*
%TD*%
D18*
%TO.C,C13*%
X155300000Y-106800000D03*
X155300000Y-108875000D03*
%TD*%
%LPD*%
M02*
